<svg xmlns="http://www.w3.org/2000/svg" xmlns:xlink="http://www.w3.org/1999/xlink" viewBox="0 0 3095.43 884.41"><defs><style>.a,.aa,.ab,.p,.s,.u,.x{fill:none;}.b{fill:#171818;}.c{fill:#135199;}.d{fill:#f9f9fa;}.e{fill:#89898a;}.f{fill:#cacacb;}.g,.o{fill:#2f2725;}.h{fill:#231815;}.i{fill:#c3c4c5;}.j,.q,.r{fill:#076fb8;}.k{fill:#bdbebe;}.l{clip-path:url(#a);}.m,.w{fill:#f8f8f8;}.n{fill:#053391;}.ab,.o,.p,.q,.r,.s,.u,.w,.x{stroke:#231815;}.aa,.o,.p,.q,.r,.s,.u,.w{stroke-miterlimit:10;}.o,.p,.q{stroke-width:8px;}.t{fill:#b5b6b6;}.u{stroke-width:0.76px;}.v{fill:#fcfcfc;}.w{stroke-width:6px;}.aa,.ab,.x{stroke-linecap:round;}.ab,.x{stroke-linejoin:round;}.x{stroke-width:4px;}.y{opacity:0.75;}.z{fill:#fff;}.aa{stroke:#fff;stroke-width:2.16px;}.ab{stroke-width:3px;}.ac{fill:#040000;}</style><clipPath id="a"><rect class="a" x="1955.2" y="145.98" width="184.25" height="184.25" rx="14.17"/></clipPath></defs><polygon class="b" points="1814.17 786.61 2154.33 788.03 2154.33 559.84 1814.17 559.84 1814.17 786.61"/><polygon class="b" points="453.54 772.44 793.7 786.61 793.7 559.84 453.54 559.84 453.54 772.44"/><path class="c" d="M2857.32,644.88v14.17h-68v92.13L2751,758.27l-14.17,18.42L2494.49,788H2154.33V715.75a155.27,155.27,0,0,0-17-70.87Z"/><path class="d" d="M2857.32,361.42V644.88h-720a155.89,155.89,0,0,0-138.9-85h-28.35a155.91,155.91,0,0,0-138.91,85H776.7a155.89,155.89,0,0,0-138.9-85H609.45a155.91,155.91,0,0,0-138.91,85H28.35V630.71L21.26,489,68,184.25V170.08L63.78,59.53V49.6L78,42.52H2817.64l17,7.08v85l-12.76,7.09,14.17,216.85Z"/><path class="c" d="M776.7,644.88H1831.17a155.27,155.27,0,0,0-17,70.87v70.86H793.7V715.75A155.27,155.27,0,0,0,776.7,644.88Z"/><path class="c" d="M28.35,644.88H470.54a155.27,155.27,0,0,0-17,70.87v56.69H106.3l-14.17-7.09V694.49H28.35Z"/><polygon class="e" points="92.13 694.49 92.13 765.35 0 744.09 0 701.58 28.35 694.49 92.13 694.49"/><polygon class="e" points="2857.32 659.05 2789.29 659.05 2789.29 751.18 2874.33 729.92 2874.33 666.14 2857.32 659.05"/><path class="f" d="M113.39,134.65a35.44,35.44,0,0,1,35.43-35.44H2800.63V92.13H148.82a42.52,42.52,0,0,0-42.52,42.52V758.27h7.09Z"/><rect class="g" x="389.76" y="99.21" width="2347.09" height="12.76"/><rect class="g" x="389.76" y="395.43" width="1792.91" height="8.5"/><rect class="h" x="389.76" y="111.97" width="34.02" height="283.46"/><rect class="h" x="2736.85" y="99.21" width="63.78" height="304.72"/><rect class="h" x="2171.34" y="111.97" width="11.34" height="283.46"/><rect class="i" x="423.78" y="126.14" width="4.25" height="265.04"/><rect class="g" x="2477.48" y="395.43" width="259.37" height="8.5"/><rect class="j" x="2488.82" y="111.97" width="248.03" height="283.46"/><rect class="h" x="2477.48" y="111.97" width="11.34" height="283.46" transform="translate(4966.3 507.4) rotate(-180)"/><rect class="f" x="106.3" y="758.27" width="276.38" height="14.17"/><rect class="f" x="2196.85" y="773.86" width="269.29" height="14.17"/><rect class="h" x="113.39" y="167.24" width="269.29" height="591.02"/><rect class="c" x="119.06" y="644.88" width="130.39" height="113.39"/><rect class="d" x="119.06" y="170.08" width="130.39" height="474.8"/><rect class="j" x="131.89" y="185.75" width="104.72" height="528.5"/><path class="h" d="M235.11,187.25v525.5H133.39V187.25H235.11m3-3H130.39v531.5H238.11V184.25Z"/><rect class="c" x="252.28" y="644.88" width="124.73" height="113.39"/><rect class="d" x="252.28" y="170.08" width="124.73" height="474.8"/><rect class="j" x="265.12" y="185.75" width="99.05" height="528.5"/><path class="h" d="M362.67,187.25v525.5H266.62V187.25h96.05m3-3H263.62v531.5H365.67V184.25Z"/><rect class="h" x="2196.85" y="171.5" width="269.29" height="602.36"/><rect class="c" x="2202.52" y="644.88" width="124.72" height="128.98"/><rect class="d" x="2202.52" y="174.33" width="124.72" height="470.55"/><rect class="j" x="2215.36" y="187.17" width="99.05" height="478.89"/><path class="h" d="M2312.91,188.67V664.56h-96V188.67h96m3-3h-102V667.56h102V185.67Z"/><rect class="c" x="2330.07" y="644.88" width="130.4" height="128.98"/><rect class="d" x="2330.07" y="174.33" width="130.4" height="470.55"/><rect class="j" x="2342.92" y="187.17" width="104.72" height="478.89"/><path class="h" d="M2446.13,188.67V664.56H2344.42V188.67h101.71m3-3H2341.42V667.56h107.71V185.67Z"/><rect class="f" x="2488.82" y="111.97" width="248.03" height="14.17"/><rect class="f" x="2488.82" y="391.18" width="248.03" height="4.25"/><rect class="i" x="2488.82" y="126.14" width="4.25" height="265.04"/><rect class="k" x="2493.07" y="126.14" width="239.53" height="5.67"/><rect class="k" x="2493.07" y="267.87" width="239.53" height="8.5"/><rect class="k" x="2493.07" y="377.01" width="239.53" height="11.34"/><rect class="h" x="2493.07" y="388.35" width="239.53" height="2.83"/><rect class="i" x="2732.6" y="126.14" width="4.25" height="265.04"/><rect class="j" x="423.78" y="111.97" width="1747.56" height="283.46"/><rect class="h" x="1911.97" y="111.97" width="11.34" height="283.46"/><rect class="f" x="1923.31" y="111.97" width="248.03" height="8.5"/><rect class="f" x="1923.31" y="384.09" width="248.03" height="11.34"/><rect class="i" x="1923.31" y="120.47" width="4.25" height="263.62"/><rect class="i" x="2167.09" y="120.47" width="4.25" height="263.62"/><rect class="h" x="1927.56" y="120.47" width="239.53" height="263.62"/><g class="l"><rect class="m" x="1955.2" y="145.98" width="184.25" height="184.25"/><rect class="n" x="1955.2" y="145.98" width="184.25" height="73.7"/></g><rect class="h" x="671.81" y="111.97" width="11.34" height="283.46"/><rect class="f" x="423.78" y="111.97" width="248.03" height="14.17"/><rect class="f" x="423.78" y="391.18" width="248.03" height="4.25"/><rect class="i" x="423.78" y="126.14" width="4.25" height="265.04"/><rect class="k" x="428.03" y="126.14" width="239.53" height="5.67"/><rect class="k" x="428.03" y="267.87" width="239.53" height="8.5"/><rect class="k" x="428.03" y="377.01" width="239.53" height="11.34"/><rect class="h" x="428.03" y="388.35" width="239.53" height="2.83"/><rect class="i" x="667.56" y="126.14" width="4.25" height="265.04"/><rect class="h" x="931.18" y="111.97" width="11.34" height="283.46"/><rect class="f" x="683.15" y="111.97" width="248.03" height="14.17"/><rect class="f" x="683.15" y="391.18" width="248.03" height="4.25"/><rect class="i" x="683.15" y="126.14" width="4.25" height="265.04"/><rect class="k" x="687.4" y="126.14" width="239.53" height="5.67"/><rect class="k" x="687.4" y="267.87" width="239.53" height="8.5"/><rect class="k" x="687.4" y="377.01" width="239.53" height="11.34"/><rect class="h" x="687.4" y="388.35" width="239.53" height="2.83"/><rect class="i" x="926.93" y="126.14" width="4.25" height="265.04"/><rect class="f" x="942.52" y="111.97" width="233.86" height="14.17"/><rect class="f" x="942.52" y="391.18" width="233.86" height="4.25"/><rect class="i" x="942.52" y="126.14" width="4.25" height="265.04"/><rect class="k" x="946.77" y="126.14" width="225.35" height="5.67"/><rect class="k" x="946.77" y="267.87" width="225.35" height="8.5"/><rect class="k" x="946.77" y="377.01" width="225.35" height="11.34"/><rect class="h" x="946.77" y="388.35" width="225.35" height="2.83"/><rect class="i" x="1172.13" y="126.14" width="4.25" height="265.04"/><rect class="h" x="1176.38" y="111.97" width="11.34" height="283.46"/><rect class="f" x="1187.72" y="111.97" width="233.86" height="14.17"/><rect class="f" x="1187.72" y="391.18" width="233.86" height="4.25"/><rect class="i" x="1187.72" y="126.14" width="4.25" height="265.04"/><rect class="k" x="1191.97" y="126.14" width="225.35" height="5.67"/><rect class="k" x="1191.97" y="267.87" width="225.35" height="8.5"/><rect class="k" x="1191.97" y="377.01" width="225.35" height="11.34"/><rect class="h" x="1191.97" y="388.35" width="225.35" height="2.83"/><rect class="i" x="1417.32" y="126.14" width="4.25" height="265.04"/><rect class="h" x="1421.57" y="111.97" width="11.34" height="283.46"/><rect class="f" x="1432.91" y="111.97" width="233.86" height="14.17"/><rect class="f" x="1432.91" y="391.18" width="233.86" height="4.25"/><rect class="i" x="1432.91" y="126.14" width="4.25" height="265.04"/><rect class="k" x="1437.17" y="126.14" width="225.35" height="5.67"/><rect class="k" x="1437.17" y="267.87" width="225.35" height="8.5"/><rect class="k" x="1437.17" y="377.01" width="225.35" height="11.34"/><rect class="h" x="1437.17" y="388.35" width="225.35" height="2.83"/><rect class="i" x="1662.52" y="126.14" width="4.25" height="265.04"/><rect class="h" x="1666.77" y="111.97" width="11.34" height="283.46"/><rect class="f" x="1678.11" y="111.97" width="233.86" height="14.17"/><rect class="f" x="1678.11" y="391.18" width="233.86" height="4.25"/><rect class="i" x="1678.11" y="126.14" width="4.25" height="265.04"/><rect class="k" x="1682.36" y="126.14" width="225.35" height="5.67"/><rect class="k" x="1682.36" y="267.87" width="225.35" height="8.5"/><rect class="k" x="1682.36" y="377.01" width="225.35" height="11.34"/><rect class="h" x="1682.36" y="388.35" width="225.35" height="2.83"/><rect class="i" x="1907.72" y="126.14" width="4.25" height="265.04"/><path class="o" d="M63.78,59.53s15.41-.84,16,9.6L85,167.24H67.92"/><path class="j" d="M68,184.25H86.44a6.87,6.87,0,0,1,7.09,7.09V474.8c.36,13.48-6.12,17.9-17,17.9H21.45L21.26,489"/><path class="p" d="M68,184.25H86.44a6.87,6.87,0,0,1,7.09,7.09V474.8c.36,13.48-6.12,17.9-17,17.9H21.45"/><path class="q" d="M22.82,516.93H67c13,0,26.55,4.37,26.55,17.39v23.74c0,17.62-15.57,29.62-28.08,29.62H26.2"/><polyline class="r" points="2831.81 136.22 2821.89 141.73 2836.06 358.58 2853.07 360.85"/><polyline class="s" points="679.6 565.51 850.39 565.51 850.39 786.61"/><polyline class="s" points="389.76 772.44 389.76 565.51 567.64 565.51"/><polyline class="s" points="850.39 565.51 999.21 565.51 999.21 786.61"/><polyline class="s" points="999.21 565.51 1254.33 565.51 1254.33 786.61"/><polyline class="s" points="1254.33 565.51 1714.96 565.51 1714.96 786.61"/><polyline class="s" points="2040.23 565.51 2175.59 565.51 2175.59 786.61"/><line class="s" x1="1714.96" y1="565.51" x2="1928.28" y2="565.51"/><circle class="h" cx="623.62" cy="742.68" r="141.73"/><circle class="t" cx="623.62" cy="742.68" r="85.04"/><circle class="f" cx="623.62" cy="742.68" r="70.87"/><circle class="h" cx="1984.25" cy="742.68" r="141.73"/><circle class="t" cx="1984.25" cy="742.68" r="85.04"/><circle class="f" cx="1984.25" cy="742.68" r="70.87"/><polyline class="u" points="2487.4 788.03 2487.4 566.93 2751.02 566.93 2751.02 758.27"/><polygon class="v" points="623.62 42.52 623.62 28.35 651.97 0 1077.16 0 1105.51 28.35 1105.51 42.52 623.62 42.52"/><path class="c" d="M869.25,503.79s0,0,0,0c-4.45.51-7.17-1.85-7.28-6.41-.05-1.7.13-3.39.21-5.15-.66.63-1.35,1.3-2.06,2a47.78,47.78,0,0,1-9.75,7.48c-6.93,3.73-13.77,3.31-20.09-1.3a75.74,75.74,0,0,1-8.52-7.71,246.89,246.89,0,0,0-19-17.4A52.46,52.46,0,0,0,796,471c-1.58-.92-2.94-.49-4.24.83a55.06,55.06,0,0,0-9.64,13.88c-2.25,4.33-4.44,8.69-6.76,13a20.33,20.33,0,0,1-2.66,3.5,5.83,5.83,0,0,1-1.69,1.2c-2.83,1.42-5.22.07-5.54-3.1a18.27,18.27,0,0,1,1.81-9.24,106.06,106.06,0,0,1,13.67-23.29A95.19,95.19,0,0,1,791,457.14c5.61-5.23,11.45-10.2,17.2-15.28l1.18-1.1c-.7.13-1.05.17-1.39.27a113.73,113.73,0,0,0-17.75,6.79,15.67,15.67,0,0,0-3.57,2.54c-1.28,1.19-1.17,2.24.08,3.47a1.93,1.93,0,0,1,.16,3.05c-1.37,1.69-3.37,2.14-5.32,2.61a15.13,15.13,0,0,1-10.82-1.3c-3.28-1.7-4.17-4.56-2.58-7.9a15.26,15.26,0,0,1,4.71-5.2c3.78-3,8.16-4.9,12.57-6.69a146.14,146.14,0,0,1,33.95-9.17,108.61,108.61,0,0,1,20.14-1.11c5.61.24,11.12,1.06,16.23,3.49a28.77,28.77,0,0,1,6.11,3.95c4.23,3.56,5.4,9.76,3.13,15.33a17.4,17.4,0,0,1-4,5.94,37.34,37.34,0,0,1-18.91,10A100.94,100.94,0,0,1,823.46,469c-4.57.09-9.14.15-13.71.14-1.52,0-3-.26-4.91-.43,2.67,1.87,5,3.6,7.47,5.23,8.31,5.54,16.62,11.1,25,16.54a52.92,52.92,0,0,0,6.51,3.29,9.08,9.08,0,0,0,7.43,0,23.69,23.69,0,0,0,8.66-5.92c2.32-2.43,4.46-5.05,6.67-7.58,4.14-4.72,8.24-9.47,12.44-14.14a7,7,0,0,1,6-2.25,2.27,2.27,0,0,1,2.18,3.23,5.19,5.19,0,0,1-1.27,2.16c-3.25,3.1-6.63,6.07-9.87,9.18-2.1,2-4.07,4.15-6,6.29a8.35,8.35,0,0,0-2.11,4.69,3.75,3.75,0,0,0,3.3,4.5c3.1.32,5.91-.42,7.94-2.91,3.67-4.51,7.25-9.09,10.84-13.66,2-2.53,3.93-5.1,5.86-7.67a9.38,9.38,0,0,1,4.75-3.74,3,3,0,0,1,3.07.43,2.47,2.47,0,0,1,.41,2.82,15.74,15.74,0,0,1-1.19,2.76,38.61,38.61,0,0,1-2.67,4.23c-3.77,5.06-7.6,10.08-11.43,15.11-5.7,7.49-11.43,15-17.12,22.47a5.38,5.38,0,0,0-1,1.92c-.22.89.32,1.31,1.11.86a11.46,11.46,0,0,0,2.61-1.91c5.65-5.9,11.22-11.89,16.88-17.78,3.42-3.55,7-7,10.43-10.46,4.39-4.44,8.68-9,13.15-13.33,3.48-3.39,7.45-6.1,12.46-6.69a5.1,5.1,0,0,1,4.41,1.3,2.38,2.38,0,0,1,.75,2.53,2.33,2.33,0,0,1-2.19,1.46,4.11,4.11,0,0,1-1.71-.16,5.74,5.74,0,0,0-5.1.76,21.72,21.72,0,0,0-9.54,14.16,11.17,11.17,0,0,0,.66,7.71c1.84,3.64,5.28,4.52,8.47,2a15,15,0,0,0,5.92-11.5c0-.68-.08-1.11-.85-1.37a3.37,3.37,0,0,1-2.39-3.47c-.07-4.58,2.79-7.21,7.33-6.63a18.08,18.08,0,0,0,9-1.36,4.64,4.64,0,0,0,2.42-2.2,224,224,0,0,1,19.48-29.58,27.87,27.87,0,0,1,7.57-6.95,8.4,8.4,0,0,1,5.58-1.1,5.56,5.56,0,0,1,4.75,5.46,18.31,18.31,0,0,1-2.47,9.32,31.09,31.09,0,0,1-9.85,11.42q-5.44,3.86-10.93,7.68l-1.21.84a28.79,28.79,0,0,0,6.43,9.33,19.84,19.84,0,0,0,2.65,2.07,6.66,6.66,0,0,0,7.53.26,38.48,38.48,0,0,0,9.2-7.76c2.25-2.42,4.71-4.51,8.05-5.2a3.21,3.21,0,0,1,3.4.95,3,3,0,0,1,.2,3.39A9.29,9.29,0,0,1,993.5,472a23.67,23.67,0,0,1-2.29,2.3A37.17,37.17,0,0,0,981,488.34a11.19,11.19,0,0,0-.87,6.46,5.92,5.92,0,0,0,7.55,4.62c3.39-.94,6-3.15,8.52-5.46.8-.73,1.53-1.54,2.31-2.29a6.7,6.7,0,0,1,.87-.6l.27.19a6.61,6.61,0,0,1-.32,1c-3.78,7.1-9.49,11.32-17.72,11.56a8.68,8.68,0,0,1-8.52-7.43,17.58,17.58,0,0,1,1.56-9.5c1.1-2.6,2.46-5.08,3.71-7.61a6.91,6.91,0,0,0,.52-1.28c-6.85,5.32-13.48,5.91-19.94-1-.15,1.55-.23,2.83-.4,4.11a42.65,42.65,0,0,1-4.74,15.55,19.74,19.74,0,0,1-3.3,4.31,10.05,10.05,0,0,1-11.33,1.69,6,6,0,0,1-3.52-5.45c-.29-7.69,1.87-14.75,5.34-21.49l.49-.93s0-.07,0-.11c-2.78.27-6.21,3.31-6.93,6-1.07,4-2,8.12-3.38,12.06-2.74,8-10.42,12.49-18.8,10.31-3.74-1-5.38-3.93-6.24-7.42s-.41-7,.45-10.66c-.35.27-.58.42-.77.6a197.89,197.89,0,0,0-31,38.19c-3.1,4.93-6.41,9.72-10.73,13.68-2.13,2-4.43,3.65-7.48,3.91a2.54,2.54,0,0,1-3.09-2.23,12.22,12.22,0,0,1,.63-6.17c2.06-7.08,5.54-13.52,9.23-19.85C865.26,510,867.3,506.91,869.25,503.79ZM813.46,463.4a62,62,0,0,0,18.39-2.85c5.51-1.67,10.84-3.66,15.18-7.69a18.6,18.6,0,0,0,5.73-8.84c1.12-4.3-.36-7.07-4.65-8a33.41,33.41,0,0,0-8.61-.87,95.82,95.82,0,0,0-11.14,1.51,15.64,15.64,0,0,0-8.88,4.13c-5.33,5.3-10.8,10.45-16.18,15.7a38.35,38.35,0,0,0-2.93,3.3c-1,1.23-.92,1.44.61,1.93A40.89,40.89,0,0,0,813.46,463.4Zm139.2,5.82a35.54,35.54,0,0,0-2.82,3,36.88,36.88,0,0,0-6.35,13.94,18.59,18.59,0,0,0-.24,4.95,3,3,0,0,0,2,2.78,3,3,0,0,0,3.16-1,13.23,13.23,0,0,0,1.92-2.32,28.57,28.57,0,0,0,4.14-16.86A6.9,6.9,0,0,0,952.66,469.22Zm3.2-7.71.41.43c1.21-.61,2.48-1.14,3.62-1.85a45.14,45.14,0,0,0,11.46-10.59,10.22,10.22,0,0,0,2.31-6,3.27,3.27,0,0,0-.64-2.19c-.69-.74-1.61-.19-2.31.3a22.34,22.34,0,0,0-2.89,2.31,67.8,67.8,0,0,0-11.47,15.84A8,8,0,0,0,955.86,461.51Z"/><path class="c" d="M991.93,461.55c.42-1.23.78-2.48,1.27-3.67a1.09,1.09,0,0,0-.49-1.54c-.94-.66-1.84-1.39-2.75-2.09l0-.32h2.33c2.28,0,2.28,0,3.07-2.19a8.81,8.81,0,0,1,1.13-2.31c.33,1.13.73,2.24,1,3.39.17.89.63,1.1,1.45,1.07a18.4,18.4,0,0,1,3.64.18l-2.22,1.62c-1.68,1.23-1.68,1.23-1.13,3.23.23.85.46,1.69.79,2.88l-4-2.89-3.93,2.77Z"/><rect class="w" x="524.41" y="416.69" width="99.21" height="59.53" rx="11.34"/><line class="x" x1="551.34" y1="431.57" x2="551.34" y2="458.86"/><line class="x" x1="538.58" y1="448.94" x2="538.58" y2="461.34"/><line class="x" x1="564.09" y1="448.94" x2="564.09" y2="461.34"/><line class="x" x1="538.58" y1="458.86" x2="564.09" y2="458.86"/><line class="x" x1="540.71" y1="431.57" x2="540.71" y2="443.98"/><line class="x" x1="561.97" y1="431.57" x2="561.97" y2="443.98"/><line class="x" x1="540.71" y1="441.5" x2="561.97" y2="441.5"/><line class="x" x1="583.94" y1="431.57" x2="583.94" y2="461.34"/><line class="x" x1="583.94" y1="434.06" x2="609.45" y2="434.06"/><line class="x" x1="609.45" y1="431.57" x2="609.45" y2="461.34"/><line class="x" x1="583.94" y1="458.86" x2="609.45" y2="458.86"/><g class="y"><path class="z" d="M2273.28,254.43h-16.8a2,2,0,0,1-2-2v-19a2,2,0,0,1,2-2H2265a12,12,0,0,1-1.5-2.22,1,1,0,0,1-.15-.54,1.08,1.08,0,0,1,1.08-1.08,1.1,1.1,0,0,1,1,.57,10.19,10.19,0,0,0,2.67,3.27h5.19a2,2,0,0,1,2,2v19A2,2,0,0,1,2273.28,254.43Zm-.12-16.26v-4.68H2256.6v4.68Zm0,6.84v-4.68H2256.6V245Zm0,7.26v-5.1H2256.6v5.1Z"/><path class="z" d="M2255.67,300.81a2.75,2.75,0,0,1-2.71-2.27,66.21,66.21,0,0,1-1.07-12.77v-4.7a2,2,0,0,1,2-2h3.59v-5.19a1.08,1.08,0,0,1,2.16,0V279h2.55a1.08,1.08,0,0,1,0,2.16h-2.55c.09,8.54,1.22,13,4.31,17.36a1.07,1.07,0,0,1-.87,1.71,1.07,1.07,0,0,1-.89-.46c-3.34-4.7-4.61-9.68-4.71-18.61h-3.47v4.58a64.62,64.62,0,0,0,1,12.39.61.61,0,0,0,.71.48,8.56,8.56,0,0,0,2-.7,1.08,1.08,0,1,1,.91,2,10.6,10.6,0,0,1-2.52.86,3.17,3.17,0,0,1-.53.05Zm21.4-.51a74.49,74.49,0,0,1-11.62-1.5,1.08,1.08,0,0,1-.88-1.06,1.09,1.09,0,0,1,1.32-1.06c1.43.3,2.82.55,4.19.76v-2.08h-4.21a1.08,1.08,0,1,1,0-2.16h4.21v-1.69h-3.46a1.81,1.81,0,0,1-1.8-1.8v-6.33a1.81,1.81,0,0,1,1.8-1.8h3.46v-1.53h-5a1.08,1.08,0,1,1,0-2.15h5v-2c-1.16-.23-2.36-.53-3.74-.93a1.08,1.08,0,0,1,.28-2.12.86.86,0,0,1,.32.05,33.42,33.42,0,0,0,9.34,1.49,1.08,1.08,0,0,1,1,1.08,1.1,1.1,0,0,1-1.12,1.08c-1.48,0-2.75-.14-4-.29v1.66h5a1.08,1.08,0,1,1,0,2.15h-5v1.53h3.47a1.81,1.81,0,0,1,1.8,1.8v6.33a1.81,1.81,0,0,1-1.8,1.8h-3.47v1.69h4.22a1.08,1.08,0,0,1,0,2.16h-4.22v2.37c1.61.19,3.24.33,4.94.42a1.08,1.08,0,1,1-.11,2.15Zm-7-14.88v-1.68H2267v1.68Zm0,3.93v-1.77H2267v1.77Zm5.27-3.93v-1.68h-3.11v1.68Zm0,3.93v-1.77h-3.11v1.77Z"/><path class="z" d="M2260.14,345.94a1.09,1.09,0,0,1-1.08-1.08v-2.32h-7.25a1.08,1.08,0,1,1,0-2.16h7.25v-2h-4.68a1.08,1.08,0,0,1,0-2.16h4.68v-1.62h-5.63a1.08,1.08,0,1,1,0-2.16h5.63v-1.21a1.08,1.08,0,1,1,2.16,0v13.61A1.08,1.08,0,0,1,2260.14,345.94Zm17.89-2.2a1.07,1.07,0,0,1-.88-.45c-2.56-3.51-3.47-6.92-3.55-13.63h-18.34a1.81,1.81,0,0,1-1.8-1.8v-3.13a1.81,1.81,0,0,1,1.8-1.8H2274a1.81,1.81,0,0,1,1.8,1.8v3.89c0,7,.71,10.08,3.13,13.39a1,1,0,0,1,.22.65A1.09,1.09,0,0,1,2278,343.74Zm-4.43-16.24v-2.41h-18v2.41Zm-5.73,18.44a1.09,1.09,0,0,1-.62-.2c-2.32-1.58-3.23-3.82-3.23-7.77v-6.72a1.08,1.08,0,0,1,2.16,0v1.21h5.51a1.08,1.08,0,0,1,0,2.16h-5.51v1.62h4.56a1.08,1.08,0,0,1,0,2.16h-4.56q0,.64.06,1.2a35.54,35.54,0,0,0,7.28,1.24,1.07,1.07,0,0,1,1,1.07,1.09,1.09,0,0,1-1.17,1.08,36.65,36.65,0,0,1-6.59-1,4.46,4.46,0,0,0,1.69,2,1.07,1.07,0,0,1,.48.9,1.09,1.09,0,0,1-1.08,1.08Z"/><line class="aa" x1="2264.88" y1="318.67" x2="2264.88" y2="322.93"/></g><g class="y"><path class="z" d="M323,254.43h-16.8a2,2,0,0,1-2-2v-19a2,2,0,0,1,2-2h8.55a12,12,0,0,1-1.5-2.22,1,1,0,0,1-.15-.54,1.08,1.08,0,0,1,1.08-1.08,1.1,1.1,0,0,1,1,.57,10.19,10.19,0,0,0,2.67,3.27H323a2,2,0,0,1,2,2v19A2,2,0,0,1,323,254.43Zm-.12-16.26v-4.68H306.33v4.68Zm0,6.84v-4.68H306.33V245Zm0,7.26v-5.1H306.33v5.1Z"/><path class="z" d="M305.4,300.81a2.74,2.74,0,0,1-2.71-2.27,66.21,66.21,0,0,1-1.07-12.77v-4.7a2,2,0,0,1,2-2h3.59v-5.19a1.08,1.08,0,0,1,2.16,0V279H312a1.08,1.08,0,0,1,0,2.16h-2.55c.09,8.54,1.22,13,4.31,17.36a1.08,1.08,0,0,1-.88,1.71,1.08,1.08,0,0,1-.89-.46c-3.33-4.7-4.61-9.68-4.7-18.61h-3.47v4.58a64.62,64.62,0,0,0,1,12.39.61.61,0,0,0,.71.48,8.71,8.71,0,0,0,2-.7,1,1,0,0,1,.47-.11,1.08,1.08,0,0,1,.44,2.07,10.6,10.6,0,0,1-2.52.86,3.17,3.17,0,0,1-.53.05Zm21.4-.51a74.62,74.62,0,0,1-11.63-1.5,1.07,1.07,0,0,1-.87-1.06,1.09,1.09,0,0,1,1.32-1.06c1.43.3,2.82.55,4.19.76v-2.08H315.6a1.08,1.08,0,1,1,0-2.16h4.21v-1.69h-3.46a1.81,1.81,0,0,1-1.8-1.8v-6.33a1.81,1.81,0,0,1,1.8-1.8h3.46v-1.53h-5a1.08,1.08,0,1,1,0-2.15h5v-2c-1.16-.23-2.36-.53-3.74-.93a1.08,1.08,0,0,1,.27-2.12.88.88,0,0,1,.33.05,33.36,33.36,0,0,0,9.34,1.49,1.08,1.08,0,0,1,1.05,1.08,1.1,1.1,0,0,1-1.12,1.08c-1.48,0-2.75-.14-4-.29v1.66h5a1.08,1.08,0,1,1,0,2.15h-5v1.53h3.47a1.81,1.81,0,0,1,1.8,1.8v6.33a1.81,1.81,0,0,1-1.8,1.8H322v1.69h4.21a1.08,1.08,0,1,1,0,2.16H322v2.37c1.61.19,3.24.33,4.94.42a1.08,1.08,0,0,1-.11,2.15Zm-7-14.88v-1.68h-3.1v1.68Zm0,3.93v-1.77h-3.1v1.77Zm5.27-3.93v-1.68H322v1.68Zm0,3.93v-1.77H322v1.77Z"/><path class="z" d="M309.87,345.94a1.08,1.08,0,0,1-1.08-1.08v-2.32h-7.25a1.08,1.08,0,0,1,0-2.16h7.25v-2h-4.68a1.08,1.08,0,0,1,0-2.16h4.68v-1.62h-5.63a1.08,1.08,0,0,1,0-2.16h5.63v-1.21a1.08,1.08,0,0,1,2.16,0v13.61A1.08,1.08,0,0,1,309.87,345.94Zm17.88-2.2a1.07,1.07,0,0,1-.87-.45c-2.56-3.51-3.47-6.92-3.55-13.63H305a1.81,1.81,0,0,1-1.8-1.8v-3.13a1.81,1.81,0,0,1,1.8-1.8h18.69a1.8,1.8,0,0,1,1.8,1.8v3.89c0,7,.72,10.08,3.14,13.39a1.1,1.1,0,0,1,.21.65A1.08,1.08,0,0,1,327.75,343.74Zm-4.43-16.24v-2.41h-18v2.41Zm-5.73,18.44a1.12,1.12,0,0,1-.62-.2c-2.31-1.58-3.22-3.82-3.22-7.77v-6.72a1.08,1.08,0,0,1,2.16,0v1.21h5.51a1.08,1.08,0,0,1,0,2.16h-5.51v1.62h4.56a1.08,1.08,0,0,1,0,2.16h-4.56q0,.64.06,1.2a35.31,35.31,0,0,0,7.28,1.24,1.08,1.08,0,1,1-.15,2.15,36.76,36.76,0,0,1-6.6-1,4.59,4.59,0,0,0,1.69,2,1.07,1.07,0,0,1,.48.9,1.08,1.08,0,0,1-1.08,1.08Z"/><line class="aa" x1="314.61" y1="318.67" x2="314.61" y2="322.93"/></g><path class="c" d="M428.38,456.77a1.18,1.18,0,0,1,1.32,1.34c0,1.18-.7,1.37-1.32,1.37H408.7a1.18,1.18,0,0,1-1.32-1.34c0-1.3.86-1.37,1.32-1.37Z"/><path class="c" d="M448,459.58l-1.1.12a29.05,29.05,0,0,1-.91,7.68c-.53,1.68-.72,2.06-1.47,2.06a1.15,1.15,0,0,1-1.24-1.05c0-.31.69-2.26.81-2.67a23.76,23.76,0,0,0,.7-5.85c-.84.07-1.61.12-1.61-1.13,0-1,.6-1,1.61-1.11V452c0-1.56.21-2.5,2.23-2.5h.34c.14-.46.31-1.13.48-1.68s.79-.65,1.1-.65,1.22,0,1.22.74a11.23,11.23,0,0,1-.45,1.59h1c2,0,2.47.53,2.47,2.5v4.87c.41-.05,1.13-.12,1.15,1a1.09,1.09,0,0,1,1.15-.6h6.29c1,0,2.4,0,2.4,1.92s-1.75,4.42-3.05,6a14.75,14.75,0,0,0,3.65,1.85c.53.19.94.38.94,1.06s-.41,1.48-1.18,1.48a11.86,11.86,0,0,1-5.09-2.68c-1.75,1.44-3.93,2.68-4.56,2.68a1.39,1.39,0,0,1-1.22-1.39c0-.55.31-.74.79-1a15.77,15.77,0,0,0,3.34-2.06c-2.14-2.69-2.55-4.39-2.55-4.68,0-.53.63-.89,1.15-.89a1,1,0,0,1,1,.67,14.67,14.67,0,0,0,2.07,3.31,9,9,0,0,0,2.11-3.55c0-.41-.33-.48-.72-.48h-5.33c-.55,0-1.22-.14-1.22-1.15-.19.41-.48.48-1.08.6v8c0,2.4-.89,2.5-3.07,2.5-1.35,0-2.14,0-2.14-1.32a1,1,0,0,1,1.2-1.13l1.1.05c.7,0,.77-.36.77-.77v-7.08l-1.2.14v5.07c0,.41-.05,1-.93,1s-.92-.6-.92-1Zm-1.1-2.11,1.9-.17c.62-.05,1.65-.15,2.25-.22v-4.77a.6.6,0,0,0-.67-.68h-2.83c-.48,0-.65.27-.65.68Zm2.66-4.13a8.9,8.9,0,0,1,.72,2.13c0,.63-.74.87-1.1.87-.58,0-.67-.29-1-1.27a9.88,9.88,0,0,0-.53-1.47.89.89,0,0,1-.12-.43c0-.46.43-.82,1.06-.82C449.09,452.35,449.23,452.69,449.54,453.34Zm12.89-.48c0,.5.12.72.75.72s.74-.12.84-.82c.17-1.27.21-1.66.89-1.66a.91.91,0,0,1,1,1,7.55,7.55,0,0,1-.57,3c-.46.7-1.18.7-2.43.7-2,0-2.59-.36-2.59-2.5V450.7a.6.6,0,0,0-.67-.68h-1.37c-.57,0-.84.05-.89.68a10.13,10.13,0,0,1-1.15,4.63c-.53.89-.79,1-1.1,1a1.3,1.3,0,0,1-1.32-1.18c0-.26.07-.38.72-1.46a8.47,8.47,0,0,0,.76-3.79c.1-2,1.28-2,2.57-2H460c2,0,2.47.45,2.47,2.47Z"/><path class="c" d="M409.42,497.88v-7c0-3.5,2.16-5.54,5.49-5.54s5.47,2.14,5.47,5.54v7c0,3.41-2.08,5.55-5.47,5.55S409.42,501.39,409.42,497.88Zm8.71-.07V491c0-2.4-1.3-3.51-3.22-3.51s-3.24,1.08-3.24,3.51v6.86c0,2.4,1.32,3.5,3.27,3.5S418.13,500.23,418.13,497.81Z"/><path class="c" d="M423.84,497.88v-7c0-3.5,2.16-5.54,5.5-5.54s5.47,2.14,5.47,5.54v7c0,3.41-2.09,5.55-5.47,5.55S423.84,501.39,423.84,497.88Zm8.71-.07V491c0-2.4-1.29-3.51-3.21-3.51s-3.24,1.08-3.24,3.51v6.86c0,2.4,1.32,3.5,3.26,3.5S432.55,500.23,432.55,497.81Z"/><path class="c" d="M448.9,489.87v.33a4,4,0,0,1-2.81,3.84,4,4,0,0,1,3.14,4v.36c0,2.95-2.11,5-5.64,5a5.35,5.35,0,0,1-5.54-4,.38.38,0,0,1,.21-.51l1.28-.45c.28-.1.45,0,.55.21a3.35,3.35,0,0,0,3.53,2.67c2.11,0,3.36-1.18,3.36-3.08V498c0-1.88-1.23-2.91-3.56-2.91h-1.1a.28.28,0,0,1-.31-.31v-1.37c0-.19.07-.33.31-.33h1.1c2,0,3.24-1.08,3.24-2.77v-.26c0-1.82-1.2-2.71-3.12-2.71a3.12,3.12,0,0,0-3.26,2.33.26.26,0,0,1-.41.17l-1.34-.65a.29.29,0,0,1-.15-.41,5.13,5.13,0,0,1,5.26-3.48C447.07,485.33,448.9,487.2,448.9,489.87Z"/><path class="c" d="M452.88,500.93a.33.33,0,0,1,.07-.5l1-.8c.19-.16.36-.14.53.1a3.77,3.77,0,0,0,3.31,1.58c2.38,0,3.53-1.34,3.53-3.55V495h0a4.14,4.14,0,0,1-3.79,2c-2.85,0-4.89-1.9-4.89-5.16v-1.16c0-3.29,2-5.28,5.37-5.3,3.55,0,5.57,2.21,5.57,5.57l0,6.65c0,3.57-2,5.83-5.64,5.83A5.7,5.7,0,0,1,452.88,500.93Zm8.45-9.29v-.84c0-2.38-1.35-3.43-3.29-3.43s-3.24,1.05-3.24,3.38v.87c0,2.33,1.27,3.38,3.12,3.38A3.15,3.15,0,0,0,461.33,491.64Z"/><rect class="w" x="1998.43" y="416.69" width="99.21" height="59.53" rx="11.34"/><line class="ab" x1="2062.2" y1="449.29" x2="2062.2" y2="469.13"/><line class="ab" x1="2062.2" y1="450.94" x2="2079.21" y2="450.94"/><line class="ab" x1="2079.21" y1="449.29" x2="2079.21" y2="469.13"/><line class="ab" x1="2062.2" y1="467.48" x2="2079.21" y2="467.48"/><polyline class="ab" points="2033.86 469.13 2025.35 449.29 2021.81 450.12"/><line class="ab" x1="2025.35" y1="449.29" x2="2016.85" y2="469.13"/><path class="ac" d="M2021.93,424.7c1,0,2.85,0,2.85,2.66a23,23,0,0,1-.9,5.94c-1.53,4.92-5,6.87-8.57,8a14,14,0,0,1-2.94.63,1.36,1.36,0,0,1-1.49-1.49,1.1,1.1,0,0,1,1.07-1.19c3-.53,6.81-1.43,8.59-5.17a14,14,0,0,0,1.28-5.71c0-.8,0-1.05-.78-1.05h-9a.81.81,0,0,0-.91.92v4.24c0,.45-.06,1.33-1.42,1.33-1.18,0-1.45-.61-1.45-1.33V427.4c0-2.35,1.34-2.7,2.81-2.7Z"/><path class="ac" d="M2030.37,424.65c.4,0,.78.15,2.33,1,4.68,2.56,4.68,2.94,4.68,3.57a1.71,1.71,0,0,1-1.4,1.55c-.55,0-1-.31-2.25-1.17a37.17,37.17,0,0,0-3.72-2.16c-.48-.26-1-.57-1-1.29a1.62,1.62,0,0,1,1.14-1.47A1.66,1.66,0,0,1,2030.37,424.65Zm16.31,3.24c0,1.07-1.84,5.46-4,7.91a15.63,15.63,0,0,1-8.37,5,18.09,18.09,0,0,1-3.42.63,1.44,1.44,0,0,1-1.47-1.59c0-1.05.58-1.26,1.57-1.39,5.94-.69,10.18-3,12.72-10.44.38-1.09.51-1.47,1.33-1.47a2.77,2.77,0,0,1,.52.07A1.29,1.29,0,0,1,2046.68,427.89Z"/><path class="ac" d="M2065.46,425.16c.9,0,2,.29,2,1.59,0,1.75-2.37,6-7.7,9.51,1.32,1.35,1.85,1.92,2.22,2.36.61.71.8,1.05.8,1.49a1.72,1.72,0,0,1-1.66,1.57c-.63,0-.79-.21-1.72-1.3a38,38,0,0,0-5.79-5.77c-1-.89-1.28-1.07-1.28-1.75a1.62,1.62,0,0,1,1.51-1.36,1.78,1.78,0,0,1,1.07.44,37.85,37.85,0,0,1,2.9,2.44,18.13,18.13,0,0,0,5.18-4.69,4.37,4.37,0,0,0,.88-1.57c0-.3-.35-.3-.65-.3h-12.62a1.33,1.33,0,1,1,0-2.66Z"/><path class="ac" d="M2072.37,424.65c.4,0,.78.15,2.33,1,4.68,2.56,4.68,2.94,4.68,3.57a1.71,1.71,0,0,1-1.4,1.55c-.55,0-1-.31-2.25-1.17a37.17,37.17,0,0,0-3.72-2.16c-.48-.26-1.05-.57-1.05-1.29a1.62,1.62,0,0,1,1.14-1.47A1.66,1.66,0,0,1,2072.37,424.65Zm16.31,3.24c0,1.07-1.84,5.46-4,7.91a15.63,15.63,0,0,1-8.37,5,18.09,18.09,0,0,1-3.42.63,1.44,1.44,0,0,1-1.47-1.59c0-1.05.58-1.26,1.57-1.39,5.94-.69,10.18-3,12.72-10.44.38-1.09.51-1.47,1.33-1.47a2.77,2.77,0,0,1,.52.07A1.29,1.29,0,0,1,2088.68,427.89Z"/></svg>