<?xml version="1.0" encoding="UTF-8"?>
<svg id="f" data-name="0222" xmlns="http://www.w3.org/2000/svg" xmlns:xlink="http://www.w3.org/1999/xlink" viewBox="0 0 3095.43 884.41">
  <defs>
    <style>
      .j {
        fill: #2f3030;
      }

      .j, .k, .l, .m, .n, .o, .p, .q, .r, .s, .t, .u, .v, .w, .x, .y, .z, .aa, .ab, .ac, .ad, .ae {
        stroke-width: 0px;
      }

      .af, .ag {
        stroke-miterlimit: 10;
      }

      .af, .ag, .q, .ah, .ai, .aj {
        fill: none;
      }

      .af, .ag, .ai, .aj {
        stroke: #231815;
      }

      .k {
        fill: #2f2725;
      }

      .l {
        fill: #114c90;
      }

      .m {
        fill: #231815;
      }

      .n {
        fill: #171717;
      }

      .ak {
        clip-path: url(#g);
      }

      .o {
        fill: #135199;
      }

      .ag {
        stroke-width: 2px;
      }

      .p {
        fill: #bdbebe;
      }

      .r {
        fill: #cacacb;
      }

      .s {
        fill: #f4d823;
      }

      .t {
        fill: #ea5614;
      }

      .u {
        fill: #171818;
      }

      .ah {
        stroke: #040000;
        stroke-width: 10px;
      }

      .v {
        fill: #a0a0a0;
      }

      .w {
        fill: #f9f9fa;
      }

      .al {
        opacity: .1;
      }

      .ai {
        stroke-width: 6px;
      }

      .ai, .aj {
        stroke-linejoin: round;
      }

      .x {
        fill: #c3c4c5;
      }

      .y {
        fill: rgba(35, 24, 21, .05);
      }

      .aj {
        stroke-linecap: round;
        stroke-width: 4px;
      }

      .z {
        fill: #076fb8;
      }

      .am {
        clip-path: url(#h);
      }

      .aa {
        fill: #b5b6b6;
      }

      .ab {
        fill: #fcfcfc;
      }

      .ac {
        fill: #c1c0c0;
      }

      .ad {
        fill: #303030;
      }

      .ae {
        fill: #221714;
      }
    </style>
    <clipPath id="g">
      <path class="q" d="m1598.74,782.36h-283.46V229.61c0-15.67,12.68-28.35,28.35-28.35h226.77c15.67,0,28.35,12.68,28.35,28.35v552.76Z"/>
    </clipPath>
    <clipPath id="h">
      <rect class="q" x="1661.1" y="150.24" width="226.77" height="127.56"/>
    </clipPath>
  </defs>
  <g>
    <path class="o" d="m2885.67,632.12v34.02l-11.34,68.03-379.84,70.87h-340.16v-56.7c0-44.95-17.44-85.82-45.91-116.22h777.25Z"/>
    <path class="w" d="m2885.67,337.32v294.8h-777.25c-31.03-33.15-75.18-53.86-124.17-53.86s-93.14,20.71-124.17,53.86H747.79c-31.03-33.15-75.18-53.86-124.17-53.86s-93.14,20.71-124.17,53.86H19.84v-116.22L53.86,195.59l22.67-121.89-2.83-2.84,5.67-8.5,34.01-8.51h2664.57l79.37,5.67,11.34,8.51,17.01,269.29Z"/>
    <path class="o" d="m747.79,632.12h1112.29c-28.47,30.4-45.91,71.27-45.91,116.22v56.7h-1020.47v-56.7c0-44.95-17.44-85.82-45.91-116.22Z"/>
    <path class="o" d="m19.84,632.12h479.61c-28.47,30.4-45.91,71.27-45.91,116.22v28.35H82.2l-62.36-62.36v-82.21Z"/>
  </g>
  <polyline class="af" points="1301.1 805.04 1301.1 649.13 972.28 649.13"/>
  <polyline class="af" points="972.28 805.04 972.28 649.13 405.35 649.13 405.35 776.69"/>
  <line class="af" x1="2769.45" y1="436.54" x2="2769.45" y2="666.14"/>
  <line class="af" x1="2494.49" y1="436.54" x2="2494.49" y2="805.04"/>
  <line class="af" x1="2182.68" y1="649.13" x2="2182.68" y2="805.04"/>
  <polyline class="af" points="2494.49 649.13 1612.91 649.13 1612.91 805.04"/>
  <path class="u" d="m793.7,805.04v-56.69c0-93.93-76.15-170.08-170.08-170.08s-170.08,76.15-170.08,170.08v28.35l340.16,28.35Z"/>
  <path class="u" d="m2154.33,805.04v-56.69c0-93.93-76.15-170.08-170.08-170.08s-170.08,76.15-170.08,170.08v56.69h340.16Z"/>
  <polygon class="k" points="19.84 515.91 19.84 532.91 90.71 532.91 90.71 501.73 19.84 515.91"/>
  <g>
    <circle class="m" cx="623.62" cy="742.68" r="141.73"/>
    <circle class="aa" cx="623.62" cy="742.68" r="85.04"/>
    <circle class="r" cx="623.62" cy="742.68" r="70.87"/>
  </g>
  <g>
    <circle class="m" cx="1984.25" cy="742.68" r="141.73"/>
    <circle class="aa" cx="1984.25" cy="742.68" r="85.04"/>
    <circle class="r" cx="1984.25" cy="742.68" r="70.87"/>
  </g>
  <rect class="r" x="107.72" y="762.52" width="269.29" height="14.17"/>
  <polygon class="k" points="76.54 73.7 87.87 82.2 93.54 96.38 93.54 195.59 53.86 195.59 76.54 73.7"/>
  <path class="z" d="m19.84,515.91h53.86c7.83,0,14.17-6.35,14.17-14.17l2.83-306.14h-36.85l-34.02,320.31Z"/>
  <path class="ai" d="m19.84,515.91h53.86c7.83,0,14.17-6.35,14.17-14.17l2.83-306.14h-36.85"/>
  <path class="ah" d="m793.7,805.04v-56.69c0-93.93-76.15-170.08-170.08-170.08s-170.08,76.15-170.08,170.08v28.35"/>
  <path class="ah" d="m2154.33,805.04v-56.69c0-93.93-76.15-170.08-170.08-170.08s-170.08,76.15-170.08,170.08v56.69"/>
  <rect class="y" x="130.39" y="110.55" width="2650.39" height="8.5"/>
  <path class="r" d="m99.21,141.73c0-17.23,13.95-31.18,31.18-31.18v8.5c-12.53,0-22.68,10.14-22.68,22.68v634.96h-8.5V141.73Z"/>
  <polygon class="ab" points="623.62 53.86 623.62 39.69 651.97 11.34 1077.17 11.34 1105.51 39.69 1105.51 53.86 623.62 53.86"/>
  <g>
    <rect class="m" x="107.72" y="195.59" width="269.29" height="566.93"/>
    <g>
      <g>
        <rect class="o" x="113.39" y="632.12" width="130.39" height="130.4"/>
        <rect class="w" x="113.39" y="198.42" width="130.39" height="433.7"/>
      </g>
      <g>
        <rect class="z" x="127.22" y="234.94" width="102.72" height="482.56"/>
        <path class="m" d="m227.44,237.44v477.56h-97.72V237.44h97.72m5-5h-107.72v487.56h107.72V232.44h0Z"/>
      </g>
    </g>
    <g>
      <g>
        <rect class="o" x="246.62" y="632.12" width="124.72" height="130.4"/>
        <rect class="w" x="246.62" y="198.42" width="124.72" height="433.7"/>
      </g>
      <g>
        <rect class="z" x="260.45" y="234.94" width="97.05" height="482.56"/>
        <path class="m" d="m355,237.44v477.56h-92.05V237.44h92.05m5-5h-102.05v487.56h102.05V232.44h0Z"/>
      </g>
    </g>
  </g>
  <g>
    <rect class="r" x="2485.98" y="119.06" width="277.8" height="317.48"/>
    <rect class="z" x="2494.49" y="136.06" width="260.79" height="283.46"/>
  </g>
  <rect class="u" x="2763.78" y="119.06" width="5.67" height="317.48"/>
  <rect class="u" x="2477.48" y="119.06" width="8.5" height="317.48"/>
  <rect class="u" x="411.02" y="119.06" width="5.67" height="317.48"/>
  <rect class="x" x="1615.75" y="119.06" width="14.17" height="317.48"/>
  <rect class="x" x="1284.09" y="119.06" width="14.17" height="317.48"/>
  <g>
    <rect class="r" x="416.69" y="119.06" width="289.13" height="317.48"/>
    <rect class="z" x="425.2" y="136.06" width="272.13" height="283.46"/>
    <rect class="p" x="425.2" y="232.44" width="272.13" height="17.01"/>
    <rect class="ad" x="559.84" y="136.06" width="2.83" height="96.38"/>
  </g>
  <g>
    <rect class="r" x="714.33" y="119.06" width="289.13" height="317.48"/>
    <rect class="z" x="722.83" y="136.06" width="272.13" height="283.46"/>
    <rect class="p" x="722.83" y="232.44" width="272.13" height="17.01"/>
    <rect class="ad" x="857.48" y="136.06" width="2.83" height="96.38"/>
  </g>
  <path class="z" d="m19.84,532.91h68.03v31.18c0,21.94-17.75,39.69-39.69,39.69h-28.35v-70.87Z"/>
  <path class="ai" d="m19.84,532.91h68.03v31.18c0,21.94-17.75,39.69-39.69,39.69h-28.35"/>
  <rect class="u" x="705.83" y="119.06" width="8.5" height="317.48"/>
  <rect class="u" x="1003.46" y="119.06" width="8.5" height="317.48"/>
  <g>
    <rect class="r" x="1011.97" y="119.06" width="272.13" height="317.48"/>
    <rect class="m" x="1020.47" y="136.06" width="255.12" height="283.46"/>
    <rect class="z" x="1048.82" y="223.94" width="198.43" height="155.91"/>
  </g>
  <g class="ak">
    <g>
      <rect class="o" x="1315.28" y="632.12" width="274.96" height="150.24"/>
      <rect class="w" x="1315.28" y="201.26" width="274.96" height="430.86"/>
    </g>
    <rect class="z" x="1340.79" y="223.94" width="226.77" height="175.75" rx="14.17" ry="14.17"/>
    <rect class="ac" x="1315.28" y="439.37" width="274.96" height="5.67"/>
    <rect class="ac" x="1315.28" y="725.67" width="274.96" height="5.67"/>
    <g>
      <path class="r" d="m1580.32,545.84c-1.66,0-3-1.35-3-3v-17.01c0-1.66,1.35-3,3-3s3,1.35,3,3v17.01c0,1.66-1.35,3-3,3Z"/>
      <path class="aa" d="m1580.31,524.07c.97,0,1.75.79,1.75,1.75v17.01c0,.97-.79,1.75-1.75,1.75s-1.75-.79-1.75-1.75v-17.01c0-.97.79-1.75,1.75-1.75m0-2.5c-2.35,0-4.25,1.9-4.25,4.25v17.01c0,2.35,1.9,4.25,4.25,4.25s4.25-1.9,4.25-4.25v-17.01c0-2.35-1.9-4.25-4.25-4.25h0Z"/>
    </g>
    <rect class="ae" x="1590.24" y="201.26" width="8.5" height="581.1"/>
  </g>
  <g class="al">
    <path class="m" d="m1570.39,201.26c15.67,0,28.35,12.68,28.35,28.35v552.76h-283.46V229.61c0-15.67,12.68-28.35,28.35-28.35h226.77m0-5h-226.77c-18.39,0-33.35,14.96-33.35,33.35v552.76c0,2.76,2.24,5,5,5h283.46c2.76,0,5-2.24,5-5V229.61c0-18.39-14.96-33.35-33.35-33.35h0Z"/>
  </g>
  <rect class="s" x="1315.28" y="782.36" width="283.46" height="11.34"/>
  <polygon class="l" points="2769.45 666.14 2769.45 753.66 2891.34 734.17 2899.84 725.22 2905.51 671.81 2899.84 666.14 2769.45 666.14"/>
  <rect class="af" x="2789.29" y="357.17" width="59.53" height="79.37" rx="5.67" ry="5.67"/>
  <g>
    <rect class="t" x="897.75" y="668.14" width="30.02" height="21.51"/>
    <path class="v" d="m925.76,670.14v17.51h-26.02v-17.51h26.02m4-4h-34.02v25.51h34.02v-25.51h0Z"/>
  </g>
  <polygon class="l" points="82.2 776.69 11.34 765.35 5.67 759.69 0 714.33 0 705.83 82.2 705.83 82.2 776.69"/>
  <g>
    <g>
      <path class="t" d="m76.54,646.3v51.02c0,3.13-2.54,5.67-5.67,5.67h-17.01v-21.26c0-.78-.63-1.42-1.42-1.42h-4.25v-34.01c0-3.13,2.54-5.67,5.67-5.67h17.01c3.13,0,5.67,2.54,5.67,5.67Z"/>
      <path class="r" d="m53.86,681.73v21.26c-3.13,0-5.67-2.54-5.67-5.67v-17.01h4.25c.79,0,1.42.64,1.42,1.42Z"/>
    </g>
    <g>
      <path class="ag" d="m48.19,680.31v-34.01c0-3.13,2.54-5.67,5.67-5.67h17.01c3.13,0,5.67,2.54,5.67,5.67v51.02c0,3.13-2.54,5.67-5.67,5.67h-17.01c-3.13,0-5.67-2.54-5.67-5.67v-17.01Z"/>
      <path class="af" d="m48.19,680.31h4.25c.79,0,1.42.64,1.42,1.42v21.26"/>
    </g>
  </g>
  <path class="m" d="m25.51,702.99c3.13,0,5.67-3.8,5.67-8.5v-25.51c0-4.7-2.54-8.5-5.67-8.5h-5.67v42.52s5.67,0,5.67,0Z"/>
  <g>
    <rect class="r" x="1629.92" y="119.06" width="289.13" height="317.48"/>
    <rect class="z" x="1638.43" y="136.06" width="272.13" height="283.46"/>
    <rect class="m" x="1638.43" y="136.06" width="272.13" height="155.91"/>
    <g class="am">
      <rect class="n" x="1661.1" y="150.24" width="226.77" height="127.56"/>
      <rect class="j" x="1668.19" y="157.32" width="212.6" height="113.39"/>
    </g>
  </g>
  <g>
    <rect class="r" x="1927.56" y="119.06" width="549.92" height="317.48"/>
    <rect class="z" x="1936.06" y="136.06" width="532.91" height="283.46"/>
    <rect class="p" x="1936.06" y="232.44" width="532.91" height="17.01"/>
    <rect class="ad" x="2201.1" y="136.06" width="2.83" height="96.38"/>
  </g>
  <rect class="u" x="1919.06" y="119.06" width="8.5" height="317.48"/>
  <g>
    <path class="o" d="m763.43,542.07s.01-.01-.01,0c-4.86.56-7.84-2.02-7.96-7.01-.05-1.85.15-3.71.23-5.63-.72.69-1.48,1.42-2.25,2.14-3.29,3.08-6.68,6.04-10.66,8.18-7.58,4.08-15.06,3.63-21.97-1.42-3.37-2.46-6.35-5.48-9.32-8.43-6.67-6.65-13.52-13.1-20.83-19.03-2.24-1.82-4.86-3.18-7.38-4.64-1.73-1.01-3.21-.54-4.64.9-4.41,4.45-7.69,9.66-10.54,15.18-2.45,4.74-4.85,9.5-7.39,14.19-.76,1.39-1.87,2.61-2.92,3.82-.48.56-1.18.98-1.85,1.31-3.09,1.56-5.71.07-6.06-3.39-.36-3.57.59-6.9,1.98-10.11,3.95-9.09,8.85-17.67,14.96-25.46,3.28-4.18,7.1-7.98,11-11.62,6.13-5.72,12.52-11.15,18.8-16.71.34-.3.67-.62,1.29-1.2-.76.14-1.15.18-1.52.29-6.64,2.04-13.19,4.3-19.41,7.43-1.42.71-2.74,1.7-3.91,2.78-1.4,1.3-1.27,2.45.09,3.8,1.15,1.13,1.2,2.06.17,3.34-1.49,1.85-3.68,2.34-5.81,2.85-4.1.98-8.08.54-11.84-1.42-3.58-1.86-4.56-4.99-2.82-8.64,1.16-2.43,3.13-4.09,5.15-5.69,4.13-3.27,8.92-5.36,13.74-7.31,11.97-4.83,24.34-8.18,37.13-10.03,7.31-1.06,14.65-1.53,22.03-1.22,6.13.26,12.16,1.16,17.74,3.82,2.38,1.13,4.67,2.62,6.69,4.32,4.62,3.89,5.9,10.67,3.41,16.77-1,2.46-2.43,4.63-4.35,6.5-5.83,5.68-12.71,9.31-20.68,10.96-6.73,1.4-13.53,2.2-20.4,2.33-5,.1-9.99.16-14.99.15-1.66,0-3.33-.29-5.37-.48,2.92,2.05,5.5,3.94,8.17,5.72,9.09,6.06,18.17,12.14,27.34,18.09,2.22,1.44,4.71,2.47,7.12,3.6,2.68,1.25,5.38,1.11,8.12.05,3.67-1.43,6.79-3.66,9.47-6.47,2.54-2.66,4.87-5.52,7.29-8.29,4.52-5.16,9.01-10.36,13.59-15.46,1.7-1.89,3.98-2.67,6.54-2.47,2.04.16,3.03,1.57,2.39,3.54-.28.85-.75,1.75-1.39,2.36-3.56,3.39-7.25,6.64-10.8,10.04-2.29,2.2-4.45,4.53-6.59,6.88-1.31,1.43-2.06,3.17-2.32,5.13-.34,2.55,1.13,4.67,3.61,4.92,3.39.35,6.47-.46,8.69-3.18,4.01-4.93,7.93-9.94,11.85-14.94,2.17-2.77,4.3-5.57,6.41-8.38,1.38-1.83,2.93-3.41,5.19-4.1,1.18-.36,2.38-.4,3.36.47.96.86.79,2.02.44,3.08-.34,1.04-.76,2.08-1.3,3.03-.9,1.58-1.83,3.16-2.91,4.62-4.13,5.54-8.32,11.03-12.5,16.53-6.24,8.19-12.5,16.37-18.73,24.57-.47.62-.92,1.35-1.1,2.1-.24.98.35,1.43,1.22.94,1.02-.58,2.04-1.24,2.85-2.08,6.18-6.46,12.27-13.01,18.47-19.45,3.73-3.88,7.62-7.61,11.41-11.43,4.8-4.85,9.49-9.82,14.37-14.58,3.81-3.71,8.14-6.67,13.63-7.32,1.76-.21,3.47.09,4.82,1.42.78.77,1.17,1.71.82,2.77-.37,1.1-1.37,1.47-2.4,1.6-.61.07-1.28,0-1.87-.18-2.01-.64-3.85-.28-5.57.83-5.69,3.66-8.98,8.99-10.43,15.49-.64,2.85-.65,5.72.73,8.44,2.01,3.98,5.77,4.95,9.26,2.21,4.04-3.17,6.21-7.4,6.48-12.57.04-.75-.09-1.21-.94-1.5-1.76-.6-2.58-1.92-2.61-3.8-.08-5.01,3.05-7.87,8.02-7.25,3.42.43,6.64-.27,9.79-1.49,1.2-.46,2.01-1.27,2.65-2.41,6.36-11.27,13.24-22.2,21.3-32.35,2.37-2.98,4.98-5.65,8.28-7.6,1.89-1.12,3.94-1.51,6.1-1.21,3,.42,5.06,2.89,5.2,5.97.18,3.7-1.08,7-2.71,10.19-2.57,5.04-6.14,9.22-10.77,12.49-3.98,2.81-7.97,5.6-11.96,8.4-.41.29-.83.57-1.33.92,1.69,3.9,4.03,7.29,7.04,10.2.88.85,1.88,1.58,2.9,2.27,2.67,1.82,5.41,1.87,8.24.29,3.9-2.19,7.06-5.25,10.06-8.49,2.46-2.65,5.15-4.93,8.81-5.69,1.38-.29,2.74-.14,3.72,1.04.95,1.15.78,2.47.22,3.72-.38.84-.85,1.67-1.44,2.38-.75.91-1.63,1.72-2.51,2.52-4.8,4.35-8.82,9.27-11.17,15.38-.87,2.26-1.5,4.59-.96,7.07.85,3.9,4.41,6.11,8.26,5.05,3.72-1.03,6.56-3.44,9.32-5.97.87-.8,1.67-1.68,2.53-2.5.27-.26.63-.44.94-.66.1.07.2.14.3.21-.11.37-.17.77-.34,1.1-4.14,7.77-10.39,12.39-19.38,12.65-4.58.13-8.67-3.6-9.32-8.12-.53-3.66.32-7.09,1.71-10.39,1.2-2.84,2.69-5.56,4.06-8.33.2-.4.4-.8.56-1.4-7.49,5.82-14.74,6.46-21.8-1.06-.16,1.7-.25,3.1-.44,4.49-.78,5.96-2.23,11.74-5.18,17.01-.96,1.71-2.22,3.32-3.62,4.71-3.19,3.16-8.47,3.87-12.39,1.85-2.41-1.24-3.74-3.16-3.85-5.96-.32-8.41,2.05-16.13,5.85-23.51.17-.34.36-.67.53-1.01.02-.04.01-.08.02-.12-3.04.3-6.79,3.62-7.57,6.58-1.17,4.41-2.22,8.88-3.7,13.19-3,8.75-11.4,13.66-20.57,11.27-4.09-1.07-5.88-4.29-6.82-8.11-.95-3.85-.44-7.65.49-11.66-.38.3-.63.46-.84.66-13.07,12.47-24.25,26.48-33.86,41.77-3.39,5.39-7.01,10.62-11.74,14.96-2.33,2.14-4.85,3.99-8.17,4.27-1.91.16-2.98-.58-3.39-2.44-.51-2.32.05-4.55.69-6.75,2.26-7.75,6.07-14.79,10.09-21.71,2.02-3.47,4.25-6.82,6.38-10.23Zm-61.01-44.18c6.87.02,13.56-1.12,20.11-3.11,6.02-1.83,11.86-4,16.6-8.42,2.91-2.71,5.25-5.77,6.27-9.67,1.23-4.71-.39-7.73-5.09-8.78-3.07-.68-6.29-1.1-9.42-.95-4.08.19-8.13.97-12.17,1.64-3.63.6-6.97,1.79-9.71,4.52-5.83,5.8-11.81,11.43-17.7,17.17-1.15,1.12-2.19,2.36-3.2,3.61-1.1,1.35-1,1.58.67,2.12,4.44,1.43,9.02,1.84,13.64,1.87Zm152.23,6.36c-1.09,1.15-2.22,2.12-3.08,3.29-3.38,4.59-5.71,9.7-6.95,15.25-.39,1.74-.36,3.61-.27,5.41.07,1.35.81,2.56,2.17,3.04,1.33.47,2.52-.1,3.45-1.05.77-.78,1.53-1.61,2.1-2.53,3.49-5.65,4.86-11.85,4.52-18.44-.09-1.68-.5-3.35-1.95-4.96Zm3.5-8.43c.15.15.29.31.44.46,1.33-.67,2.71-1.24,3.97-2.02,4.91-3.05,8.97-7.06,12.52-11.58,1.49-1.9,2.45-4.08,2.53-6.52.03-.81-.19-1.85-.7-2.39-.76-.81-1.76-.2-2.52.33-1.1.78-2.22,1.57-3.17,2.52-5.1,5.1-9.1,11.01-12.54,17.32-.3.56-.36,1.25-.53,1.88Z"/>
    <path class="o" d="m897.6,495.87c.46-1.34.85-2.71,1.39-4.01.33-.8.12-1.23-.53-1.68-1.03-.72-2.01-1.52-3.02-2.28.02-.12.04-.24.06-.35.85,0,1.7,0,2.54,0q2.5,0,3.36-2.4c.31-.85.63-1.69,1.24-2.52.36,1.23.79,2.45,1.04,3.7.19.97.69,1.21,1.59,1.17,1.26-.05,2.52-.01,3.98.2-.81.59-1.61,1.19-2.42,1.78q-1.84,1.34-1.24,3.54c.25.92.51,1.84.87,3.15-1.64-1.19-2.95-2.14-4.36-3.16-1.42,1-2.86,2.01-4.29,3.02-.07-.05-.14-.09-.21-.14Z"/>
  </g>
  <line class="af" x1="2494.49" y1="558.43" x2="2769.45" y2="558.43"/>
  <g>
    <g>
      <line class="aj" x1="558.43" y1="467.72" x2="558.43" y2="495"/>
      <line class="aj" x1="545.67" y1="485.08" x2="545.67" y2="497.48"/>
      <line class="aj" x1="571.18" y1="485.08" x2="571.18" y2="497.48"/>
      <line class="aj" x1="545.67" y1="495" x2="571.18" y2="495"/>
      <line class="aj" x1="547.8" y1="467.72" x2="547.8" y2="480.12"/>
      <line class="aj" x1="569.06" y1="467.72" x2="569.06" y2="480.12"/>
      <line class="aj" x1="547.8" y1="477.64" x2="569.06" y2="477.64"/>
    </g>
    <g>
      <line class="aj" x1="591.02" y1="467.72" x2="591.02" y2="497.48"/>
      <line class="aj" x1="591.02" y1="470.2" x2="616.54" y2="470.2"/>
      <line class="aj" x1="616.54" y1="467.72" x2="616.54" y2="497.48"/>
      <line class="aj" x1="591.02" y1="495" x2="616.54" y2="495"/>
    </g>
  </g>
  <g>
    <g>
      <path class="aj" d="m1686.61,467.72h4.25c3.58,22.8,14.17,29.76,14.17,29.76"/>
      <path class="aj" d="m1692.28,475.51s-.8,10.03-12.76,21.97"/>
    </g>
    <g>
      <line class="aj" x1="1724.88" y1="467.72" x2="1724.88" y2="497.48"/>
      <line class="aj" x1="1724.88" y1="470.2" x2="1750.39" y2="470.2"/>
      <line class="aj" x1="1750.39" y1="467.72" x2="1750.39" y2="497.48"/>
      <line class="aj" x1="1724.88" y1="495" x2="1750.39" y2="495"/>
    </g>
  </g>
  <g>
    <path class="o" d="m437.14,483.15c.22,0,.88.02.88.9,0,.78-.46.91-.88.91h-13.13c-.26,0-.88-.03-.88-.9s.58-.91.88-.91h13.13Z"/>
    <path class="o" d="m443.8,485.02c-.34.03-.37.03-.74.08-.03,1.38-.06,3.36-.61,5.12-.35,1.12-.48,1.38-.98,1.38-.4,0-.83-.26-.83-.71,0-.21.46-1.5.54-1.78.22-.78.42-2,.46-3.91-.56.05-1.07.08-1.07-.75,0-.66.4-.69,1.07-.74v-3.79c0-1.04.14-1.67,1.49-1.67h.22c.1-.3.21-.75.32-1.12.11-.4.53-.43.74-.43.19,0,.82.02.82.5,0,.14-.19.7-.3,1.06h.67c1.34,0,1.65.35,1.65,1.67v3.25c.27-.03.75-.08.77.66.16-.4.56-.4.77-.4h4.19c.64,0,1.6,0,1.6,1.28s-1.17,2.95-2.03,4c.91.67,1.92,1.04,2.43,1.23.35.13.62.26.62.71s-.27.99-.78.99c-.22,0-1.68-.4-3.39-1.79-1.17.96-2.62,1.79-3.04,1.79-.5,0-.82-.54-.82-.93s.21-.5.53-.64c1.2-.56,1.86-1.09,2.22-1.38-1.42-1.79-1.7-2.93-1.7-3.12,0-.35.42-.59.77-.59.26,0,.46.1.64.45.53,1.02.8,1.54,1.38,2.21,1.07-1.3,1.41-2.19,1.41-2.37,0-.27-.22-.32-.48-.32h-3.55c-.37,0-.82-.1-.82-.77-.13.27-.32.32-.72.4v5.36c0,1.6-.59,1.67-2.05,1.67-.9,0-1.42,0-1.42-.88,0-.75.59-.75.8-.75.11,0,.62.03.74.03.46,0,.51-.24.51-.51v-4.72c-.11.02-.67.08-.8.1v3.38c0,.27-.03.64-.62.64s-.61-.4-.61-.64v-3.23Zm-.74-1.41c.56-.05.62-.05,1.26-.11.42-.03,1.1-.1,1.5-.14v-3.18c0-.29-.14-.45-.45-.45h-1.89c-.32,0-.43.18-.43.45v3.44Zm1.78-2.75c.22.5.48,1.22.48,1.42,0,.42-.5.58-.74.58-.38,0-.45-.19-.64-.85-.18-.58-.24-.72-.35-.98-.05-.1-.08-.18-.08-.29,0-.3.29-.54.7-.54.32,0,.42.22.62.66Zm8.6-.32c0,.34.08.48.5.48.37,0,.5-.08.56-.54.11-.85.14-1.1.59-1.1.67,0,.67.53.67.69,0,.51-.11,1.57-.38,2.02-.3.46-.78.46-1.62.46-1.33,0-1.73-.24-1.73-1.67v-1.78c0-.29-.14-.45-.45-.45h-.91c-.38,0-.56.03-.59.45-.06.82-.14,2.08-.77,3.09-.35.59-.53.64-.74.64-.38,0-.88-.3-.88-.79,0-.18.05-.26.48-.98.42-.71.48-1.73.51-2.53.06-1.34.85-1.36,1.71-1.36h1.39c1.3,0,1.65.3,1.65,1.65v1.71Z"/>
    <path class="o" d="m412.32,521.7v-6.96c0-3.46,2.02-5.57,5.4-5.57s5.42,2.11,5.42,5.57v6.96c0,3.46-2.02,5.57-5.42,5.57s-5.4-2.11-5.4-5.57Zm5.4,3.48c2.09,0,3.24-1.27,3.24-3.48v-6.96c0-2.21-1.15-3.48-3.24-3.48s-3.22,1.27-3.22,3.48v6.96c0,2.21,1.15,3.48,3.22,3.48Z"/>
    <path class="o" d="m426.79,526.74l-.26-1.34c-.02-.17,0-.29.1-.38l4.92-5.06c2.16-2.28,3.53-3.72,3.53-5.71,0-1.78-1.06-3.07-3.14-3.07-1.92,0-2.95,1.03-3.34,2.62-.05.19-.19.26-.36.22l-1.51-.31c-.17-.05-.26-.17-.22-.36.55-2.35,2.33-4.15,5.5-4.15,3.48,0,5.35,2.18,5.35,5.06,0,2.69-1.7,4.42-3.98,6.79l-3.79,3.89h7.82c.17,0,.29.12.29.29v1.51c0,.17-.12.29-.29.29h-10.3c-.17,0-.29-.07-.31-.26Z"/>
    <path class="o" d="m441.22,526.74l-.26-1.34c-.02-.17,0-.29.1-.38l4.92-5.06c2.16-2.28,3.53-3.72,3.53-5.71,0-1.78-1.06-3.07-3.14-3.07-1.92,0-2.95,1.03-3.34,2.62-.05.19-.19.26-.36.22l-1.51-.31c-.17-.05-.26-.17-.22-.36.55-2.35,2.33-4.15,5.5-4.15,3.48,0,5.35,2.18,5.35,5.06,0,2.69-1.7,4.42-3.98,6.79l-3.79,3.89h7.82c.17,0,.29.12.29.29v1.51c0,.17-.12.29-.29.29h-10.3c-.17,0-.29-.07-.31-.26Z"/>
    <path class="o" d="m455.64,526.74l-.26-1.34c-.02-.17,0-.29.1-.38l4.92-5.06c2.16-2.28,3.53-3.72,3.53-5.71,0-1.78-1.06-3.07-3.14-3.07-1.92,0-2.95,1.03-3.34,2.62-.05.19-.19.26-.36.22l-1.51-.31c-.17-.05-.26-.17-.22-.36.55-2.35,2.33-4.15,5.5-4.15,3.48,0,5.35,2.18,5.35,5.06,0,2.69-1.7,4.42-3.98,6.79l-3.79,3.89h7.82c.17,0,.29.12.29.29v1.51c0,.17-.12.29-.29.29h-10.3c-.17,0-.29-.07-.31-.26Z"/>
  </g>
</svg>