<svg xmlns="http://www.w3.org/2000/svg" xmlns:xlink="http://www.w3.org/1999/xlink" viewBox="0 0 2874.33 884.41"><defs><style>.cls-1,.cls-16,.cls-19,.cls-21,.cls-24,.cls-27,.cls-28{fill:none;}.cls-2{fill:#171818;}.cls-3{fill:#f9f9fa;}.cls-4{fill:#135199;}.cls-5{fill:#89898a;}.cls-6{fill:#cacacb;}.cls-15,.cls-7{fill:#2f2725;}.cls-8{fill:#231815;}.cls-9{fill:#232424;}.cls-10{fill:#c3c4c5;}.cls-11,.cls-17,.cls-18{fill:#076fb8;}.cls-12{clip-path:url(#clip-path);}.cls-13,.cls-23{fill:#f8f8f8;}.cls-14{fill:#053391;}.cls-15,.cls-16,.cls-17,.cls-18,.cls-19,.cls-21,.cls-23,.cls-24{stroke:#231815;}.cls-15,.cls-16,.cls-17,.cls-18,.cls-19,.cls-21,.cls-23,.cls-27,.cls-28{stroke-miterlimit:10;}.cls-15,.cls-16,.cls-17{stroke-width:8px;}.cls-20{fill:#b5b6b6;}.cls-21{stroke-width:0.76px;}.cls-22{fill:#fcfcfc;}.cls-23{stroke-width:6px;}.cls-24,.cls-27{stroke-linecap:round;}.cls-24{stroke-linejoin:round;stroke-width:5px;}.cls-25{opacity:0.75;}.cls-26{fill:#fff;}.cls-27{stroke:#fff;stroke-width:2.16px;}.cls-28{stroke:#606060;stroke-width:0.98px;}.cls-29{fill:#1f2020;}.cls-30{fill:#272828;}.cls-31{fill:#303030;}</style><clipPath id="clip-path"><rect class="cls-1" x="1955.2" y="145.98" width="184.25" height="184.25" rx="14.17"/></clipPath></defs><g id="_9310" data-name="9310"><polygon class="cls-2" points="1814.17 786.61 2154.33 788.03 2154.33 559.84 1814.17 559.84 1814.17 786.61"/><polygon class="cls-2" points="453.54 772.44 793.7 786.61 793.7 559.84 453.54 559.84 453.54 772.44"/><path class="cls-3" d="M2857.32,361.42V644.88h-720a155.89,155.89,0,0,0-138.9-85h-28.35a155.92,155.92,0,0,0-138.91,85H776.7a155.89,155.89,0,0,0-138.9-85H609.45a155.92,155.92,0,0,0-138.91,85H28.35V630.71L21.26,489,68,184.25V170.08L63.78,59.53V49.61L78,42.52H2817.64l17,7.09v85l-12.76,7.09,14.17,216.85Z"/><path class="cls-4" d="M2857.32,644.88v14.17h-68v92.13L2751,758.27l-14.17,18.42L2494.49,788H2154.33V715.75a155.24,155.24,0,0,0-17-70.87Z"/><path class="cls-4" d="M776.7,644.88H1831.17a155.24,155.24,0,0,0-17,70.87v70.86H793.7V715.75A155.24,155.24,0,0,0,776.7,644.88Z"/><path class="cls-4" d="M28.35,644.88H470.54a155.24,155.24,0,0,0-17,70.87v56.69H106.3l-14.17-7.09V694.49H28.35Z"/><polygon class="cls-2" points="93.54 191.34 86.44 184.25 68.03 184.25 68.03 167.24 63.78 59.53 63.78 49.61 77.95 42.52 85.04 48.19 93.54 191.34"/><polygon class="cls-5" points="92.13 694.49 92.13 765.35 0 744.09 0 701.58 28.35 694.49 92.13 694.49"/><polygon class="cls-5" points="2857.32 659.05 2789.29 659.05 2789.29 751.18 2874.33 729.92 2874.33 666.14 2857.32 659.05"/><path class="cls-6" d="M113.39,134.65a35.44,35.44,0,0,1,35.43-35.44H2800.63V92.13H148.82a42.52,42.52,0,0,0-42.52,42.52V758.27h7.09Z"/><rect class="cls-7" x="389.76" y="99.21" width="2347.09" height="12.76"/><rect class="cls-7" x="389.76" y="395.43" width="1795.75" height="8.5"/><rect class="cls-8" x="389.76" y="111.97" width="34.02" height="283.46"/><rect class="cls-8" x="2736.85" y="99.21" width="63.78" height="304.72"/><rect class="cls-9" x="2168.5" y="111.97" width="17.01" height="283.46"/><rect class="cls-10" x="423.78" y="126.14" width="4.25" height="265.04"/><rect class="cls-7" x="2477.48" y="395.43" width="259.37" height="8.5"/><rect class="cls-11" x="2488.82" y="111.97" width="248.03" height="283.46"/><rect class="cls-8" x="2477.48" y="111.97" width="11.34" height="283.46" transform="translate(4966.3 507.4) rotate(-180)"/><rect class="cls-6" x="106.3" y="758.27" width="276.38" height="14.17"/><rect class="cls-6" x="2196.85" y="773.86" width="269.29" height="14.17"/><rect class="cls-8" x="113.39" y="167.24" width="269.29" height="591.02"/><rect class="cls-3" x="119.06" y="170.08" width="130.39" height="474.8"/><rect class="cls-4" x="119.06" y="644.88" width="130.39" height="113.39"/><rect class="cls-11" x="131.89" y="185.75" width="104.72" height="528.5"/><path class="cls-8" d="M235.11,187.25v525.5H133.39V187.25H235.11m3-3H130.39v531.5H238.11V184.25Z"/><rect class="cls-3" x="252.29" y="170.08" width="124.72" height="474.8"/><rect class="cls-4" x="252.29" y="644.88" width="124.72" height="113.39"/><rect class="cls-11" x="265.12" y="185.75" width="99.05" height="528.5"/><path class="cls-8" d="M362.67,187.25v525.5H266.62V187.25h96.05m3-3H263.62v531.5H365.67V184.25Z"/><rect class="cls-8" x="2196.85" y="171.5" width="269.29" height="602.36"/><rect class="cls-3" x="2202.52" y="174.33" width="124.73" height="470.55"/><rect class="cls-4" x="2202.52" y="644.88" width="124.73" height="128.98"/><rect class="cls-11" x="2215.36" y="187.17" width="99.05" height="478.89"/><path class="cls-8" d="M2312.91,188.67V664.56h-96V188.67h96m3-3h-102V667.56h102V185.67Z"/><rect class="cls-3" x="2330.08" y="174.33" width="130.39" height="470.55"/><rect class="cls-4" x="2330.08" y="644.88" width="130.39" height="128.98"/><rect class="cls-11" x="2342.92" y="187.17" width="104.72" height="478.89"/><path class="cls-8" d="M2446.13,188.67V664.56H2344.42V188.67h101.71m3-3H2341.42V667.56h107.71V185.67Z"/><rect class="cls-11" x="423.78" y="111.97" width="1744.72" height="283.46"/><rect class="cls-9" x="1909.13" y="111.97" width="17.01" height="283.46"/><rect class="cls-8" x="1926.14" y="111.97" width="242.36" height="283.46"/><g class="cls-12"><rect class="cls-13" x="1955.2" y="145.98" width="184.25" height="184.25"/><rect class="cls-14" x="1955.2" y="145.98" width="184.25" height="73.7"/></g><rect class="cls-9" x="928.35" y="111.97" width="17.01" height="107.72"/><rect class="cls-9" x="1418.74" y="111.97" width="17.01" height="107.72"/><path class="cls-15" d="M63.78,59.53s15.41-.84,16,9.6L85,167.24H67.92"/><path class="cls-11" d="M68,184.25H86.44a6.87,6.87,0,0,1,7.09,7.09V474.8c.36,13.48-6.12,17.9-17,17.9H21.45L21.26,489"/><path class="cls-16" d="M68,184.25H86.44a6.87,6.87,0,0,1,7.09,7.09V474.8c.36,13.48-6.12,17.9-17,17.9H21.45"/><path class="cls-17" d="M22.82,516.93H67c13,0,26.55,4.37,26.55,17.39v23.74c0,17.62-15.57,29.62-28.08,29.62H26.2"/><polyline class="cls-18" points="2831.81 136.22 2821.89 141.73 2836.06 358.58 2853.07 360.85"/><polyline class="cls-19" points="679.6 565.51 850.39 565.51 850.39 786.61"/><polyline class="cls-19" points="389.76 772.44 389.76 565.51 567.64 565.51"/><polyline class="cls-19" points="850.39 565.51 999.21 565.51 999.21 786.61"/><polyline class="cls-19" points="999.21 565.51 1254.33 565.51 1254.33 786.61"/><polyline class="cls-19" points="1254.33 565.51 1714.96 565.51 1714.96 786.61"/><polyline class="cls-19" points="2040.23 565.51 2175.59 565.51 2175.59 786.61"/><line class="cls-19" x1="1714.96" y1="565.51" x2="1928.28" y2="565.51"/><circle class="cls-8" cx="623.62" cy="742.68" r="141.73"/><circle class="cls-20" cx="623.62" cy="742.68" r="85.04"/><circle class="cls-6" cx="623.62" cy="742.68" r="70.87"/><circle class="cls-8" cx="1984.25" cy="742.68" r="141.73"/><circle class="cls-20" cx="1984.25" cy="742.68" r="85.04"/><circle class="cls-6" cx="1984.25" cy="742.68" r="70.87"/><polyline class="cls-21" points="2487.4 788.03 2487.4 566.93 2751.02 566.93 2751.02 758.27"/><polygon class="cls-22" points="623.62 42.52 623.62 28.35 651.97 0 1077.16 0 1105.51 28.35 1105.51 42.52 623.62 42.52"/><path class="cls-4" d="M754.28,515.92s0,0,0,0c-4.87.56-7.85-2-8-7,0-1.85.15-3.71.24-5.63l-2.26,2.14a51.58,51.58,0,0,1-10.66,8.18c-7.58,4.08-15,3.63-22-1.42a82.48,82.48,0,0,1-9.32-8.43,269.81,269.81,0,0,0-20.83-19,56.45,56.45,0,0,0-7.37-4.64c-1.73-1-3.22-.54-4.64.9a60.57,60.57,0,0,0-10.55,15.18c-2.45,4.73-4.84,9.5-7.38,14.19a22.75,22.75,0,0,1-2.92,3.82,6.14,6.14,0,0,1-1.85,1.31c-3.08,1.56-5.7.08-6.06-3.39a20,20,0,0,1,2-10.11,116.13,116.13,0,0,1,14.95-25.46,104,104,0,0,1,11-11.61c6.13-5.72,12.53-11.16,18.81-16.71l1.29-1.2a14.42,14.42,0,0,0-1.52.29,124.81,124.81,0,0,0-19.41,7.42,17.49,17.49,0,0,0-3.91,2.78c-1.4,1.3-1.27,2.45.1,3.8,1.15,1.13,1.19,2.06.16,3.33-1.49,1.85-3.68,2.35-5.81,2.86a16.6,16.6,0,0,1-11.83-1.42c-3.59-1.86-4.57-5-2.83-8.64a16.59,16.59,0,0,1,5.16-5.69c4.13-3.28,8.92-5.37,13.74-7.32a159.6,159.6,0,0,1,37.13-10,117.7,117.7,0,0,1,22-1.22c6.13.26,12.16,1.16,17.74,3.82a31.48,31.48,0,0,1,6.69,4.32c4.62,3.88,5.9,10.67,3.42,16.76a19.15,19.15,0,0,1-4.35,6.5,40.86,40.86,0,0,1-20.69,11,110.13,110.13,0,0,1-20.39,2.34c-5,.1-10,.16-15,.15-1.66,0-3.33-.28-5.37-.48,2.92,2.05,5.5,4,8.17,5.73,9.09,6.06,18.17,12.13,27.34,18.08a57.21,57.21,0,0,0,7.12,3.6,9.93,9.93,0,0,0,8.13.05,26.14,26.14,0,0,0,9.47-6.47c2.54-2.67,4.87-5.53,7.29-8.3,4.53-5.16,9-10.35,13.6-15.46a7.63,7.63,0,0,1,6.54-2.47c2,.17,3,1.58,2.39,3.54a5.84,5.84,0,0,1-1.39,2.37c-3.56,3.38-7.25,6.63-10.8,10-2.29,2.2-4.45,4.54-6.59,6.88a9.23,9.23,0,0,0-2.31,5.13,4.09,4.09,0,0,0,3.61,4.92c3.39.35,6.47-.45,8.69-3.18,4-4.93,7.92-9.94,11.85-14.94,2.17-2.77,4.29-5.57,6.4-8.39a10.35,10.35,0,0,1,5.2-4.09,3.31,3.31,0,0,1,3.36.47c1,.86.79,2,.44,3.08a16.57,16.57,0,0,1-1.3,3,46,46,0,0,1-2.91,4.62c-4.13,5.53-8.32,11-12.5,16.53q-9.36,12.29-18.73,24.57a6,6,0,0,0-1.1,2.09c-.24,1,.35,1.44,1.22.95a12.48,12.48,0,0,0,2.84-2.09c6.18-6.46,12.27-13,18.47-19.45,3.73-3.88,7.62-7.61,11.41-11.43,4.8-4.85,9.49-9.82,14.37-14.58,3.81-3.71,8.15-6.67,13.63-7.32a5.57,5.57,0,0,1,4.82,1.42,2.61,2.61,0,0,1,.83,2.77,2.55,2.55,0,0,1-2.4,1.6,4.77,4.77,0,0,1-1.88-.18,6.29,6.29,0,0,0-5.57.83c-5.69,3.66-9,9-10.44,15.49a12.29,12.29,0,0,0,.73,8.43c2,4,5.77,4.95,9.26,2.21A16.44,16.44,0,0,0,819.58,495c0-.75-.09-1.21-.94-1.5a3.71,3.71,0,0,1-2.61-3.8c-.07-5,3.06-7.88,8-7.25a19.79,19.79,0,0,0,9.8-1.49,5.08,5.08,0,0,0,2.65-2.4,244.3,244.3,0,0,1,21.29-32.35,30.48,30.48,0,0,1,8.29-7.6,9.17,9.17,0,0,1,6.09-1.21,6.1,6.1,0,0,1,5.21,6c.17,3.7-1.08,7-2.71,10.19a33.79,33.79,0,0,1-10.76,12.49c-4,2.82-8,5.61-12,8.41l-1.33.92a31.43,31.43,0,0,0,7,10.19,21.24,21.24,0,0,0,2.89,2.27,7.3,7.3,0,0,0,8.24.29,42.22,42.22,0,0,0,10.06-8.49c2.46-2.65,5.15-4.93,8.81-5.69a3.53,3.53,0,0,1,3.72,1,3.33,3.33,0,0,1,.22,3.71,10.07,10.07,0,0,1-1.44,2.38,23.89,23.89,0,0,1-2.51,2.52c-4.8,4.35-8.81,9.27-11.17,15.38a12.24,12.24,0,0,0-1,7.07,6.48,6.48,0,0,0,8.26,5.05c3.71-1,6.56-3.44,9.32-6,.87-.8,1.67-1.68,2.53-2.5a7.9,7.9,0,0,1,.94-.66l.3.21a6.4,6.4,0,0,1-.34,1.1c-4.15,7.77-10.39,12.38-19.39,12.65a9.52,9.52,0,0,1-9.32-8.13,19.2,19.2,0,0,1,1.72-10.39c1.2-2.84,2.69-5.55,4.05-8.33a6.9,6.9,0,0,0,.56-1.39c-7.49,5.82-14.73,6.46-21.79-1.06-.17,1.7-.26,3.1-.44,4.49a46.91,46.91,0,0,1-5.18,17,21.8,21.8,0,0,1-3.62,4.71,11,11,0,0,1-12.39,1.85,6.57,6.57,0,0,1-3.85-6c-.32-8.41,2-16.13,5.84-23.51l.54-1a.59.59,0,0,0,0-.13c-3,.3-6.79,3.63-7.57,6.58-1.17,4.41-2.23,8.87-3.7,13.19-3,8.75-11.4,13.65-20.57,11.26-4.09-1.06-5.88-4.29-6.82-8.11s-.45-7.65.49-11.66c-.38.3-.63.46-.84.66a216.75,216.75,0,0,0-33.86,41.77c-3.39,5.39-7,10.62-11.74,15-2.33,2.13-4.84,4-8.17,4.27a2.77,2.77,0,0,1-3.38-2.44,13.33,13.33,0,0,1,.69-6.74c2.26-7.75,6.06-14.79,10.09-21.71C749.92,522.68,752.14,519.33,754.28,515.92Zm-61-44.18a68,68,0,0,0,20.11-3.11c6-1.83,11.86-4,16.59-8.42a20.19,20.19,0,0,0,6.27-9.66c1.23-4.71-.39-7.73-5.09-8.78a36,36,0,0,0-9.41-.95,105,105,0,0,0-12.18,1.64,17.17,17.17,0,0,0-9.71,4.52c-5.83,5.8-11.81,11.43-17.7,17.17a40.65,40.65,0,0,0-3.2,3.61c-1.1,1.35-1,1.58.67,2.12A44.73,44.73,0,0,0,693.27,471.74Zm152.23,6.37a36,36,0,0,0-3.08,3.29,40.29,40.29,0,0,0-6.95,15.25,20.27,20.27,0,0,0-.27,5.4,3.3,3.3,0,0,0,2.17,3,3.21,3.21,0,0,0,3.46-1,14.86,14.86,0,0,0,2.1-2.53,31.23,31.23,0,0,0,4.52-18.44A7.55,7.55,0,0,0,845.5,478.11Zm3.5-8.43.44.46c1.33-.67,2.71-1.24,4-2a49.13,49.13,0,0,0,12.52-11.58,11.08,11.08,0,0,0,2.53-6.52,3.63,3.63,0,0,0-.7-2.4c-.76-.8-1.76-.2-2.52.34a24.19,24.19,0,0,0-3.17,2.52,74.58,74.58,0,0,0-12.54,17.32A8.85,8.85,0,0,0,849,469.68Z"/><path class="cls-4" d="M888.44,469.72c.46-1.34.85-2.71,1.39-4a1.19,1.19,0,0,0-.53-1.68c-1-.72-2-1.52-3-2.28l.06-.35h2.55c2.49,0,2.49,0,3.36-2.4a9.5,9.5,0,0,1,1.24-2.52c.35,1.23.79,2.44,1,3.7.19,1,.69,1.21,1.59,1.17a20.36,20.36,0,0,1,4,.19l-2.43,1.78c-1.84,1.35-1.84,1.34-1.24,3.54.26.92.51,1.84.87,3.14l-4.36-3.16-4.29,3Z"/><rect class="cls-23" x="524.41" y="416.69" width="99.21" height="59.53" rx="11.34"/><line class="cls-24" x1="551.34" y1="429.45" x2="551.34" y2="460.63"/><line class="cls-24" x1="534.33" y1="449.29" x2="534.33" y2="463.46"/><line class="cls-24" x1="568.35" y1="449.29" x2="568.35" y2="463.46"/><line class="cls-24" x1="534.33" y1="460.63" x2="568.35" y2="460.63"/><line class="cls-24" x1="537.17" y1="429.45" x2="537.17" y2="443.62"/><line class="cls-24" x1="565.51" y1="429.45" x2="565.51" y2="443.62"/><line class="cls-24" x1="537.17" y1="440.79" x2="565.51" y2="440.79"/><line class="cls-24" x1="579.69" y1="429.45" x2="579.69" y2="463.46"/><line class="cls-24" x1="579.69" y1="432.28" x2="613.7" y2="432.28"/><line class="cls-24" x1="613.7" y1="429.45" x2="613.7" y2="463.46"/><line class="cls-24" x1="579.69" y1="460.63" x2="613.7" y2="460.63"/><rect class="cls-23" x="1998.43" y="416.69" width="99.21" height="59.53" rx="11.34"/><line class="cls-24" x1="2053.7" y1="429.45" x2="2053.7" y2="463.46"/><line class="cls-24" x1="2053.7" y1="432.28" x2="2087.72" y2="432.28"/><line class="cls-24" x1="2087.72" y1="429.45" x2="2087.72" y2="463.46"/><line class="cls-24" x1="2053.7" y1="460.63" x2="2087.72" y2="460.63"/><polyline class="cls-24" points="2042.36 463.46 2025.35 429.45 2018.27 430.87"/><line class="cls-24" x1="2025.35" y1="429.45" x2="2008.35" y2="463.46"/><g class="cls-25"><path class="cls-26" d="M2273.28,254.43h-16.8a2,2,0,0,1-2-2v-19a2,2,0,0,1,2-2H2265a12,12,0,0,1-1.5-2.22,1,1,0,0,1-.15-.54,1.08,1.08,0,0,1,1.08-1.08,1.1,1.1,0,0,1,1,.57,10.19,10.19,0,0,0,2.67,3.27h5.19a2,2,0,0,1,2,2v19A2,2,0,0,1,2273.28,254.43Zm-.12-16.26v-4.68H2256.6v4.68Zm0,6.84v-4.68H2256.6V245Zm0,7.26v-5.1H2256.6v5.1Z"/><path class="cls-26" d="M2255.67,300.81a2.75,2.75,0,0,1-2.71-2.27,66.21,66.21,0,0,1-1.07-12.77v-4.7a2,2,0,0,1,2-2h3.59v-5.19a1.08,1.08,0,0,1,2.16,0V279h2.55a1.08,1.08,0,0,1,0,2.16h-2.55c.09,8.54,1.22,13,4.31,17.36a1.07,1.07,0,0,1-.87,1.71,1.07,1.07,0,0,1-.89-.46c-3.34-4.7-4.61-9.68-4.71-18.61h-3.47v4.58a64.62,64.62,0,0,0,1,12.39.61.61,0,0,0,.71.48,8.56,8.56,0,0,0,2-.7,1.08,1.08,0,1,1,.91,2,10.6,10.6,0,0,1-2.52.86,3.17,3.17,0,0,1-.53.05Zm21.4-.51a74.49,74.49,0,0,1-11.62-1.5,1.08,1.08,0,0,1-.88-1.06,1.09,1.09,0,0,1,1.32-1.06c1.43.3,2.82.55,4.19.76v-2.08h-4.21a1.08,1.08,0,1,1,0-2.16h4.21v-1.69h-3.46a1.81,1.81,0,0,1-1.8-1.8v-6.33a1.81,1.81,0,0,1,1.8-1.8h3.46v-1.53h-5a1.08,1.08,0,1,1,0-2.15h5v-2c-1.16-.23-2.36-.53-3.74-.93a1.08,1.08,0,0,1,.28-2.12.86.86,0,0,1,.32.05,33.42,33.42,0,0,0,9.34,1.49,1.08,1.08,0,0,1,1,1.08,1.1,1.1,0,0,1-1.12,1.08c-1.48,0-2.75-.14-4-.29v1.66h5a1.08,1.08,0,1,1,0,2.15h-5v1.53h3.47a1.81,1.81,0,0,1,1.8,1.8v6.33a1.81,1.81,0,0,1-1.8,1.8h-3.47v1.69h4.22a1.08,1.08,0,0,1,0,2.16h-4.22v2.37c1.61.19,3.24.33,4.94.42a1.08,1.08,0,1,1-.11,2.15Zm-7-14.88v-1.68H2267v1.68Zm0,3.93v-1.77H2267v1.77Zm5.27-3.93v-1.68h-3.11v1.68Zm0,3.93v-1.77h-3.11v1.77Z"/><path class="cls-26" d="M2260.14,345.94a1.09,1.09,0,0,1-1.08-1.08v-2.32h-7.25a1.08,1.08,0,1,1,0-2.16h7.25v-2h-4.68a1.08,1.08,0,0,1,0-2.16h4.68v-1.62h-5.63a1.08,1.08,0,1,1,0-2.16h5.63v-1.21a1.08,1.08,0,1,1,2.16,0v13.61A1.08,1.08,0,0,1,2260.14,345.94Zm17.89-2.2a1.07,1.07,0,0,1-.88-.45c-2.56-3.51-3.47-6.92-3.55-13.63h-18.34a1.81,1.81,0,0,1-1.8-1.8v-3.13a1.81,1.81,0,0,1,1.8-1.8H2274a1.81,1.81,0,0,1,1.8,1.8v3.89c0,7,.71,10.08,3.13,13.39a1,1,0,0,1,.22.65A1.09,1.09,0,0,1,2278,343.74Zm-4.43-16.24v-2.41h-18v2.41Zm-5.73,18.44a1.09,1.09,0,0,1-.62-.2c-2.32-1.58-3.23-3.82-3.23-7.77v-6.72a1.08,1.08,0,0,1,2.16,0v1.21h5.51a1.08,1.08,0,0,1,0,2.16h-5.51v1.62h4.56a1.08,1.08,0,0,1,0,2.16h-4.56q0,.64.06,1.2a35.54,35.54,0,0,0,7.28,1.24,1.07,1.07,0,0,1,1,1.07,1.09,1.09,0,0,1-1.17,1.08,36.65,36.65,0,0,1-6.59-1,4.46,4.46,0,0,0,1.69,2,1.07,1.07,0,0,1,.48.9,1.09,1.09,0,0,1-1.08,1.08Z"/><line class="cls-27" x1="2264.88" y1="318.67" x2="2264.88" y2="322.93"/></g><path class="cls-4" d="M428.38,456.77a1.18,1.18,0,0,1,1.32,1.34c0,1.18-.7,1.37-1.32,1.37H408.69a1.18,1.18,0,0,1-1.32-1.34c0-1.3.87-1.37,1.32-1.37Z"/><path class="cls-4" d="M448,459.58l-1.1.12a29.05,29.05,0,0,1-.91,7.68c-.53,1.68-.72,2.06-1.47,2.06a1.16,1.16,0,0,1-1.25-1.05c0-.32.7-2.26.82-2.67a24.27,24.27,0,0,0,.7-5.85c-.84.07-1.61.12-1.61-1.13,0-1,.6-1,1.61-1.11V452c0-1.56.21-2.5,2.23-2.5h.33c.15-.46.32-1.13.48-1.68a1,1,0,0,1,1.11-.65c.29,0,1.22,0,1.22.74a11.23,11.23,0,0,1-.45,1.59h1c2,0,2.48.53,2.48,2.5v4.87c.41-.05,1.13-.12,1.15,1a1.09,1.09,0,0,1,1.15-.6h6.29c1,0,2.4,0,2.4,1.92s-1.75,4.42-3.05,6a14.75,14.75,0,0,0,3.65,1.85c.53.19.94.39.94,1.06s-.41,1.49-1.18,1.49a12,12,0,0,1-5.09-2.69c-1.75,1.44-3.93,2.69-4.56,2.69a1.4,1.4,0,0,1-1.22-1.4c0-.55.31-.74.79-1a16.06,16.06,0,0,0,3.34-2.06c-2.14-2.69-2.55-4.39-2.55-4.68,0-.53.63-.89,1.15-.89a1,1,0,0,1,1,.67,14.67,14.67,0,0,0,2.07,3.31,9,9,0,0,0,2.11-3.55c0-.41-.34-.48-.72-.48h-5.33c-.55,0-1.22-.14-1.22-1.15-.19.41-.48.48-1.08.6v8c0,2.4-.89,2.5-3.08,2.5-1.34,0-2.13,0-2.13-1.32a1,1,0,0,1,1.2-1.13l1.1.05c.7,0,.77-.36.77-.77v-7.08l-1.2.14v5.07c0,.4-.05,1-.94,1s-.91-.6-.91-1Zm-1.1-2.11,1.89-.17c.63-.05,1.66-.15,2.26-.22v-4.77a.6.6,0,0,0-.67-.68h-2.83c-.48,0-.65.27-.65.68Zm2.66-4.13a8.9,8.9,0,0,1,.72,2.13c0,.63-.74.87-1.1.87-.58,0-.67-.29-1-1.27a10.66,10.66,0,0,0-.53-1.47.89.89,0,0,1-.12-.43c0-.46.43-.82,1.06-.82C449.09,452.35,449.23,452.69,449.54,453.34Zm12.89-.48c0,.5.12.72.75.72s.74-.12.84-.82c.16-1.27.21-1.65.88-1.65a.91.91,0,0,1,1,1,7.76,7.76,0,0,1-.57,3c-.46.7-1.18.7-2.43.7-2,0-2.59-.36-2.59-2.5V450.7a.6.6,0,0,0-.67-.68h-1.37c-.58,0-.84.05-.89.68a10.13,10.13,0,0,1-1.15,4.63c-.53.89-.79,1-1.1,1a1.3,1.3,0,0,1-1.32-1.18c0-.26.07-.38.72-1.46a8.47,8.47,0,0,0,.76-3.79c.1-2,1.28-2,2.57-2H460c1.94,0,2.47.45,2.47,2.47Z"/><path class="cls-4" d="M409.61,500.93a.33.33,0,0,1,.07-.5l1-.8c.19-.16.36-.14.52.1a3.8,3.8,0,0,0,3.32,1.58c2.37,0,3.53-1.34,3.53-3.55V495h0a4.16,4.16,0,0,1-3.79,2c-2.86,0-4.9-1.9-4.9-5.16v-1.16c0-3.28,2-5.28,5.38-5.3,3.55,0,5.57,2.21,5.57,5.57l0,6.65c0,3.57-2,5.83-5.64,5.83A5.67,5.67,0,0,1,409.61,500.93Zm8.45-9.29v-.84c0-2.37-1.35-3.43-3.29-3.43s-3.24,1.06-3.24,3.38v.87c0,2.33,1.27,3.38,3.12,3.38A3.15,3.15,0,0,0,418.06,491.64Z"/><path class="cls-4" d="M434.47,489.87v.33a4,4,0,0,1-2.81,3.84,4,4,0,0,1,3.15,4v.36c0,2.95-2.11,5-5.64,5a5.36,5.36,0,0,1-5.55-4,.38.38,0,0,1,.22-.51l1.27-.45c.29-.1.46,0,.55.21a3.36,3.36,0,0,0,3.53,2.67c2.11,0,3.36-1.18,3.36-3.08V498c0-1.88-1.22-2.91-3.55-2.91h-1.1a.28.28,0,0,1-.32-.31v-1.37a.29.29,0,0,1,.32-.33H429c2,0,3.24-1.08,3.24-2.76v-.27c0-1.82-1.2-2.71-3.12-2.71a3.1,3.1,0,0,0-3.26,2.33.27.27,0,0,1-.41.17l-1.35-.65a.29.29,0,0,1-.14-.41,5.12,5.12,0,0,1,5.26-3.48C432.65,485.33,434.47,487.2,434.47,489.87Z"/><path class="cls-4" d="M444.73,502.87c0,.2-.07.29-.29.29h-1.63c-.21,0-.29-.09-.29-.29v-17c0-.19.08-.29.29-.29h1.63c.22,0,.29.1.29.29Z"/><path class="cls-4" d="M452.69,497.88v-7c0-3.5,2.16-5.54,5.49-5.54s5.48,2.14,5.48,5.54v7c0,3.41-2.09,5.55-5.48,5.55S452.69,501.39,452.69,497.88Zm8.71-.07V491c0-2.4-1.3-3.51-3.22-3.51s-3.24,1.08-3.24,3.51v6.86c0,2.4,1.32,3.5,3.27,3.5S461.4,500.23,461.4,497.81Z"/><rect class="cls-9" x="389.76" y="111.97" width="34.02" height="107.72"/><rect class="cls-9" x="2471.49" y="111.97" width="17.01" height="107.72"/><rect class="cls-7" x="389.76" y="219.69" width="1536.38" height="11.34"/><rect class="cls-8" x="925.51" y="231.02" width="22.68" height="164.41"/><line class="cls-28" x1="936.85" y1="231.02" x2="936.85" y2="395.43"/><rect class="cls-8" x="1415.91" y="231.02" width="22.68" height="164.41"/><line class="cls-28" x1="1427.24" y1="231.02" x2="1427.24" y2="395.43"/><path class="cls-29" d="M928.35,219.69H423.78V112H928.35ZM925.51,114.8H426.61V216.85h498.9Z"/><path class="cls-29" d="M1418.74,219.69H945.35V112h473.39Zm-2.83-104.89H948.19V216.85h467.72Z"/><path class="cls-30" d="M674.65,114.8H925.51V216.85H674.65Zm2.83,96.38h245.2V117.64H677.48Z"/><path class="cls-31" d="M426.61,114.8H677.48V216.85H426.61Zm2.84,96.38h245.2V117.64H429.45Z"/><path class="cls-30" d="M1180.63,114.8h235.28V216.85H1180.63Zm2.83,96.38h229.61V117.64H1183.46Z"/><path class="cls-31" d="M948.19,114.8h235.27V216.85H948.19ZM951,211.18h229.61V117.64H951Z"/><path class="cls-29" d="M1909.13,219.69H1435.75V112h473.38ZM1906.3,114.8H1438.58V216.85H1906.3Z"/><path class="cls-30" d="M1671,114.8H1906.3V216.85H1671Zm2.84,96.38h229.6V117.64h-229.6Z"/><path class="cls-31" d="M1438.58,114.8h235.28V216.85H1438.58Zm2.84,96.38H1671V117.64h-229.6Z"/><rect class="cls-7" x="2477.48" y="219.69" width="259.37" height="11.34"/><path class="cls-29" d="M2736.85,219.69h-248V112h248ZM2734,114.8H2491.65V216.85H2734Z"/><path class="cls-30" d="M2611.42,114.8H2734V216.85h-122.6Zm2.83,96.38h116.93V117.64H2614.25Z"/><path class="cls-31" d="M2491.65,114.8h122.6V216.85h-122.6Zm2.84,96.38h116.93V117.64H2494.49Z"/></g></svg>