<?xml version="1.0" encoding="UTF-8"?>
<svg id="d" data-name="9811" xmlns="http://www.w3.org/2000/svg" xmlns:xlink="http://www.w3.org/1999/xlink" viewBox="0 0 3095.43 884.41">
  <defs>
    <style>
      .j {
        fill: #2f3030;
      }

      .j, .k, .l, .m, .n, .o, .p, .q, .r, .s, .t, .u, .v, .w, .x, .y, .z, .aa, .ab, .ac, .ad {
        stroke-width: 0px;
      }

      .ae, .af, .p, .ag, .ah, .ai {
        fill: none;
      }

      .ae, .af, .ah, .ai, .aj {
        stroke: #231815;
      }

      .ae, .af, .aj {
        stroke-miterlimit: 10;
      }

      .k {
        fill: #2f2725;
      }

      .l {
        fill: #114c90;
      }

      .m {
        fill: #231815;
      }

      .n {
        fill: #171717;
      }

      .o {
        fill: #135199;
      }

      .af {
        stroke-width: 2px;
      }

      .q {
        fill: #cacacb;
      }

      .r {
        fill: #f4d823;
      }

      .ak {
        clip-path: url(#e);
      }

      .s {
        fill: #ea5614;
      }

      .t {
        fill: #1f2020;
      }

      .u {
        fill: #171818;
      }

      .ag {
        stroke: #040000;
        stroke-width: 10px;
      }

      .v {
        fill: #a0a0a0;
      }

      .w {
        fill: #f9f9fa;
      }

      .ah, .ai {
        stroke-linejoin: round;
      }

      .ah, .aj {
        stroke-width: 6px;
      }

      .x {
        fill: #232424;
      }

      .y {
        fill: rgba(35, 24, 21, .05);
      }

      .ai {
        stroke-linecap: round;
        stroke-width: 4px;
      }

      .z {
        fill: #076fb8;
      }

      .aj {
        fill: #f8f8f8;
      }

      .aa {
        fill: #b5b6b6;
      }

      .ab {
        fill: #fcfcfc;
      }

      .ac {
        fill: #085099;
      }

      .ad {
        fill: #303030;
      }
    </style>
    <clipPath id="e">
      <rect class="p" x="1652.6" y="195.59" width="226.77" height="127.56" rx="2.83" ry="2.83"/>
    </clipPath>
  </defs>
  <g>
    <path class="o" d="m2885.67,632.12v34.02l-11.34,68.03-379.84,70.87h-340.16v-56.7c0-44.95-17.43-85.82-45.9-116.22h777.24Z"/>
    <path class="w" d="m2885.67,337.32v294.8h-777.24c-31.04-33.15-75.19-53.86-124.18-53.86s-93.14,20.71-124.17,53.86H747.8c-31.04-33.15-75.19-53.86-124.18-53.86s-93.14,20.71-124.17,53.86H19.84v-116.22L53.86,195.59l22.68-121.89-2.84-2.84,5.67-8.5,34.02-8.51h2664.56l79.37,5.67,11.34,8.51,17.01,269.29Z"/>
    <path class="o" d="m747.8,632.12h1112.28c-28.46,30.4-45.9,71.27-45.9,116.22v56.7h-1020.48v-56.7c0-44.95-17.44-85.82-45.9-116.22Z"/>
    <path class="o" d="m19.84,632.12h479.61c-28.47,30.4-45.9,71.27-45.9,116.22v28.35H82.21l-62.37-62.36v-82.21Z"/>
  </g>
  <polyline class="ae" points="1301.1 805.04 1301.1 649.13 858.9 649.13"/>
  <polyline class="ae" points="858.9 805.04 858.9 649.13 405.35 649.13 405.35 776.69"/>
  <line class="ae" x1="2769.45" y1="436.54" x2="2769.45" y2="666.14"/>
  <line class="ae" x1="2494.49" y1="436.54" x2="2494.49" y2="805.04"/>
  <line class="ae" x1="2182.68" y1="649.13" x2="2182.68" y2="805.04"/>
  <polyline class="ae" points="2494.49 649.13 1612.91 649.13 1612.91 805.04"/>
  <path class="u" d="m793.7,805.04v-56.69c0-93.93-76.15-170.08-170.08-170.08s-170.08,76.15-170.08,170.08v28.35l340.16,28.35Z"/>
  <path class="u" d="m2154.33,805.04v-56.69c0-93.93-76.15-170.08-170.08-170.08s-170.08,76.15-170.08,170.08v56.69h340.16Z"/>
  <polygon class="k" points="19.84 515.91 19.84 532.91 90.71 532.91 90.71 501.73 19.84 515.91"/>
  <g>
    <circle class="m" cx="623.62" cy="742.68" r="141.73"/>
    <circle class="aa" cx="623.62" cy="742.68" r="85.04"/>
    <circle class="q" cx="623.62" cy="742.68" r="70.87"/>
  </g>
  <g>
    <circle class="m" cx="1984.25" cy="742.68" r="141.73"/>
    <circle class="aa" cx="1984.25" cy="742.68" r="85.04"/>
    <circle class="q" cx="1984.25" cy="742.68" r="70.87"/>
  </g>
  <rect class="q" x="107.72" y="762.52" width="269.29" height="14.17"/>
  <polygon class="k" points="76.54 73.7 87.87 82.2 93.54 96.38 93.54 195.59 53.86 195.59 76.54 73.7"/>
  <path class="z" d="m19.84,515.91h53.86c7.83,0,14.17-6.35,14.17-14.17l2.83-306.14h-36.85l-34.02,320.31Z"/>
  <path class="ah" d="m19.84,515.91h53.86c7.83,0,14.17-6.35,14.17-14.17l2.83-306.14h-36.85"/>
  <path class="ag" d="m793.7,805.04v-56.69c0-93.93-76.15-170.08-170.08-170.08s-170.08,76.15-170.08,170.08v28.35"/>
  <path class="ag" d="m2154.33,805.04v-56.69c0-93.93-76.15-170.08-170.08-170.08s-170.08,76.15-170.08,170.08v56.69"/>
  <rect class="y" x="130.39" y="110.55" width="2650.39" height="8.5"/>
  <path class="q" d="m99.21,141.73c0-17.23,13.95-31.18,31.18-31.18v8.5c-12.53,0-22.68,10.14-22.68,22.68v634.96h-8.5V141.73Z"/>
  <path class="u" d="m130.39,119.06c-12.53,0-22.68,10.14-22.68,22.68v294.8h2661.73s0-317.48,0-317.48H130.39Z"/>
  <polygon class="ab" points="623.62 53.86 623.62 39.69 651.97 11.34 1077.17 11.34 1105.51 39.69 1105.51 53.86 623.62 53.86"/>
  <g>
    <rect class="m" x="107.72" y="195.59" width="269.29" height="566.93"/>
    <g>
      <g>
        <rect class="o" x="113.39" y="632.12" width="130.39" height="130.4"/>
        <rect class="w" x="113.39" y="198.42" width="130.39" height="433.7"/>
      </g>
      <g>
        <rect class="z" x="127.22" y="234.94" width="102.72" height="482.56"/>
        <path class="m" d="m227.44,237.44v477.56h-97.72V237.44h97.72m5-5h-107.72v487.56h107.72V232.44h0Z"/>
      </g>
    </g>
    <g>
      <g>
        <rect class="o" x="246.61" y="632.12" width="124.73" height="130.4"/>
        <rect class="w" x="246.61" y="198.42" width="124.73" height="433.7"/>
      </g>
      <g>
        <rect class="z" x="260.45" y="234.94" width="97.05" height="482.56"/>
        <path class="m" d="m355,237.44v477.56h-92.05V237.44h92.05m5-5h-102.05v487.56h102.05V232.44h0Z"/>
      </g>
    </g>
  </g>
  <g>
    <rect class="x" x="2485.98" y="119.06" width="277.8" height="317.48"/>
    <rect class="z" x="2494.49" y="136.06" width="260.79" height="283.46"/>
  </g>
  <rect class="u" x="2763.78" y="119.06" width="5.67" height="317.48"/>
  <rect class="u" x="2477.48" y="119.06" width="8.5" height="317.48"/>
  <rect class="u" x="411.02" y="119.06" width="5.67" height="317.48"/>
  <rect class="t" x="1615.75" y="119.06" width="14.17" height="317.48"/>
  <rect class="t" x="1312.44" y="119.06" width="14.17" height="317.48"/>
  <g>
    <rect class="x" x="416.69" y="119.06" width="443.62" height="317.48"/>
    <rect class="z" x="425.2" y="136.06" width="426.61" height="283.46"/>
    <rect class="k" x="425.2" y="232.44" width="426.61" height="17.01"/>
    <rect class="ad" x="637.09" y="136.06" width="2.83" height="96.38"/>
  </g>
  <path class="z" d="m19.84,532.91h68.03v31.18c0,21.94-17.75,39.69-39.69,39.69h-28.35v-70.87Z"/>
  <path class="ah" d="m19.84,532.91h68.03v31.18c0,21.94-17.75,39.69-39.69,39.69h-28.35"/>
  <rect class="u" x="860.31" y="119.06" width="8.5" height="317.48"/>
  <rect class="r" x="1343.62" y="782.36" width="255.12" height="11.34"/>
  <polygon class="l" points="2769.45 666.14 2769.45 753.66 2891.34 734.17 2899.84 725.22 2905.51 671.81 2899.84 666.14 2769.45 666.14"/>
  <rect class="ae" x="2789.29" y="357.17" width="59.53" height="79.37" rx="5.67" ry="5.67"/>
  <g>
    <rect class="s" x="897.75" y="668.14" width="30.02" height="21.51"/>
    <path class="v" d="m925.76,670.14v17.51h-26.02v-17.51h26.02m4-4h-34.02v25.51h34.02v-25.51h0Z"/>
  </g>
  <polygon class="l" points="82.2 776.69 11.34 765.35 5.67 759.69 0 714.33 0 705.83 82.2 705.83 82.2 776.69"/>
  <g>
    <g>
      <path class="s" d="m76.53,646.3v51.02c0,3.13-2.54,5.67-5.67,5.67h-17v-21.26c0-.78-.64-1.42-1.42-1.42h-4.25v-34.01c0-3.13,2.53-5.67,5.67-5.67h17c3.13,0,5.67,2.54,5.67,5.67Z"/>
      <path class="q" d="m53.86,681.73v21.26c-3.14,0-5.67-2.54-5.67-5.67v-17.01h4.25c.78,0,1.42.64,1.42,1.42Z"/>
    </g>
    <g>
      <path class="af" d="m48.19,680.31v-34.01c0-3.13,2.53-5.67,5.67-5.67h17c3.13,0,5.67,2.54,5.67,5.67v51.02c0,3.13-2.54,5.67-5.67,5.67h-17c-3.14,0-5.67-2.54-5.67-5.67v-17.01Z"/>
      <path class="ae" d="m48.19,680.31h4.25c.78,0,1.42.64,1.42,1.42v21.26"/>
    </g>
  </g>
  <path class="m" d="m25.51,702.99c3.13,0,5.67-3.8,5.67-8.5v-25.51c0-4.7-2.54-8.5-5.67-8.5h-5.67v42.52s5.67,0,5.67,0Z"/>
  <g>
    <path class="o" d="m437.14,483.14c.22,0,.88.02.88.9,0,.79-.46.91-.88.91h-13.13c-.26,0-.88-.03-.88-.9s.58-.91.88-.91h13.13Z"/>
    <path class="o" d="m443.8,485.02c-.34.03-.37.03-.74.08-.03,1.38-.06,3.36-.61,5.12-.35,1.12-.48,1.38-.98,1.38-.4,0-.83-.26-.83-.71,0-.21.46-1.5.54-1.78.22-.78.42-2,.46-3.9-.56.05-1.07.08-1.07-.75,0-.66.4-.69,1.07-.74v-3.79c0-1.04.14-1.66,1.49-1.66h.22c.1-.3.21-.75.32-1.12.11-.4.53-.43.74-.43.19,0,.82.02.82.5,0,.14-.19.71-.3,1.06h.67c1.34,0,1.65.35,1.65,1.66v3.25c.27-.03.75-.08.77.66.16-.4.56-.4.77-.4h4.19c.64,0,1.6,0,1.6,1.28s-1.17,2.95-2.03,4c.91.67,1.92,1.04,2.43,1.23.35.13.62.26.62.71s-.27.99-.78.99c-.22,0-1.68-.4-3.39-1.79-1.17.96-2.62,1.79-3.04,1.79-.5,0-.82-.54-.82-.93s.21-.5.53-.64c1.2-.56,1.86-1.09,2.22-1.38-1.42-1.79-1.7-2.93-1.7-3.12,0-.35.42-.59.77-.59.26,0,.46.1.64.45.53,1.03.8,1.54,1.38,2.21,1.07-1.29,1.41-2.19,1.41-2.37,0-.27-.22-.32-.48-.32h-3.55c-.37,0-.82-.1-.82-.77-.13.27-.32.32-.72.4v5.36c0,1.6-.59,1.67-2.05,1.67-.9,0-1.42,0-1.42-.88,0-.75.59-.75.8-.75.11,0,.62.03.74.03.46,0,.51-.24.51-.51v-4.72c-.11.02-.67.08-.8.1v3.38c0,.27-.03.64-.62.64s-.61-.4-.61-.64v-3.23Zm-.74-1.41c.56-.05.62-.05,1.26-.11.42-.03,1.1-.1,1.5-.14v-3.19c0-.29-.14-.45-.45-.45h-1.89c-.32,0-.43.18-.43.45v3.44Zm1.78-2.75c.22.5.48,1.21.48,1.42,0,.42-.5.58-.74.58-.38,0-.45-.19-.64-.85-.18-.58-.24-.72-.35-.98-.05-.1-.08-.18-.08-.29,0-.3.29-.54.7-.54.32,0,.42.22.62.66Zm8.6-.32c0,.34.08.48.5.48.37,0,.5-.08.56-.54.11-.85.14-1.11.59-1.11.67,0,.67.53.67.69,0,.51-.11,1.57-.38,2.02-.3.46-.78.46-1.62.46-1.33,0-1.73-.24-1.73-1.66v-1.78c0-.29-.14-.45-.45-.45h-.91c-.38,0-.56.03-.59.45-.06.82-.14,2.08-.77,3.09-.35.59-.53.64-.74.64-.38,0-.88-.3-.88-.79,0-.18.05-.26.48-.98.42-.71.48-1.73.51-2.53.06-1.34.85-1.36,1.71-1.36h1.39c1.3,0,1.65.3,1.65,1.65v1.71Z"/>
    <path class="o" d="m412.23,523.55c-.05-.19.05-.31.22-.34l1.54-.31c.19-.05.29.05.34.21.46,1.39,1.49,2.19,3.24,2.19,2.14,0,3.34-1.27,3.34-3.43v-3.07h-.02c-.72,1.2-2.16,1.97-3.86,1.97-2.9,0-4.85-1.99-4.85-5.16v-1.01c0-3.36,2.04-5.43,5.47-5.43s5.45,2.06,5.45,5.43v7.27c0,3.34-2.04,5.4-5.5,5.4-2.9,0-4.73-1.39-5.35-3.72Zm5.26-4.68c2.02,0,3.41-1.37,3.41-3.36v-.96c0-2.11-1.2-3.36-3.26-3.36s-3.29,1.25-3.29,3.36v.96c0,2.09,1.18,3.36,3.14,3.36Z"/>
    <path class="o" d="m426.53,522.42v-.46c0-1.99,1.22-3.58,3.07-4.11-1.63-.53-2.78-2.02-2.78-3.84v-.31c0-2.74,2.11-4.54,5.33-4.54s5.35,1.8,5.35,4.54v.31c0,1.85-1.15,3.31-2.78,3.84,1.85.53,3.07,2.11,3.07,4.11v.46c0,2.95-2.23,4.85-5.64,4.85s-5.62-1.89-5.62-4.85Zm5.62,2.88c2.09,0,3.38-1.18,3.38-3.03v-.41c0-1.7-1.22-2.81-3.38-3.02-2.14.22-3.36,1.32-3.36,3.02v.41c0,1.85,1.3,3.03,3.36,3.03Zm0-8.33c1.94-.21,3.12-1.29,3.12-2.86v-.31c0-1.63-1.22-2.71-3.12-2.71s-3.1,1.08-3.1,2.71v.31c0,1.56,1.18,2.64,3.1,2.86Z"/>
    <path class="o" d="m448.44,526.72c0,.19-.07.29-.29.29h-1.63c-.22,0-.29-.1-.29-.29v-16.99c0-.19.07-.29.29-.29h1.63c.22,0,.29.1.29.29v16.99Z"/>
    <path class="o" d="m462.83,526.72c0,.19-.07.29-.29.29h-1.63c-.22,0-.29-.1-.29-.29v-16.99c0-.19.07-.29.29-.29h1.63c.22,0,.29.1.29.29v16.99Z"/>
  </g>
  <line class="ae" x1="2494.49" y1="558.43" x2="2769.45" y2="558.43"/>
  <rect class="u" x="1902.05" y="119.06" width="8.5" height="317.48"/>
  <g>
    <rect class="x" x="1910.55" y="119.06" width="566.93" height="317.48"/>
    <rect class="z" x="1919.06" y="136.06" width="549.92" height="283.46"/>
    <rect class="k" x="1919.06" y="232.44" width="549.92" height="17.01"/>
    <rect class="ad" x="2192.6" y="136.06" width="2.83" height="96.38"/>
  </g>
  <g>
    <rect class="x" x="1629.92" y="119.06" width="272.13" height="317.48"/>
    <rect class="m" x="1638.43" y="136.06" width="255.12" height="283.46"/>
    <g class="ak">
      <rect class="n" x="1652.6" y="195.59" width="226.77" height="127.56"/>
      <rect class="j" x="1678.11" y="205.8" width="175.75" height="107.15"/>
    </g>
  </g>
  <g>
    <rect class="m" x="1343.62" y="195.59" width="255.12" height="586.77"/>
    <g>
      <g>
        <rect class="o" x="1349.3" y="632.13" width="121.89" height="150.24"/>
        <rect class="w" x="1349.3" y="198.43" width="121.89" height="433.7"/>
      </g>
      <g>
        <rect class="z" x="1363.13" y="229.27" width="94.21" height="508.07"/>
        <path class="m" d="m1454.84,231.77v503.07h-89.21V231.77h89.21m5-5h-99.21v513.07h99.21V226.77h0Z"/>
      </g>
    </g>
    <g>
      <g>
        <rect class="o" x="1474.01" y="632.13" width="119.06" height="150.24"/>
        <rect class="w" x="1474.01" y="198.43" width="119.06" height="433.7"/>
      </g>
      <g>
        <rect class="z" x="1487.85" y="229.27" width="91.38" height="508.07"/>
        <path class="m" d="m1576.73,231.77v503.07h-86.38V231.77h86.38m5-5h-96.38v513.07h96.38V226.77h0Z"/>
      </g>
    </g>
  </g>
  <g>
    <rect class="aj" x="1736.22" y="456.38" width="99.21" height="59.53" rx="11.34" ry="11.34"/>
    <g>
      <path class="ai" d="m1757.48,470.55h5.67c3.98,23.89,15.59,29.76,15.59,29.76"/>
      <path class="ai" d="m1764.57,477.3s-.89,10.51-14.17,23.01"/>
    </g>
    <rect class="ai" x="1792.91" y="471.97" width="28.35" height="28.35"/>
  </g>
  <g>
    <rect class="aj" x="531.5" y="456.38" width="99.21" height="59.53" rx="11.34" ry="11.34"/>
    <g>
      <line class="ai" x1="559.84" y1="469.13" x2="559.84" y2="500.31"/>
      <polyline class="ai" points="545.67 488.98 545.67 500.31 574.02 500.31 574.02 488.98"/>
      <polyline class="ai" points="571.65 471.97 571.65 483.31 548.03 483.31 548.03 471.97"/>
    </g>
    <rect class="ai" x="588.19" y="471.97" width="28.35" height="28.35"/>
  </g>
  <g>
    <rect class="x" x="868.82" y="119.06" width="443.62" height="317.48"/>
    <rect class="z" x="877.32" y="136.06" width="426.61" height="283.46"/>
    <rect class="k" x="877.32" y="232.44" width="426.61" height="17.01"/>
    <rect class="ad" x="1089.21" y="136.06" width="2.83" height="96.38"/>
  </g>
  <g id="f" data-name="logo_mark">
    <path class="ac" d="m1170.82,535.75c0,39.14-67.31,70.87-150.35,70.87s-150.35-31.72-150.35-70.87,67.31-70.87,150.35-70.87,150.35,31.72,150.35,70.87Z"/>
    <path class="w" d="m1073.33,555.54c-3.51-2.61.55-12.38,3.46-16.89,2.1-3.26,3.61-3.81,3.61-3.81,1.1,1.15,1.45,3.16,1.5,4.66.25,8.97-5.06,18.64-8.57,16.04Zm10.68-30.07c3.41-6.06,9.72-14.18,12.78-14.58.3,0,1.1.2,1.2.75.75,3.41-2.05,6.92-2.56,7.37-5.31,6.67-11.58,9.97-12.38,9.62-.7-.55.4-2.21.95-3.16m-133.31,2.56c-.6-.9,8.02-8.77,9.27-10.27.3-.3.6-.55.95-.85l1.6-1.6c1-.95,2.05-1.8,3.01-2.71,1.25-1.2,2.51-2.46,3.91-3.51.3-.25,1.45-.85,1.75-.95.3-.1.65-.2,1-.3,1.15-.35,4.91-1.15,5.61-1.25s3.86-.5,4.76-.6c.25-.05.55-.05.85-.1,2.91-.15,4.96.1,5.46.1.6.1,1.15.2,1.75.25,2.26.55,4.91,1.2,5.36,4.21.65,4.76-3.61,9.12-4.26,9.82-.45.45-3.46,2.96-4.61,3.66-.85.5-1.75.85-2.61,1.3-1.05.5-8.37,3.61-16.99,4.51-.6,0-2.1.1-2.36.15-.65,0-2,.3-8.02-.15-.45-.05-5.96-1-6.47-1.7m169.2,25.56c.05-.1-.2-.15-.3-.15-.3,0-10.37,12.43-15.54,4.76-2.81-4.21,1.9-13.33,9.07-19.45,6.57-5.61,1.5-10.73-6.06-3.66-2.81,3.11-8.27,8.82-12.28,8.52-5.61-.75-10.42-9.67-10.68-10.93-.05-.05,8.92-5.86,12.93-9.37,5.06-4.46,11.13-15.69,5.61-19.2-.3-.2-1.7-1.35-5.26-.3-.9.25-2.71,1.55-4.26,2.81-2.05,1.7-10.52,12.08-20.25,29.42-.75,1.35-6.36,2.76-8.57,2.36-1.7-.3-6.36-.7-6.72,5.11-.2,3.26,2.76,3.36,2.76,3.46.3,6.26-4.71,11.98-7.97,11.98-1.1,0-2.16-.4-2.26-.5-6.47-4.36-1.6-17.04,5.41-21.1,3.91-2.26,4.26.55,6.87-.85,1.05-.55,1.2-2.05-.35-3.26-.4-.3-.95-.5-1.5-.6-1.45-.25-2.46,0-2.86.1-.95.2-1.5.45-2.05.6-1.15.45-2.61,1.15-3.86,2.05-1.2.85-3.01,2.36-3.01,2.36-.05.05-4.21,4.26-4.21,4.26-7.62,8.02-15.89,15.74-17.54,17.79-.55.55-11.53,12.23-12.88,13.63-.55.55-2.86,2.56-3.31,1.3-.15-.4,0-.9.2-1.3.5-.95,11.38-15.14,14.48-19.04,5.41-7.67,16.04-19.14,13.38-21.85-.25-.25-1.3-1-2.96-.25-2.31,1-2.91,2.16-5.11,5.06-1.55,2-8.67,11.08-8.87,11.33-.15.2-2.51,3.31-2.76,3.56-1.7,2.21-2.76,2.81-4.16,3.26-4.16,1.25-7.37-.2-6.26-4.51.4-4.31,14.53-14.63,15.74-17.04.45-.6,1.3-3.16-1.25-3.56-1.65-.3-3.76.6-4.86,1.55-.3.3-7.52,8.17-8.77,9.72-.5.65-1.9,2.36-2.05,2.61-.55.65-1.1,1.3-1.6,1.95-.65.85-1.35,1.8-2.1,2.61-.6.65-1.3,1.25-1.95,1.9-4.86,4.81-9.37,5.81-11.13,5.56-1.95-.3-3.56-1.1-5.16-1.9-3.06-1.5-9.17-5.46-15.14-9.47-7.92-5.36-15.64-10.83-15.64-10.88,3.61.7,7.32.6,7.67.65,2.16.1,11.53-.3,11.93-.35,2.05-.05,9.37-1,11.38-1.45.4-.1,3.66-.9,4.91-1.3.85-.25,3.26-1.2,3.56-1.4,3.21-1.6,6.26-3.86,8.82-6.36,2.86-2.81,4.21-7.32,3.96-9.42.05-.3.2-5.96-4.81-9.12-.25-.2-.45-.35-.65-.55-1-.55-3.71-3.01-12.48-4.36-1.05-.15-6.11-.45-7.52-.45h-3.01c-1.95.15-14.94.45-31.32,5.81-2.91.95-7.47,2.31-15.14,6.11-.35.2-2.1,1.3-2.66,1.7-.25.15-1.25.9-1.55,1.1-.5.4-2.31,2.1-2.51,2.36-4.56,6.16.75,9.07,6.01,9.72,1.05.15,3.36-.15,4.31-.4,2.31-.65,3.31-.95,4.36-2.21.75-.9.55-1.8-.2-2.41-2.26-1.8.65-3.76,1.15-4.16,2.91-2.31,17.14-7.22,18.24-7.12q0,.05-.05.15c-.1,0-.2.15-.25.25-1.75,1.75-3.76,3.21-5.71,4.81l-4.36,3.81c-1.75,1.35-3.16,3.01-4.76,4.51-2.41,2.21-4.56,4.41-6.62,6.77-.9,1-1.85,1.95-2.66,3.01-.75,1.05-1.5,2.1-2.21,3.21l-.6.75c-.4.6-.85,1.25-1.2,1.85-.4.7-4.41,7.32-5.66,10.12-7.12,13.83-.75,16.94,3.46,12.23,2.26-2.56,6.16-10.93,6.87-12.43,4.56-9.32,9.57-13.93,10.37-13.88,1.05.05,3.81.75,7.87,4.21.5.4,6.67,5.71,7.17,6.21.85.65,9.02,8.67,9.22,8.92,4.46,3.66,7.17,8.67,15.49,9.12,1.8.05,2.71-.15,4.26-.45,4.26-.8,10.52-6.11,14.28-10.12,0,.1-2.31,7.72,2.51,10.27,1.95.8,3.71-.35,3.61-.2-3.96,5.41-7.92,12.83-8.57,14.08-.2.4-8.72,16.14-3.76,17.99,5.71.75,12.13-7.82,17.69-16.74,4.31-6.97,12.03-16.59,13.68-18.59l6.67-7.17c1.4-1.4,4.76-4.66,5.81-5.81l-.3.75c-.3.85-.4,1.75-.55,2.66-.1.6-.2,1.25-.25,1.85-.1,2.16.15,4.21.8,6.06.75,2.05,2.31,4.11,4.81,4.71,8.37,2.1,12.98-3.91,13.13-4.01-.05,0,1.75-2.21,2.31-3.66.2-.2,2.86-9.32,3.16-11.18.1-.75,1.3-2.51,1.3-2.51,0-.05.6-.55,1-.9,0,0,1.65-1.35,4.16-2.1-.15.2-.3.35-.65,1-5.26,9.62-5.51,19.65-3.91,21.25.25.2,1.85,2.91,6.62,2.56,1.3-.1,5.91-.4,9.27-9.07,2.86-7.42,2.71-13.58,2.76-13.63,2.21,2.36,5.01,4.21,7.82,4.46,2.91.25,6.36-1.2,9.97-4.21-1.65,2.86-3.11,5.76-3.11,5.76-6.36,12.88.6,16.34,4.16,16.89,10.62.1,15.29-9.22,15.54-10.42"/>
    <polygon class="w" points="1113.47 528.43 1116.93 525.98 1120.14 528.38 1119.03 524.42 1122.44 521.92 1118.33 521.97 1117.23 517.96 1115.78 521.97 1111.72 522.02 1114.93 524.42 1113.47 528.43"/>
    <path class="w" d="m958.61,483.93l.25-.05,3.41,3.06,1.15-.25-3.56-3.11c1.3-.4,1.9-1.5,1.65-2.76-.4-1.85-2-1.95-3.61-1.6l-1.2.25,1.8,8.27.95-.2-.85-3.61h0Zm-.8-3.81l.3-.05c1.15-.25,2.21-.35,2.51,1,.3,1.3-.75,1.7-1.85,1.95l-.3.05-.65-2.96"/>
    <polygon class="w" points="967.43 477.26 968.53 477.06 971.39 480.42 972.94 476.31 974.04 476.11 972.04 481.37 972.64 484.98 971.69 485.13 971.09 481.52 967.43 477.26"/>
    <path class="w" d="m985.72,474.4c-2.46.3-4.31,2.51-4.01,4.91.3,2.41,2.56,4.11,5.01,3.81,2.46-.3,4.31-2.46,4.01-4.86-.25-2.46-2.56-4.16-5.01-3.86Zm.1.85c2-.25,3.76,1.15,3.96,3.06.2,1.9-1.2,3.66-3.16,3.91-1.95.25-3.76-1.15-3.96-3.06-.25-1.9,1.15-3.66,3.16-3.91"/>
    <path class="w" d="m999.25,474.15l.4-.05c1.2-.05,2.05,0,2.1,1.3.1,1.3-.85,1.5-1.95,1.55h-.35l-.2-2.81Zm-.45,7.67l2-.15c1.75-.1,3.11-.85,2.96-2.56-.05-1-.75-1.9-1.8-2.05.55-.4.8-1,.75-1.7-.1-1.75-1.45-2.21-3.06-2.1l-1.4.1.55,8.47m.7-4.01l.85-.05c1.05-.05,2.36.05,2.46,1.35.1,1.3-1.05,1.6-2.16,1.7l-.95.05-.2-3.06"/>
    <polygon class="w" points="1012.64 481.17 1011.68 481.17 1011.43 472.7 1012.43 472.65 1012.64 481.17"/>
    <path class="w" d="m1038.9,477.31c-.05,1.15-.2,2.1-1.05,2.96s-2.05,1.35-3.31,1.25c-2.46-.1-4.41-2.21-4.26-4.56.1-2.41,2.26-4.31,4.76-4.21,1.5.05,2.76.8,3.61,2l-.75.6c-.7-1.05-1.65-1.65-2.96-1.75-2-.1-3.66,1.45-3.71,3.36-.05.9.3,1.75.9,2.46.6.65,1.5,1.15,2.41,1.2,1.5.1,3.16-.95,3.21-2.51l-2.61-.15.05-.9,3.71.25h0Z"/>
    <path class="w" d="m1047.67,478.56h.25l2.26,3.96,1.2.1-2.41-4.06c1.35,0,2.26-.8,2.41-2.1.15-1.9-1.3-2.46-2.96-2.61l-1.25-.15-.8,8.47.95.1.35-3.71Zm.35-3.91l.3.05c1.15.1,2.21.35,2.05,1.7-.1,1.3-1.25,1.4-2.36,1.3h-.3l.3-3.06"/>
    <path class="w" d="m1064.16,475.56c-2.46-.35-4.81,1.3-5.16,3.71-.35,2.41,1.4,4.61,3.86,5.01,2.46.35,4.81-1.25,5.16-3.66.35-2.41-1.4-4.66-3.86-5.06Zm-.15.9c2,.3,3.31,2.1,3.01,4.01s-2.1,3.21-4.06,2.96c-1.95-.3-3.31-2.1-3.01-4.01.3-1.9,2.1-3.26,4.06-2.96"/>
    <path class="w" d="m1076.49,483.02c-.15.6-.3,1.3,0,1.9.25.6.95,1,1.55,1.15.6.1,1.35,0,1.85-.4.55-.45.7-1.15.8-1.8l1.05-4.96.95.2-1.1,5.21c-.2.9-.4,1.6-1.25,2.16-.7.5-1.65.65-2.51.45-.8-.15-1.55-.65-2-1.3-.6-.85-.55-1.65-.35-2.56l1.1-5.21.95.2-1.05,4.96Z"/>
    <path class="w" d="m1090.62,485.98l.7.2c.7.2,1.45.3,2.16,0,.65-.3,1.1-.9,1.25-1.55.2-.75.05-1.55-.45-2.16-.5-.6-1.25-.8-2-1l-1.4-.4-2.21,8.17.95.25,1-3.51Zm1-3.76l.35.1c1.1.3,2.16.7,1.8,2.05-.3,1.15-1.3,1.25-2.31.95l-.6-.15.75-2.96"/>
  </g>
</svg>