<svg xmlns="http://www.w3.org/2000/svg" xmlns:xlink="http://www.w3.org/1999/xlink" viewBox="0 0 3095.43 884.41"><defs><style>.a,.ac,.f,.r,.u,.w,.z{fill:none;}.b{fill:#171818;}.c{fill:#135199;}.d{fill:#f9f9fa;}.e{fill:#7cb99c;}.f,.q,.r,.s,.t,.u,.w,.y,.z{stroke:#231815;}.ac,.f,.z{stroke-linecap:round;}.f,.z{stroke-linejoin:round;}.f{stroke-width:0.5px;}.g{fill:#89898a;}.h{fill:#cacacb;}.i,.q{fill:#2f2725;}.j{fill:#231815;}.k{fill:#c3c4c5;}.l,.s,.t{fill:#076fb8;}.m{fill:#bdbebe;}.n{clip-path:url(#a);}.o,.y{fill:#f8f8f8;}.p{fill:#053391;}.ac,.q,.r,.s,.t,.u,.w,.y{stroke-miterlimit:10;}.q,.r,.s{stroke-width:8px;}.v{fill:#b5b6b6;}.w{stroke-width:0.76px;}.x{fill:#9bc7af;}.y{stroke-width:6px;}.z{stroke-width:5px;}.aa{opacity:0.75;}.ab{fill:#fff;}.ac{stroke:#fff;stroke-width:2.16px;}</style><clipPath id="a"><rect class="a" x="2096.93" y="145.98" width="184.25" height="184.25" rx="14.17"/></clipPath></defs><polygon class="b" points="1955.91 786.61 2296.06 788.03 2296.06 559.84 1955.91 559.84 1955.91 786.61"/><polygon class="b" points="453.54 772.44 793.7 786.61 793.7 559.84 453.54 559.84 453.54 772.44"/><path class="c" d="M2999.05,644.88v14.17h-68v92.13l-38.27,7.09-14.17,18.42L2636.22,788H2296.06V715.75a155.27,155.27,0,0,0-17-70.87Z"/><path class="d" d="M2999.05,425.2V644.88h-720a155.91,155.91,0,0,0-138.91-85h-28.34a155.91,155.91,0,0,0-138.91,85H776.7a153.62,153.62,0,0,0-10.11-17h83.8l-25.2-22.67H747.74a157.83,157.83,0,0,0-20.27-17H806.3l-25.2-22.68H679.6a155.89,155.89,0,0,0-41.81-5.67H609.45a155.89,155.89,0,0,0-41.81,5.67H25.08l-.85-17h738L737,525.83H23.1L21.26,489l9.79-63.78Z"/><polygon class="e" points="2999.05 361.42 2999.05 425.2 31.05 425.2 68.03 184.25 68.03 170.08 63.78 59.53 63.78 49.61 77.95 42.52 2959.37 42.52 2976.37 49.61 2976.37 134.64 2963.62 141.73 2977.79 358.58 2999.05 361.42"/><path class="c" d="M776.7,644.88H1972.9a155.27,155.27,0,0,0-17,70.87v70.86H793.7V715.75A155.27,155.27,0,0,0,776.7,644.88Z"/><path class="e" d="M850.39,627.87h-83.8a157.5,157.5,0,0,0-18.85-22.67h77.45Z"/><path class="e" d="M806.3,588.19H727.47a155.34,155.34,0,0,0-47.87-22.68H781.1Z"/><polygon class="e" points="762.2 548.5 24.23 548.5 23.1 525.83 737 525.83 762.2 548.5"/><path class="e" d="M25.08,565.51H567.64a155.34,155.34,0,0,0-47.87,22.68H26.22Z"/><path class="d" d="M26.22,588.19H519.77a157.83,157.83,0,0,0-20.27,17H27.07Z"/><path class="e" d="M499.5,605.2a157.5,157.5,0,0,0-18.85,22.67H28.2L27.07,605.2Z"/><path class="d" d="M28.2,627.87H480.65a153.62,153.62,0,0,0-10.11,17H28.34V630.71Z"/><path class="c" d="M28.34,644.88h442.2a155.27,155.27,0,0,0-17,70.87v56.69H106.3l-14.18-7.09V694.49H28.34Z"/><path class="f" d="M766.59,627.87a153.62,153.62,0,0,1,10.11,17,155.27,155.27,0,0,1,17,70.87v70.86H1955.9V715.75a155.81,155.81,0,0,1,155.91-155.91h28.34a155.81,155.81,0,0,1,155.91,155.91V788h340.16l242.36-11.34,14.17-18.42,38.27-7.09V659.05h68V361.42l-21.26-2.84-14.17-216.85,12.75-7.09v-85l-17-7.09H78L63.78,49.61v9.92L68,170.08v14.17l-37,241L21.26,489l1.84,36.85"/><path class="f" d="M727.47,588.19a157.83,157.83,0,0,1,20.27,17"/><path class="f" d="M567.64,565.51a155.89,155.89,0,0,1,41.81-5.67h28.34a155.89,155.89,0,0,1,41.81,5.67"/><line class="f" x1="24.23" y1="548.5" x2="25.08" y2="565.51"/><polygon class="g" points="92.13 694.49 92.13 765.35 0 744.09 0 701.58 28.35 694.49 92.13 694.49"/><polygon class="g" points="2999.05 659.05 2931.02 659.05 2931.02 751.18 3016.06 729.92 3016.06 666.14 2999.05 659.05"/><path class="h" d="M113.39,134.65a35.44,35.44,0,0,1,35.43-35.44H2942.36V92.13H148.82a42.52,42.52,0,0,0-42.52,42.52V758.27h7.09Z"/><rect class="i" x="389.76" y="99.21" width="2488.82" height="12.76"/><rect class="i" x="389.76" y="395.43" width="1934.65" height="8.5"/><rect class="j" x="389.76" y="111.97" width="34.02" height="283.46"/><rect class="j" x="2878.58" y="99.21" width="63.78" height="304.72"/><rect class="j" x="2313.07" y="111.97" width="11.34" height="283.46"/><rect class="k" x="423.78" y="126.14" width="4.25" height="265.04"/><rect class="i" x="2619.21" y="395.43" width="259.37" height="8.5"/><rect class="l" x="2630.55" y="111.97" width="248.03" height="283.46"/><rect class="j" x="2619.21" y="111.97" width="11.34" height="283.46" transform="translate(5249.76 507.4) rotate(-180)"/><rect class="h" x="106.3" y="758.27" width="276.38" height="14.17"/><rect class="h" x="2338.58" y="773.86" width="269.29" height="14.17"/><rect class="j" x="113.39" y="167.24" width="269.29" height="591.02"/><rect class="c" x="119.05" y="644.88" width="130.4" height="113.39"/><rect class="d" x="119.05" y="627.87" width="130.4" height="17.01"/><rect class="e" x="119.05" y="605.2" width="130.4" height="22.67"/><rect class="d" x="119.05" y="588.19" width="130.4" height="17.01"/><rect class="e" x="119.05" y="565.51" width="130.4" height="22.68"/><rect class="d" x="119.05" y="548.5" width="130.4" height="17.01"/><rect class="e" x="119.05" y="525.83" width="130.4" height="22.67"/><rect class="d" x="119.05" y="425.2" width="130.4" height="100.63"/><rect class="e" x="119.05" y="170.08" width="130.4" height="255.12"/><rect class="l" x="131.89" y="185.75" width="104.72" height="528.5"/><path class="j" d="M235.11,187.25v525.5H133.39V187.25H235.11m3-3H130.39v531.5H238.11V184.25Z"/><rect class="c" x="252.28" y="644.88" width="124.73" height="113.39"/><rect class="d" x="252.28" y="627.87" width="124.73" height="17.01"/><rect class="e" x="252.28" y="605.2" width="124.73" height="22.67"/><rect class="d" x="252.28" y="588.19" width="124.73" height="17.01"/><rect class="e" x="252.28" y="565.51" width="124.73" height="22.68"/><rect class="d" x="252.28" y="548.5" width="124.73" height="17.01"/><rect class="e" x="252.28" y="525.83" width="124.73" height="22.67"/><rect class="d" x="252.28" y="425.2" width="124.73" height="100.63"/><rect class="e" x="252.28" y="170.08" width="124.73" height="255.12"/><rect class="l" x="265.12" y="185.75" width="99.05" height="528.5"/><path class="j" d="M362.67,187.25v525.5H266.62V187.25h96.05m3-3H263.62v531.5H365.67V184.25Z"/><rect class="j" x="2338.58" y="171.5" width="269.29" height="602.36"/><rect class="c" x="2344.26" y="644.88" width="124.72" height="128.98"/><rect class="d" x="2344.26" y="425.2" width="124.72" height="219.68"/><rect class="e" x="2344.26" y="174.33" width="124.72" height="250.87"/><rect class="l" x="2357.09" y="187.17" width="99.05" height="478.89"/><path class="j" d="M2454.64,188.67V664.56h-96V188.67h96m3-3h-102V667.56h102V185.67Z"/><rect class="c" x="2471.81" y="644.88" width="130.4" height="128.98"/><rect class="d" x="2471.81" y="425.2" width="130.4" height="219.68"/><rect class="e" x="2471.81" y="174.33" width="130.4" height="250.87"/><rect class="l" x="2484.65" y="187.17" width="104.72" height="478.89"/><path class="j" d="M2587.87,188.67V664.56H2486.15V188.67h101.72m3-3H2483.15V667.56h107.72V185.67Z"/><rect class="h" x="2630.55" y="111.97" width="248.03" height="14.17"/><rect class="h" x="2630.55" y="391.18" width="248.03" height="4.25"/><rect class="k" x="2630.55" y="126.14" width="4.25" height="265.04"/><rect class="m" x="2634.8" y="126.14" width="239.53" height="5.67"/><rect class="m" x="2634.8" y="267.87" width="239.53" height="8.5"/><rect class="m" x="2634.8" y="377.01" width="239.53" height="11.34"/><rect class="j" x="2634.8" y="388.35" width="239.53" height="2.83"/><rect class="k" x="2874.33" y="126.14" width="4.25" height="265.04"/><rect class="l" x="423.78" y="111.97" width="1889.29" height="283.46"/><rect class="j" x="2053.7" y="111.97" width="11.34" height="283.46"/><rect class="h" x="2065.04" y="111.97" width="248.03" height="8.5"/><rect class="h" x="2065.04" y="384.09" width="248.03" height="11.34"/><rect class="k" x="2065.04" y="120.47" width="4.25" height="263.62"/><rect class="k" x="2308.82" y="120.47" width="4.25" height="263.62"/><rect class="j" x="2069.29" y="120.47" width="239.53" height="263.62"/><g class="n"><rect class="o" x="2096.93" y="145.98" width="184.25" height="184.25"/><rect class="p" x="2096.93" y="145.98" width="184.25" height="73.7"/></g><rect class="j" x="1233.07" y="111.97" width="11.34" height="283.46"/><rect class="h" x="970.87" y="111.97" width="262.2" height="14.17"/><rect class="h" x="970.87" y="391.18" width="262.2" height="4.25"/><rect class="k" x="970.87" y="126.14" width="4.25" height="265.04"/><rect class="m" x="975.12" y="126.14" width="253.7" height="5.67"/><rect class="m" x="975.12" y="267.87" width="253.7" height="8.5"/><rect class="m" x="975.12" y="377.01" width="253.7" height="11.34"/><rect class="j" x="975.12" y="388.35" width="253.7" height="2.83"/><rect class="k" x="1228.82" y="126.14" width="4.25" height="265.04"/><rect class="j" x="959.53" y="111.97" width="11.34" height="283.46"/><rect class="h" x="697.32" y="111.97" width="262.2" height="14.17"/><rect class="h" x="697.32" y="391.18" width="262.2" height="4.25"/><rect class="k" x="697.32" y="126.14" width="4.25" height="265.04"/><rect class="m" x="701.57" y="126.14" width="253.7" height="5.67"/><rect class="m" x="701.57" y="267.87" width="253.7" height="8.5"/><rect class="m" x="701.57" y="377.01" width="253.7" height="11.34"/><rect class="j" x="701.57" y="388.35" width="253.7" height="2.83"/><rect class="k" x="955.28" y="126.14" width="4.25" height="265.04"/><rect class="j" x="685.98" y="111.97" width="11.34" height="283.46"/><rect class="h" x="423.78" y="111.97" width="262.2" height="14.17"/><rect class="h" x="423.78" y="391.18" width="262.2" height="4.25"/><rect class="k" x="423.78" y="126.14" width="4.25" height="265.04"/><rect class="m" x="428.03" y="126.14" width="253.7" height="5.67"/><rect class="m" x="428.03" y="267.87" width="253.7" height="8.5"/><rect class="m" x="428.03" y="377.01" width="253.7" height="11.34"/><rect class="j" x="428.03" y="388.35" width="253.7" height="2.83"/><rect class="k" x="681.73" y="126.14" width="4.25" height="265.04"/><rect class="j" x="1506.61" y="111.97" width="11.34" height="283.46"/><rect class="h" x="1244.41" y="111.97" width="262.2" height="14.17"/><rect class="h" x="1244.41" y="391.18" width="262.2" height="4.25"/><rect class="k" x="1244.41" y="126.14" width="4.25" height="265.04"/><rect class="m" x="1248.66" y="126.14" width="253.7" height="5.67"/><rect class="m" x="1248.66" y="267.87" width="253.7" height="8.5"/><rect class="m" x="1248.66" y="377.01" width="253.7" height="11.34"/><rect class="j" x="1248.66" y="388.35" width="253.7" height="2.83"/><rect class="k" x="1502.36" y="126.14" width="4.25" height="265.04"/><rect class="j" x="1780.16" y="111.97" width="11.34" height="283.46"/><rect class="h" x="1517.95" y="111.97" width="262.2" height="14.17"/><rect class="h" x="1517.95" y="391.18" width="262.2" height="4.25"/><rect class="k" x="1517.95" y="126.14" width="4.25" height="265.04"/><rect class="m" x="1522.2" y="126.14" width="253.7" height="5.67"/><rect class="m" x="1522.2" y="267.87" width="253.7" height="8.5"/><rect class="m" x="1522.2" y="377.01" width="253.7" height="11.34"/><rect class="j" x="1522.2" y="388.35" width="253.7" height="2.83"/><rect class="k" x="1775.91" y="126.14" width="4.25" height="265.04"/><rect class="h" x="1791.5" y="111.97" width="262.2" height="14.17"/><rect class="h" x="1791.5" y="391.18" width="262.2" height="4.25"/><rect class="k" x="1791.5" y="126.14" width="4.25" height="265.04"/><rect class="m" x="1795.75" y="126.14" width="253.7" height="5.67"/><rect class="m" x="1795.75" y="267.87" width="253.7" height="8.5"/><rect class="m" x="1795.75" y="377.01" width="253.7" height="11.34"/><rect class="j" x="1795.75" y="388.35" width="253.7" height="2.83"/><rect class="k" x="2049.45" y="126.14" width="4.25" height="265.04"/><path class="q" d="M63.78,59.53s15.41-.84,16,9.6L85,167.24H67.92"/><path class="l" d="M68,184.25H86.44a6.87,6.87,0,0,1,7.09,7.09V474.8c.36,13.48-6.12,17.9-17,17.9H21.45L21.26,489"/><path class="r" d="M68,184.25H86.44a6.87,6.87,0,0,1,7.09,7.09V474.8c.36,13.48-6.12,17.9-17,17.9H21.45"/><path class="s" d="M22.82,516.93H67c13,0,26.55,4.37,26.55,17.39v23.74c0,17.62-15.57,29.62-28.08,29.62H26.2"/><polyline class="t" points="2973.54 136.22 2963.62 141.73 2977.8 358.58 2994.8 360.85"/><polyline class="u" points="679.6 565.51 850.39 565.51 850.39 786.61"/><polyline class="u" points="389.76 772.44 389.76 565.51 567.64 565.51"/><polyline class="u" points="850.39 565.51 1140.94 565.51 1140.94 786.61"/><polyline class="u" points="1140.94 565.51 1396.06 565.51 1396.06 786.61"/><polyline class="u" points="1396.06 565.51 1856.69 565.51 1856.69 786.61"/><polyline class="u" points="2040.23 565.51 2175.59 565.51 2175.59 786.61"/><line class="u" x1="1856.69" y1="565.51" x2="2070.01" y2="565.51"/><circle class="j" cx="623.62" cy="742.68" r="141.73"/><circle class="v" cx="623.62" cy="742.68" r="85.04"/><circle class="h" cx="623.62" cy="742.68" r="70.87"/><circle class="j" cx="2125.98" cy="742.68" r="141.73"/><circle class="v" cx="2125.98" cy="742.68" r="85.04"/><circle class="h" cx="2125.98" cy="742.68" r="70.87"/><polyline class="w" points="2629.13 788.03 2629.13 566.93 2892.76 566.93 2892.76 758.27"/><polygon class="x" points="623.62 42.52 623.62 28.35 651.97 0 1077.16 0 1105.51 28.35 1105.51 42.52 623.62 42.52"/><path class="c" d="M754.28,515.92s0,0,0,0c-4.87.56-7.85-2-8-7,0-1.85.15-3.71.24-5.63l-2.26,2.14a51.58,51.58,0,0,1-10.66,8.18c-7.58,4.08-15,3.63-22-1.42a82.48,82.48,0,0,1-9.32-8.43,269.81,269.81,0,0,0-20.83-19,56.45,56.45,0,0,0-7.37-4.64c-1.73-1-3.22-.54-4.64.9a60.57,60.57,0,0,0-10.55,15.18c-2.45,4.73-4.84,9.5-7.38,14.19a22.75,22.75,0,0,1-2.92,3.82,6.14,6.14,0,0,1-1.85,1.31c-3.08,1.56-5.7.08-6.06-3.39a20,20,0,0,1,2-10.11,116.13,116.13,0,0,1,14.95-25.46,104,104,0,0,1,11-11.61c6.13-5.72,12.53-11.16,18.81-16.71l1.29-1.2a14.42,14.42,0,0,0-1.52.29,124.81,124.81,0,0,0-19.41,7.42,17.49,17.49,0,0,0-3.91,2.78c-1.4,1.3-1.27,2.45.1,3.8,1.15,1.13,1.19,2.06.16,3.33-1.49,1.85-3.68,2.35-5.81,2.86a16.6,16.6,0,0,1-11.83-1.42c-3.59-1.86-4.57-5-2.83-8.64a16.59,16.59,0,0,1,5.16-5.69c4.13-3.28,8.92-5.37,13.74-7.32a159.6,159.6,0,0,1,37.13-10,117.7,117.7,0,0,1,22-1.22c6.13.26,12.16,1.16,17.74,3.82a31.48,31.48,0,0,1,6.69,4.32c4.62,3.88,5.9,10.67,3.42,16.76a19.15,19.15,0,0,1-4.35,6.5,40.86,40.86,0,0,1-20.69,11,110.13,110.13,0,0,1-20.39,2.34c-5,.1-10,.16-15,.15-1.66,0-3.33-.28-5.37-.48,2.92,2.05,5.5,4,8.17,5.73,9.09,6.06,18.17,12.13,27.34,18.08a57.21,57.21,0,0,0,7.12,3.6,9.93,9.93,0,0,0,8.13.05,26.14,26.14,0,0,0,9.47-6.47c2.54-2.67,4.87-5.53,7.29-8.3,4.53-5.16,9-10.35,13.6-15.46a7.63,7.63,0,0,1,6.54-2.47c2,.17,3,1.58,2.39,3.54a5.84,5.84,0,0,1-1.39,2.37c-3.56,3.38-7.25,6.63-10.8,10-2.29,2.2-4.45,4.54-6.59,6.88a9.23,9.23,0,0,0-2.31,5.13,4.09,4.09,0,0,0,3.61,4.92c3.39.35,6.47-.45,8.69-3.18,4-4.93,7.92-9.94,11.85-14.94,2.17-2.77,4.29-5.57,6.4-8.39a10.35,10.35,0,0,1,5.2-4.09,3.31,3.31,0,0,1,3.36.47c1,.86.79,2,.44,3.08a16.57,16.57,0,0,1-1.3,3,46,46,0,0,1-2.91,4.62c-4.13,5.53-8.32,11-12.5,16.53q-9.36,12.29-18.73,24.57a6,6,0,0,0-1.1,2.09c-.24,1,.35,1.44,1.22.95a12.48,12.48,0,0,0,2.84-2.09c6.18-6.46,12.27-13,18.47-19.45,3.73-3.88,7.62-7.61,11.41-11.43,4.8-4.85,9.49-9.82,14.37-14.58,3.81-3.71,8.15-6.67,13.63-7.32a5.57,5.57,0,0,1,4.82,1.42,2.61,2.61,0,0,1,.83,2.77,2.55,2.55,0,0,1-2.4,1.6,4.77,4.77,0,0,1-1.88-.18,6.29,6.29,0,0,0-5.57.83c-5.69,3.66-9,9-10.44,15.49a12.29,12.29,0,0,0,.73,8.43c2,4,5.77,4.95,9.26,2.21A16.44,16.44,0,0,0,819.58,495c0-.75-.09-1.21-.94-1.5a3.71,3.71,0,0,1-2.61-3.8c-.07-5,3.06-7.88,8-7.25a19.79,19.79,0,0,0,9.8-1.49,5.08,5.08,0,0,0,2.65-2.4,244.3,244.3,0,0,1,21.29-32.35,30.48,30.48,0,0,1,8.29-7.6,9.17,9.17,0,0,1,6.09-1.21,6.1,6.1,0,0,1,5.21,6c.17,3.7-1.08,7-2.71,10.19a33.79,33.79,0,0,1-10.76,12.49c-4,2.82-8,5.61-12,8.41l-1.33.92a31.43,31.43,0,0,0,7,10.19,21.24,21.24,0,0,0,2.89,2.27,7.3,7.3,0,0,0,8.24.29,42.22,42.22,0,0,0,10.06-8.49c2.46-2.65,5.15-4.93,8.81-5.69a3.53,3.53,0,0,1,3.72,1,3.33,3.33,0,0,1,.22,3.71,10.07,10.07,0,0,1-1.44,2.38,23.89,23.89,0,0,1-2.51,2.52c-4.8,4.35-8.81,9.27-11.17,15.38a12.24,12.24,0,0,0-1,7.07,6.48,6.48,0,0,0,8.26,5.05c3.71-1,6.56-3.44,9.32-6,.87-.8,1.67-1.68,2.53-2.5a7.9,7.9,0,0,1,.94-.66l.3.21a6.4,6.4,0,0,1-.34,1.1c-4.15,7.77-10.39,12.38-19.39,12.65a9.52,9.52,0,0,1-9.32-8.13,19.2,19.2,0,0,1,1.72-10.39c1.2-2.84,2.69-5.55,4.05-8.33a6.9,6.9,0,0,0,.56-1.39c-7.49,5.82-14.73,6.46-21.79-1.06-.17,1.7-.26,3.1-.44,4.49a46.91,46.91,0,0,1-5.18,17,21.8,21.8,0,0,1-3.62,4.71,11,11,0,0,1-12.39,1.85,6.57,6.57,0,0,1-3.85-6c-.32-8.41,2-16.13,5.84-23.51l.54-1a.59.59,0,0,0,0-.13c-3,.3-6.79,3.63-7.57,6.58-1.17,4.41-2.23,8.87-3.7,13.19-3,8.75-11.4,13.65-20.57,11.26-4.09-1.06-5.88-4.29-6.82-8.11s-.45-7.65.49-11.66c-.38.3-.63.46-.84.66a216.75,216.75,0,0,0-33.86,41.77c-3.39,5.39-7,10.62-11.74,15-2.33,2.13-4.84,4-8.17,4.27a2.77,2.77,0,0,1-3.38-2.44,13.33,13.33,0,0,1,.69-6.74c2.26-7.75,6.06-14.79,10.09-21.71C749.92,522.68,752.14,519.33,754.28,515.92Zm-61-44.18a68,68,0,0,0,20.11-3.11c6-1.83,11.86-4,16.59-8.42a20.19,20.19,0,0,0,6.27-9.66c1.23-4.71-.39-7.73-5.09-8.78a36,36,0,0,0-9.41-.95,105,105,0,0,0-12.18,1.64,17.17,17.17,0,0,0-9.71,4.52c-5.83,5.8-11.81,11.43-17.7,17.17a40.65,40.65,0,0,0-3.2,3.61c-1.1,1.35-1,1.58.67,2.12A44.73,44.73,0,0,0,693.27,471.74Zm152.23,6.37a36,36,0,0,0-3.08,3.29,40.29,40.29,0,0,0-6.95,15.25,20.27,20.27,0,0,0-.27,5.4,3.3,3.3,0,0,0,2.17,3,3.21,3.21,0,0,0,3.46-1,14.86,14.86,0,0,0,2.1-2.53,31.23,31.23,0,0,0,4.52-18.44A7.55,7.55,0,0,0,845.5,478.11Zm3.5-8.43.44.46c1.33-.67,2.71-1.24,4-2a49.13,49.13,0,0,0,12.52-11.58,11.08,11.08,0,0,0,2.53-6.52,3.63,3.63,0,0,0-.7-2.4c-.76-.8-1.76-.2-2.52.34a24.19,24.19,0,0,0-3.17,2.52,74.58,74.58,0,0,0-12.54,17.32A8.85,8.85,0,0,0,849,469.68Z"/><path class="c" d="M888.44,469.72c.46-1.34.85-2.71,1.39-4a1.19,1.19,0,0,0-.53-1.68c-1-.72-2-1.52-3-2.28l.06-.35h2.55c2.49,0,2.49,0,3.36-2.4a9.5,9.5,0,0,1,1.24-2.52c.35,1.23.79,2.44,1,3.7.19,1,.69,1.21,1.59,1.17a20.36,20.36,0,0,1,4,.19l-2.43,1.78c-1.84,1.35-1.84,1.34-1.24,3.54.26.92.51,1.84.87,3.14l-4.36-3.16-4.29,3Z"/><rect class="y" x="524.41" y="416.69" width="99.21" height="59.53" rx="11.34"/><line class="z" x1="551.34" y1="429.45" x2="551.34" y2="460.63"/><line class="z" x1="534.33" y1="449.29" x2="534.33" y2="463.46"/><line class="z" x1="568.35" y1="449.29" x2="568.35" y2="463.46"/><line class="z" x1="534.33" y1="460.63" x2="568.35" y2="460.63"/><line class="z" x1="537.17" y1="429.45" x2="537.17" y2="443.62"/><line class="z" x1="565.51" y1="429.45" x2="565.51" y2="443.62"/><line class="z" x1="537.17" y1="440.79" x2="565.51" y2="440.79"/><line class="z" x1="579.69" y1="429.45" x2="579.69" y2="463.46"/><line class="z" x1="579.69" y1="432.28" x2="613.7" y2="432.28"/><line class="z" x1="613.7" y1="429.45" x2="613.7" y2="463.46"/><line class="z" x1="579.69" y1="460.63" x2="613.7" y2="460.63"/><rect class="y" x="2140.16" y="416.69" width="99.21" height="59.53" rx="11.34"/><line class="z" x1="2195.43" y1="429.45" x2="2195.43" y2="463.46"/><line class="z" x1="2195.43" y1="432.28" x2="2229.45" y2="432.28"/><line class="z" x1="2229.45" y1="429.45" x2="2229.45" y2="463.46"/><line class="z" x1="2195.43" y1="460.63" x2="2229.45" y2="460.63"/><polyline class="z" points="2184.09 463.46 2167.09 429.45 2160 430.87"/><line class="z" x1="2167.09" y1="429.45" x2="2150.08" y2="463.46"/><g class="aa"><path class="ab" d="M2396.25,252.39v-19a2,2,0,0,1,2-2h5.19a10.19,10.19,0,0,0,2.67-3.27,1.1,1.1,0,0,1,1-.57,1.08,1.08,0,0,1,1.08,1.08,1.14,1.14,0,0,1-.15.54,12,12,0,0,1-1.5,2.22h8.54a2,2,0,0,1,2,2v19a2,2,0,0,1-2,2h-16.79A2,2,0,0,1,2396.25,252.39ZM2415,238.17v-4.68h-16.55v4.68Zm0,6.84v-4.68h-16.55V245Zm0,7.26v-5.1h-16.55v5.1Z"/><path class="ab" d="M2415.9,300.81a3.07,3.07,0,0,1-.53-.05,10.45,10.45,0,0,1-2.52-.86,1.08,1.08,0,1,1,.91-2,8.56,8.56,0,0,0,2,.7.61.61,0,0,0,.71-.48,64.62,64.62,0,0,0,1-12.39v-4.58h-3.47c-.1,8.93-1.37,13.91-4.71,18.61a1.08,1.08,0,0,1-2-.62,1.08,1.08,0,0,1,.21-.63c3.09-4.35,4.22-8.82,4.31-17.36h-2.55a1.08,1.08,0,1,1,0-2.16h2.55v-5.19a1.08,1.08,0,1,1,2.16,0V279h3.59a2,2,0,0,1,2,2v4.7a67,67,0,0,1-1.07,12.77,2.75,2.75,0,0,1-2.71,2.27Zm-21.4-.51a1.08,1.08,0,1,1-.11-2.15c1.7-.09,3.32-.23,4.93-.42v-2.37h-4.21a1.08,1.08,0,1,1,0-2.16h4.21v-1.69h-3.46a1.81,1.81,0,0,1-1.8-1.8v-6.33a1.81,1.81,0,0,1,1.8-1.8h3.46v-1.53h-5a1.08,1.08,0,1,1,0-2.15h5v-1.66c-1.22.15-2.49.24-4,.29a1.09,1.09,0,0,1-1.11-1.08,1.07,1.07,0,0,1,1-1.08,33.09,33.09,0,0,0,9.35-1.5,1.12,1.12,0,0,1,.32,0,1.08,1.08,0,0,1,.28,2.12c-1.38.4-2.59.7-3.75.93v2h5a1.08,1.08,0,1,1,0,2.15h-5v1.53H2405a1.81,1.81,0,0,1,1.8,1.8v6.33a1.81,1.81,0,0,1-1.8,1.8h-3.47v1.69h4.22a1.08,1.08,0,0,1,0,2.16h-4.22v2.08c1.38-.21,2.76-.46,4.2-.76a1.09,1.09,0,0,1,1.32,1.06,1.08,1.08,0,0,1-.88,1.06,74.65,74.65,0,0,1-11.62,1.5Zm10.09-14.88v-1.68h-3.11v1.68Zm0,3.93v-1.77h-3.11v1.77Zm-5.27-3.93v-1.68h-3.1v1.68Zm0,3.93v-1.77h-3.1v1.77Z"/><path class="ab" d="M2410.34,344.86V331.25a1.08,1.08,0,0,1,2.16,0v1.21h5.63a1.08,1.08,0,0,1,0,2.16h-5.63v1.62h4.68a1.08,1.08,0,0,1,0,2.16h-4.68v2h7.26a1.08,1.08,0,0,1,0,2.16h-7.26v2.32a1.08,1.08,0,1,1-2.16,0Zm-17.88-2.2a1,1,0,0,1,.22-.65c2.41-3.31,3.13-6.35,3.13-13.39v-3.89a1.81,1.81,0,0,1,1.8-1.8h18.7a1.81,1.81,0,0,1,1.8,1.8v3.13a1.81,1.81,0,0,1-1.8,1.8H2398c-.08,6.71-1,10.12-3.54,13.63a1.08,1.08,0,0,1-2-.63ZM2416,327.5v-2.41h-18v2.41Zm-12.25,18.44a1.09,1.09,0,0,1-1.08-1.08,1.07,1.07,0,0,1,.48-.9,4.46,4.46,0,0,0,1.69-2,36.65,36.65,0,0,1-6.59,1,1.08,1.08,0,1,1-.15-2.15,35.54,35.54,0,0,0,7.28-1.24q0-.56.06-1.2h-4.56a1.08,1.08,0,1,1,0-2.16h4.56v-1.62h-5.52a1.08,1.08,0,1,1,0-2.16h5.52v-1.21a1.08,1.08,0,1,1,2.16,0V338c0,3.95-.92,6.19-3.23,7.77a1.09,1.09,0,0,1-.62.2Z"/><line class="ac" x1="2406.68" y1="318.67" x2="2406.68" y2="322.93"/></g><rect class="ab" x="405.35" y="440.94" width="62.36" height="34.02"/><path class="c" d="M428.38,456.77a1.18,1.18,0,0,1,1.32,1.34c0,1.18-.7,1.37-1.32,1.37H408.7a1.18,1.18,0,0,1-1.32-1.34c0-1.3.86-1.37,1.32-1.37Z"/><path class="c" d="M448,459.58l-1.1.12a29.05,29.05,0,0,1-.91,7.68c-.53,1.68-.72,2.06-1.47,2.06a1.15,1.15,0,0,1-1.24-1.05c0-.31.69-2.26.81-2.67a23.76,23.76,0,0,0,.7-5.85c-.84.07-1.61.12-1.61-1.13,0-1,.6-1,1.61-1.11V452c0-1.56.21-2.5,2.23-2.5h.34c.14-.46.31-1.13.48-1.68s.79-.65,1.1-.65,1.22,0,1.22.75a11.57,11.57,0,0,1-.45,1.58h1c2,0,2.47.53,2.47,2.5v4.87c.41-.05,1.13-.12,1.15,1a1.09,1.09,0,0,1,1.15-.6h6.29c1,0,2.4,0,2.4,1.92s-1.75,4.42-3.05,6a14.75,14.75,0,0,0,3.65,1.85c.53.19.94.39.94,1.06s-.41,1.49-1.18,1.49a12,12,0,0,1-5.09-2.69c-1.75,1.44-3.93,2.69-4.56,2.69a1.4,1.4,0,0,1-1.22-1.4c0-.55.31-.74.79-1a15.77,15.77,0,0,0,3.34-2.06c-2.14-2.69-2.55-4.39-2.55-4.68,0-.53.63-.89,1.16-.89a1,1,0,0,1,1,.67,14.66,14.66,0,0,0,2.06,3.31,9,9,0,0,0,2.11-3.55c0-.41-.34-.48-.72-.48h-5.33c-.55,0-1.22-.14-1.22-1.15-.19.41-.48.48-1.08.6v8c0,2.4-.89,2.5-3.07,2.5-1.35,0-2.14,0-2.14-1.32a1,1,0,0,1,1.2-1.13l1.1.05c.7,0,.77-.36.77-.77v-7.08l-1.2.14v5.07c0,.4-.05,1-.93,1s-.92-.6-.92-1Zm-1.1-2.11,1.9-.17c.62-.05,1.65-.15,2.25-.22v-4.77a.6.6,0,0,0-.67-.68h-2.83c-.48,0-.65.27-.65.68Zm2.66-4.13a8.9,8.9,0,0,1,.72,2.13c0,.63-.74.87-1.1.87-.58,0-.67-.29-1-1.27a9.88,9.88,0,0,0-.53-1.47.89.89,0,0,1-.12-.43c0-.46.43-.82,1.06-.82C449.09,452.35,449.23,452.69,449.54,453.34Zm12.89-.48c0,.5.12.72.75.72s.74-.12.84-.82c.17-1.27.21-1.65.89-1.65a.91.91,0,0,1,1,1,7.55,7.55,0,0,1-.57,3c-.46.7-1.18.7-2.43.7-2,0-2.59-.36-2.59-2.5V450.7a.6.6,0,0,0-.67-.67h-1.37c-.57,0-.84,0-.89.67a10.13,10.13,0,0,1-1.15,4.63c-.53.89-.79,1-1.1,1a1.3,1.3,0,0,1-1.32-1.18c0-.26.07-.38.72-1.46a8.61,8.61,0,0,0,.77-3.79c.09-2,1.27-2,2.56-2H460c2,0,2.47.45,2.47,2.47Z"/><path class="c" d="M413,485.91v1.44c0,.24-.12.31-.29.31h-7v6H412c.2,0,.29.1.29.31v1.4c0,.21-.09.31-.29.31h-6.29v7.17c0,.2-.07.29-.31.29H403.8c-.22,0-.31-.09-.31-.29v-17c0-.19.09-.29.33-.29h8.93C412.92,485.59,413,485.69,413,485.91Z"/><path class="c" d="M415.8,498.58v-.46a4.1,4.1,0,0,1,3.1-4.08,4,4,0,0,1-2.81-3.86v-.31c0-2.5,1.85-4.54,5.33-4.54s5.35,2,5.35,4.54v.33a4,4,0,0,1-2.83,3.84,4.05,4.05,0,0,1,3.12,4.08v.46c0,2.83-2.12,4.85-5.64,4.85S415.8,501.41,415.8,498.58Zm9-.15V498c0-1.64-1.18-2.79-3.38-3-2.21.24-3.36,1.39-3.36,3v.4c0,1.8,1.22,3,3.36,3S424.8,500.23,424.8,498.43Zm-.26-8.16V490c0-1.53-1.11-2.69-3.12-2.69s-3.1,1.16-3.1,2.69v.31c0,1.47,1.08,2.62,3.1,2.84C423.46,492.89,424.54,491.74,424.54,490.27Z"/><path class="c" d="M430.56,500.93a.33.33,0,0,1,.07-.5l1-.8c.19-.16.36-.14.53.1a3.77,3.77,0,0,0,3.31,1.58c2.38,0,3.53-1.34,3.53-3.55V495h0a4.14,4.14,0,0,1-3.79,2c-2.85,0-4.89-1.9-4.89-5.16v-1.16c0-3.28,2-5.28,5.37-5.3,3.55,0,5.57,2.21,5.57,5.57l0,6.65c0,3.57-2,5.83-5.64,5.83A5.7,5.7,0,0,1,430.56,500.93Zm8.45-9.29v-.84c0-2.37-1.35-3.43-3.29-3.43s-3.24,1.06-3.24,3.38v.87c0,2.33,1.27,3.38,3.12,3.38A3.15,3.15,0,0,0,439,491.64Z"/><path class="c" d="M455.52,490.37c0,2.42-1.08,3.94-4.06,6.86l-3.81,3.82h7.92c.19,0,.29.1.29.31v1.49c0,.22-.1.31-.29.31H445.32a.34.34,0,0,1-.39-.29l-.26-1.32a.63.63,0,0,1,.12-.57l4.87-4.87c3-3,3.6-4,3.58-5.62a2.85,2.85,0,0,0-3.1-3.05,3.24,3.24,0,0,0-3.33,2.64.3.3,0,0,1-.43.22l-1.45-.43a.35.35,0,0,1-.19-.46,5.21,5.21,0,0,1,5.45-4.08C453.48,485.33,455.52,487.37,455.52,490.37Z"/><path class="c" d="M469.78,487.49a.32.32,0,0,1,0,.5l-.87.92a.34.34,0,0,1-.55-.05,3.78,3.78,0,0,0-3.17-1.47,3.23,3.23,0,0,0-3.6,3.56v2.8h0a4.33,4.33,0,0,1,3.84-2c2.88,0,4.94,1.9,4.94,5.16v1.15c0,3.29-2,5.31-5.45,5.31s-5.56-2.21-5.56-5.57l0-6.65c0-3.57,2-5.83,5.69-5.83A5.68,5.68,0,0,1,469.78,487.49Zm-8.24,9.6v.82a3.07,3.07,0,0,0,3.34,3.43c2,0,3.29-1.06,3.29-3.38v-.87c0-2.33-1.3-3.36-3.17-3.38A3.19,3.19,0,0,0,461.54,497.09Z"/></svg>