<svg id="レイヤー_1" data-name="レイヤー 1" xmlns="http://www.w3.org/2000/svg" viewBox="0 0 32 32"><defs><style>.cls-1{fill:#00a4de;}.cls-2{fill:none;}.cls-3{fill:#fff;}</style></defs><circle class="cls-1" cx="16.07" cy="16.07" r="16.07"/><rect class="cls-2" width="32" height="32"/><path class="cls-3" d="M17.8,16.52a3.44,3.44,0,0,0-2.42-1.09,3.93,3.93,0,0,0,2-1.11,2.89,2.89,0,0,0,.63-2,3.49,3.49,0,0,0-.42-1.73,3.13,3.13,0,0,0-1.23-1.19,5.21,5.21,0,0,0-1.67-.55,26.49,26.49,0,0,0-3.44-.15h-4V23.27h4.11A26.73,26.73,0,0,0,15,23.1a5.48,5.48,0,0,0,1.83-.57,3.31,3.31,0,0,0,1.4-1.37,4.12,4.12,0,0,0,.49-2.05A3.72,3.72,0,0,0,17.8,16.52ZM11,12h.85a4,4,0,0,1,2,.33,1.29,1.29,0,0,1,.51,1.16,1.2,1.2,0,0,1-.54,1.11,4.44,4.44,0,0,1-2,.32H11Zm3.37,8.34a4,4,0,0,1-2,.36H11V17.47H12.4a3.81,3.81,0,0,1,2,.36,1.43,1.43,0,0,1,.54,1.28A1.27,1.27,0,0,1,14.33,20.29Z"/><path class="cls-3" d="M22.89,19.59a1.84,1.84,0,1,0,1.84,1.84A1.84,1.84,0,0,0,22.89,19.59Z"/><rect class="cls-3" x="21.28" y="8.73" width="3.2" height="9.7"/></svg>