<svg id="レイヤー_1" data-name="レイヤー 1" xmlns="http://www.w3.org/2000/svg" xmlns:xlink="http://www.w3.org/1999/xlink" viewBox="0 0 400 80"><defs><style>.cls-1,.cls-10,.cls-20,.cls-8,.cls-9{fill:none;}.cls-2{fill:#fff;}.cls-3{fill:#2e3192;}.cls-4{fill:#80c0a0;}.cls-5{clip-path:url(#clip-path);}.cls-6{fill:#4d4d4d;}.cls-7{fill:#0f0f0f;}.cls-10,.cls-20,.cls-8,.cls-9{stroke:#000;}.cls-10,.cls-19,.cls-20,.cls-8,.cls-9{stroke-miterlimit:10;}.cls-8{stroke-width:1.0312px;}.cls-9{stroke-width:0.6875px;}.cls-10{stroke-width:0.3437px;}.cls-11{fill:#006837;}.cls-12,.cls-19{fill:#ccc;}.cls-13{fill:#1e1e1e;}.cls-14{fill:#f15a24;}.cls-15{fill:#b3b3b3;}.cls-16{fill:#002080;}.cls-17{fill:#999;}.cls-18{fill:#c08000;}.cls-19{stroke:#999;stroke-width:0.0688px;}.cls-20{stroke-width:0.5px;}</style><clipPath id="clip-path"><rect class="cls-1" width="56" height="80"/></clipPath></defs><rect class="cls-2" width="400" height="80"/><path d="M66.6094,14.8369H106.208V51.6006c0,3.1045-1.98,4.0049-4.3652,4.0049H94.1484l-.6753-4.545h6.795c1.1694,0,1.395-.63,1.395-1.4853V19.1567H71.1992V55.6055h-4.59Zm6.03,11.835h6.1645a38.2818,38.2818,0,0,0-1.89-5.85l4.5449-.9c.4048,1.17,1.44,4.32,2.0249,6.75h6.0747c.9448-2.61,1.35-3.78,2.16-6.7051l4.5.9c-.855,2.6548-1.17,3.69-1.9351,5.8052h5.895v4.14H88.6133V44.8506h4.86V32.9717h4.4551V48.99H74.979V32.9717h4.2749V44.8506h4.9946V30.8115H72.6392Z"/><path d="M111.82,35.6113v-3.21h13.9785v-4.92h3.36v4.92h7.05v3.21h-7.05l.03,13.47c0,3.6894-2.8506,3.7793-4.38,3.7793-.63,0-2.58-.12-4.14-.21l-.42-3.33c1.709.1807,2.999.3008,3.9893.3008,1.23,0,1.59-.3008,1.59-1.23l-.03-9.3291A37.6192,37.6192,0,0,1,112.87,50.28l-2.07-2.64a41.833,41.833,0,0,0,14.13-12.0293Z"/><path d="M141.1,50.2207c7.23-4.32,8.4-9.8994,9.15-14.31h-8.01v-3.18h8.3692c.15-1.92.18-3.09.18-5.34l3.5107.06c-.0605,1.92-.12,2.88-.3008,5.28h11.13v4.95c0,.84,0,9.2393-1.2,12.209-1.1094,2.73-4.05,2.73-5.31,2.73a22.08,22.08,0,0,1-4.59-.39l-.15-3.3594a25.3349,25.3349,0,0,0,4.41.4492c2.07,0,2.46-.6894,2.76-1.77a55.78,55.78,0,0,0,.69-9.21v-2.43h-8.1c-.72,4.2-2.1005,11.9092-10.29,16.89Z"/><path d="M189.9688,19.5171c-.27-.4951-1.4844-2.7451-2.7891-4.6353l4.3193-1.9795a43.4565,43.4565,0,0,1,3.69,6.6148h5.4453a36.068,36.068,0,0,0,3.2851-6.39l4.6348,1.665a30.936,30.936,0,0,1-2.79,4.7251h5.8047v10.71h-4.5V23.6113H175.9746v6.6153H171.34v-10.71h5.8946c-1.4844-2.2949-2.3848-3.5552-2.835-4.1851l4.23-2.07a45.6556,45.6556,0,0,1,4.0049,6.2549Zm15.66,18.314h-11.79l-1.0352,2.97h16.56V54.66H173.5V40.8008h14.3545a11.2587,11.2587,0,0,0,1.125-2.97H177.415V26.2217h28.2139Zm-.8555,6.93H178.09v5.8047h26.6836Zm-3.6445-14.8945h-19.17v4.32h19.17Z"/><path d="M254.9932,54.8857c-4.8594-1.62-10.5293-3.6455-16.2891-8.91v9.45h-4.5449V46.0205c-2.88,2.52-6.75,5.58-16.2442,8.82l-2.34-4.0049c9.3144-2.8349,13.1846-5.5351,15.209-6.9746H215.53V40.126h18.6289v-2.7H218.68V33.9609h15.48V31.2617H217.7344v-3.69h9.1347a21.5971,21.5971,0,0,0-1.2148-3.51H215.53v-3.87h7.0644c-.3154-.6748-1.7549-3.7349-2.61-5.58l4.6806-1.35a36.5572,36.5572,0,0,1,2.6993,6.93h2.7451V13.5771h4.41v6.6148h3.9141V13.5771h4.41v6.6148h2.9248a48.7734,48.7734,0,0,0,2.4746-6.93l4.6806,1.35a37.2268,37.2268,0,0,1-2.4756,5.58h6.93v3.87H247.1641c-.2256.585-1.08,3.0147-1.2608,3.51h9.6748v3.69h-16.874v2.6992H254.543v3.4649H238.7041v2.7h18.6738v3.7353H242.124a39.1812,39.1812,0,0,0,15.48,6.93ZM241.1338,27.5713a18.5361,18.5361,0,0,0,1.08-3.51H230.4248c.2246.4951,1.0342,2.97,1.26,3.51Z"/><path d="M262.8252,23.4316h16.6035v17.1H267.3242c-.2695,7.7392-1.0791,11.3388-3.6445,15.0292l-3.96-3.2851c1.125-1.89,3.1055-5.22,3.1055-13.0488Zm18.2686-4.14H260.665v-4.41h20.4288Zm-13.77,8.5049v8.1894H274.93V27.7969Zm35.0088-10.35c-3.33,1.395-7.335,2.52-14.9394,3.24v6.48h15.12v4.499h-4.9053V55.5605h-4.6348V31.666h-5.58c.0449,4.1406-.045,15.5694-6.0293,23.7149l-4.1846-3.24c5.5791-6.0752,5.5791-15.8847,5.5791-17.6845V16.6372a44.1209,44.1209,0,0,0,16.6494-3.4648Z"/><polygon class="cls-3" points="0 66 390 66 386 70 0 70 0 66"/><polygon class="cls-4" points="0 70 386 70 382 74 0 74 0 70"/><g class="cls-5"><rect class="cls-3" x="-27.8752" y="72.1872" width="79.75" height="10.3125"/><rect class="cls-2" x="-27.8752" y="70.1247" width="79.75" height="2.0625"/><rect class="cls-4" x="-27.8752" y="67.2372" width="79.75" height="2.8875"/><rect class="cls-2" x="-27.8752" y="65.1747" width="79.75" height="2.0625"/><rect class="cls-4" x="-27.8752" y="62.2872" width="79.75" height="2.8875"/><rect class="cls-2" x="-27.8752" y="60.2247" width="79.75" height="2.0625"/><rect class="cls-4" x="-27.8752" y="57.3372" width="79.75" height="2.8875"/><rect class="cls-2" x="-27.8752" y="45.3747" width="79.75" height="11.9625"/><polygon class="cls-4" points="51.875 41.25 51.875 45.375 -27.875 45.375 -27.875 41.25 -26.5 4.125 -23.75 1.375 -0.375 0 24.375 0 47.75 1.375 50.5 4.125 51.875 41.25"/><path class="cls-6" d="M51.8748,56.3747V66H38.584l-6.4171-9.625Z"/><path class="cls-7" d="M51.8748,52.9372v3.4375H26.6669L25.75,55a11.29,11.29,0,0,0-2.24-2.0625Z"/><path class="cls-6" d="M51.8748,41.25V52.9372H23.51A19.1844,19.1844,0,0,0,12,49.5V14.4372H50.882Z"/><path class="cls-7" d="M32.1669,56.3747,38.584,66H35.3748c-2.75,0-4.125-2.75-4.125-2.75l-4.5829-6.875Z"/><polygon class="cls-6" points="12 14.437 12 49.5 -27.875 49.5 -27.875 41.25 -26.882 14.437 12 14.437"/><polyline class="cls-8" points="-26.882 14.437 12 14.437 50.882 14.437"/><path class="cls-9" d="M-27.8752,49.5H12a19.1844,19.1844,0,0,1,11.51,3.4375A11.29,11.29,0,0,1,25.75,55l.9171,1.375L31.25,63.25S32.6248,66,35.3748,66h16.5"/><line class="cls-10" x1="11.9998" y1="14.4372" x2="11.9998" y2="49.4997"/><line class="cls-10" x1="23.5099" y1="52.9372" x2="51.8748" y2="52.9372"/><polyline class="cls-10" points="26.667 56.375 32.167 56.375 51.875 56.375"/><line class="cls-10" x1="32.1669" y1="56.3747" x2="38.584" y2="65.9997"/><polygon points="47.75 12.512 47.062 3.437 46.375 2.75 36.75 1.375 -12.75 1.375 -22.375 2.75 -23.062 3.437 -23.75 12.512 -23.2 13.063 47.2 13.063 47.75 12.512"/><rect x="-29.25" y="77" width="82.5" height="5.5"/><rect class="cls-11" x="4.9531" y="74.7656" width="14.0938" height="7.2188"/><path class="cls-12" d="M18.875,74.9375v6.875H5.125v-6.875h13.75m.3438-.3437H4.7813v7.5625H19.2188V74.5938Z"/><rect class="cls-13" x="35.375" y="70.125" width="16.5" height="6.875" transform="translate(87.25 147.125) rotate(-180)"/><rect x="36.0625" y="70.8125" width="12.375" height="5.5" transform="translate(84.5 147.125) rotate(-180)"/><circle class="cls-12" cx="39.5" cy="73.5625" r="1.925"/><circle class="cls-12" cx="45" cy="73.5625" r="1.925"/><rect class="cls-14" x="49.2625" y="70.8125" width="3.3" height="5.5" transform="translate(101.825 147.125) rotate(-180)"/><rect class="cls-15" x="49.2625" y="73.8375" width="1.65" height="2.475" transform="translate(100.175 150.15) rotate(-180)"/><line class="cls-9" x1="10.625" y1="47.4375" x2="10.625" y2="22.6875"/><line class="cls-9" x1="13.375" y1="47.4375" x2="13.375" y2="22.6875"/><polyline class="cls-10" points="29.875 54.863 13.375 35.063 14.75 35.062 31.25 54.863"/><polyline class="cls-10" points="-5.875 54.862 10.625 35.063 9.25 35.063 -7.25 54.862"/><path class="cls-2" d="M10.5913,76.74a.1929.1929,0,0,1-.1416.209q-.063.019-.1289.0322a.04.04,0,0,1-.0454-.0253l-.0449-.1133c-.0171-.0381-.0088-.06.0258-.0645l.09-.0127c.0342-.0049.0512-.0342.0512-.0849v-.9864h-.1611l-.0644.251h.187c.0259,0,.0385.0156.0385.0449v.12c0,.0224-.0126.0332-.0385.0332h-.374v.371h.1484V76.25c0-.0312.0151-.0469.0449-.0469h.11c.0259,0,.0385.0157.0385.0469v.3965c0,.0439-.0234.0664-.0708.0664H9.5151c-.0385,0-.0581-.0225-.0581-.0664V76.25c0-.0312.0171-.0469.0518-.0469h.103c.0259,0,.0386.0157.0386.0469v.2646H9.792v-.371H9.4248c-.0259,0-.0386-.0108-.0386-.0332v-.12c0-.0293.0127-.0449.0386-.0449h.1738l-.0708-.251H9.3862V76.915c0,.0313-.0171.0469-.0517.0469H9.2412a.0421.0421,0,0,1-.0483-.0469V75.5479c0-.0362.019-.0538.0581-.0538H10.54c.0342,0,.0513.0176.0513.0538Zm-.8506-1.0459.0581.251h.1739l.0644-.251Z"/><path class="cls-2" d="M11.6143,75.4814c.0229,0,.0341.02.0341.0577v1.16h.356q.0337,0,.0337-.0322v-.87c0-.0342.0137-.0508.04-.0508H12.22c.0225,0,.0342.0166.0342.0508v1.0312q0,.0967-.11.0967H10.9458c-.0732,0-.1094-.0293-.1094-.09V75.7969c0-.0342.0132-.0508.04-.0508H11.01c.0268,0,.04.0166.04.0508v.87c0,.0215.0137.0322.04.0322h.3447v-1.16c0-.0381.0152-.0577.0455-.0577Z"/><path class="cls-2" d="M12.9048,75.6133l.0771-.0733a1.2723,1.2723,0,0,1,.18-.0488v-.0137h.2061l.1548.0381a.4827.4827,0,0,1,.1928.1348l.0645.1211v.1211l-.1929.2939a3.3647,3.3647,0,0,0-.3989.4v.0606H13.78v.2441h-.8882l-.0381-.0312v-.1749c.0132,0,.0513-.0605.1153-.1826.3427-.3086.5161-.4883.5161-.5361a.3356.3356,0,0,1,.0376-.0918v-.0908a.2582.2582,0,0,0-.18-.11h-.1035l-.1285.05h-.0263l-.1533-.0615-.0264-.0244Z"/><path class="cls-2" d="M13.9771,75.6133l.0771-.0733a1.2685,1.2685,0,0,1,.18-.0488v-.0137h.206l.1548.0381a.4833.4833,0,0,1,.1929.1348l.0645.1211v.1211l-.1929.2939a3.3565,3.3565,0,0,0-.3989.4v.0606h.5918v.2441h-.8882l-.0381-.0312v-.1749c.0132,0,.0513-.0605.1152-.1826.3428-.3086.5161-.4883.5161-.5361a.34.34,0,0,1,.0376-.0918v-.0908a.258.258,0,0,0-.18-.11h-.1035l-.1284.05h-.0264l-.1533-.0615-.0263-.0244Z"/><path class="cls-2" d="M6.415,79.9336a.1455.1455,0,0,1-.0644-.0068l-.0361-.0215a.112.112,0,0,1-.0367-.0342c-.01-.0147-.0215-.0322-.0346-.0537a.2525.2525,0,0,1-.0279-.0879c.0059-.0176.0142-.0234.0259-.0176a.3555.3555,0,0,0,.1055.0342.0912.0912,0,0,0,.0449-.0107.0748.0748,0,0,0,.03-.0235l.0322-.0517a.4846.4846,0,0,0,.043-.0948.4417.4417,0,0,0,.0234-.0986.78.78,0,0,0,.0044-.0791.2572.2572,0,0,0-.0063-.0606.0711.0711,0,0,0-.0259-.038.0568.0568,0,0,0-.0474-.0108.41.41,0,0,0-.06.0147c-.0215.0068-.04.0136-.0562.0195a.1084.1084,0,0,0-.0469.0488.8673.8673,0,0,0-.041.0782.6435.6435,0,0,0-.03.0751q-.0124.0381-.0512.1348a.8413.8413,0,0,1-.09.17.211.211,0,0,1-.0278.0235.058.058,0,0,1-.0366.0107.1576.1576,0,0,1-.0386-.0039.0658.0658,0,0,1-.0278-.0127.0845.0845,0,0,1-.0215-.0322.1475.1475,0,0,1-.0132-.0479.0877.0877,0,0,1,.0064-.0429.3.3,0,0,1,.0366-.0537.8506.8506,0,0,0,.0708-.1075,1.3623,1.3623,0,0,0,.0947-.21.0346.0346,0,0,0,0-.0244c-.0029-.01-.0244-.0235-.0644-.043a.2.2,0,0,1-.08-.0557.0871.0871,0,0,1-.0191-.0449c.0025-.02.0142-.0273.0342-.0215a.6631.6631,0,0,0,.1162.0108.2129.2129,0,0,0,.0386-.0069c.0112-.0019.0234-.0127.0366-.0322a.1361.1361,0,0,0,.0234-.0557L6.207,79.01a.3226.3226,0,0,0,.002-.0606.158.158,0,0,0-.0171-.0576.2076.2076,0,0,1-.02-.0518.0455.0455,0,0,1,0-.0283c.0029-.01.0156-.0176.0385-.0234l.0391.0088a.11.11,0,0,1,.03.0215l.0347.0341a.6429.6429,0,0,1,.062.0645.093.093,0,0,1,.03.0752.19.19,0,0,1-.0171.0517.2159.2159,0,0,0-.0195.0538c-.0029.0195.0186.0283.0645.0253l.0171-.0039c.0171,0,.0332.001.0473.002a.1736.1736,0,0,1,.043.0107.1523.1523,0,0,1,.0449.03.322.322,0,0,1,.0366.0381.62.62,0,0,1,.0367.0586.234.234,0,0,1,.0278.1006.7075.7075,0,0,1-.04.2383,1.5751,1.5751,0,0,1-.0733.1767c-.0215.041-.0439.0791-.0664.1133A.14.14,0,0,1,6.415,79.9336ZM7,79.2158a.1258.1258,0,0,0-.0386-.0088c-.0156-.0009-.03-.0019-.0429-.0019s-.0249-.001-.0367-.002a.0358.0358,0,0,1-.0258-.0176c-.0054-.01-.002-.0224.0107-.0361s.0176-.0273.0132-.039a.1223.1223,0,0,0-.0386-.043c-.0215-.0176-.0429-.0352-.0644-.0537a.2143.2143,0,0,1-.043-.0449.058.058,0,0,1-.0107-.0264.024.024,0,0,1,.0083-.0166l.0258-.0127c.0259,0,.0489,0,.0689.0019a.3126.3126,0,0,1,.0664.0127.2351.2351,0,0,1,.06.0254L7,78.9854a.2324.2324,0,0,1,.0386.0351.2228.2228,0,0,1,.03.0469.3918.3918,0,0,1,.0214.0517.2306.2306,0,0,1,.0088.0469.0908.0908,0,0,1-.0044.041c-.0044.01-.018.0166-.041.02A.2427.2427,0,0,1,7,79.2158Z"/><path class="cls-2" d="M8.248,81.1816a1.4056,1.4056,0,0,1-.55-.2539.07.07,0,0,1-.0171-.0683l.3222-.3272a.0537.0537,0,0,1,.0689,0,.5864.5864,0,0,0,.3222.14.769.769,0,0,0,.3008-.0362A.4083.4083,0,0,0,8.97,80.417a.678.678,0,0,0,.08-.419.74.74,0,0,0-.1118-.3115,1.26,1.26,0,0,0-.127-.1592,1.874,1.874,0,0,0-.2661-.1806V78.749a3.18,3.18,0,0,0,.2876-.1474.3955.3955,0,0,0,.1719-.1592.4471.4471,0,0,0,.03-.1953.3448.3448,0,0,0-.232-.2451A.724.724,0,0,0,8.4,77.9463a1.0288,1.0288,0,0,0-.4146.1719c-.017.0078-.03.0029-.0385-.0176l-.2539-.3438a.014.014,0,0,1,.0044-.0214,1.4718,1.4718,0,0,1,.4707-.2325,1.1188,1.1188,0,0,1,.4917-.0322,1.5067,1.5067,0,0,1,.4043.1231.7792.7792,0,0,1,.2705.21.8949.8949,0,0,1,.15.2666.96.96,0,0,1,.0473.31.7211.7211,0,0,1-.1074.3457,2.1644,2.1644,0,0,1-.3438.32,1.9106,1.9106,0,0,1,.3887.6055,1.3787,1.3787,0,0,1,.0625.6621,1.2492,1.2492,0,0,1-.1333.3633,1.0218,1.0218,0,0,1-.2622.3027.93.93,0,0,1-.4082.1807A1.6271,1.6271,0,0,1,8.248,81.1816Z"/><path class="cls-2" d="M10.25,81.1943a.07.07,0,0,1-.0684-.0605v-.4766a.3315.3315,0,0,1,.0254-.0947,13.0822,13.0822,0,0,1,.6875-1.1211q.3867-.5669.5137-.7861a.6242.6242,0,0,0,.0923-.4219.3826.3826,0,0,0-.4341-.249.7411.7411,0,0,0-.5112.2793q-.03.0264-.0513,0l-.3008-.3008a.0623.0623,0,0,1,0-.0859,1.2,1.2,0,0,1,.47-.3243,1.3262,1.3262,0,0,1,.5288-.1006.7382.7382,0,0,1,.3951.1094,1.66,1.66,0,0,1,.26.2168,1.0112,1.0112,0,0,1,.1651.3242.6752.6752,0,0,1,.0239.3116,1.5129,1.5129,0,0,1-.15.3847q-.1245.2431-.4556.7559t-.6274,1.06c-.0059.0341.0058.0517.0347.0517h1.1342a.1039.1039,0,0,1,.0816.0684v.3994a.1037.1037,0,0,1-.0816.0605Z"/><path class="cls-2" d="M12.519,79.5361v-.3828a.0456.0456,0,0,1,.0513-.0517h.6231a.0457.0457,0,0,1,.0517.0517v.3828a.0451.0451,0,0,1-.0517.0508H12.57A.045.045,0,0,1,12.519,79.5361Z"/><path class="cls-2" d="M14.8521,81.1943h-.43c-.043,0-.0645-.0195-.0645-.0605v-3.583q0-.0732.0645-.0733h.43a.0648.0648,0,0,1,.0732.0733v3.583C14.9253,81.1748,14.9009,81.1943,14.8521,81.1943Z"/><path class="cls-2" d="M16.7559,81.1816a1.4053,1.4053,0,0,1-.55-.2539.07.07,0,0,1-.0171-.0683l.3222-.3272a.0537.0537,0,0,1,.0689,0,.5864.5864,0,0,0,.3223.14.7687.7687,0,0,0,.3007-.0362.4083.4083,0,0,0,.2749-.2187.6774.6774,0,0,0,.08-.419.74.74,0,0,0-.1118-.3115,1.271,1.271,0,0,0-.1269-.1592,1.884,1.884,0,0,0-.2662-.1806V78.749a3.18,3.18,0,0,0,.2876-.1474.3955.3955,0,0,0,.1719-.1592.4471.4471,0,0,0,.03-.1953.3448.3448,0,0,0-.2319-.2451.7245.7245,0,0,0-.4019-.0557,1.0278,1.0278,0,0,0-.4145.1719c-.0171.0078-.03.0029-.0386-.0176l-.2539-.3438a.014.014,0,0,1,.0044-.0214,1.4728,1.4728,0,0,1,.4707-.2325,1.1188,1.1188,0,0,1,.4917-.0322,1.5067,1.5067,0,0,1,.4043.1231.7792.7792,0,0,1,.2705.21.8949.8949,0,0,1,.15.2666.96.96,0,0,1,.0473.31.7211.7211,0,0,1-.1074.3457,2.1624,2.1624,0,0,1-.3437.32,1.9119,1.9119,0,0,1,.3886.6055,1.3787,1.3787,0,0,1,.0625.6621,1.2492,1.2492,0,0,1-.1333.3633,1.0218,1.0218,0,0,1-.2622.3027.9291.9291,0,0,1-.4082.1807A1.6265,1.6265,0,0,1,16.7559,81.1816Z"/><rect class="cls-16" x="-12.75" y="2.0625" width="49.5" height="10.3125" rx="1.1"/><rect class="cls-2" x="-9.725" y="3.1625" width="11" height="8.8" rx="0.55"/><path class="cls-16" d="M-.2441,5.2363c.0459.0537.1567.2154.1972.2808.1475.227.1939.2959.1939.3843a.1776.1776,0,0,1-.1631.1845c-.0742,0-.1143-.05-.2066-.2075-.142.0156-.2221.023-.5517.0425v.292H.002c.0556,0,.1391.0078.1391.1655,0,.1655-.0957.1655-.1391.1655H-.7744v.3418H.1284c.0435,0,.1421,0,.1421.1656s-.102.1655-.1421.1655h-2.105c-.0429,0-.1416-.0039-.1416-.1694,0-.1617.1045-.1617.1416-.1617h.8814V6.5439h-.7363c-.0621,0-.1392-.0117-.1392-.1655,0-.1616.09-.1655.1392-.1655h.7363V5.94c-.0923.0039-.6284.023-.687.023-.0987,0-.1914,0-.1914-.1729,0-.165.0708-.165.3051-.1728a2.4591,2.4591,0,0,0,.1758-.3809h-.5517v.0616A8.2288,8.2288,0,0,1-2.18,6.8208c-.0771.3921-.1445.438-.2217.438a.1961.1961,0,0,1-.1914-.2075.3707.3707,0,0,1,.0157-.0962c.0063-.0269.0737-.2842.0864-.3306a7.1917,7.1917,0,0,0,.1294-1.3266V4.2021c0-.3154.0586-.3959.3174-.3959H-.1953c.25,0,.3052.0766.3052.3764v.1616c0,.3077-.0645.377-.3052.377H-2.0444V4.917H.1318c.0523,0,.1387.0117.1387.1616,0,.1577-.102.1577-.1387.1577Zm-1.8-.8266H-.272c.0366,0,.0645-.0152.0645-.0806V4.21c0-.0542-.0186-.085-.0645-.085H-1.958c-.0527,0-.0864.0308-.0864.1079Zm.9.8266a2.8164,2.8164,0,0,1-.1665.377c.4345-.0078.4809-.0078.9062-.0347C-.42,5.5557-.4878,5.4673-.5,5.4478A.2727.2727,0,0,1-.562,5.29a.1276.1276,0,0,1,.0093-.0537Z"/><path class="cls-16" d="M-1.0029,9.9419a.0947.0947,0,0,1-.0992-.0654c.002.0346.0113.12.0113.208,0,.5571-.1865.5571-.2881.5571-.0664,0-.1563,0-.1563-.2148,0-.1734.0528-.1773.1172-.1812.0576,0,.1016-.0268.1016-.2495a1.88,1.88,0,0,0-.1084-.6118.7128.7128,0,0,1-.0576-.2154c0-.0883.15-.6689.15-.8,0-.0766-.0347-.0766-.0532-.0766h-.11c-.0439,0-.0644.0386-.0644.1074v2.8418c0,.1348-.0323.1963-.1177.1963-.1084,0-.1084-.1465-.1084-.1963V8.3154c0-.3266.0483-.4.24-.4h.1846c.1289,0,.2441,0,.2441.2925a2.0064,2.0064,0,0,1-.0556.4346c-.0161.0805-.1172.4922-.1172.5112,0,.0269.0044.0386.039.1231a2.031,2.031,0,0,1,.1314.4575c.0117-.146.0737-.1538.1177-.1538H.1948c.03,0,.1177,0,.1177.1806s-.0874.1807-.1177.1807H-.1484v.9692c0,.1192.0322.1192.1152.1192.1128,0,.1177,0,.1289-.2.0142-.2461.0166-.3037.1016-.3037.1084,0,.1084.1269.1084.1884A1.9864,1.9864,0,0,1,.23,11.311c-.044.0923-.1152.0923-.2739.0923-.2535,0-.33,0-.33-.4V9.9419H-.5586a2.5113,2.5113,0,0,1-.1772,1.0654.7418.7418,0,0,1-.3941.4112c-.062,0-.11-.1153-.11-.2193a.181.181,0,0,1,.09-.1689c.2788-.2271.3569-.4116.3706-1.0884ZM-.7891,9.25c-.0273,0-.1059,0-.1059-.1733a.3017.3017,0,0,1,.0073-.0806.0949.0949,0,0,1-.0854.0576c-.1084,0-.1153-.123-.1153-.2V8.5693c0-.2959.0738-.3886.2329-.3886h.3272V7.9731c0-.0346,0-.1689.1128-.1689.083,0,.1176.0654.1176.1689v.2076h.32c.1567,0,.2329.0927.2329.3886V8.854c0,.05,0,.1958-.1084.1958a.1079.1079,0,0,1-.0781-.0269c.0024.023.0273.2271-.1036.2271Zm.7539-.3462a.0721.0721,0,0,1,.0665.023A.6474.6474,0,0,1,.0269,8.854V8.646c0-.0689-.021-.1074-.0621-.1074H-.8c-.0371,0-.0625.0307-.0625.1074v.208A.5433.5433,0,0,1-.87,8.95c.0141-.0273.0254-.0464.0805-.0464Z"/><path class="cls-2" d="M3.8125,10.644a1.918,1.918,0,0,1-.1235.8365c-.0835.1411-.16.15-.5044.15-.2408,0-.3575,0-.3575-.502,0-.4492.13-.4492.1836-.4492.0235,0,.2774.0264.2974.0264.0537,0,.14,0,.14-.3609V8.7861H2.2222c-.05,0-.167-.0088-.167-.4311,0-.3081.0566-.4317.167-.4317h1.226V6.6909H2.6733c-.0468,0-.15-.0088-.15-.4223,0-.3877.087-.4229.15-.4229H4.5947c.0435,0,.1538.0088.1538.4229,0,.396-.0937.4223-.1538.4223H3.8125V7.9233H5.0459c.0469,0,.17.0088.17.4317,0,.3345-.0771.4311-.17.4311H3.8125Zm.936-6.4184c.25,0,.3706.22.3706.9775v.8628c0,.167-.0029.4575-.17.4575-.16,0-.1836-.2109-.1836-.4575V5.37c0-.22-.04-.3432-.13-.3432H2.623c-.09,0-.13.1235-.13.3432v.7046c0,.1939-.0132.4575-.17.4575-.14,0-.1836-.1406-.1836-.4575V5.2031c0-.7573.12-.9775.374-.9775h.9326V3.812c0-.2641.06-.3789.17-.3789.1167,0,.2.062.2.3789v.4136Z"/><path class="cls-2" d="M6.4419,8.4253h.481c.0468,0,.1738,0,.1738.4316,0,.3872-.1133.4136-.1738.4136h-.481v.9243a3.0235,3.0235,0,0,0,.4409-.123.4311.4311,0,0,1,.1006-.0176c.11,0,.147.1851.147.4312,0,.3789-.0869.414-.3008.4843a11.4415,11.4415,0,0,1-1.25.2993c-.0933,0-.1636-.123-.1636-.4663,0-.4052.11-.4228.2173-.44.1738-.0264.1836-.0264.4878-.0879V9.2705h-.478c-.0367,0-.17,0-.17-.4048,0-.3344.0669-.44.17-.44h.478V7.6948H5.8569c-.2236,0-.3374-.2026-.3374-.89V4.6221c0-.687.1138-.88.3374-.88h.8555c.2241,0,.3374.1934.3374.88V6.8052c0,.687-.11.89-.3374.89h-.27ZM5.8071,5.3789h.314v-.854H5.9c-.0566,0-.0933.0708-.0933.2466Zm0,.6519v.6513c0,.1587.03.2466.0933.2466h.2207V6.0308Zm.959-.6519V4.7715c0-.1758-.0337-.2466-.09-.2466H6.4419v.854Zm0,.6519H6.4419v.8979h.2339c.0566,0,.09-.07.09-.2466ZM7.772,6.603c-.1372-.3344-.3076-.6518-.3408-.7221a.8175.8175,0,0,1-.1607-.4756c0-.2285.0869-.4224.167-.4224.03,0,.0669.0264.13.1318.0468.08.1035.1763.2241.4141a5.1555,5.1555,0,0,0,.2671-.88c0-.1147-.05-.1147-.0733-.1147H7.314c-.0669,0-.1538-.0352-.1538-.396,0-.3872.1035-.396.1538-.396h.8423c.1333,0,.2973.0439.2973.5986a2.6838,2.6838,0,0,1-.1572.8716c-.08.2554-.1367.4048-.2774.7749a.8643.8643,0,0,1,.1236.4487.8212.8212,0,0,1-.0166.1675h.07c.14,0,.334,0,.334.6514a9.3782,9.3782,0,0,1-.0835,1.0478c-.0967.7837-.1236.8541-.2071.8541-.0634,0-.1669-.0972-.1669-.3257,0-.1939.1567-1.03.1567-1.2417,0-.1407-.06-.1407-.09-.1407h-.184v3.1695c0,.977-.14,1.0039-.4781,1.0039-.1767,0-.1967,0-.247-.0445a.7345.7345,0,0,1-.107-.4663c0-.414.1172-.4228.1573-.4228.0263,0,.167.0088.1967.0088.0806,0,.1475-.0352.1475-.37V7.4482H7.2373c-.0605,0-.1572-.0175-.1572-.4228,0-.4224.11-.4224.1572-.4224Z"/><path class="cls-2" d="M9.03,9.1211c0,.0527-.0269.9683-.09,1.6553-.0166.2021-.0332.3344-.1069.3344-.0664,0-.1133-.1147-.1133-.2378,0-.1054.0469-.5283.0567-.6162.0268-.3877.04-.687.06-1.1533.01-.22.0537-.229.11-.229C9.03,8.8745,9.03,9.0771,9.03,9.1211Zm.7588-3.9795h.2573c.0366,0,.147.0088.147.3257,0,.2466-.0669.3257-.147.3257H9.7891v.625h.2539c.0332,0,.15,0,.15.3432s-.1172.3433-.15.3433H9.7891v.7046H9.916c.18,0,.2974.0791.2974.66,0,.0972-.0132,1.5586-.1,2.36-.0772.7217-.1773.7925-.4649.7925-.07,0-.227,0-.2705-.062a.821.821,0,0,1-.0766-.3872c0-.4048.1035-.4048.2036-.4048a1.4738,1.4738,0,0,0,.1972,0c.0967-.0181.1436-.2822.1705-.7134.02-.29.0434-1.0215.0434-1.2944,0-.22-.0635-.22-.1035-.22H9.2041c-.2773,0-.3442-.185-.3442-.916V4.6045c0-.731.0669-.9072.3442-.9072h.8887c.06,0,.1538.0175.1538.3877,0,.3432-.0767.3872-.1538.3872H9.7891ZM9.2842,9.1035c.01.2818.02.88.02,1.2236,0,.2378,0,.3873-.1.3873-.0835,0-.0835-.1319-.0835-.211,0-.0971.0068-.5371.0068-.6343,0-.123-.0034-.66-.0034-.7656,0-.0884,0-.2114.08-.2114C9.2676,8.8921,9.2778,8.9712,9.2842,9.1035Zm.2241-3.9619V4.4722H9.2544c-.0772,0-.0938.1235-.0938.2466v.4228Zm0,.6514H9.1606v.625h.3477Zm0,1.3115H9.1606v.458c0,.1323.0166.2466.0938.2466h.2539ZM9.5249,9.209c.0132.1938.0566.9331.0566,1.0566,0,.211-.0766.211-.0932.211-.07,0-.0737-.1055-.08-.3257-.01-.3345-.0205-.5635-.03-.8189-.0068-.0879-.0132-.2641-.0132-.2729,0-.1406.0567-.167.07-.167C9.5049,8.8921,9.5083,8.9185,9.5249,9.209Zm.2539-.0176c.0137.1318.07.66.07.7573,0,.1582-.0566.211-.0937.211-.0635,0-.0733-.1231-.08-.2466-.01-.1318-.07-.8452-.07-.898,0-.0791.0268-.1582.0835-.1582C9.7422,8.8569,9.749,8.9185,9.7788,9.1914Zm2.0151-2.7031c0,.9424-.1938.9863-.4145.9863a12.6711,12.6711,0,0,0,.3076,2.6939,3.3009,3.3009,0,0,1,.2139.9423c0,.2994-.107.5284-.2036.5284-.0606,0-.1006-.0269-.2373-.5723a17.92,17.92,0,0,1-.4014-3.5923h-.3008V7.959a20.3122,20.3122,0,0,1-.21,3.1782c-.0733.4487-.1167.5283-.1973.5283-.0664,0-.1968-.1323-.1968-.414a4.99,4.99,0,0,1,.12-.8365,19.1184,19.1184,0,0,0,.1607-2.5883V4.6572c0-.7573.1235-.9775.3706-.9775h.6147c.2642,0,.3745.2466.3745.9775Zm-1.0293.1235h.5616c.0967,0,.1338-.1323.1338-.352V4.8774c0-.2378-.0435-.3437-.1338-.3437H10.895c-.0869,0-.13.1059-.13.3437Z"/><path class="cls-2" d="M13.1162,7.5625c0,.4141-.13.7573-.2876.7573s-.2876-.3432-.2876-.7573c0-.4224.13-.7573.2876-.7573S13.1162,7.14,13.1162,7.5625Z"/><path class="cls-2" d="M16.7793,10.31c0,.8891-.1333,1.1621-.4409,1.1621H14.3335c-.2974,0-.4414-.2554-.4414-1.1621V4.9214c0-.898.1406-1.1621.4414-1.1621h2.0049c.3042,0,.4409.2729.4409,1.1621Zm-.3408-5.2388c0-.2993-.06-.4487-.17-.4487H14.4033c-.1133,0-.17.1582-.17.4487V10.16c0,.2817.0537.4492.17.4492h1.8648c.1137,0,.17-.1675.17-.4492Zm-.9722,2.0161h.6279c.0537,0,.1538.0088.1538.3789,0,.3433-.0766.3784-.1538.3784h-.6279V9.2617h.7085c.0566,0,.1636,0,.1636.3877,0,.396-.107.396-.1636.396H14.4971c-.0533,0-.1636,0-.1636-.3872,0-.3965.1069-.3965.1636-.3965h.6382V7.8442h-.5479c-.0435,0-.1572,0-.1572-.352,0-.2993.05-.4053.1572-.4053h.5479V5.9688h-.5914c-.05,0-.1606,0-.1606-.3785,0-.3344.0771-.4135.1606-.4135h1.6006c.1035,0,.1607.1406.1607.396,0,.3784-.09.396-.1607.396h-.6782Zm.4976,1.2505a2.5454,2.5454,0,0,1,.1074.5635c0,.2026-.104.2729-.1475.2729-.07,0-.0835-.0527-.1367-.3169-.0469-.22-.0537-.2465-.1069-.4668a.7209.7209,0,0,1-.0269-.185c0-.1758.0835-.2642.14-.2642S15.8638,7.959,15.9639,8.3374Z"/><path class="cls-2" d="M20.09,10.6265c.1236,0,.1636.2026.1636.4135,0,.2642-.0469.458-.1738.458H18.626c-.6245,0-.8086-.6513-.8887-.9418a6.3315,6.3315,0,0,1-.2939.8891c-.0635.1582-.107.167-.1338.167-.107,0-.1973-.2725-.1973-.5542,0-.1938.0034-.2114.2007-.6518.0835-.1846.1435-.3433.18-.4488V7.95c0-.08,0-.2822-.09-.2822h-.124c-.1133,0-.1567-.1758-.1567-.4312,0-.3345.0669-.4316.1738-.4316h.19c.2774,0,.3443.1762.3443.9072V9.2969c.04,1.1709.5175,1.33.7651,1.33Zm-2.4062-6.41c.05.1235.1641.4316.2007.5635a.9208.9208,0,0,1,.0337.2378c0,.2729-.09.5107-.1939.5107-.07,0-.0971-.0879-.1972-.3784-.0572-.1587-.1607-.44-.294-.7925a.7663.7663,0,0,1-.0605-.2993c0-.1675.0571-.4844.19-.4844C17.44,3.5742,17.59,3.97,17.6836,4.2168Zm1.9985,1.4795c.2408,0,.3374.2373.3374.8891V9.2c0,.6514-.0966.8892-.3374.8892H18.4858c-.23,0-.3339-.22-.3339-.8892V6.5854c0-.6694.1-.8891.3339-.8891h.294c.0137-.0884.0434-.3.0669-.5195h-.7451c-.0469,0-.1538-.0088-.1538-.3877,0-.3521.0835-.396.1538-.396h.3711c-.0235-.106-.0635-.2906-.09-.4141a.8508.8508,0,0,1-.03-.2021c0-.1763.0737-.3345.1938-.3345.1035,0,.1235.0967.1606.2461.0767.3349.1167.5371.1436.7046h.4478c.03-.1587.0737-.3785.1137-.66.02-.1323.0435-.3086.17-.3086.0733,0,.1905.0884.1905.3438a3.2833,3.2833,0,0,1-.1036.625h.4141c.0435,0,.1572,0,.1572.3872s-.1035.3965-.1572.3965h-.8789c-.0132.1054-.0332.2729-.0767.5195Zm-.0068,1.2676V6.6206c0-.1587-.03-.2466-.09-.2466h-.9926c-.0635,0-.0938.0879-.0938.2466v.3433Zm0,.625H18.499v.5459h1.1763Zm0,1.18H18.499v.3525c0,.167.0337.2466.0938.2466h.9926c.0567,0,.09-.0708.09-.2466Z"/><path class="cls-2" d="M22.9624,4.2783c.3105,0,.3574.4053.3574.8189a16.1242,16.1242,0,0,1-.561,3.9091c-.5352,1.7344-1.3906,2.2276-1.5308,2.2276-.1836,0-.19-.5108-.19-.5459,0-.3169.1069-.396.23-.4751A4.7016,4.7016,0,0,0,22.752,7.1138a14.268,14.268,0,0,0,.15-1.5938c0-.2641-.0737-.2641-.1235-.2641H20.86c-.0435,0-.1871,0-.1871-.4844,0-.4575.1236-.4932.1871-.4932Z"/><path class="cls-2" d="M26.39,10.01c.04,0,.1773,0,.1773.4487,0,.3965-.1035.4492-.1773.4492H24.3511c-.0435,0-.18,0-.18-.44,0-.3609.0869-.4575.18-.4575h.8354V6.5767h-.685c-.04,0-.18,0-.18-.4405,0-.4135.1133-.4492.18-.4492h1.7378c.04,0,.1806,0,.1806.44,0,.4136-.11.4493-.1806.4493h-.6949V10.01Z"/><path class="cls-2" d="M28.0356,8.3374c0,.2026-.0166.4844-.1938.4844-.1367,0-.2-.1411-.2-.4844V4.3491c0-.2114.02-.4844.1973-.4844.1333,0,.1967.1412.1967.4844Zm1.7378-.687c0,.854-.0268,2.6328-.9956,3.4077a1.2429,1.2429,0,0,1-.7187.29c-.0366,0-.2139,0-.2139-.5107,0-.4053.0869-.4229.3311-.4844a1.3181,1.3181,0,0,0,1.019-1.0654,5.3813,5.3813,0,0,0,.1841-1.6021V4.2432c0-.1934.0132-.4927.1938-.4927.1436,0,.2.167.2.4927Z"/><path class="cls-2" d="M30.7715,8.0645c-.06,0-.21,0-.21-.502,0-.4932.1333-.5107.21-.5107h2.5664c.06,0,.207,0,.207.5019s-.1367.5108-.207.5108Z"/><g id="layer1"><g id="path2838-7-4-1-2"><path class="cls-12" d="M11.9951,59.7783A2.3629,2.3629,0,0,1,9.7168,58.04a1.0188,1.0188,0,0,0,.96.584c.041,0,.0815-.0019.1211-.0058a1.2455,1.2455,0,0,0,.3432.2773,1.711,1.711,0,0,0,1.72.001.3965.3965,0,0,0-.1992-.7393.3909.3909,0,0,0-.1973.0537.9758.9758,0,0,1-.47.1221.9179.9179,0,0,1-.4585-.1221c-.03-.0175-.0576-.0361-.0845-.0556a1.246,1.246,0,0,1-.7456.3A1.0585,1.0585,0,0,1,9.6309,57.48a2.4245,2.4245,0,0,1,.3149-1.26,2.383,2.383,0,0,1,2.06-1.1855,2.3453,2.3453,0,0,1,.5962.0762.9992.9992,0,0,0-.1084-.0059,1.0363,1.0363,0,0,0-.8853.5459c-.02.0342-.0381.07-.0542.1055a1.6341,1.6341,0,0,0-1.042.79,1.7261,1.7261,0,0,0-.2319.86.3963.3963,0,0,0,.7925,0,.9359.9359,0,0,1,.1245-.4639.9139.9139,0,0,1,.43-.3838,1.5839,1.5839,0,0,1,.018-.5527.992.992,0,0,1,.0518-.1534l.0434-.0918a1.048,1.048,0,0,1,1.4468-.41,2.3734,2.3734,0,0,1,.5,3.7246,1.02,1.02,0,0,0,.03-1.1318c-.0205-.0352-.043-.0694-.0659-.1016a1.6806,1.6806,0,0,0-.791-1.9248l-.0958-.0391-.1123-.0127-.1005.0147-.1031.0469-.081.0683a.4469.4469,0,0,0-.0977.3106l.0274.1054.061.1016.1064.0889a.9348.9348,0,0,1,.4576.9052,1.4012,1.4012,0,0,1,.5112.336l.0928.1172a1.0669,1.0669,0,0,1-.2857,1.4687A2.4539,2.4539,0,0,1,11.9951,59.7783Zm.0054-2.707a.335.335,0,1,0,.3354.335A.3355.3355,0,0,0,12.0005,57.0713Z"/><path class="cls-17" d="M12.0083,55.0688c.0775,0,.155.004.232.0117a1.2456,1.2456,0,0,0-.6621.5528q-.0227.0391-.0421.0794a1.7406,1.7406,0,0,0-1.0541.8165,1.7618,1.7618,0,0,0-.2369.877l.0019.0688h.0056a.43.43,0,0,0,.8486,0h.0077l0-.069a.8819.8819,0,0,1,.5323-.816l.0533-.0242-.0144-.0566-.01-.0443a1.0115,1.0115,0,0,1,.0587-.6l.02-.0446c.0071-.0147.0145-.0292.0268-.0521l.009-.0165a1.0138,1.0138,0,0,1,1.3857-.3714,2.3392,2.3392,0,0,1,.7241,3.3981,1.2459,1.2459,0,0,0-.1469-.852q-.0231-.04-.0487-.0775a1.7493,1.7493,0,0,0-.8208-1.9621l-.0316-.0165-.025-.0109-.0282-.01-.0289-.0081-.0255-.0055-.0319-.0044-.0279-.0019-.0252,0-.0321.0021-.0255.0032-.0235.0043-.0306.0079-.024.0078-.0234.009-.028.0133-.0233.0128-.0208.0132-.0235.017-.022.0183-.0187.0177-.02.0215-.0189.0235-.0151.0214-.0136.0219a.4268.4268,0,0,0-.0547.2656c.0017.0136.0039.0271.0069.0406a.4066.4066,0,0,0,.0106.04l.0068.02.0077.0192.0086.0188a.4249.4249,0,0,0,.0565.0873l.0139.0158a.4062.4062,0,0,0,.0469.0437.4227.4227,0,0,0,.0541.037.8984.8984,0,0,1,.44.8716l-.0059.0576.0557.0157a1.0119,1.0119,0,0,1,.4707.2888l.0316.0361.03.0379.0283.0394c.0092.0135.0181.0272.0313.0485l.0112.0183a1.0153,1.0153,0,0,1-.3184,1.3531l-.0135.0087-.04.023a2.3625,2.3625,0,0,1-1.1745.3133,2.3279,2.3279,0,0,1-2.1256-1.3811,1.2459,1.2459,0,0,0,.8078.2961c.0308,0,.0613-.0012.0916-.0034a1.7524,1.7524,0,0,0,2.11.2716l.058-.0359-.0027-.0046a.43.43,0,0,0-.4239-.7354l-.0035-.0061-.06.034a.9116.9116,0,0,1-.4513.12.8845.8845,0,0,1-.442-.1182.8679.8679,0,0,1-.0813-.0532l-.0469-.0345-.0417.0406a1.0169,1.0169,0,0,1-.6877.2869l-.0192.0005a1.017,1.017,0,0,1-1.0117-.9443l-.0011-.0207,0-.05a2.3333,2.3333,0,0,1,2.3426-2.3373h.0018m-.0076,2.7072a.37.37,0,1,0-.37-.37.37.37,0,0,0,.37.37M12.0065,55a2.4022,2.4022,0,0,0-2.4113,2.4063H9.5938l.001.0425.0018.0326v0a1.0832,1.0832,0,0,0,1.08,1.0082l.0306-.0008a1.0785,1.0785,0,0,0,.7242-.306.9463.9463,0,0,0,.564.1847.9813.9813,0,0,0,.4854-.1289l.001.0016a.3611.3611,0,0,1,.361.6255l.001.0018a1.6791,1.6791,0,0,1-1.6858-.0018,1.7024,1.7024,0,0,1-.3638-.2816q-.058.0057-.1176.0058a1.1834,1.1834,0,0,1-.9931-.5412,2.3974,2.3974,0,0,0,2.3109,1.7637,2.4309,2.4309,0,0,0,1.2087-.3224l.0007.0012.0365-.0223.0184-.0118.0009-.0005a1.0836,1.0836,0,0,0,.3407-1.4454l-.0166-.0272,0,0q-.0138-.0223-.0285-.0438c-.01-.0143-.02-.0283-.03-.042l0,0,0,0c-.01-.0137-.021-.027-.0319-.04s-.0222-.026-.0337-.0385a1.08,1.08,0,0,0-.5027-.3085.969.969,0,0,0-.4743-.9382.3771.3771,0,0,1-.0456-.0311.3708.3708,0,0,1-.0393-.0367l-.0117-.0133a.3615.3615,0,0,1-.0474-.0733l-.0073-.0158h0l-.0064-.0161-.0057-.0164-.009-.0335h0l-.0057-.0342a.36.36,0,0,1,.0459-.223l.0115-.0185.0042-.0061.0085-.0118.0047-.0062.0112-.0136.0023-.0027.0144-.0153L12.4112,56l.0112-.0105.0049-.0042.0135-.0111.0028-.0022.0169-.0121.005-.0033.0125-.0078.0064-.0037.0132-.0071.0051-.0026.0184-.0085.0041-.0016.0156-.006.0056-.0019.0145-.0047.0061-.0017.02-.0049.0026,0,.0173-.0031.007-.001.0142-.0017.0068-.0006.02-.0011.0064,0,.0149,0,.0066,0,.0167.0013.005.0005.0218.0032.0027.0006.0186.004.0062.0015.0182.0053.003.0009.0207.0075.0064.0027.0145.0065.0068.0033.02.0105a1.6794,1.6794,0,0,1,.78,1.9155c.0227.0317.0441.0646.0639.099A1.1838,1.1838,0,0,1,13.7115,59.1a2.4073,2.4073,0,0,0-.5074-3.7783,1.0824,1.0824,0,0,0-1.4795.3966l-.0143.0262,0,0q-.0125.0231-.0237.0465l0,0c-.0076.0157-.0147.0316-.0215.0475a1.08,1.08,0,0,0-.0627.64l.011.0473,0,.0008a.9509.9509,0,0,0-.5734.8793h-.0019a.3611.3611,0,1,1-.7221,0h-.002a1.6957,1.6957,0,0,1,1.2709-1.6354q.0239-.0524.053-.1033a1.1836,1.1836,0,0,1,.9728-.59A2.3957,2.3957,0,0,0,12.0083,55Zm-.0058,2.7072a.301.301,0,1,1,.3008-.3009.3009.3009,0,0,1-.3008.3009Z"/></g></g><rect class="cls-18" x="37.025" y="78.5125" width="4.95" height="2.475"/><path class="cls-3" d="M19.9362,67.1887l-.001,0a.38.38,0,0,1-.5589-.2649c-.0323-.103-.0513-.21-.0773-.3191-.0294.05-.06.1032-.0919.1561a3.0325,3.0325,0,0,1-.466.63,1.1293,1.1293,0,0,1-1.2541.2734,4.7921,4.7921,0,0,1-.6578-.3229,15.8979,15.8979,0,0,0-1.473-.7316,3.3205,3.3205,0,0,0-.488-.1416.2033.2033,0,0,0-.2454.125,3.5334,3.5334,0,0,0-.347,1.02c-.0613.3048-.1188.61-.1859.914a1.2927,1.2927,0,0,1-.102.2609.3536.3536,0,0,1-.0824.1033.2264.2264,0,0,1-.3941-.0925A1.1693,1.1693,0,0,1,13.46,68.2a6.7667,6.7667,0,0,1,.4289-1.6672,6.054,6.054,0,0,1,.43-.8278c.2515-.419.5226-.8263.7852-1.2386.0144-.0226.0278-.0458.0533-.0881-.04.02-.0617.0286-.08.0408a7.2365,7.2365,0,0,0-.9683.728,1.0074,1.0074,0,0,0-.1744.2185c-.0577.0955-.0322.1575.0662.2112a.1232.1232,0,0,1,.0629.1843.5662.5662,0,0,1-.28.2533.9663.9663,0,0,1-.686.1107.3473.3473,0,0,1-.2971-.4387.9722.9722,0,0,1,.1973-.4019,3.1677,3.1677,0,0,1,.6528-.6306A9.3244,9.3244,0,0,1,15.57,63.4953a6.8935,6.8935,0,0,1,1.2152-.4221,2.638,2.638,0,0,1,1.0556-.0713,1.8448,1.8448,0,0,1,.4443.1348.8484.8484,0,0,1,.4608.8847,1.1049,1.1049,0,0,1-.1393.434,2.3838,2.3838,0,0,1-.9829.9467,6.4526,6.4526,0,0,1-1.1054.4586c-.2784.0856-.5574.17-.8375.2494-.0933.0266-.1911.0374-.3088.0595.1965.068.3719.1327.55.1895.6069.1937,1.2136.388,1.8228.5742a3.3615,3.3615,0,0,0,.4571.0873.5794.5794,0,0,0,.4561-.128,1.5223,1.5223,0,0,0,.4267-.5149c.0994-.19.184-.3879.2755-.5821.1705-.3619.3384-.7251.5134-1.0849a.4443.4443,0,0,1,.3271-.2433.1448.1448,0,0,1,.1907.16.34.34,0,0,1-.04.1547c-.1452.247-.3.4885-.4439.736-.093.16-.1763.3256-.2587.4914a.5377.5377,0,0,0-.0473.3248.2388.2388,0,0,0,.2815.2176.5417.5417,0,0,0,.4357-.318c.1457-.3407.2844-.6845.4239-1.0278.0772-.19.1513-.3813.2244-.5728a.6028.6028,0,0,1,.2252-.313.193.193,0,0,1,.1961-.0274.1564.1564,0,0,1,.0743.1656.9578.9578,0,0,1-.0241.19,2.5719,2.5719,0,0,1-.0892.3056c-.1424.3767-.2888.7519-.4349,1.1271q-.327.8392-.6548,1.6782a.3484.3484,0,0,0-.0279.1351c.0023.0586.0426.0746.0833.0332a.718.718,0,0,0,.1261-.1625c.2426-.4613.4787-.9261.7224-1.3869.1467-.2774.3048-.5488.4555-.8241.1911-.349.3739-.7025.5713-1.0479a1.3722,1.3722,0,0,1,.6462-.6291.3249.3249,0,0,1,.293.0021.1518.1518,0,0,1,.0906.1422.1492.1492,0,0,1-.1088.128.2688.2688,0,0,1-.1078.02.3682.3682,0,0,0-.2991.1361,1.3849,1.3849,0,0,0-.3358,1.0356.7135.7135,0,0,0,.1762.4611.3311.3311,0,0,0,.5544-.0252.9589.9589,0,0,0,.161-.8087c-.01-.0426-.0247-.0663-.0765-.0689a.2155.2155,0,0,1-.2074-.1711.3828.3828,0,0,1,.3331-.5349,1.1551,1.1551,0,0,0,.5248-.2407.2962.2962,0,0,0,.11-.1776,14.3186,14.3186,0,0,1,.6737-2.155,1.7824,1.7824,0,0,1,.3421-.5592.5354.5354,0,0,1,.3222-.1655.3557.3557,0,0,1,.3877.2512,1.1747,1.1747,0,0,1,.0121.6145,1.9781,1.9781,0,0,1-.4027.873q-.2666.3324-.535.6632c-.0185.0229-.0374.0455-.06.0727a1.8343,1.8343,0,0,0,.5582.4585,1.2574,1.2574,0,0,0,.1987.08.4245.4245,0,0,0,.4661-.1163,2.4505,2.4505,0,0,0,.4276-.6372.9808.9808,0,0,1,.4021-.4605.2065.2065,0,0,1,.2251-.0016.1945.1945,0,0,1,.072.2048.6127.6127,0,0,1-.0422.1563,1.456,1.456,0,0,1-.1.1814,2.3639,2.3639,0,0,0-.379,1.0417.7093.7093,0,0,0,.06.4114.3772.3772,0,0,0,.5438.15,1.3538,1.3538,0,0,0,.4264-.4845c.0361-.0589.0667-.1212.1016-.1809a.4155.4155,0,0,1,.0423-.0521l.02.0071a.3566.3566,0,0,1-.0016.0671,1.2618,1.2618,0,0,1-.8829,1.02.5542.5542,0,0,1-.6529-.3055,1.1228,1.1228,0,0,1-.071-.61c.0217-.1785.0616-.3547.0935-.5319a.404.404,0,0,0,.0091-.0872.84.84,0,0,1-1.2387.2907c.0182.0978.0356.1779.0476.2587a2.7291,2.7291,0,0,1-.0169,1.0368,1.262,1.262,0,0,1-.1272.322.64.64,0,0,1-.6645.3025.3823.3823,0,0,1-.3115-.2719,2.7326,2.7326,0,0,1-.05-1.4112l.0136-.0652-.0009-.0072a.5984.5984,0,0,0-.3186.49c.0053.2662.018.5332.0045.7986a.9782.9782,0,0,1-.9714.962.5675.5675,0,0,1-.5127-.3451,1.4339,1.4339,0,0,1-.16-.6612c-.0165.0227-.0278.0358-.0364.05a12.6349,12.6349,0,0,0-1.2262,2.8847,4.1428,4.1428,0,0,1-.4174,1.0269.8079.8079,0,0,1-.3893.3708.1622.1622,0,0,1-.2289-.0822.782.782,0,0,1-.07-.3892,5.7364,5.7364,0,0,1,.2167-1.3787C19.8,67.6377,19.8712,67.4142,19.9362,67.1887ZM15.807,65.6936a3.975,3.975,0,0,0,1.077-.4976,2.3684,2.3684,0,0,0,.7949-.7383,1.1805,1.1805,0,0,0,.1958-.6425c-.0064-.2836-.1459-.4269-.426-.41a2.1041,2.1041,0,0,0-.5429.098,6.0963,6.0963,0,0,0-.6559.2877.995.995,0,0,0-.4717.4094c-.2334.4184-.4782.83-.716,1.2464a2.4113,2.4113,0,0,0-.1214.2538c-.04.0933-.031.1045.0716.1078A2.6172,2.6172,0,0,0,15.807,65.6936Zm8.6334-2.09a2.1992,2.1992,0,0,0-.12.2341,2.3486,2.3486,0,0,0-.1444.9661,1.1824,1.1824,0,0,0,.072.3072.1918.1918,0,0,0,.1706.1356.1877.1877,0,0,0,.1767-.1145.8554.8554,0,0,0,.077-.1756,1.82,1.82,0,0,0-.043-1.1061A.4391.4391,0,0,0,24.44,63.6039Zm.0608-.5286.0322.019c.0635-.0588.132-.1132.19-.1772a2.8489,2.8489,0,0,0,.5157-.85.6473.6473,0,0,0,.0371-.406.21.21,0,0,0-.0777-.1229c-.0554-.0331-.1021.0169-.136.0593a1.43,1.43,0,0,0-.137.1923,4.3321,4.3321,0,0,0-.4245,1.172A.503.503,0,0,0,24.5012,63.0753Z"/><path class="cls-3" d="M26.7124,62.4437c.004-.0825.0041-.1654.0134-.2473a.0694.0694,0,0,0-.0569-.0855c-.07-.0238-.1373-.0528-.2057-.08l-.0024-.0207.1425-.0408c.14-.04.14-.04.15-.1884a.55.55,0,0,1,.0288-.1613c.04.0633.0837.1244.1179.1906a.0748.0748,0,0,0,.1076.04,1.2137,1.2137,0,0,1,.2262-.053q-.0535.0694-.1072.1387c-.0814.1048-.0815.1047-.0125.218l.0991.1625-.295-.1073-.1918.2384Z"/><g id="g8696"><g id="path8698"><polygon class="cls-12" points="38.689 69.897 38.723 68.375 40.404 68.409 40.37 68.708 39.104 68.674 39.07 69.015 40.349 69.049 40.314 69.348 39.104 69.313 39.072 69.897 38.689 69.897"/><path class="cls-17" d="M40.3355,68.4434V68.64H39.035v.4434H40.28v.1962H39.035v.5839h-.2775v-1.42h1.578m.0687-.0687H38.6888v1.5572h.415v-.584h1.2451v-.3337H39.1038v-.3058h1.3v-.3337Z"/></g></g><g id="g8708"><path id="path8710" class="cls-19" d="M46.9156,69.5743a.4137.4137,0,0,1-.1215.23c-.1382.1294-.3473.1336-.8623.1336-.6282,0-.7947-.0042-.935-.1475-.1015-.1043-.122-.2146-.122-.6059,0-.0873,0-.1738.0024-.2636a.5969.5969,0,0,1,.1334-.4473c.115-.1078.2748-.1363.8347-.1363.07,0,.208.0018.4169.0063a.8843.8843,0,0,1,.5057.0927c.1339.083.1709.2281.1709.67a3.184,3.184,0,0,1-.0232.4676m-.4541-.842a1.5063,1.5063,0,0,0-.5559-.0483c-.194,0-.3582.0044-.445.0117a.2116.2116,0,0,0-.1139.0366c-.05.039-.0567.0948-.0567.3868,0,.0559,0,.1129.0027.1694.0018.1469.0109.2027.0413.2381a.1675.1675,0,0,0,.1013.0477,3.6959,3.6959,0,0,0,.4965.0251c.3256,0,.4857,0,.5413-.0616.0395-.0439.0495-.1169.0495-.4256,0-.0967.0114-.3178-.0611-.38"/></g><g id="g8712"><path id="path8714" class="cls-19" d="M44.5191,69.826c-.075.0824-.1644.1059-.3447.1059H42.7837V69.57h1.2584a.2432.2432,0,0,0,.135-.0188c.0267-.0161.0353-.0452.0353-.1277,0-.0658-.0074-.0865-.0329-.108-.0232-.0188-.0446-.0236-.1245-.0236h-.8024c-.2114,0-.2825-.016-.3688-.0852s-.12-.1839-.12-.42a.4983.4983,0,0,1,.073-.3176.25.25,0,0,1,.103-.0828.6117.6117,0,0,1,.3049-.04h1.3094v.3615H43.3863c-.1236,0-.1482.02-.1482.1284,0,.0976.0319.1218.1432.1218h.7716c.2373,0,.3707.0636.4318.2047a.6977.6977,0,0,1,.0421.2893.4845.4845,0,0,1-.1077.37"/></g><g id="g8716"><path id="path8718" class="cls-19" d="M42.3846,69.7951c-.0867.1169-.2177.1626-.5063.1646l-.262.0278h-.3254c-.3047-.0267-.4364-.0764-.5319-.2139a1.1576,1.1576,0,0,1-.0781-.3736V68.3747h.415v.98c0,.2085.0429.2411.2989.2437l.1917.0022.2139-.0048c.233-.0051.2639-.0349.2639-.286v-.9349h.4151v.9378c0,.2846-.0212.379-.0984.4856"/></g><g id="g8720"><g id="path8722"><path class="cls-12" d="M36.5439,69.9531l.3472-.498.6.0166-.3418.498Zm1.27,0-.2857-.5283.6026.0469.2646.4814Zm-.3423-.5322.0512.0039-.0292.042Zm-.2632-.55.3179-.5156.2578.5508-.315.51Z"/><path class="cls-17" d="M37.4963,68.4752l.2377.4128-.2379.4123-.2381-.4119.2383-.4132m.5952,1.0313.2419.4123h-.48l-.2383-.4123h.4762m-.7145,0-.2379.4123h-.4763l.2381-.4123h.4761m.1194-1.169-.3178.5509.3175.5493.3171-.5493.0007.0006-.3175-.5515Zm0,1.1v0h0v0Zm.6348,0h-.6348l.3178.55h.64l-.3226-.55Zm-.6348,0h-.6349l-.3175.55h.635l.3174-.55Z"/></g></g></g><path d="M320.9951,18.2109a6.3493,6.3493,0,0,1,6.5313,6.5625,6.5386,6.5386,0,1,1-13.0772,0A6.352,6.352,0,0,1,320.9951,18.2109Zm0,11.7491a5.0594,5.0594,0,0,0,5.042-5.1866,5.0516,5.0516,0,1,0-10.1,0A5.0633,5.0633,0,0,0,320.9951,29.96Z"/><path d="M330.8809,25.3818l4.0175-3.7295h1.9053l-4.3057,3.97,4.834,5.458h-1.873l-4.5781-5.33v5.33H329.457V17.8745h1.4239Z"/><path d="M339.2168,22.1807a6.0531,6.0531,0,0,1,3.0576-.7842,4.2369,4.2369,0,0,1,3.169,1.1846,3.3172,3.3172,0,0,1,.6406,2.4v4.3223a3.6593,3.6593,0,0,0,.3515,1.7764h-1.5039a2.3311,2.3311,0,0,1-.2568-1.169,4.4711,4.4711,0,0,1-3.3769,1.4248A2.6757,2.6757,0,0,1,338.32,28.583c0-2.8174,2.8652-3.1533,4.4981-3.3457,1.3447-.1592,1.8086-.208,1.8086-.9756,0-1.0888-1.168-1.5371-2.3692-1.5371a5.4354,5.4354,0,0,0-2.9131.8809Zm5.4424,3.9531a6.2215,6.2215,0,0,1-2.001.3848c-1.3926.1757-2.9287.4482-2.9287,2.0166a1.48,1.48,0,0,0,1.6641,1.5205,3.86,3.86,0,0,0,3.2656-1.9532Z"/><path d="M351.9531,25.6377v1.457h-4.1767v-1.457Z"/><path d="M359.65,18.2109a6.3492,6.3492,0,0,1,6.5312,6.5625,6.5386,6.5386,0,1,1-13.0771,0A6.3519,6.3519,0,0,1,359.65,18.2109Zm0,11.7491a5.0594,5.0594,0,0,0,5.042-5.1866,5.0516,5.0516,0,1,0-10.1,0A5.0633,5.0633,0,0,0,359.65,29.96Z"/><path d="M369.5361,25.3818l4.0186-3.7295h1.9043l-4.3057,3.97,4.834,5.458h-1.873l-4.5782-5.33v5.33h-1.4238V17.8745h1.4238Z"/><path d="M377.8721,22.1807a6.0528,6.0528,0,0,1,3.0576-.7842,4.2366,4.2366,0,0,1,3.1689,1.1846,3.3168,3.3168,0,0,1,.6407,2.4v4.3223a3.67,3.67,0,0,0,.3515,1.7764h-1.5039a2.3311,2.3311,0,0,1-.2568-1.169,4.4713,4.4713,0,0,1-3.377,1.4248,2.6757,2.6757,0,0,1-2.9775-2.7529c0-2.8174,2.8652-3.1533,4.498-3.3457,1.3448-.1592,1.8086-.208,1.8086-.9756,0-1.0888-1.1679-1.5371-2.3691-1.5371A5.4348,5.4348,0,0,0,378,23.6055Zm5.4424,3.9531a6.2222,6.2222,0,0,1-2.001.3848c-1.3926.1757-2.9287.4482-2.9287,2.0166a1.48,1.48,0,0,0,1.664,1.5205,3.86,3.86,0,0,0,3.2657-1.9532Z"/><path d="M336.69,38.4668h4.6259a8.4364,8.4364,0,0,1,3.2491.48c3.1689,1.1845,3.4414,4.6416,3.4414,5.8261,0,1.6651-.4483,4.6739-3.4092,5.8262a8.8819,8.8819,0,0,1-3.41.48H336.69Zm1.4882,11.2363h2.625c1.9532,0,5.6983,0,5.6983-4.93s-3.7774-4.93-5.6182-4.93h-2.7051Z"/><path d="M350.7852,46.8867a3.0507,3.0507,0,0,0,3.3769,3.1367,5.2985,5.2985,0,0,0,2.9619-.832v1.5361a7.083,7.083,0,0,1-2.9619.6084c-3.81,0-4.7851-2.8486-4.7851-4.914,0-3.0567,1.8886-5.0254,4.3212-5.0254a3.89,3.89,0,0,1,3.73,2.5449,8.0558,8.0558,0,0,1,.4483,2.9453Zm5.6337-1.2812a2.7694,2.7694,0,0,0-2.7851-2.8809,2.8588,2.8588,0,0,0-2.833,2.8809Z"/><path d="M361.2168,42.917a3.7488,3.7488,0,0,1,3.09-1.52c2.4,0,4.21,1.9521,4.21,4.9775,0,3.01-1.81,4.9619-4.21,4.9619a3.7488,3.7488,0,0,1-3.09-1.5205v5.5225H359.793V41.6523h1.4238Zm2.8818,7.1064c2.2891,0,2.9932-2.0322,2.9932-3.6494s-.7041-3.6494-2.9932-3.6494c-1.1845,0-2.9453.7207-2.9453,3.6494C361.1533,49.2871,362.9141,50.0234,364.0986,50.0234Z"/><path d="M374.5781,41.3965a4.6562,4.6562,0,0,1,4.6582,4.9775,4.66,4.66,0,1,1-9.3,0A4.6523,4.6523,0,0,1,374.5781,41.3965Zm0,8.6269c1.377,0,3.2178-.8964,3.2178-3.6494s-1.8408-3.6494-3.2021-3.6494-3.2168.8809-3.2168,3.6494C371.377,49.127,373.2334,50.0234,374.5781,50.0234Z"/><path d="M381.4248,38.9473h1.4238v2.705h2.8653v1.3282h-2.8653v5.3789c0,.88,0,1.664,1.4571,1.664a9.5088,9.5088,0,0,0,1.28-.1123v1.3135a10.1136,10.1136,0,0,1-1.4882.1113c-2.6094,0-2.6729-1.5683-2.6729-2.9765V42.9805H380.208V41.6523h1.2168Z"/><rect class="cls-20" width="400" height="80"/></svg>