<svg xmlns="http://www.w3.org/2000/svg" xmlns:xlink="http://www.w3.org/1999/xlink" viewBox="0 0 936 120"><defs><style>.cls-1,.cls-10,.cls-20,.cls-8,.cls-9{fill:none;}.cls-2{fill:#fff;}.cls-3{fill:#2e3192;}.cls-4{fill:#80c0a0;}.cls-5{clip-path:url(#clip-path);}.cls-6{fill:#4d4d4d;}.cls-7{fill:#0f0f0f;}.cls-10,.cls-20,.cls-8,.cls-9{stroke:#000;}.cls-10,.cls-19,.cls-20,.cls-8,.cls-9{stroke-miterlimit:10;}.cls-8{stroke-width:1.4004px;}.cls-9{stroke-width:0.9336px;}.cls-10{stroke-width:0.4668px;}.cls-11{fill:#006837;}.cls-12,.cls-19{fill:#ccc;}.cls-13{fill:#1e1e1e;}.cls-14{fill:#f15a24;}.cls-15{fill:#b3b3b3;}.cls-16{fill:#002080;}.cls-17{fill:#999;}.cls-18{fill:#c08000;}.cls-19{stroke:#999;stroke-width:0.0934px;}.cls-20{stroke-width:0.5px;}</style><clipPath id="clip-path"><rect class="cls-1" y="0.25" width="83.65" height="119.5"/></clipPath></defs><g id="レイヤー_2" data-name="レイヤー 2"><rect class="cls-2" width="936" height="120"/><path d="M123.48,17.7827h52.7978V66.8008c0,4.14-2.64,5.34-5.8193,5.34h-10.26l-.8994-6.0595h9.06c1.56,0,1.8594-.84,1.8594-1.9805V23.543H129.6V72.1406h-6.12Zm8.04,15.78h8.22a51.04,51.04,0,0,0-2.52-7.8l6.06-1.2c.54,1.56,1.92,5.76,2.6992,9h8.1c1.2608-3.48,1.8008-5.04,2.8809-8.94l5.999,1.2c-1.14,3.54-1.56,4.92-2.58,7.74h7.86v5.52h-15.42V57.8008h6.48V41.9619h5.94V63.3213H134.64V41.9619h5.6993V57.8008h6.66V39.082H131.52Z"/><path d="M183.76,45.4844V41.2051h18.6367V34.6465h4.4785v6.5586h9.3984v4.2793H206.875l.04,17.957c0,4.919-3.7988,5.0391-5.8388,5.0391-.84,0-3.44-.16-5.5186-.28l-.5605-4.4385c2.28.2393,4,.3994,5.3193.3994,1.64,0,2.12-.3994,2.12-1.64l-.04-12.4375a50.1779,50.1779,0,0,1-17.2373,14.957l-2.76-3.5195c7.8789-3.8389,14.6377-10.4785,18.8369-16.0371Z"/><path d="M222.8,64.9609c9.6377-5.7588,11.1982-13.1972,12.1973-19.0761H224.3193v-4.24h11.1582c.2-2.5595.24-4.1191.24-7.1181l4.6787.08c-.08,2.56-.16,3.8389-.3994,7.0381H254.834v6.6c0,1.1192,0,12.3174-1.6,16.2774-1.48,3.6387-5.3994,3.6387-7.0791,3.6387a29.3657,29.3657,0,0,1-6.1182-.52l-.2-4.48a33.7176,33.7176,0,0,0,5.8789.6006c2.76,0,3.2793-.92,3.68-2.36.56-2.1993.919-8.5186.919-12.2774V45.8848H239.5166c-.96,5.5986-2.8,15.8769-13.7178,22.5156Z"/><path d="M287.959,24.0225c-.36-.66-1.9805-3.66-3.72-6.18l5.76-2.64a58.011,58.011,0,0,1,4.92,8.8194h7.26a48.105,48.105,0,0,0,4.38-8.52l6.18,2.22a41.1545,41.1545,0,0,1-3.7207,6.3h7.74V38.3018h-6V29.4824H269.3v8.8194h-6.18V24.0225H270.98c-1.9795-3.06-3.18-4.74-3.78-5.58l5.6406-2.76a60.86,60.86,0,0,1,5.34,8.34Zm20.8789,24.4189H293.1191l-1.3808,3.96h22.0791V70.8809H266V52.4014h19.1387a14.9834,14.9834,0,0,0,1.5-3.96H271.22v-15.48h37.6182Zm-1.14,9.24H272.1191v7.7393h35.5791Zm-4.86-19.8593H277.2793v5.76h25.5586Z"/><path d="M374.6582,71.1807c-6.4805-2.16-14.04-4.86-21.72-11.88V71.9h-6.06V59.3613c-3.84,3.3594-9,7.4395-21.6592,11.76l-3.12-5.34c12.42-3.78,17.58-7.38,20.2793-9.3H322.04v-4.98h24.8389v-3.6H326.24v-4.62h20.6387v-3.6H324.98v-4.92h12.18a28.9149,28.9149,0,0,0-1.62-4.68H322.04V24.9229h9.42c-.4209-.9-2.3409-4.98-3.4805-7.44l6.24-1.8a48.7247,48.7247,0,0,1,3.6,9.24h3.66v-8.82h5.88v8.82h5.22v-8.82h5.8789v8.82h3.9a65.3339,65.3339,0,0,0,3.3-9.24l6.2393,1.8a49.4921,49.4921,0,0,1-3.3,7.44h9.24V30.082h-13.62c-.3.78-1.44,4.02-1.68,4.68h12.8994v4.92h-22.499v3.6h21.1191v4.62H352.9385v3.6h24.8994v4.98h-20.34c7.08,5.2793,13.26,7.44,20.64,9.2393Zm-18.48-36.419a24.7422,24.7422,0,0,0,1.44-4.68H341.8994c.3.66,1.38,3.96,1.68,4.68Z"/><path d="M385.1,29.2422h22.14V52.041H391.1c-.36,10.32-1.44,15.12-4.8594,20.0391l-5.28-4.3789c1.5-2.52,4.14-6.96,4.14-17.3994Zm24.3594-5.52H382.22v-5.88H409.459ZM391.1,35.0625V45.9814h10.14V35.0625Zm46.6777-13.8c-4.4394,1.86-9.7793,3.3594-19.9189,4.3193v8.64h20.1592v6h-6.54V72.08h-6.18V40.2217h-7.44c.06,5.52-.06,20.76-8.04,31.6191l-5.5791-4.32c7.4394-8.1,7.4394-21.1787,7.4394-23.5791V20.1826a58.821,58.821,0,0,0,22.1992-4.62Z"/><path d="M466.3477,46.7061a9.9133,9.9133,0,0,1,10.1972,10.247,10.21,10.21,0,1,1-20.42,0A9.9186,9.9186,0,0,1,466.3477,46.7061Zm0,18.3447a8.1,8.1,0,1,0-7.8985-8.0977A7.9,7.9,0,0,0,466.3477,65.0508Z"/><path d="M481.7988,57.9033l6.2735-5.8242h2.9746l-6.7237,6.1992,7.5479,8.5225h-2.9238l-7.1485-8.3233v8.3233h-2.2246v-20.62h2.2246Z"/><path d="M494.8242,52.9043a9.4474,9.4474,0,0,1,4.7744-1.2246c.6494,0,3.3487,0,4.9483,1.85a5.1848,5.1848,0,0,1,1,3.749v6.7481a5.7063,5.7063,0,0,0,.55,2.7744h-2.35a3.6323,3.6323,0,0,1-.3994-1.8242,6.993,6.993,0,0,1-5.2745,2.2246c-3.1992,0-4.6484-2.0254-4.6484-4.3,0-4.3985,4.4736-4.9239,7.0234-5.2237,2.1-.25,2.8243-.3242,2.8243-1.5244,0-1.6992-1.8252-2.3994-3.6993-2.3994a8.4922,8.4922,0,0,0-4.5488,1.375Zm8.4981,6.1738a9.7422,9.7422,0,0,1-3.1241.6c-2.1748.2744-4.5742.6993-4.5742,3.1494a2.3114,2.3114,0,0,0,2.6,2.3741,6.0269,6.0269,0,0,0,5.0987-3.0489Z"/><path d="M514.7227,58.3027v2.2744h-6.5235V58.3027Z"/><path d="M526.7471,46.7061a9.9133,9.9133,0,0,1,10.1972,10.247,10.21,10.21,0,1,1-20.42,0A9.9186,9.9186,0,0,1,526.7471,46.7061Zm0,18.3447a8.1,8.1,0,1,0-7.8985-8.0977A7.9,7.9,0,0,0,526.7471,65.0508Z"/><path d="M542.1982,57.9033l6.2735-5.8242h2.9746l-6.7236,6.1992,7.5478,8.5225h-2.9238l-7.1485-8.3233v8.3233h-2.2246v-20.62h2.2246Z"/><path d="M555.2236,52.9043A9.4474,9.4474,0,0,1,559.998,51.68c.6495,0,3.3487,0,4.9483,1.85a5.1848,5.1848,0,0,1,1,3.749v6.7481a5.7063,5.7063,0,0,0,.55,2.7744h-2.35a3.6323,3.6323,0,0,1-.3994-1.8242,6.9928,6.9928,0,0,1-5.2744,2.2246c-3.1993,0-4.6485-2.0254-4.6485-4.3,0-4.3985,4.4737-4.9239,7.0235-5.2237,2.1-.25,2.8242-.3242,2.8242-1.5244,0-1.6992-1.8242-2.3994-3.6992-2.3994a8.4923,8.4923,0,0,0-4.5489,1.375Zm8.4981,6.1738a9.7421,9.7421,0,0,1-3.124.6c-2.1748.2744-4.5743.6993-4.5743,3.1494a2.3114,2.3114,0,0,0,2.6,2.3741,6.028,6.028,0,0,0,5.0987-3.0489Z"/><path d="M578.1484,47.1055h7.2237a13.1591,13.1591,0,0,1,5.0732.75c4.9492,1.85,5.374,7.248,5.374,9.0976,0,2.6-.7,7.2979-5.3242,9.0977a13.8877,13.8877,0,0,1-5.3232.75h-7.0235Zm2.3243,17.5459h4.1c3.0488,0,8.8974,0,8.8974-7.6983s-5.8984-7.6982-8.7724-7.6982h-4.2246Z"/><path d="M600.1729,60.252c.125,2.7,1.6494,4.8994,5.2734,4.8994a8.2655,8.2655,0,0,0,4.624-1.3V66.251a11.0574,11.0574,0,0,1-4.624.95c-5.9483,0-7.4727-4.4492-7.4727-7.6739,0-4.7734,2.9493-7.8476,6.7481-7.8476a6.0747,6.0747,0,0,1,5.8232,3.9736,12.5985,12.5985,0,0,1,.7,4.5987Zm8.7978-1.9991c-.2754-3.5742-2.7246-4.499-4.3486-4.499a4.462,4.462,0,0,0-4.4239,4.499Z"/><path d="M616.4727,54.0537a5.8535,5.8535,0,0,1,4.8242-2.374c3.749,0,6.5732,3.0488,6.5732,7.7724,0,4.6993-2.8242,7.7491-6.5732,7.7491a5.8545,5.8545,0,0,1-4.8242-2.375v8.623H614.248v-21.37h2.2247Zm4.499,11.0977c3.5742,0,4.6738-3.1748,4.6738-5.6993s-1.1-5.6982-4.6738-5.6982c-1.85,0-4.5987,1.125-4.5987,5.6982C616.373,64.002,619.1221,65.1514,620.9717,65.1514Z"/><path d="M637.3467,51.68c3.8486,0,7.2724,2.874,7.2724,7.7724,0,4.85-3.4238,7.7491-7.248,7.7491-3.8486,0-7.2725-2.875-7.2725-7.7491C630.0986,54.5283,633.5469,51.68,637.3467,51.68Zm0,13.4717c2.1494,0,5.0234-1.3994,5.0234-5.6993s-2.874-5.6982-4.999-5.6982-5.0234,1.375-5.0234,5.6982C632.3477,63.752,635.2471,65.1514,637.3467,65.1514Z"/><path d="M648.0479,47.8555h2.2246v4.2236h4.4736v2.0752h-4.4736v8.3975c0,1.375,0,2.6,2.2744,2.6a15.1069,15.1069,0,0,0,1.999-.1748v2.0488a15.687,15.687,0,0,1-2.3242.1758c-4.0742,0-4.1738-2.45-4.1738-4.6494V54.1543h-1.8995V52.0791h1.8995Z"/><path d="M675.9727,66.8008H673.748v-20.62h2.2247v7.873a5.8535,5.8535,0,0,1,4.8242-2.374c3.749,0,6.5732,3.0488,6.5732,7.7724,0,4.6993-2.8242,7.7491-6.5732,7.7491a5.8545,5.8545,0,0,1-4.8242-2.375Zm4.499-1.6494c3.5742,0,4.6738-3.1748,4.6738-5.6993s-1.1-5.6982-4.6738-5.6982c-1.85,0-4.5987,1.125-4.5987,5.6982C675.873,64.002,678.6221,65.1514,680.4717,65.1514Z"/><path d="M694.1719,65.7256,688.748,52.0791h2.3995l4.1992,10.6973,4.1992-10.6973h2.3994l-8.5732,21.37h-2.2246Z"/><path d="M715.5215,60.9775l-2.1494,5.8233h-2.6494l7.498-19.6953h3.3l7.4981,19.6953h-2.6495L724.22,60.9775Zm7.9238-2.1L719.8711,49.28l-3.5742,9.5976Z"/><path d="M742.87,52.0791V66.8008h-2.25V64.8516a5.527,5.527,0,0,1-4.624,2.35,4.5386,4.5386,0,0,1-4.2236-2.35c-.55-1.125-.625-2.15-.625-4.4746V52.0791h2.2246V60.377c0,2.3251,0,4.7744,3.1738,4.7744.7,0,4.0742-.1748,4.0742-4.7744V52.0791Z"/><path d="M747.0977,47.8555h2.2246v4.2236h4.4736v2.0752h-4.4736v8.3975c0,1.375,0,2.6,2.2744,2.6a15.1069,15.1069,0,0,0,1.999-.1748v2.0488a15.687,15.687,0,0,1-2.3242.1758c-4.0742,0-4.1738-2.45-4.1738-4.6494V54.1543h-1.8995V52.0791h1.8995Z"/><path d="M762.5713,51.68c3.8486,0,7.2725,2.874,7.2725,7.7724,0,4.85-3.4239,7.7491-7.2481,7.7491-3.8486,0-7.2725-2.875-7.2725-7.7491C755.3232,54.5283,758.7715,51.68,762.5713,51.68Zm0,13.4717c2.1494,0,5.0234-1.3994,5.0234-5.6993s-2.874-5.6982-4.999-5.6982-5.0234,1.375-5.0234,5.6982C757.5723,63.752,760.4717,65.1514,762.5713,65.1514Z"/><path d="M781.57,66.8008V58.3027c0-2.1992-.2246-4.5742-2.7246-4.5742-1.4746,0-3.7988.95-3.7988,4.4492v8.6231h-2.249V52.0791h2.249v1.9746a4.8788,4.8788,0,0,1,4.2236-2.374,4.2412,4.2412,0,0,1,4.1494,2.749,5.0223,5.0223,0,0,1,4.624-2.749,4.2325,4.2325,0,0,1,4.2989,3.1494,11.2153,11.2153,0,0,1,.3,3.249v8.7227h-2.249V58.3281c0-1.85,0-4.5742-2.8-4.5742-.8,0-3.7989.2754-3.7989,4.8984v8.1485Z"/><path d="M797.0967,52.9043a9.4474,9.4474,0,0,1,4.7744-1.2246c.6494,0,3.3486,0,4.9482,1.85a5.1848,5.1848,0,0,1,1,3.749v6.7481a5.7063,5.7063,0,0,0,.55,2.7744h-2.35a3.6323,3.6323,0,0,1-.3994-1.8242,6.9928,6.9928,0,0,1-5.2744,2.2246c-3.1992,0-4.6484-2.0254-4.6484-4.3,0-4.3985,4.4736-4.9239,7.0234-5.2237,2.1-.25,2.8242-.3242,2.8242-1.5244,0-1.6992-1.8242-2.3994-3.6992-2.3994a8.4922,8.4922,0,0,0-4.5488,1.375Zm8.498,6.1738a9.7421,9.7421,0,0,1-3.124.6c-2.1748.2744-4.5742.6993-4.5742,3.1494a2.3114,2.3114,0,0,0,2.6,2.3741,6.028,6.028,0,0,0,5.0986-3.0489Z"/><path d="M812.1465,47.8555h2.2246v4.2236h4.4736v2.0752h-4.4736v8.3975c0,1.375,0,2.6,2.2744,2.6a15.1069,15.1069,0,0,0,1.999-.1748v2.0488a15.687,15.687,0,0,1-2.3242.1758c-4.0742,0-4.1738-2.45-4.1738-4.6494V54.1543h-1.8994V52.0791h1.8994Z"/><path d="M823.8457,49.8545h-2.624v-2.749h2.624Zm-.1748,16.9463h-2.2744V52.0791h2.2744Z"/><path d="M838.8184,66.2012a8.453,8.453,0,0,1-4.3243,1c-5.0986,0-7.6728-3.4248-7.6728-7.6485,0-4.749,3.2744-7.873,7.5732-7.873a7.7057,7.7057,0,0,1,4.4239,1.3l-.625,2.0488a5.4673,5.4673,0,0,0-3.6993-1.3c-2.9238,0-5.4238,1.875-5.4238,5.7236,0,3.3,1.875,5.6993,5.4736,5.6993a7.598,7.598,0,0,0,4.2745-1.3Z"/><path d="M843.2959,64.5762a6.3872,6.3872,0,0,0,2.5742.4746c4.5235,0,6.5235-3.5733,7.0235-7.9981a6.5582,6.5582,0,0,1-5.3243,2.5752,6.1863,6.1863,0,0,1-6.3984-6.2988,6.5316,6.5316,0,0,1,6.7734-6.623c2.7246,0,7.1231,1.4238,7.1231,8.8974,0,6.8985-3.499,11.5977-9.0977,11.5977a6.0154,6.0154,0,0,1-2.6738-.5Zm.2246-11.2471a4.0689,4.0689,0,0,0,4.2988,4.1992,4.4414,4.4414,0,0,0,4.6993-4.2744,4.5,4.5,0,0,0-8.9981.0752Z"/><path d="M857.8213,56.9531c0-1.9746,0-10.247,6.8232-10.247s6.8233,8.2724,6.8233,10.247,0,10.2481-6.8233,10.2481S857.8213,58.9531,857.8213,56.9531Zm11.2969,0c0-3.2744-.5-8.0976-4.4737-8.0976-3.9238,0-4.4736,4.6982-4.4736,8.0976,0,3.5244.6,8.0977,4.4736,8.0977C868.5684,65.0508,869.1182,60.3271,869.1182,56.9531Z"/><path d="M883.2441,66.8008V62.4023h-9.1728v-2.05l9.0225-13.247h2.5V60.3027h2.6992v2.1h-2.6992v4.3985Zm-6.7734-6.4981h6.7734V50.28Z"/><path d="M902.7178,49.2549h-8.4473v5.8984a7.2524,7.2524,0,0,1,3.0488-.5742c4.5987,0,7.0235,3.0742,7.0235,6.248,0,3.05-2.3,6.3741-7.6485,6.3741a11.3293,11.3293,0,0,1-5.8984-1.55l.7246-2.1494a8.9218,8.9218,0,0,0,5.1494,1.5488c4.2735,0,5.2989-2.5987,5.2989-4.2735,0-2.5742-2.05-4.1494-4.7491-4.1494a4.9881,4.9881,0,0,0-2.9746.875h-2.1494V47.1055h10.6221Z"/><polygon class="cls-3" points="0 81 920 81 917 84 0 84 0 81"/><polygon class="cls-4" points="0 84 917 84 914 87 0 87 0 84"/><g class="cls-5"><rect class="cls-3" x="-30.248" y="98.2774" width="108.2969" height="14.0039"/><rect class="cls-2" x="-30.248" y="95.4766" width="108.2969" height="2.8008"/><rect class="cls-4" x="-30.248" y="91.5555" width="108.2969" height="3.9211"/><rect class="cls-2" x="-30.248" y="88.7547" width="108.2969" height="2.8008"/><rect class="cls-4" x="-30.248" y="84.8337" width="108.2969" height="3.9211"/><rect class="cls-2" x="-30.248" y="82.0329" width="108.2969" height="2.8008"/><rect class="cls-4" x="-30.248" y="78.1118" width="108.2969" height="3.9211"/><rect class="cls-2" x="-30.248" y="61.8672" width="108.2969" height="16.2445"/><polygon class="cls-4" points="78.049 56.266 78.049 61.867 -30.248 61.867 -30.248 56.266 -28.381 5.852 -24.646 2.117 7.096 0.25 40.705 0.25 72.447 2.117 76.182 5.852 78.049 56.266"/><path class="cls-6" d="M78.0489,76.8047v13.07h-18.05l-8.7142-13.07Z"/><path class="cls-7" d="M78.0489,72.1368v4.6679H43.8177l-1.2454-1.8671a15.33,15.33,0,0,0-3.0416-2.8008Z"/><path class="cls-6" d="M78.0489,56.2657V72.1368H39.5307a26.0515,26.0515,0,0,0-15.63-4.668V19.8555h52.8Z"/><path class="cls-7" d="M51.2846,76.8047l8.7142,13.07H55.6426c-3.7344,0-5.6015-3.7344-5.6015-3.7344l-6.2234-9.336Z"/><polygon class="cls-6" points="23.9 19.856 23.9 67.469 -30.248 67.469 -30.248 56.266 -28.9 19.856 23.9 19.856"/><polyline class="cls-8" points="-28.9 19.856 23.9 19.856 76.701 19.856"/><path class="cls-9" d="M-30.248,67.4688H23.9a26.0515,26.0515,0,0,1,15.63,4.668,15.33,15.33,0,0,1,3.0416,2.8008l1.2454,1.8671,6.2234,9.336s1.8671,3.7344,5.6015,3.7344H78.0489"/><line class="cls-10" x1="23.9004" y1="19.8555" x2="23.9004" y2="67.4688"/><line class="cls-10" x1="39.5307" y1="72.1368" x2="78.0489" y2="72.1368"/><polyline class="cls-10" points="43.818 76.805 51.285 76.805 78.049 76.805"/><line class="cls-10" x1="51.2846" y1="76.8047" x2="59.9988" y2="89.8751"/><polygon points="72.447 17.241 71.513 4.918 70.58 3.984 57.509 2.117 -9.709 2.117 -22.78 3.984 -23.713 4.918 -24.647 17.241 -23.9 17.988 71.7 17.988 72.447 17.241"/><rect x="-32.1156" y="104.8125" width="112.0313" height="7.4688"/><rect class="cls-11" x="14.3311" y="101.7783" width="19.1387" height="9.8027"/><path class="cls-12" d="M33.2359,102.0117v9.336H14.5641v-9.336H33.2359m.4668-.4668H14.0973v10.27H33.7027v-10.27Z"/><rect class="cls-13" x="55.6422" y="95.4766" width="22.4063" height="9.3359" transform="translate(133.6906 200.2891) rotate(-180)"/><rect x="56.5758" y="96.4102" width="16.8047" height="7.4688" transform="translate(129.9562 200.2891) rotate(-180)"/><circle class="cls-12" cx="61.2437" cy="100.1445" r="2.6141"/><circle class="cls-12" cx="68.7125" cy="100.1445" r="2.6141"/><rect class="cls-14" x="74.5008" y="96.4102" width="4.4813" height="7.4688" transform="translate(153.4828 200.2891) rotate(-180)"/><rect class="cls-15" x="74.5008" y="100.518" width="2.2406" height="3.3609" transform="translate(151.2422 204.3969) rotate(-180)"/><rect class="cls-13" x="64.9781" y="112.2813" width="11.2031" height="7.4688"/><line class="cls-9" x1="22.0328" y1="64.668" x2="22.0328" y2="31.0586"/><line class="cls-9" x1="25.7672" y1="64.668" x2="25.7672" y2="31.0586"/><polyline class="cls-10" points="48.173 74.751 25.767 47.863 27.634 47.863 50.041 74.751"/><rect class="cls-13" x="-3.1742" y="73.8172" width="3.7344" height="1.8672" rx="0.9336"/><polyline class="cls-10" points="-0.373 74.751 22.033 47.863 20.166 47.863 -2.241 74.751"/><path class="cls-2" d="M21.9863,104.457a.263.263,0,0,1-.1924.2842,1.7049,1.7049,0,0,1-.1748.044.0546.0546,0,0,1-.0615-.0352l-.0615-.1533q-.0351-.0792.0352-.0879l.123-.0176c.0459-.0068.0693-.0459.0693-.1152v-1.34h-.2187l-.0869.3418h.2529c.0352,0,.0527.02.0527.0616v.1621c0,.03-.0175.0459-.0527.0459h-.5068v.5029h.2011v-.3594a.0554.0554,0,0,1,.0616-.0635h.1484c.0352,0,.0527.0215.0527.0635v.5391c0,.0595-.0322.09-.0966.09H20.5244c-.0517,0-.0781-.03-.0781-.09v-.5391c0-.042.0234-.0635.0693-.0635h.1407c.0351,0,.0527.0215.0527.0635v.3594h.1924v-.5029h-.4991c-.0351,0-.0527-.0157-.0527-.0459V103.44q0-.0617.0527-.0616h.2364l-.0967-.3418H20.35v1.6592c0,.042-.0234.0635-.07.0635h-.126c-.0439,0-.0664-.0215-.0664-.0635v-1.8574c0-.0488.0264-.0723.0791-.0723h1.75c.0469,0,.07.0235.07.0723Zm-1.1552-1.4209.0791.3418h.2363l.0869-.3418Z"/><path class="cls-2" d="M23.376,102.748c.03,0,.0459.0264.0459.0782v1.5761h.4834c.03,0,.0459-.0146.0459-.0439v-1.1816c0-.0469.0176-.07.0547-.07h.1923c.03,0,.0459.0235.0459.07v1.4c0,.087-.05.1309-.1484.1309H22.4678c-.1,0-.1494-.041-.1494-.1221v-1.4091c0-.0469.0185-.07.0546-.07h.1817c.0371,0,.0547.0235.0547.07v1.1816c0,.0293.0185.0439.0547.0439h.4687v-1.5761c0-.0518.0205-.0782.0615-.0782Z"/><path class="cls-2" d="M25.1279,102.9229l.1055-.0987a1.701,1.701,0,0,1,.2441-.0674v-.0185h.28l.211.0517a.6588.6588,0,0,1,.2626.1836l.0879.1641v.166l-.2627.3994a4.5619,4.5619,0,0,0-.5429.5449v.0831h.8056v.332H25.11l-.0518-.043v-.2373c.0176,0,.0693-.083.1572-.249.4658-.42.7012-.6641.7012-.7295a.4489.4489,0,0,1,.0518-.125v-.123a.3476.3476,0,0,0-.2442-.15H25.583l-.1748.0673h-.0361l-.208-.083-.0362-.0341Z"/><path class="cls-2" d="M26.584,102.9229l.1055-.0987a1.6934,1.6934,0,0,1,.2441-.0674v-.0185h.28l.2109.0517a.6586.6586,0,0,1,.2627.1836l.0879.1641v.166l-.2627.3994a4.5736,4.5736,0,0,0-.543.5449v.0831h.8057v.332h-1.209l-.0518-.043v-.2373c.0176,0,.0694-.083.1573-.249.4658-.42.7011-.6641.7011-.7295a.4527.4527,0,0,1,.0518-.125v-.123a.3474.3474,0,0,0-.2441-.15h-.1416l-.1748.0673h-.0362l-.208-.083-.0361-.0341Z"/><path class="cls-2" d="M16.3154,108.793a.1906.1906,0,0,1-.0869-.0088l-.05-.0283a.1646.1646,0,0,1-.05-.0469q-.0206-.0293-.0469-.0733a.32.32,0,0,1-.0371-.1191c.0069-.0234.0186-.0312.0342-.0234a.5082.5082,0,0,0,.1436.0459.1358.1358,0,0,0,.0615-.0147.0975.0975,0,0,0,.04-.0312q.0117-.0177.044-.07a.674.674,0,0,0,.0586-.129.5883.5883,0,0,0,.0322-.1337c.0039-.0391.0058-.0752.0058-.1075a.3218.3218,0,0,0-.0087-.082.0975.0975,0,0,0-.0352-.0527.0806.0806,0,0,0-.0645-.0147.4764.4764,0,0,0-.081.02q-.044.0147-.0762.0264a.143.143,0,0,0-.0644.0674c-.0215.0371-.04.0713-.0557.1045a.7688.7688,0,0,0-.04.1025c-.0118.0352-.0352.0957-.07.1836a1.1153,1.1153,0,0,1-.1231.2305.3852.3852,0,0,1-.0371.0322.0833.0833,0,0,1-.05.0146.218.218,0,0,1-.0527-.0058.0976.0976,0,0,1-.0381-.0176.12.12,0,0,1-.0293-.0439.1968.1968,0,0,1-.0176-.0645.1136.1136,0,0,1,.0088-.0576.3678.3678,0,0,1,.05-.0732,1.3252,1.3252,0,0,0,.0967-.1456,2.08,2.08,0,0,0,.1279-.2861.045.045,0,0,0,0-.0322c-.0039-.0137-.0332-.0332-.0869-.0586a.27.27,0,0,1-.1084-.0762.1143.1143,0,0,1-.0264-.0605c.0039-.0274.0195-.0371.0469-.0293a.988.988,0,0,0,.1572.0146.365.365,0,0,0,.0528-.0088.099.099,0,0,0,.05-.0439.184.184,0,0,0,.0322-.0762c.0039-.0244.0078-.0517.0117-.081a.4729.4729,0,0,0,.0029-.0821.2126.2126,0,0,0-.0234-.0791.2707.2707,0,0,1-.0264-.0693.0634.0634,0,0,1,0-.0381q.0058-.0206.0528-.0322l.0517.0117a.1566.1566,0,0,1,.041.0293l.0469.0469a.7243.7243,0,0,1,.085.0869.1294.1294,0,0,1,.04.1025.284.284,0,0,1-.0224.07.2835.2835,0,0,0-.0264.0723c-.0039.0273.0244.0391.0869.0352l.0234-.0059q.0352,0,.0645.0029a.2173.2173,0,0,1,.0586.0147.2081.2081,0,0,1,.0605.041.3913.3913,0,0,1,.05.0527.8014.8014,0,0,1,.05.0782.3169.3169,0,0,1,.0381.1376.9451.9451,0,0,1-.0556.3233,1.9771,1.9771,0,0,1-.1.2392,1.4468,1.4468,0,0,1-.09.1553A.1917.1917,0,0,1,16.3154,108.793Zm.794-.9737a.18.18,0,0,0-.0528-.0117c-.0214-.0019-.041-.0029-.0586-.0029a.4076.4076,0,0,1-.0488-.0029.0449.0449,0,0,1-.0351-.0235c-.0078-.0137-.003-.03.0146-.05a.0521.0521,0,0,0,.0176-.0527.1653.1653,0,0,0-.0527-.0586c-.0293-.0234-.0586-.0469-.0879-.0723a.279.279,0,0,1-.0577-.0615.0781.0781,0,0,1-.0146-.0352.03.03,0,0,1,.0117-.0234l.0342-.0176q.0528,0,.0937.003a.435.435,0,0,1,.0909.0175.3314.3314,0,0,1,.081.0352q.0323.0206.0645.0439a.3243.3243,0,0,1,.0527.0469.3191.3191,0,0,1,.041.0635.5443.5443,0,0,1,.0283.07.315.315,0,0,1,.0118.0645.1187.1187,0,0,1-.0059.0556c-.0059.0137-.0244.0225-.0547.0254A.3.3,0,0,1,17.1094,107.8193Z"/><path class="cls-2" d="M18.8047,110.4883a1.9167,1.9167,0,0,1-.7471-.3438.0974.0974,0,0,1-.0234-.0937l.4375-.4434a.0711.0711,0,0,1,.0937,0,.803.803,0,0,0,.4375.1895,1.0515,1.0515,0,0,0,.4082-.05.5526.5526,0,0,0,.3741-.2969.9222.9222,0,0,0,.1074-.5693.9992.9992,0,0,0-.1514-.4229,1.9218,1.9218,0,0,0-.1719-.2158,2.5136,2.5136,0,0,0-.3623-.2451v-.8116a4.3352,4.3352,0,0,0,.3916-.2011.5332.5332,0,0,0,.2334-.2158.6244.6244,0,0,0,.04-.2657.4664.4664,0,0,0-.3145-.332.9929.9929,0,0,0-.5459-.0762,1.4181,1.4181,0,0,0-.5635.2334c-.0224.0117-.04.0039-.0517-.0234l-.3447-.4668a.0186.0186,0,0,1,.0058-.0293,1.9909,1.9909,0,0,1,.6387-.3154,1.4961,1.4961,0,0,1,.6689-.043,2.0389,2.0389,0,0,1,.5479.166,1.0508,1.0508,0,0,1,.3682.2861,1.2265,1.2265,0,0,1,.2041.3614,1.2871,1.2871,0,0,1,.0634.42.96.96,0,0,1-.1455.47,2.906,2.906,0,0,1-.4668.4346,2.6087,2.6087,0,0,1,.5283.8232,1.8737,1.8737,0,0,1,.084.8985,1.6537,1.6537,0,0,1-.1806.4931,1.38,1.38,0,0,1-.3555.4112,1.2689,1.2689,0,0,1-.5547.2451A2.1615,2.1615,0,0,1,18.8047,110.4883Z"/><path class="cls-2" d="M21.5234,110.5059a.097.097,0,0,1-.0937-.0821v-.6474a.4442.4442,0,0,1,.0351-.128,17.866,17.866,0,0,1,.9336-1.5234q.5259-.7706.6973-1.0674a.847.847,0,0,0,.126-.5722.5181.5181,0,0,0-.59-.3379,1.0046,1.0046,0,0,0-.6943.3789q-.041.0351-.07,0l-.4082-.4082a.0849.0849,0,0,1,0-.1172,1.62,1.62,0,0,1,.6387-.4405,1.8168,1.8168,0,0,1,.7177-.1367,1.0068,1.0068,0,0,1,.5371.1485,2.2185,2.2185,0,0,1,.3526.2949,1.3479,1.3479,0,0,1,.2246.44.9145.9145,0,0,1,.0322.4229,2.0275,2.0275,0,0,1-.2041.5224q-.1685.33-.6182,1.0274t-.8515,1.4375c-.0088.0468.0068.07.0459.07h1.541a.142.142,0,0,1,.11.0937v.542a.1431.1431,0,0,1-.11.0821Z"/><path class="cls-2" d="M24.6045,108.2539v-.52a.0621.0621,0,0,1,.07-.07h.8457a.0621.0621,0,0,1,.07.07v.52a.0618.0618,0,0,1-.07.0693h-.8457A.0618.0618,0,0,1,24.6045,108.2539Z"/><path class="cls-2" d="M27.7734,110.5059H27.19q-.0879,0-.0879-.0821v-4.8662c0-.0654.0293-.0986.0879-.0986h.5839a.0874.0874,0,0,1,.0987.0986v4.8662C27.8721,110.4785,27.8389,110.5059,27.7734,110.5059Z"/><path class="cls-2" d="M30.3574,110.4883a1.917,1.917,0,0,1-.747-.3438.0972.0972,0,0,1-.0235-.0937l.4375-.4434a.0713.0713,0,0,1,.0938,0,.8024.8024,0,0,0,.4375.1895,1.052,1.052,0,0,0,.4082-.05.5522.5522,0,0,0,.374-.2969.9215.9215,0,0,0,.1074-.5693.9992.9992,0,0,0-.1514-.4229,1.9121,1.9121,0,0,0-.1718-.2158,2.5262,2.5262,0,0,0-.3623-.2451v-.8116a4.3486,4.3486,0,0,0,.3916-.2011.5344.5344,0,0,0,.2334-.2158.6261.6261,0,0,0,.04-.2657.4661.4661,0,0,0-.3144-.332.993.993,0,0,0-.5459-.0762,1.417,1.417,0,0,0-.5635.2334c-.0225.0117-.04.0039-.0518-.0234l-.3447-.4668a.0186.0186,0,0,1,.0059-.0293,1.99,1.99,0,0,1,.6386-.3154,1.4965,1.4965,0,0,1,.669-.043,2.0381,2.0381,0,0,1,.5478.166,1.05,1.05,0,0,1,.3682.2861,1.2242,1.2242,0,0,1,.2041.3614,1.2844,1.2844,0,0,1,.0635.42.9613.9613,0,0,1-.1455.47,2.91,2.91,0,0,1-.4668.4346,2.61,2.61,0,0,1,.5283.8232,1.8761,1.8761,0,0,1,.084.8985,1.6539,1.6539,0,0,1-.1807.4931,1.38,1.38,0,0,1-.3555.4112,1.2689,1.2689,0,0,1-.5547.2451A2.1613,2.1613,0,0,1,30.3574,110.4883Z"/><rect class="cls-16" x="-9.7094" y="3.0508" width="67.2188" height="14.0039" rx="1.4937"/><rect class="cls-2" x="-5.6016" y="4.5445" width="14.9375" height="11.95" rx="0.7469"/><path class="cls-16" d="M.1191,6.7051c.0879,0,.2676.1518.376.2461.1973.1675.2676.23.2676.3452,0,.105-.0752.2983-.209.2983-.0586,0-.0791-.0156-.2676-.1884C.2363,7.3647-.0146,7.15-.0313,7.14a.2.2,0,0,1-.05-.1674C-.0811,6.8989-.0234,6.7051.1191,6.7051ZM.8135,8.354A6.7435,6.7435,0,0,1,.5332,9.4c-.23.6909-.2715.6909-.3594.6909A.2492.2492,0,0,1-.0693,9.84c0-.0732.0127-.1049.1172-.3613A9.0521,9.0521,0,0,0,.42,8.312c.0254-.0889.0547-.1831.1846-.1831A.22.22,0,0,1,.8135,8.354Zm.6689-2.69V5.4541A.1788.1788,0,0,1,1.6787,5.25c.1211,0,.2129.042.2129.21v.2041h.87V5.46a.1827.1827,0,0,1,.2051-.21.1841.1841,0,0,1,.209.21v.2041h.4551c.0507,0,.1923,0,.1972.23,0,.2251-.1465.23-.1972.23l-.4551-.0049V6.585h.4219c.0546,0,.1923,0,.1923.2251,0,.23-.1337.23-.1923.23H2.5068v.3663h.71c.2891,0,.4228.1259.4228.5288V9.5835c0,.5342-.1425.5444-.5605.5444-.2168,0-.2637-.0049-.3047-.0312a.2888.2888,0,0,1-.0967-.2354c0-.2461.1592-.2461.2012-.2461s.23.0049.2676,0c.0957-.0156.1045-.1255.1045-.2041V8.019c0-.1-.0381-.1626-.13-.1626H2.502V9.0078h.1591c.0625,0,.0967-.0366.0967-.1147v-.66c0-.0786.0078-.1831.1416-.1831s.1465.0942.1465.1831v.68c0,.4243-.0713.5444-.4307.5444H2.0381c-.3555,0-.4307-.1152-.4307-.5444v-.68c0-.0942.0127-.1831.1426-.1831s.15.0786.15.1831v.66c0,.0835.0371.1147.0957.1147h.1631V7.8564H1.5361c-.0957,0-.1338.063-.1338.1626v1.91c0,.0679,0,.2461-.1875.2461-.1962,0-.1962-.1782-.1962-.2461V7.9351c0-.4029.1337-.5288.4218-.5288h.711V7.04H1.0977c-.0508,0-.1963,0-.1963-.2251,0-.23.1455-.23.1963-.23h.3847V6.1191H1.043a.1583.1583,0,0,1-.18-.1152c-.042.1362-.125.2041-.1924.2041-.05,0-.0752-.0264-.28-.1987C.3408,5.9673.123,5.8.082,5.7578a.2072.2072,0,0,1-.0586-.1572c0-.1358.083-.2822.2129-.2822a1.2233,1.2233,0,0,1,.4014.2563A.9849.9849,0,0,1,.8594,5.8a.16.16,0,0,1,.1836-.1362Zm1.2793.4555h-.87V6.585h.87Z"/><path class="cls-16" d="M7.2705,7.354c.0625.0732.2129.2935.2676.3823.2.3086.2627.4029.2627.5235a.2411.2411,0,0,1-.2207.2509c-.1006,0-.1553-.0678-.28-.2827-.1924.021-.3018.0318-.749.0576v.398H7.6045c.0752,0,.1885.01.1885.2251,0,.2251-.13.2251-.1885.2251H6.5508V9.6H7.7764c.0586,0,.1924,0,.1924.2251s-.1387.2246-.1924.2246H4.9209c-.0586,0-.1924-.0049-.1924-.23,0-.22.1416-.22.1924-.22H6.1162V9.1338h-.999c-.084,0-.1885-.0156-.1885-.2251,0-.22.1211-.2251.1885-.2251h.999V8.312c-.125.0054-.8525.0313-.9326.0313-.1338,0-.2588,0-.2588-.2354,0-.2251.0957-.2251.4141-.2358a3.3478,3.3478,0,0,0,.2382-.5181h-.749v.084A11.2058,11.2058,0,0,1,4.6445,9.51c-.1045.5341-.1963.5966-.3007.5966a.2664.2664,0,0,1-.26-.2822.5012.5012,0,0,1,.0215-.1309c.0078-.0366.1006-.3876.1172-.45A9.84,9.84,0,0,0,4.3984,7.438V5.9463c0-.4292.0791-.5391.43-.5391H7.3369c.3389,0,.4141.1045.4141.5127v.22c0,.4185-.0879.5127-.4141.5127H4.8281V6.92H7.78c.0713,0,.1885.0156.1885.22,0,.2144-.1387.2144-.1885.2144ZM4.8281,6.229H7.2324c.0508,0,.0879-.021.0879-.11V5.9565c0-.0732-.0254-.1147-.0879-.1147H4.9453c-.07,0-.1172.0415-.1172.1465ZM6.05,7.354a3.918,3.918,0,0,1-.2266.5132c.59-.0108.6524-.0108,1.2295-.0474-.0205-.0312-.1123-.1518-.13-.1777A.3735.3735,0,0,1,6.84,7.4272a.1627.1627,0,0,1,.0127-.0732Z"/><path class="cls-16" d="M.8242,15.2427c0,.4975-.17.4975-.4433.4975a1.7378,1.7378,0,0,1-.2422-.0156c-.1133-.0317-.126-.2148-.126-.2983,0-.1939.0635-.2725.1572-.2725.0352,0,.1856.0108.2168.0108.0791,0,.1162-.0474.1162-.1783V13.05H.1572a4.1589,4.1589,0,0,1-.49,2.3345c-.1162.1723-.3047.3818-.4209.3818-.1006,0-.16-.1723-.16-.3086a.2951.2951,0,0,1,.125-.2563c.4307-.3877.6162-.9107.6162-2.1514h-.8359c-.041,0-.1631,0-.1631-.2563,0-.2618.1192-.2618.1631-.2618H.126v-.6069H-.8262c-.0381,0-.164,0-.164-.2568s.1259-.2613.164-.2613H.126v-.2983c0-.0786.0029-.2725.1631-.2725.1416,0,.1855.0889.1855.2725v.2983H1.44c.04,0,.166.0049.166.2564,0,.2617-.122.2617-.166.2617H.4746v.6069H1.6035c.05,0,.1729,0,.1729.2564,0,.2617-.1231.2617-.167.2617H.8242Zm-1.289-1.7114a4.92,4.92,0,0,1-.2793,1.0678c-.1358.356-.1827.3662-.23.3662-.0723,0-.17-.1152-.17-.2719,0-.0787,0-.084.1094-.34a4.7529,4.7529,0,0,0,.2647-.8842c.0088-.042.0371-.1675.1259-.1675A.2108.2108,0,0,1-.4648,13.5313ZM1.34,13.4844a8.3745,8.3745,0,0,0,.2979,1.1094c.1074.288.11.2983.11.3613a.2515.2515,0,0,1-.1884.272c-.0694,0-.11-.0523-.22-.3716a6.6022,6.6022,0,0,1-.3115-1.3242c0-.1309.06-.23.1885-.23C1.3047,13.3013,1.3271,13.4165,1.34,13.4844Z"/><path class="cls-16" d="M2.42,11.8828c0-.4394.1016-.5864.35-.5864h.6348v-.22c0-.1675.0537-.2251.17-.2251.1006,0,.1758.0317.1758.2251v.22h.9873c.041,0,.1533,0,.1533.23,0,.1831-.0439.2514-.1533.2514H2.8545c-.082,0-.126.0625-.126.209V13.249A6.823,6.823,0,0,1,2.43,15.3735c-.126.34-.17.3511-.2227.3511-.0849,0-.1894-.11-.1894-.2778a.4838.4838,0,0,1,.0478-.1988,4.3684,4.3684,0,0,0,.32-1.34c-.0781.0786-.2607.2617-.33.2617-.1192,0-.1377-.2461-.1377-.3139,0-.1519.0215-.1622.22-.3038.1348-.0942.27-.22.2793-.2251,0-.0048.0029-.1357.0029-.1674v-.4971c-.0273.1255-.1123.1777-.166.1777-.082,0-.0947-.0571-.1445-.2822-.0283-.1206-.06-.2358-.1231-.4658a.5963.5963,0,0,1-.0283-.1572c0-.1309.085-.2251.1611-.2251.0782,0,.1065.0888.1446.2251.0527.1782.1318.45.1562.5913Zm1.5537,1.6436a2.2825,2.2825,0,0,0,.333.8632c.1319.1939.1475.2149.1475.3091,0,.1255-.0752.2251-.15.2251-.0918,0-.3369-.3979-.4941-.9214a2.5074,2.5074,0,0,1-.2608.7276c-.1386.2353-.17.2353-.2011.2353-.0664,0-.1416-.11-.1543-.2353V15.5c0,.209-.0567.2666-.1631.2666-.1446,0-.1446-.1987-.1446-.2666v-1.874c0-.3975.0977-.5283.3174-.5283h.4492c.01-.1626.0127-.3716.0127-.4556h-.72c-.1035,0-.16-.0625-.16-.2353,0-.22.1035-.23.16-.23H4.7305c.0879,0,.1572.0522.1572.2358,0,.2246-.1133.23-.1572.23H3.9639c0,.1621-.0157.4292-.0186.4556H4.46c.2138,0,.3183.12.3183.5283V15.19c0,.5445-.0947.5445-.4687.5445-.16,0-.2578,0-.2578-.2354,0-.147.0507-.2251.123-.2251.044,0,.1475.0049.1885.0049.0527,0,.1064-.01.1064-.1831V13.6938c0-.1152-.0342-.1674-.0976-.1674Zm-.78,1.1562a.2756.2756,0,0,1,.0566-.1465,2.0054,2.0054,0,0,0,.3711-1.01H3.2939c-.0722,0-.1.0625-.1.1674Z"/><path class="cls-16" d="M6.249,13.7461a.1294.1294,0,0,1-.1357-.0889c.0029.0469.0156.1621.0156.2823,0,.7592-.2539.7592-.3926.7592-.0908,0-.2138,0-.2138-.2934,0-.2354.0722-.2407.16-.2456.0791,0,.1387-.0367.1387-.34a2.5685,2.5685,0,0,0-.1475-.832.9826.9826,0,0,1-.0791-.2935c0-.12.2041-.9106.2041-1.0883,0-.105-.0468-.105-.0722-.105h-.15c-.06,0-.0879.0527-.0879.147v3.8676c0,.1831-.044.2666-.16.2666-.1484,0-.1484-.1987-.1484-.2666V11.5322c0-.4448.0664-.5444.3271-.5444h.251c.1768,0,.334,0,.334.3979a2.7079,2.7079,0,0,1-.0762.5914c-.0215.11-.16.67-.16.6958,0,.0371.0068.0527.0537.1674a2.74,2.74,0,0,1,.1787.6231c.0166-.1988.1006-.21.1611-.21H7.8828c.041,0,.1611,0,.1611.2461s-.12.2461-.1611.2461H7.415v1.3188c0,.1622.044.1622.1573.1622.1533,0,.16,0,.1757-.272.0186-.335.0215-.4136.1387-.4136.1475,0,.1475.1729.1475.2564a2.7231,2.7231,0,0,1-.1035.8115c-.06.1255-.1573.1255-.3741.1255-.3457,0-.45,0-.45-.5445V13.7461H6.8555a3.4142,3.4142,0,0,1-.2422,1.45,1.0148,1.0148,0,0,1-.5371.56c-.085,0-.1514-.1573-.1514-.2984a.247.247,0,0,1,.1231-.23c.38-.3086.4873-.56.5058-1.481Zm.292-.9424c-.0381,0-.1445,0-.1445-.2353a.4042.4042,0,0,1,.01-.11.13.13,0,0,1-.1172.0786c-.1475,0-.1563-.1675-.1563-.2725v-.3872c0-.4028.1006-.5283.3174-.5283h.4463v-.2827c0-.0474,0-.23.1533-.23.1133,0,.1611.0889.1611.23v.2827h.4366c.2138,0,.3173.1255.3173.5283v.3872c0,.0684,0,.2671-.1474.2671a.151.151,0,0,1-.1074-.0366c.0039.0313.038.3086-.1416.3086Zm1.0274-.4707c.0537,0,.0634.0049.0918.0313a.8.8,0,0,1-.0069-.1v-.2822c0-.0942-.0283-.147-.0849-.147H6.5254c-.0508,0-.085.042-.085.147v.2822a.7163.7163,0,0,1-.01.1309c.0195-.0366.0351-.0625.11-.0625Z"/><path class="cls-2" d="M12.7881,14.7031a2.585,2.585,0,0,1-.169,1.1348c-.1132.1914-.2177.2031-.6865.2031-.3271,0-.4863,0-.4863-.6806,0-.6094.1777-.6094.25-.6094.0322,0,.3779.0356.4043.0356.0732,0,.1914,0,.1914-.49V12.1821H10.623c-.0683,0-.2275-.0117-.2275-.5854,0-.418.0781-.5855.2275-.5855h1.669V9.3384H11.2373c-.0635,0-.2051-.0117-.2051-.5733,0-.5258.1182-.5737.2051-.5737h2.6143c.0595,0,.2089.0122.2089.5737,0,.5376-.1269.5733-.2089.5733H12.7881v1.6728h1.6777c.0635,0,.2315.0122.2315.5855,0,.4541-.1045.5854-.2315.5854H12.7881Zm1.2724-8.71c.3418,0,.5049.2988.5049,1.3261V8.49c0,.2271-.0049.6216-.2314.6216-.2188,0-.25-.2871-.25-.6216V7.5464c0-.2988-.0547-.4658-.1777-.4658H11.1689c-.123,0-.1777.167-.1777.4658v.956c0,.2627-.0176.6211-.2314.6211-.1914,0-.25-.1909-.25-.6211V7.3193c0-1.0273.1631-1.3261.5088-1.3261h1.2685V5.4316c0-.3584.082-.5136.2324-.5136.1592,0,.2725.0835.2725.5136v.5616Z"/><path class="cls-2" d="M16.3555,11.6924h.6552c.0635,0,.2364,0,.2364.5854,0,.5254-.1553.5616-.2364.5616h-.6552v1.2544a4.1088,4.1088,0,0,0,.6006-.1675.5925.5925,0,0,1,.1357-.0235c.15,0,.2.2505.2.5855,0,.5137-.1182.5615-.4092.6567a15.4971,15.4971,0,0,1-1.7.4063c-.1279,0-.2226-.167-.2226-.6333,0-.5493.1494-.5733.2949-.5972.2363-.0356.25-.0356.664-.12V12.8394h-.65c-.05,0-.2315,0-.2315-.55,0-.4542.0908-.5972.2315-.5972h.65v-.9917H15.56c-.3047,0-.459-.2749-.459-1.2066V6.5308c0-.9317.1543-1.1949.459-1.1949h1.164c.3047,0,.46.2632.46,1.1949V9.4941c0,.9317-.15,1.2066-.46,1.2066h-.3681Zm-.8643-4.1338h.4277V6.3994h-.3c-.0771,0-.1279.0957-.1279.3345Zm0,.8838v.8843c0,.2148.041.3344.1279.3344h.3V8.4424Zm1.3057-.8838V6.7339c0-.2388-.0459-.3345-.1231-.3345h-.3183V7.5586Zm0,.8838h-.4414V9.6611h.3183c.0772,0,.1231-.0957.1231-.3344Zm1.3681.7768c-.1865-.4541-.4179-.8842-.4638-.98a1.1032,1.1032,0,0,1-.2178-.6451c0-.3105.1182-.5732.2275-.5732.0411,0,.0909.0356.1768.1792.0635.1074.1416.2388.3047.5615a6.9562,6.9562,0,0,0,.3642-1.1948c0-.1553-.0683-.1553-.1005-.1553H17.542c-.0908,0-.209-.0478-.209-.5376,0-.5259.1416-.5381.209-.5381h1.1465c.1816,0,.4043.06.4043.8125a3.6268,3.6268,0,0,1-.2139,1.1831c-.1084.3462-.1865.5494-.3769,1.0513a1.1756,1.1756,0,0,1,.1679.6094,1.1462,1.1462,0,0,1-.0224.227h.0957c.19,0,.4541,0,.4541.8838a12.6927,12.6927,0,0,1-.1133,1.4219c-.1319,1.0635-.168,1.1592-.2822,1.1592-.086,0-.2276-.1314-.2276-.4424,0-.2627.2139-1.3975.2139-1.6846,0-.1909-.082-.1909-.1221-.1909h-.251v4.3013c0,1.3262-.19,1.3618-.6494,1.3618-.2412,0-.2685,0-.3369-.06a.9984.9984,0,0,1-.1455-.6333c0-.5615.1592-.5737.2139-.5737.0361,0,.2275.0122.2685.0122.1084,0,.1992-.0478.1992-.502V10.3662h-.5273c-.082,0-.2139-.0239-.2139-.5737,0-.5733.15-.5733.2139-.5733Z"/><path class="cls-2" d="M19.8691,12.6362c0,.0718-.0361,1.314-.123,2.2461-.0225.2749-.0449.4541-.1455.4541-.0908,0-.1543-.1552-.1543-.3227,0-.1436.0635-.7168.0771-.8365.0362-.5253.0547-.9316.0821-1.5649.0136-.2988.0722-.31.1494-.31C19.8691,12.3018,19.8691,12.5762,19.8691,12.6362Zm1.0323-5.4h.35c.0508,0,.2.0118.2.4419,0,.3345-.0908.4424-.2.4424h-.35v.8482h.3457c.0449,0,.2041,0,.2041.4658S21.292,9.9,21.2471,9.9h-.3457v.9556h.1728c.2451,0,.4043.1074.4043.896,0,.1313-.0176,2.1147-.1367,3.2021-.1045.9795-.24,1.0752-.6318,1.0752-.0957,0-.3086,0-.3682-.0835a1.1138,1.1138,0,0,1-.1045-.5259c0-.55.1406-.55.2773-.55a1.9723,1.9723,0,0,0,.2686,0c.1318-.0234.1953-.3818.2314-.9673.0274-.3945.06-1.3862.06-1.7563,0-.2988-.0869-.2988-.1416-.2988h-.8271c-.378,0-.4688-.251-.4688-1.2427V6.5068c0-.9917.0908-1.23.4688-1.23h1.209c.082,0,.21.0239.21.5258,0,.4659-.1045.5254-.21.5254h-.4131Zm-.6866,5.3765c.0137.3823.0274,1.1948.0274,1.6606,0,.3228,0,.5259-.1367.5259-.1133,0-.1133-.1792-.1133-.2871,0-.1313.0088-.7285.0088-.86,0-.1675-.0049-.896-.0049-1.04,0-.12,0-.2866.1094-.2866C20.1914,12.3257,20.2051,12.4331,20.2148,12.6123ZM20.52,7.2358V6.3276h-.3457c-.1045,0-.1279.1675-.1279.3345v.5737Zm0,.8843h-.4736v.8482H20.52Zm0,1.78h-.4736v.6211c0,.1792.0234.3345.1279.3345H20.52Zm.0225,2.8555c.0185.2627.0771,1.2661.0771,1.4336,0,.2866-.1045.2866-.1269.2866-.0957,0-.1006-.1436-.1094-.4419-.0137-.4541-.0273-.7647-.041-1.1113-.0088-.12-.0186-.3584-.0186-.37,0-.1914.0782-.227.0957-.227C20.5146,12.3257,20.52,12.3613,20.542,12.7559Zm.3457-.024c.0176.1792.0957.896.0957,1.0274,0,.2148-.0781.2866-.1279.2866-.086,0-.1-.167-.1094-.3345-.0137-.1792-.0947-1.1469-.0947-1.2187,0-.1074.0361-.2149.1132-.2149C20.8379,12.2778,20.8467,12.3613,20.8877,12.7319ZM23.63,9.064c0,1.2783-.2647,1.3379-.5645,1.3379a17.0765,17.0765,0,0,0,.419,3.6562,4.4667,4.4667,0,0,1,.291,1.2783c0,.4063-.1455.7168-.2774.7168-.082,0-.1367-.0356-.3232-.7768a24.2357,24.2357,0,0,1-.5459-4.8745H22.22v.6572a27.4572,27.4572,0,0,1-.2861,4.313c-.1006.6093-.1592.7168-.2686.7168-.0908,0-.2685-.1792-.2685-.5616a6.7571,6.7571,0,0,1,.164-1.1347,25.9255,25.9255,0,0,0,.2178-3.5127V6.5786c0-1.0273.169-1.3262.5049-1.3262H23.12c.3594,0,.51.3345.51,1.3262Zm-1.4014.167h.7647c.1318,0,.1816-.1792.1816-.4781V6.8774c0-.3227-.06-.4658-.1816-.4658h-.5869c-.1182,0-.1778.1431-.1778.4658Z"/><path class="cls-2" d="M25.42,10.5215c0,.5615-.1777,1.0273-.3916,1.0273s-.3906-.4658-.3906-1.0273c0-.5737.1768-1.0274.3906-1.0274S25.42,9.9478,25.42,10.5215Z"/><path class="cls-2" d="M30.4,14.249c0,1.2066-.1826,1.5772-.6006,1.5772H27.0713c-.4043,0-.6-.3467-.6-1.5772V6.937c0-1.2187.19-1.5771.6-1.5771H29.8c.4141,0,.6006.3706.6006,1.5771ZM29.9365,7.14c0-.4062-.082-.6093-.2324-.6093H27.167c-.1543,0-.2315.2153-.2315.6093v6.9058c0,.3823.0723.6094.2315.6094h2.5371c.1553,0,.2324-.2271.2324-.6094ZM28.6133,9.8765h.8545c.0732,0,.209.0117.209.5136,0,.4659-.1045.5137-.209.5137h-.8545v1.9233h.9638c.0772,0,.2227,0,.2227.5259,0,.5376-.1455.5376-.2227.5376H27.2939c-.0722,0-.2226,0-.2226-.5259,0-.5376.1455-.5376.2226-.5376h.8692V10.9038H27.417c-.0586,0-.2139,0-.2139-.478,0-.4063.0684-.5493.2139-.5493h.7461V8.3589h-.8047c-.0684,0-.2188,0-.2188-.5137,0-.4541.1045-.5615.2188-.5615h2.1777c.1407,0,.2178.1909.2178.5376,0,.5137-.1221.5376-.2178.5376h-.9228Zm.6777,1.6963a3.4827,3.4827,0,0,1,.1445.7646c0,.2749-.1406.3706-.1992.3706-.0957,0-.1142-.0718-.1865-.43-.0635-.2988-.0732-.3344-.1455-.6333a.979.979,0,0,1-.0371-.2509c0-.2388.1142-.3584.1914-.3584S29.1543,11.0591,29.291,11.5728Z"/><path class="cls-2" d="M34.8955,14.6792c.168,0,.2227.2749.2227.5615,0,.3584-.0635.6211-.2364.6211H32.9043c-.8506,0-1.1006-.8838-1.21-1.2783a8.5314,8.5314,0,0,1-.4,1.207c-.0859.2149-.1455.2271-.1816.2271-.1455,0-.2685-.3706-.2685-.753,0-.2626.0048-.2866.2734-.8842.1133-.251.1953-.4658.2451-.6094V11.0469c0-.1074,0-.3819-.123-.3819h-.168c-.1543,0-.2139-.2392-.2139-.5854,0-.4541.0908-.5855.2364-.5855h.26c.377,0,.4678.2388.4678,1.2305v2.15c.0547,1.5894.7051,1.8042,1.042,1.8042ZM31.6221,5.9814c.0674.167.2226.5855.2724.7647a1.2321,1.2321,0,0,1,.045.3223c0,.3706-.1221.6933-.2637.6933-.0947,0-.1319-.12-.2676-.5141-.0771-.2149-.2187-.5972-.4-1.0752a1.04,1.04,0,0,1-.082-.4063c0-.227.0771-.6567.26-.6567C31.29,5.1094,31.4941,5.647,31.6221,5.9814Zm2.7187,2.0069c.3272,0,.459.3227.459,1.207v3.5484c0,.8842-.1318,1.2065-.459,1.2065H32.7129c-.3135,0-.4551-.2983-.4551-1.2065V9.1953c0-.9082.1367-1.207.4551-1.207h.4c.0176-.1192.0586-.4058.0908-.7046H32.19c-.0644,0-.21-.0122-.21-.5259,0-.478.1142-.5376.21-.5376h.5039c-.0312-.1431-.0859-.394-.122-.5615a1.1121,1.1121,0,0,1-.041-.2749c0-.2388.1-.4541.2636-.4541.1406,0,.168.1318.2178.3349.1045.4537.1592.7286.1963.9556h.6094c.04-.2148.1-.5137.1543-.896.0273-.1792.0586-.4179.2314-.4179.1006,0,.26.1191.26.4658a4.388,4.388,0,0,1-.1416.8481h.5644c.0586,0,.2139,0,.2139.5259s-.1416.5376-.2139.5376H33.69c-.0175.1431-.0449.37-.1045.7046ZM34.332,9.709V9.2432c0-.2154-.041-.3345-.123-.3345H32.8584c-.0859,0-.127.1191-.127.3345V9.709Zm0,.8481H32.7314v.7408H34.332Zm0,1.6011H32.7314v.478c0,.2271.045.3345.127.3345H34.209c.0771,0,.123-.0957.123-.3345Z"/><path class="cls-2" d="M38.7959,6.0649c.4229,0,.4863.55.4863,1.1114a21.8244,21.8244,0,0,1-.7646,5.3047c-.7266,2.3535-1.8906,3.0224-2.0821,3.0224-.25,0-.2587-.6929-.2587-.7407,0-.43.1455-.5376.3134-.645,1.2549-.8482,1.8145-2.82,2.0186-4.2056A19.0236,19.0236,0,0,0,38.7139,7.75c0-.3584-.1006-.3584-.169-.3584H35.9355c-.0595,0-.2548,0-.2548-.6572,0-.6211.1679-.669.2548-.669Z"/><path class="cls-2" d="M43.45,13.8428c.0547,0,.2412,0,.2412.6093,0,.5376-.1416.6094-.2412.6094H40.6768c-.06,0-.2461,0-.2461-.5971,0-.49.1181-.6216.2461-.6216h1.1367v-4.66h-.9326c-.0547,0-.2452,0-.2452-.5972,0-.5615.1543-.6093.2452-.6093h2.3642c.0547,0,.2461,0,.2461.5971,0,.562-.15.6094-.2461.6094H42.3v4.66Z"/><path class="cls-2" d="M45.6816,11.5728c0,.2749-.0234.6572-.2636.6572-.1866,0-.2735-.1914-.2735-.6572V6.1606c0-.2866.0274-.6572.2686-.6572.1816,0,.2685.1909.2685.6572Zm2.3643-.9317c0,1.1587-.0361,3.5723-1.3555,4.6235a1.6873,1.6873,0,0,1-.9775.3941c-.05,0-.291,0-.291-.6929,0-.5493.1181-.5732.45-.6572a1.79,1.79,0,0,0,1.3867-1.4453,7.3074,7.3074,0,0,0,.25-2.1748V6.0171c0-.2627.0185-.669.2637-.669.1963,0,.2734.2271.2734.669Z"/><path class="cls-2" d="M49.3945,11.2026c-.082,0-.2861,0-.2861-.6811,0-.669.1816-.6929.2861-.6929h3.4922c.0821,0,.2822,0,.2822.6807s-.1865.6933-.2822.6933Z"/><g id="layer1"><g id="path2838-7-4-1-2"><path class="cls-12" d="M23.8926,81.4258A3.2076,3.2076,0,0,1,20.8,79.0645a1.3811,1.3811,0,0,0,1.3037.7949c.0547,0,.1094-.003.1631-.0078a1.7408,1.7408,0,0,0,.4668.3759,2.3259,2.3259,0,0,0,2.3359.002A.5384.5384,0,0,0,24.8,79.2256a.5321.5321,0,0,0-.2685.0723,1.3206,1.3206,0,0,1-.6368.166,1.2535,1.2535,0,0,1-.624-.166c-.0391-.0235-.0781-.05-.1152-.0762a1.6786,1.6786,0,0,1-1.0117.4072h-.002a1.4342,1.4342,0,0,1-1.458-1.3242,3.3,3.3,0,0,1,.4268-1.7109,3.2332,3.2332,0,0,1,3.6074-1.5059,1.3156,1.3156,0,0,0-.1514-.0088,1.4012,1.4012,0,0,0-1.1982.7412c-.0274.0479-.0528.0957-.0752.1445A2.2091,2.2091,0,0,0,21.88,77.0371a2.3309,2.3309,0,0,0-.3164,1.168.5386.5386,0,0,0,1.0771,0,1.2914,1.2914,0,0,1,.168-.6309,1.2537,1.2537,0,0,1,.585-.52l.0351-.0156-.0234-.1026a1.4255,1.4255,0,0,1,.0127-.6328,1.4844,1.4844,0,0,1,.07-.208l.0605-.1269a1.4434,1.4434,0,0,1,1.253-.7442,1.4194,1.4194,0,0,1,.71.1905,3.2269,3.2269,0,0,1,1.18,4.4023,3.2651,3.2651,0,0,1-.5.6553,1.3859,1.3859,0,0,0,.04-1.5362c-.0283-.0478-.0566-.0947-.0888-.1386a2.2828,2.2828,0,0,0-1.0742-2.6143l-.1036-.0459-.1015-.0224-.1094-.001-.1006.0185-.1006.04-.0888.0586-.0733.0713a.5892.5892,0,0,0-.124.4091l.0225.1006a.636.636,0,0,0,.0986.1817l.0762.0732a1.3136,1.3136,0,0,1,.6884,1.2754,1.9228,1.9228,0,0,1,.6954.4551l.08.0957.0733.1054a1.4377,1.4377,0,0,1-.416,1.9522A3.3258,3.3258,0,0,1,23.8926,81.4258Zm.0088-3.6758a.4556.4556,0,1,0,.455.4551A.4564.4564,0,0,0,23.9014,77.75Z"/><path class="cls-17" d="M23.9113,75.0309h0c.1052,0,.21.0054.315.0159a1.6917,1.6917,0,0,0-.8991.7506q-.0308.0533-.0571.1079a2.3638,2.3638,0,0,0-1.4314,1.1088,2.3929,2.3929,0,0,0-.3218,1.1909l.0026.0935h.0076a.5836.5836,0,0,0,1.1523,0h.01l0-.0938a1.1975,1.1975,0,0,1,.7228-1.108l.0723-.0329-.0194-.0768q-.0076-.03-.014-.06a1.37,1.37,0,0,1,.08-.8143c.0085-.02.0177-.04.0273-.06s.02-.04.0363-.0705l.0123-.0226a1.3767,1.3767,0,0,1,1.8817-.5044,3.1774,3.1774,0,0,1,.9833,4.6145,1.6918,1.6918,0,0,0-.2-1.157q-.0314-.0543-.066-.1052a2.3758,2.3758,0,0,0-1.1148-2.6646l-.0428-.0222-.034-.0149-.0383-.0136-.0392-.011-.0345-.0074-.0435-.006-.0378-.0027-.0343,0-.0434.0027-.0343.0044h0l-.0323.0059-.0414.0107-.0328.0106-.0316.0123-.0379.0179-.0318.0175-.0283.0179-.0318.0231-.03.0247-.0256.0242-.027.0292-.0258.0321-.0205.029-.0184.03a.5791.5791,0,0,0-.0742.3606q.0033.0277.0093.0552c.0039.0182.0088.0363.0144.054l.0093.0266.01.0258.0117.0256a.5886.5886,0,0,0,.0767.1186l.0189.0215a.5827.5827,0,0,0,.1372.11,1.22,1.22,0,0,1,.598,1.1836l-.0081.0782.0756.0213a1.3729,1.3729,0,0,1,.6393.3923q.0219.0239.0428.0489c.0139.0166.0274.0336.0411.0516s.026.0353.0385.0534.0245.0369.0427.0662l.0148.0245a1.3783,1.3783,0,0,1-.43,1.8359l-.0209.0133-.0545.0313a3.2079,3.2079,0,0,1-1.5949.4254,3.1611,3.1611,0,0,1-2.8865-1.8754,1.6919,1.6919,0,0,0,1.0969.402q.0628,0,.1245-.0045a2.406,2.406,0,0,0,1.6759.6884,2.3757,2.3757,0,0,0,1.1894-.32l.0793-.049-.0037-.0064a.5837.5837,0,0,0-.5762-.9981l-.0048-.0084-.0806.0461a1.2373,1.2373,0,0,1-.6128.1628,1.2021,1.2021,0,0,1-.6-.16,1.177,1.177,0,0,1-.11-.0723l-.0638-.0468-.0566.0551a1.3809,1.3809,0,0,1-.9337.39l-.0263.0006A1.3809,1.3809,0,0,1,20.73,78.3007l-.0016-.0287,0-.0671a3.1688,3.1688,0,0,1,3.1811-3.174h.0025m-.01,3.6762a.502.502,0,1,0-.5019-.502.5025.5025,0,0,0,.5019.502m.0079-3.77a3.262,3.262,0,0,0-3.2744,3.2676h-.002c0,.0194.0007.0385.0015.0577l.0024.0443v0a1.4709,1.4709,0,0,0,1.4669,1.3691l.0417-.0011a1.4649,1.4649,0,0,0,.9834-.4156,1.3092,1.3092,0,0,0,.1189.078,1.291,1.291,0,0,0,.647.1729,1.3309,1.3309,0,0,0,.6591-.1752l.0013.0023a.49.49,0,0,1,.49.8494l.0014.0024a2.28,2.28,0,0,1-2.2893-.0024,2.3094,2.3094,0,0,1-.494-.3825c-.0526.0052-.1059.008-.16.008a1.6069,1.6069,0,0,1-1.3485-.735,3.2557,3.2557,0,0,0,3.1381,2.3951,3.3012,3.3012,0,0,0,1.6414-.4379l.001.0017c.0168-.01.0332-.02.05-.03l.0249-.016.0012-.0007a1.4714,1.4714,0,0,0,.4627-1.9627l-.0226-.037,0,0c-.0125-.02-.0254-.04-.0387-.0595s-.027-.0385-.0411-.057l0,0,0,0c-.0141-.0185-.0285-.0367-.0433-.0544s-.03-.0353-.0458-.0523a1.4657,1.4657,0,0,0-.6826-.4189,1.316,1.316,0,0,0-.6442-1.2741.4914.4914,0,0,1-.0618-.0423.4774.4774,0,0,1-.0534-.05l-.0159-.018a.4857.4857,0,0,1-.0644-.1l-.01-.0214v0l-.0088-.0218-.0077-.0223c-.0048-.0149-.0089-.03-.0122-.0454h0c-.0033-.0154-.0059-.0308-.0078-.0464a.4884.4884,0,0,1,.0624-.3029l.0155-.0251.0057-.0083.0116-.0161.0064-.0084.0152-.0184.0031-.0037.02-.0208.0062-.006.0152-.0142.0066-.0058.0185-.015.0036-.003.023-.0164.0069-.0045.0169-.0105.0087-.0051.0179-.01.0069-.0036.025-.0115.0056-.0022.0211-.0081.0077-.0027.02-.0062.0082-.0024.0267-.0066.0035-.0007.0236-.0042.0094-.0014.0193-.0023.0093-.0009.0275-.0015h.0087l.02,0,.009,0,.0226.0018.0068.0006.03.0044.0036.0007.0253.0055.0084.0021.0247.0071.0041.0013.028.01.0087.0036.02.0089.0091.0043.027.0144a2.2807,2.2807,0,0,1,1.06,2.6012q.0462.0644.0867.1343a1.6081,1.6081,0,0,1,.0328,1.5458,3.2691,3.2691,0,0,0-.689-5.1307,1.47,1.47,0,0,0-2.0092.5385l-.0194.0356,0,.0005c-.0112.0209-.022.0419-.0322.0631l0,0q-.0155.0321-.0291.0645a1.4649,1.4649,0,0,0-.0852.87q.0068.0324.0148.0643l0,.0011a1.291,1.291,0,0,0-.7787,1.194h-.0026a.49.49,0,1,1-.98,0H21.61a2.3021,2.3021,0,0,1,1.7258-2.2207c.0215-.0474.0454-.0943.072-.14a1.607,1.607,0,0,1,1.321-.8015,3.2476,3.2476,0,0,0-.8178-.1051h-.0025Zm-.0079,3.6763a.4087.4087,0,1,1,.4086-.4087.4087.4087,0,0,1-.4086.4087Z"/></g></g><rect class="cls-18" x="57.8828" y="106.8664" width="6.7219" height="3.3609"/><path class="cls-3" d="M34.677,91.4892c.004.0016.0006-.0011-.0013,0a.5154.5154,0,0,1-.7591-.36c-.0438-.14-.07-.2852-.1049-.4334-.04.0679-.0819.14-.1248.212a4.1154,4.1154,0,0,1-.6328.8553,1.5336,1.5336,0,0,1-1.703.3713,6.5141,6.5141,0,0,1-.8932-.4385,21.5691,21.5691,0,0,0-2-.9935,4.5066,4.5066,0,0,0-.6626-.1923.2762.2762,0,0,0-.3333.17,4.8016,4.8016,0,0,0-.4712,1.3853c-.0832.4139-.1614.8289-.2523,1.2411a1.755,1.755,0,0,1-.1387.3543.48.48,0,0,1-.1118.14.3075.3075,0,0,1-.5352-.1257,1.5883,1.5883,0,0,1-.07-.8126,9.19,9.19,0,0,1,.5826-2.2639,8.198,8.198,0,0,1,.5834-1.1241c.3416-.5691.71-1.1221,1.0664-1.6821.0195-.0306.0376-.0621.0723-.12-.055.0276-.0839.0387-.1093.0553a9.83,9.83,0,0,0-1.3149.9887,1.3712,1.3712,0,0,0-.2368.2967c-.0783.13-.0436.2139.09.2868a.1672.1672,0,0,1,.0854.25.7674.7674,0,0,1-.38.3439,1.3122,1.3122,0,0,1-.9316.1505.4716.4716,0,0,1-.4034-.5958,1.319,1.319,0,0,1,.268-.5458,4.2961,4.2961,0,0,1,.8864-.8563,12.6562,12.6562,0,0,1,2.6065-1.5734,9.3464,9.3464,0,0,1,1.65-.5733,3.582,3.582,0,0,1,1.4335-.0968,2.5054,2.5054,0,0,1,.6033.183,1.152,1.152,0,0,1,.6257,1.2014,1.4965,1.4965,0,0,1-.1892.5893,3.236,3.236,0,0,1-1.3346,1.2857,8.77,8.77,0,0,1-1.5012.6227c-.378.1163-.7568.2305-1.1372.3388-.1268.036-.26.0507-.4193.0808.2667.0922.505.18.7466.2572.8241.2631,1.648.527,2.4752.78a4.574,4.574,0,0,0,.6208.1185.7869.7869,0,0,0,.6193-.1737,2.0657,2.0657,0,0,0,.5794-.6993c.1351-.2581.25-.5267.3742-.79.2315-.4915.4595-.9848.6972-1.4733a.6039.6039,0,0,1,.4441-.3305.1968.1968,0,0,1,.259.2173.4634.4634,0,0,1-.0541.21c-.1972.3353-.4071.6632-.6028.9994-.1264.2171-.2395.4421-.3514.6672a.7311.7311,0,0,0-.0642.4411.3244.3244,0,0,0,.3822.2956.7361.7361,0,0,0,.5917-.4319c.1978-.4627.3862-.9295.5756-1.3957.1048-.258.2054-.5178.3048-.7779a.8182.8182,0,0,1,.3058-.425.2621.2621,0,0,1,.2663-.0372.2127.2127,0,0,1,.1009.2249,1.3056,1.3056,0,0,1-.0327.2586,3.5277,3.5277,0,0,1-.1211.4149c-.1935.5115-.3922,1.0211-.5907,1.5306q-.444,1.14-.8891,2.2789a.4766.4766,0,0,0-.038.1834c.0031.08.0579.1013.1132.0451a.9684.9684,0,0,0,.1712-.2206c.3294-.6265.65-1.2577.981-1.8834.1993-.3767.4139-.7452.6186-1.119.2594-.4739.5078-.9541.7758-1.423a1.8622,1.8622,0,0,1,.8774-.8543.441.441,0,0,1,.3979.0028.2062.2062,0,0,1,.1231.1931.2025.2025,0,0,1-.1478.1738.3647.3647,0,0,1-.1464.027.5.5,0,0,0-.4061.1849,1.8806,1.8806,0,0,0-.4561,1.4063.97.97,0,0,0,.2393.6261.45.45,0,0,0,.7529-.0342,1.3019,1.3019,0,0,0,.2186-1.0982c-.0133-.0579-.0335-.09-.1039-.0935a.2927.2927,0,0,1-.2816-.2324.52.52,0,0,1,.4523-.7264,1.5669,1.5669,0,0,0,.7127-.3269.4016.4016,0,0,0,.1493-.2411,19.44,19.44,0,0,1,.9148-2.9263,2.42,2.42,0,0,1,.4646-.7594.7267.7267,0,0,1,.4375-.2248.4831.4831,0,0,1,.5265.3411,1.5948,1.5948,0,0,1,.0164.8345,2.6866,2.6866,0,0,1-.5468,1.1855q-.3621.4512-.7265.9005c-.0251.0311-.0508.0618-.0812.0988a2.4883,2.4883,0,0,0,.7579.6225,1.7,1.7,0,0,0,.27.1093.5767.5767,0,0,0,.6331-.1579,3.3291,3.3291,0,0,0,.5805-.8653,1.3318,1.3318,0,0,1,.5461-.6254.28.28,0,0,1,.3056-.0021.264.264,0,0,1,.0979.2781.8321.8321,0,0,1-.0574.2122,1.956,1.956,0,0,1-.1357.2463,3.2085,3.2085,0,0,0-.5145,1.4146.9624.9624,0,0,0,.0812.5587.5122.5122,0,0,0,.7384.2042,1.8394,1.8394,0,0,0,.5791-.6579c.0489-.08.09-.1645.1379-.2456a.5716.5716,0,0,1,.0574-.0708l.0271.01a.4692.4692,0,0,1-.0021.0912,1.7131,1.7131,0,0,1-1.1989,1.3853.7526.7526,0,0,1-.8867-.4148,1.5254,1.5254,0,0,1-.0963-.828c.0294-.2423.0836-.4816.1269-.7223a.5545.5545,0,0,0,.0124-.1184,1.14,1.14,0,0,1-1.6821.3948c.0247.1328.0483.2415.0647.3513a3.7065,3.7065,0,0,1-.0231,1.4079,1.7089,1.7089,0,0,1-.1727.4373.8684.8684,0,0,1-.9023.4108.519.519,0,0,1-.423-.3693,3.7108,3.7108,0,0,1-.0681-1.9163c.0059-.03.0126-.059.0186-.0885l-.0013-.01a.8129.8129,0,0,0-.4327.6657c.0073.3614.0245.724.0062,1.0844a1.3284,1.3284,0,0,1-1.3191,1.3063.7708.7708,0,0,1-.6963-.4685,1.9473,1.9473,0,0,1-.2171-.898c-.0224.0309-.0377.0487-.0494.0686a17.1613,17.1613,0,0,0-1.6652,3.9172,5.6253,5.6253,0,0,1-.5668,1.3946,1.0964,1.0964,0,0,1-.5286.5034.22.22,0,0,1-.3109-.1115,1.0621,1.0621,0,0,1-.0948-.5285,7.7926,7.7926,0,0,1,.2943-1.8722C34.4923,92.0989,34.5888,91.7955,34.677,91.4892Zm-5.6072-2.03a5.3984,5.3984,0,0,0,1.4625-.6757,3.2142,3.2142,0,0,0,1.0794-1.0026,1.6037,1.6037,0,0,0,.2659-.8725c-.0088-.3851-.1982-.58-.5785-.5569a2.8555,2.8555,0,0,0-.7373.1331,8.2546,8.2546,0,0,0-.8906.3908,1.3505,1.3505,0,0,0-.6406.5558c-.3169.5682-.6494,1.1277-.9722,1.6926a3.2732,3.2732,0,0,0-.165.3447c-.0539.1266-.042.1419.0974.1464A3.5562,3.5562,0,0,0,29.07,89.4589Zm11.7237-2.8377a3,3,0,0,0-.1625.3179,3.1894,3.1894,0,0,0-.1961,1.3119,1.6054,1.6054,0,0,0,.0977.4172.2606.2606,0,0,0,.2317.1841.255.255,0,0,0,.24-.1555,1.1608,1.1608,0,0,0,.1045-.2385,2.4705,2.4705,0,0,0-.0583-1.502A.5975.5975,0,0,0,40.7935,86.6212Zm.0826-.7178.0437.0258c.0863-.08.1792-.1537.2577-.2406a3.87,3.87,0,0,0,.7-1.1546.88.88,0,0,0,.05-.5514.2861.2861,0,0,0-.1055-.1668c-.0753-.045-.1388.0229-.1847.0805a1.9344,1.9344,0,0,0-.1862.2611,5.8875,5.8875,0,0,0-.5764,1.5916A.6877.6877,0,0,0,40.8761,85.9034Z"/><path class="cls-3" d="M43.8788,85.0457c.0054-.112.0056-.2246.0181-.3358a.0942.0942,0,0,0-.0772-.1161c-.0944-.0323-.1864-.0717-.2794-.108l-.0032-.0282.1936-.0555c.19-.0545.19-.0545.2036-.2558a.7423.7423,0,0,1,.0392-.219c.0539.086.1136.169.16.2588a.1016.1016,0,0,0,.1462.0544,1.6519,1.6519,0,0,1,.3072-.0719q-.0727.0942-.1456.1883c-.1106.1423-.1107.1423-.0171.296l.1346.2207-.4006-.1457-.26.3238Z"/><g id="g8696"><g id="path8698"><polygon class="cls-12" points="60.143 95.167 60.189 93.1 62.472 93.146 62.425 93.553 60.706 93.506 60.659 93.968 62.396 94.015 62.35 94.421 60.706 94.374 60.662 95.167 60.143 95.167"/><path class="cls-17" d="M62.3783,93.193V93.46h-1.766v.6021h1.6908v.2664H60.6123v.793h-.3768V93.193h2.1428m.0933-.0933h-2.33v2.1146h.5636v-.793h1.6908v-.4531H60.7057v-.4154h1.7659V93.1Z"/></g></g><g id="g8708"><path id="path8710" class="cls-19" d="M71.3138,94.7287a.5617.5617,0,0,1-.1649.3126c-.1877.1758-.4717.1815-1.1711.1815-.8531,0-1.0791-.0057-1.27-.2-.1378-.1415-.1655-.2913-.1655-.8228,0-.1185,0-.2359.0031-.3579a.81.81,0,0,1,.1812-.6073c.1562-.1465.3732-.1852,1.1335-.1852.095,0,.2824.0024.5661.0086a1.2007,1.2007,0,0,1,.6867.1258c.1818.1128.232.31.232.91a4.3262,4.3262,0,0,1-.0314.6349m-.6166-1.1434a2.0472,2.0472,0,0,0-.7549-.0655c-.2635,0-.4865.0059-.6043.0159a.2881.2881,0,0,0-.1547.05c-.0679.053-.077.1288-.077.5253,0,.0759,0,.1533.0036.23.0025.1994.0148.2752.0562.3233a.2271.2271,0,0,0,.1375.0647,5.0045,5.0045,0,0,0,.6742.0341c.4422,0,.66,0,.735-.0836.0537-.06.0673-.1588.0673-.5779,0-.1314.0155-.4316-.0829-.516"/></g><g id="g8712"><path id="path8714" class="cls-19" d="M68.06,95.0706c-.1019.1118-.2233.1437-.4681.1437H65.7029v-.4909h1.7088a.3306.3306,0,0,0,.1833-.0255c.0363-.0218.048-.0613.048-.1734,0-.0893-.01-.1174-.0447-.1466-.0314-.0256-.06-.0321-.1691-.0321H66.34c-.2871,0-.3836-.0218-.5009-.1157-.1173-.0923-.1623-.25-.1623-.57a.676.676,0,0,1,.0991-.4312.3376.3376,0,0,1,.14-.1125.83.83,0,0,1,.414-.0547h1.7782v.4909H66.5212c-.1679,0-.2012.0275-.2012.1745,0,.1325.0432.1654.1944.1654h1.0478c.3222,0,.5034.0863.5863.2779a.9476.9476,0,0,1,.0571.3929.6582.6582,0,0,1-.1461.5027"/></g><g id="g8716"><path id="path8718" class="cls-19" d="M65.1609,95.0285c-.1178.1589-.2957.2209-.6875.2236l-.3558.0377h-.4419c-.4137-.0362-.5926-.1037-.7223-.29a1.5742,1.5742,0,0,1-.106-.5074V93.1h.5636V94.43c0,.2832.0582.3275.4058.331l.26.003.29-.0065c.3166-.0069.3585-.0475.3585-.3884V93.1H65.29v1.2735c0,.3865-.0287.5147-.1336.66"/></g><g id="g8720"><g id="path8722"><path class="cls-12" d="M57.23,95.2432l.4707-.6768.8154.0234-.4638.6768Zm1.7246,0-.3877-.7168.8184.0634.3584.6534Zm-.4648-.7227.07.0049-.04.0576Zm-.3575-.7471.4307-.7011.3516.749-.4278.6924Z"/><path class="cls-17" d="M58.5229,93.2362l.3227.5606-.3231.56-.3233-.5593.3237-.5611m.8082,1.4005.3285.56h-.6517l-.3235-.56h.6467m-.97,0-.3231.56H57.391l.3232-.56h.6466m.1621-1.5875-.4315.7481.4312.746.4305-.746.001.0008-.4312-.7489Zm0,1.4941,0,0h0v0Zm.862,0h-.862l.4315.7464h.8685l-.438-.7464Zm-.8621,0H57.66l-.431.7464h.8623l.4309-.7464Z"/></g></g></g><path d="M127.8018,99.1172v1.4805h-2.16v2.08h2.96v1.48h-2.96V109.8c1.92-.32,2.5-.46,2.98-.5605l.06,1.4609a71.2188,71.2188,0,0,1-7.8613,1.28l-.24-1.6006c.6406-.0606,1.5-.12,3.541-.38v-5.8418H120.72v-1.48h3.4014v-2.08H121.94V99.457a11.5651,11.5651,0,0,1-.9.7608l-.7-1.5811a10.9377,10.9377,0,0,0,3.7413-4.7h1.8a8.4994,8.4994,0,0,0,3.1211,3.42l-.96,1.36a10.8532,10.8532,0,0,1-2.9805-3.28,16.506,16.506,0,0,1-2.7607,3.6807Zm-6.1211,10.042a21.4831,21.4831,0,0,0-.6407-3.78l1.3409-.2a23.6093,23.6093,0,0,1,.66,3.7608Zm4.8808-.58a21.9522,21.9522,0,0,0,.58-3.56l1.4.22a19.3018,19.3018,0,0,1-.7,3.5615Zm6.8614-14.6826h1.6406v3.8408h3.8008v1.54h-3.8008v2.6006c0,.34-.02.52-.02.68h4.2207v1.5606h-3.96a12.7425,12.7425,0,0,0,4.28,6.8613l-.9805,1.48a14.3789,14.3789,0,0,1-4.2-6.501,10.8251,10.8251,0,0,1-5.1816,6.541l-1-1.44a8.984,8.984,0,0,0,5.001-6.9414h-4.0206v-1.5606h4.2012a6.5637,6.5637,0,0,0,.02-.68V99.2773h-2.3008a9.0521,9.0521,0,0,1-1.1,2.501l-1.4-.78a14.3242,14.3242,0,0,0,1.86-6.0214l1.58.22a17.3632,17.3632,0,0,1-.4805,2.541h1.8409Z"/><path d="M144.501,101.6377v5.9814a2.7412,2.7412,0,0,0,1.82,2.1006,8.6386,8.6386,0,0,0,3.2012.66h9.9414l-.3,1.54h-9.6416c-1.6006,0-4.0215-.26-5.3213-2.3008a17.6735,17.6735,0,0,1-2.8408,2.9014l-.78-1.82a10.7957,10.7957,0,0,0,2.3008-1.8809v-5.6015H140.76v-1.58Zm-.62-3.1406A19.5777,19.5777,0,0,0,141,95.1563l1.1406-1.04a15.54,15.54,0,0,1,3.0606,3.3008Zm15.3427-.96h-6.3408c-.12.3-.4.9805-.62,1.38h5.7207V108.98h-11.082V98.917h3.8007a8.5667,8.5667,0,0,0,.46-1.38h-5.581v-1.44h3.3613a14.3574,14.3574,0,0,0-1.0606-1.78l1.38-.5605a13.1892,13.1892,0,0,1,1.36,2.3408h3.3408a14.2179,14.2179,0,0,0,1.0605-2.36l1.66.3994a13.59,13.59,0,0,1-1.1006,1.961h3.6406Zm-2.84,2.7207h-7.8623v1.6h7.8623Zm0,2.8008h-7.8623v1.64h7.8623Zm0,2.84h-7.8623v1.74h7.8623Z"/><path d="M172.0625,103.1582a2.0606,2.0606,0,1,1-2.06-2.06A2.07,2.07,0,0,1,172.0625,103.1582Z"/><path d="M187.7617,95.7969c-.98,8.6416-3.7607,13.082-5.081,15.1826L180.92,110.04c1.66-2.581,3.9815-6.4814,4.9414-14.5234Zm8.1621,14.8232a45.8718,45.8718,0,0,0-4.8017-14.4033l1.6806-.8008a47.0587,47.0587,0,0,1,5.1016,14.7236Zm-.56-16.4043a17.0159,17.0159,0,0,1,2.08,3.7412l-1.36.8a17.1957,17.1957,0,0,0-1.9805-3.82Zm2.74-1.22a17.43,17.43,0,0,1,2.0606,3.74l-1.36.8008a16.4526,16.4526,0,0,0-1.98-3.8213Z"/><path d="M215.5234,95.6963a21.5828,21.5828,0,0,1-3.8213,8.2217,78.36,78.36,0,0,1,6.8018,6.0019l-1.52,1.4405a71.2271,71.2271,0,0,0-6.3809-6.0821,24.7661,24.7661,0,0,1-8.1015,6.1612l-1.0811-1.48a21.0219,21.0219,0,0,0,7.4824-5.4014,20.5843,20.5843,0,0,0,4.2608-7.1621H202.4209v-1.7Z"/><path d="M220.6406,110.42a15.0563,15.0563,0,0,0,4.961-3.9414l1.4.8008a18.5519,18.5519,0,0,1-5.2413,4.4609ZM235.1631,97.377a50.0613,50.0613,0,0,1-5.5811,6.4013l6.4219-.36c-.541-.74-1.041-1.36-1.501-1.9l1.4-.78a26.0241,26.0241,0,0,1,3.541,5.0811l-1.4609.86a13.7754,13.7754,0,0,0-1.06-1.92l-6.081.3994V112.42h-1.6807v-7.1611c-1.32.04-7.1816.26-8.3818.28l-.12-1.5411c1.08,0,5.8613-.12,6.8418-.14.38-.38.58-.58.76-.78a32.6692,32.6692,0,0,0-5.2012-3.7607l.96-1.2a18.6151,18.6151,0,0,1,2.001,1.22,24.2344,24.2344,0,0,0,2.06-2.9c-3.3808.1406-4.8418.16-6.2011.16l-.3409-1.54c5.0215,0,11.8428-.1806,16.1036-1.28l.7207,1.44a42.99,42.99,0,0,1-8.3418,1.12,28.3,28.3,0,0,1-2.8213,3.86,21.1939,21.1939,0,0,1,2.1611,1.7207,53.1211,53.1211,0,0,0,4.4-5.3213Zm-.86,9.0615a16.1846,16.1846,0,0,0,5.1416,4.1416l-1.1005,1.34a17.9144,17.9144,0,0,1-5.3213-4.6406Z"/><path d="M252.3613,102.5176a24.2781,24.2781,0,0,0-3.541-5.501l1.5606-.88a22.8767,22.8767,0,0,1,3.7207,5.3809Zm-1.96,7.2617c7.9209-1.74,10.8017-6.7607,12.122-14.1631l2.001.36c-1.2607,6.081-3.5215,13.0224-12.9629,15.4033Z"/><path d="M284.4238,95.9971c-.46,6.3613-2.28,13.122-12.7422,15.3427l-.74-1.6806c8.1016-1.64,10.7617-5.8213,11.4219-11.8819H269.0605v-1.78Z"/><path d="M303.6035,105.8389a44.3233,44.3233,0,0,0-8.8213-4.2813V111.66h-1.94V94.5566h1.94v5.1211a54.7869,54.7869,0,0,1,9.7617,4.3008Z"/><path d="M324.084,97.5566v1.3409c0,6.0615-2.4805,11.7226-12.3027,12.542l-.58-1.72c9.9424-.92,10.9424-6.1816,10.9424-10.082v-.4H311.001v4.8613h-1.78v-6.542h6.4414v-3.1h1.8408v3.1Z"/><path d="M337.4424,108.999h6.0215V110.56h-13.583V108.999h5.8808v-7.8408h-5.0605V99.5576H342.624v1.6006h-5.1816Z"/><path d="M364.9238,95.4766c-.78,5.3007-3.7,7.0009-6.2812,8.3213l-1.16-1.4395c3.8809-1.6006,4.7207-3.5811,5.1612-5.1611H348.4V95.4766ZM348.7607,109.98c5.501-2.36,6.2012-6.2607,6.1817-10.7022l1.86.02c-.04,3.8808-.3408,9.0625-6.8222,12.1826Z"/><path d="M375.582,94.5967v6.4814h-5.9209V112.42h-1.6006V94.5967Zm-1.56,1.26h-4.3408v1.4209h4.3408Zm0,2.5206h-4.3408v1.44h4.3408Zm8.582,7.7421v1.34h-2.78V112.14h-1.541V107.459h-3.16a6.9445,6.9445,0,0,1-3.041,4.6406l-1.06-1.18a5.0917,5.0917,0,0,0,2.52-3.4609h-2.8408v-1.34h3a3.3169,3.3169,0,0,0,.0205-.44v-1.86h-2.501v-1.36h10.8828v1.36h-2.28v2.3007Zm-4.3213,0v-2.3007h-3.02v1.88a2.7644,2.7644,0,0,1-.0195.4209Zm6.9815-11.5224V110.72a1.4686,1.4686,0,0,1-1.4795,1.7h-2.7608l-.34-1.68,2.38.02c.28,0,.62,0,.62-.46v-9.2217h-6.001V94.5967Zm-1.62,1.26h-4.4v1.4209h4.4Zm0,2.5206h-4.4v1.44h4.4Z"/><path d="M405.7041,96.2969a26.4733,26.4733,0,0,1-2.86,2.94,28.3062,28.3062,0,0,0,3.3007,1.62l-.7,1.541c-1.1406-.541-1.8007-.86-3.06-1.581v1.2607h-2.4805v2.8809h5.541v1.5h-5.541v3.56c0,.42.08.5205.58.5205h2.7c.9,0,1.02-.2,1.16-2.541l1.6406.32c-.28,2.82-.42,3.78-2.1807,3.78h-3.9609c-.52,0-1.5606,0-1.5606-1.3594V106.459h-3.56c-.56,3.48-3.4805,5.1806-6.501,5.9414l-.78-1.6006c3.461-.52,5.3614-2.44,5.6612-4.3408H387.9v-1.5h5.3008v-2.8809h-2.26v-1.1806a27.1861,27.1861,0,0,1-2.9209,1.5009l-.8-1.5009a17.0265,17.0265,0,0,0,3.78-1.82,27.7709,27.7709,0,0,0-2.58-2.04l1.1-.98a21.0075,21.0075,0,0,1,2.7813,2.12,19.1661,19.1661,0,0,0,2.58-2.38H389.36v-1.4h8.1826a11.3294,11.3294,0,0,0,1.56,1.96,20.253,20.253,0,0,0,2.461-2.44l1.34.7608a26.8587,26.8587,0,0,1-2.7207,2.68,16.3387,16.3387,0,0,0,1.3809,1.0606,21.0946,21.0946,0,0,0,2.82-2.8809Zm-3.6807,4.3008a20.8714,20.8714,0,0,1-5.3613-4.7012,19.2564,19.2564,0,0,1-5.2607,4.7012Zm-3.7412,1.48h-3.48v2.8809h3.48Z"/><rect class="cls-20" width="936" height="120"/></g></svg>