<svg id="レイヤー_1" data-name="レイヤー 1" xmlns="http://www.w3.org/2000/svg" viewBox="0 0 640 640"><defs><style>.cls-1{fill:#fff;}.cls-2{fill:#2e3192;}.cls-3{fill:#80c0a0;}.cls-4{fill:#4d4d4d;}.cls-5{fill:#0f0f0f;}.cls-6,.cls-7,.cls-8{fill:none;stroke:#000;}.cls-17,.cls-6,.cls-7,.cls-8{stroke-miterlimit:10;}.cls-6{stroke-width:7.5px;}.cls-7{stroke-width:5px;}.cls-8{stroke-width:2.5px;}.cls-9{fill:#006837;}.cls-10,.cls-17{fill:#ccc;}.cls-11{fill:#1e1e1e;}.cls-12{fill:#f15a24;}.cls-13{fill:#b3b3b3;}.cls-14{fill:#002080;}.cls-15{fill:#999;}.cls-16{fill:#c08000;}.cls-17{stroke:#999;stroke-width:0.5px;}</style></defs><rect class="cls-1" x="30" y="330" width="580" height="87"/><rect class="cls-1" x="30" y="438" width="580" height="15"/><rect class="cls-1" x="30" y="474" width="580" height="15"/><rect class="cls-1" x="30" y="510" width="580" height="15"/><rect class="cls-2" x="30" y="525" width="580" height="75"/><rect class="cls-3" x="30" y="489" width="580" height="21"/><rect class="cls-3" x="30" y="453" width="580" height="21"/><rect class="cls-3" x="30" y="417" width="580" height="21"/><polygon class="cls-3" points="610 300 610 330 30 330 30 300 40 30 60 10 230 0 410 0 580 10 600 30 610 300"/><path class="cls-4" d="M610,410v70H513.33l-46.66-70Z"/><path class="cls-5" d="M610,385v25H426.67L420,400s-5.19-6.92-16.29-15Z"/><path class="cls-4" d="M610,300v85H403.71c-15.59-11.35-42.83-25-83.71-25V105H602.78Z"/><path class="cls-5" d="M466.67,410l46.66,70H490c-20,0-30-20-30-20l-33.33-50Z"/><polygon class="cls-4" points="320 105 320 360 30 360 30 300 37.22 105 320 105"/><polyline class="cls-6" points="37.22 105 320 105 602.78 105"/><path class="cls-7" d="M30,360H320c40.88,0,68.12,13.65,83.71,25,11.1,8.08,16.29,15,16.29,15l6.67,10L460,460s10,20,30,20H610"/><line class="cls-8" x1="320" y1="105" x2="320" y2="360"/><line class="cls-8" x1="403.71" y1="385" x2="610" y2="385"/><polyline class="cls-8" points="426.67 410 466.67 410 610 410"/><line class="cls-8" x1="466.67" y1="410" x2="513.33" y2="480"/><polygon points="580 91 575 25 570 20 500 10 140 10 70 20 65 25 60 91 64 95 576 95 580 91"/><rect x="20" y="560" width="600" height="40"/><rect class="cls-9" x="268.75" y="543.75" width="102.5" height="52.5"/><path class="cls-10" d="M370,545v50H270V545H370m2.5-2.5h-105v55h105v-55Z"/><rect class="cls-11" x="30" y="510" width="120" height="50"/><rect x="55" y="515" width="90" height="40"/><circle class="cls-10" cx="120" cy="535" r="14"/><circle class="cls-10" cx="80" cy="535" r="14"/><rect class="cls-12" x="25" y="515" width="24" height="40"/><rect class="cls-13" x="37" y="537" width="12" height="18"/><rect class="cls-11" x="490" y="510" width="120" height="50" transform="translate(1100 1070) rotate(-180)"/><rect x="495" y="515" width="90" height="40" transform="translate(1080 1070) rotate(-180)"/><circle class="cls-10" cx="520" cy="535" r="14"/><circle class="cls-10" cx="560" cy="535" r="14"/><rect class="cls-12" x="591" y="515" width="24" height="40" transform="translate(1206 1070) rotate(-180)"/><rect class="cls-13" x="591" y="537" width="12" height="18" transform="translate(1194 1092) rotate(-180)"/><rect class="cls-11" x="40" y="600" width="60" height="40"/><rect class="cls-11" x="540" y="600" width="60" height="40"/><line class="cls-7" x1="310" y1="345" x2="310" y2="165"/><line class="cls-7" x1="330" y1="345" x2="330" y2="165"/><polyline class="cls-8" points="450 399 330 255 340 255 460 399"/><rect class="cls-11" x="175" y="394" width="20" height="10" rx="5"/><polyline class="cls-8" points="190 399 310 255 300 255 180 399"/><path class="cls-1" d="M309.76,558.09a1.4,1.4,0,0,1-1,1.53c-.31.09-.62.17-.94.23a.29.29,0,0,1-.33-.18l-.33-.83c-.12-.28-.06-.43.19-.46l.66-.1c.25,0,.37-.24.37-.62v-7.17h-1.17l-.47,1.83h1.36c.19,0,.28.11.28.33v.86c0,.17-.09.25-.28.25h-2.72v2.69h1.08v-1.92a.3.3,0,0,1,.33-.34h.8c.18,0,.28.12.28.34v2.89c0,.32-.17.48-.52.48h-5.39q-.42,0-.42-.48v-2.89c0-.22.12-.34.37-.34h.75c.19,0,.29.12.29.34v1.92h1v-2.69h-2.68c-.18,0-.28-.08-.28-.25v-.86c0-.22.1-.33.28-.33h1.27l-.52-1.83h-1v8.88c0,.23-.12.34-.37.34h-.68c-.24,0-.35-.11-.35-.34v-10c0-.25.14-.38.42-.38h9.37a.34.34,0,0,1,.38.38Zm-6.19-7.6.42,1.83h1.27l.47-1.83Z"/><path class="cls-1" d="M317.2,548.94c.16,0,.25.14.25.42v8.44H320a.21.21,0,0,0,.24-.23v-6.33c0-.25.1-.38.3-.38h1c.16,0,.24.13.24.38v7.5c0,.47-.26.7-.79.7h-8.72c-.53,0-.8-.22-.8-.65v-7.55c0-.25.1-.38.29-.38h1c.19,0,.29.13.29.38v6.33c0,.15.1.23.29.23h2.51v-8.44q0-.42.33-.42Z"/><path class="cls-1" d="M326.58,549.89l.57-.52a9.93,9.93,0,0,1,1.31-.37v-.09H330l1.12.27a3.54,3.54,0,0,1,1.41,1l.46.87v.89l-1.4,2.14a24.59,24.59,0,0,0-2.9,2.91v.44H333v1.78h-6.46l-.28-.23V557.7c.1,0,.37-.44.84-1.33,2.5-2.24,3.76-3.55,3.76-3.9a2.56,2.56,0,0,1,.27-.67v-.66a1.86,1.86,0,0,0-1.3-.8H329l-.94.36h-.19l-1.11-.45-.2-.18Z"/><path class="cls-1" d="M334.38,549.89l.57-.52a9.93,9.93,0,0,1,1.31-.37v-.09h1.49l1.13.27a3.54,3.54,0,0,1,1.41,1l.46.87v.89l-1.4,2.14a24.59,24.59,0,0,0-2.9,2.91v.44h4.3v1.78h-6.46L334,559V557.7c.1,0,.37-.44.84-1.33,2.5-2.24,3.76-3.55,3.76-3.9a2.56,2.56,0,0,1,.27-.67v-.66a1.86,1.86,0,0,0-1.3-.8h-.76l-.94.36h-.19l-1.11-.45-.2-.18Z"/><path class="cls-1" d="M279.39,581.32a1,1,0,0,1-.47-.05l-.27-.15a1,1,0,0,1-.26-.25c-.08-.11-.16-.24-.25-.39a1.84,1.84,0,0,1-.21-.65c.05-.12.11-.16.19-.12a2.67,2.67,0,0,0,.77.25.8.8,0,0,0,.33-.08.54.54,0,0,0,.21-.17c.05-.06.12-.19.24-.38a3.8,3.8,0,0,0,.48-1.4c0-.21,0-.4,0-.58a1.83,1.83,0,0,0,0-.44.59.59,0,0,0-.19-.28.44.44,0,0,0-.34-.08,4,4,0,0,0-.44.11l-.41.14a.85.85,0,0,0-.34.36,5.3,5.3,0,0,0-.3.57c-.08.17-.15.35-.22.54s-.18.52-.37,1a5.94,5.94,0,0,1-.66,1.23l-.2.17a.4.4,0,0,1-.27.08,1.2,1.2,0,0,1-.28,0,.53.53,0,0,1-.2-.09.62.62,0,0,1-.16-.24,1.07,1.07,0,0,1-.09-.34.52.52,0,0,1,.05-.31,2,2,0,0,1,.26-.4,5.42,5.42,0,0,0,.52-.78,10.89,10.89,0,0,0,.68-1.53.24.24,0,0,0,0-.17c0-.07-.17-.18-.46-.31a1.37,1.37,0,0,1-.58-.41.56.56,0,0,1-.14-.33c0-.14.1-.19.25-.15a5.86,5.86,0,0,0,.84.08l.28-.05a.56.56,0,0,0,.27-.24,1,1,0,0,0,.17-.4c0-.14,0-.28.06-.44a2.23,2.23,0,0,0,0-.44,1.26,1.26,0,0,0-.13-.42,1.59,1.59,0,0,1-.14-.37.37.37,0,0,1,0-.21c0-.07.12-.13.28-.17l.28.06a1,1,0,0,1,.22.16c.07.06.15.15.25.25a3.45,3.45,0,0,1,.46.47.67.67,0,0,1,.21.55,1.34,1.34,0,0,1-.12.37,1.72,1.72,0,0,0-.14.39c0,.15.13.21.47.19l.12,0H280a1.29,1.29,0,0,1,.31.08,1.35,1.35,0,0,1,.33.22,2.1,2.1,0,0,1,.26.28c.07.09.15.23.27.42a1.79,1.79,0,0,1,.2.74,5,5,0,0,1-.3,1.73,9.27,9.27,0,0,1-.53,1.28,6.47,6.47,0,0,1-.48.83A1,1,0,0,1,279.39,581.32Zm4.25-5.22a1.06,1.06,0,0,0-.28-.06l-.32,0h-.26a.22.22,0,0,1-.19-.13c0-.07,0-.16.08-.26a.3.3,0,0,0,.09-.29.89.89,0,0,0-.28-.31c-.16-.12-.31-.25-.47-.39a1.47,1.47,0,0,1-.31-.33.42.42,0,0,1-.08-.18.19.19,0,0,1,.06-.13l.19-.09h.5a2.51,2.51,0,0,1,.49.1,1.74,1.74,0,0,1,.43.18l.35.24a1.76,1.76,0,0,1,.28.25,2.24,2.24,0,0,1,.22.34,2.45,2.45,0,0,1,.15.38,1.7,1.7,0,0,1,.07.34.53.53,0,0,1,0,.3c0,.07-.13.12-.29.14A1.49,1.49,0,0,1,283.64,576.1Z"/><path class="cls-1" d="M292.72,590.4a10.16,10.16,0,0,1-4-1.85.51.51,0,0,1-.13-.5l2.34-2.37a.37.37,0,0,1,.5,0,4.33,4.33,0,0,0,2.35,1,5.51,5.51,0,0,0,2.19-.26,3,3,0,0,0,2-1.6,4.86,4.86,0,0,0,.57-3,5.24,5.24,0,0,0-.81-2.27,9.19,9.19,0,0,0-.92-1.15,14,14,0,0,0-1.94-1.32v-4.34a23,23,0,0,0,2.1-1.08,2.89,2.89,0,0,0,1.25-1.15,3.43,3.43,0,0,0,.21-1.43,2.49,2.49,0,0,0-1.68-1.78,5.37,5.37,0,0,0-2.93-.4,7.48,7.48,0,0,0-3,1.25c-.13.06-.22,0-.28-.13l-1.85-2.5c0-.06,0-.11,0-.16a10.49,10.49,0,0,1,3.42-1.68,8,8,0,0,1,3.58-.24,11.26,11.26,0,0,1,2.93.89,5.67,5.67,0,0,1,2,1.53,6.68,6.68,0,0,1,1.1,1.94,7.18,7.18,0,0,1,.34,2.25,5.34,5.34,0,0,1-.78,2.52,15.88,15.88,0,0,1-2.5,2.33,14.12,14.12,0,0,1,2.83,4.4,10,10,0,0,1,.45,4.81,9.17,9.17,0,0,1-1,2.65,7.45,7.45,0,0,1-1.91,2.2,6.73,6.73,0,0,1-3,1.31A11.78,11.78,0,0,1,292.72,590.4Z"/><path class="cls-1" d="M307.28,590.49a.52.52,0,0,1-.5-.44v-3.47a2.27,2.27,0,0,1,.19-.68,91.07,91.07,0,0,1,5-8.16q2.8-4.12,3.73-5.72a4.52,4.52,0,0,0,.67-3.06c-.44-1.29-1.49-1.9-3.15-1.81a5.36,5.36,0,0,0-3.72,2c-.15.12-.27.12-.38,0L306.93,567a.46.46,0,0,1,0-.62,8.68,8.68,0,0,1,3.43-2.36,9.7,9.7,0,0,1,3.84-.74,5.3,5.3,0,0,1,2.87.8,12,12,0,0,1,1.9,1.58,7.32,7.32,0,0,1,1.2,2.36,4.82,4.82,0,0,1,.17,2.26,10.94,10.94,0,0,1-1.09,2.8c-.61,1.18-1.71,3-3.32,5.5s-3.12,5.06-4.56,7.7c0,.25,0,.38.25.38h8.25a.77.77,0,0,1,.6.5v2.9a.78.78,0,0,1-.6.44Z"/><path class="cls-1" d="M323.78,578.43v-2.78a.33.33,0,0,1,.37-.38h4.53a.34.34,0,0,1,.38.38v2.78a.33.33,0,0,1-.38.37h-4.53A.32.32,0,0,1,323.78,578.43Z"/><path class="cls-1" d="M340.75,590.49h-3.13c-.31,0-.47-.14-.47-.44V564c0-.35.16-.53.47-.53h3.13a.47.47,0,0,1,.53.53v26.06C341.28,590.35,341.1,590.49,340.75,590.49Z"/><path class="cls-1" d="M354.59,590.4a10.16,10.16,0,0,1-4-1.85.51.51,0,0,1-.12-.5l2.34-2.37a.37.37,0,0,1,.5,0,4.28,4.28,0,0,0,2.34,1,5.51,5.51,0,0,0,2.19-.26,2.94,2.94,0,0,0,2-1.6,4.87,4.87,0,0,0,.58-3,5.51,5.51,0,0,0-.81-2.27,10,10,0,0,0-.93-1.15,13,13,0,0,0-1.93-1.32v-4.34a22.83,22.83,0,0,0,2.09-1.08,2.83,2.83,0,0,0,1.25-1.15,3.26,3.26,0,0,0,.22-1.43,2.52,2.52,0,0,0-1.69-1.78,5.33,5.33,0,0,0-2.92-.4,7.51,7.51,0,0,0-3,1.25c-.12.06-.21,0-.28-.13l-1.84-2.5a.11.11,0,0,1,0-.16,10.49,10.49,0,0,1,3.42-1.68,8,8,0,0,1,3.58-.24,11.22,11.22,0,0,1,2.94.89,5.76,5.76,0,0,1,2,1.53,6.64,6.64,0,0,1,1.09,1.94,6.9,6.9,0,0,1,.34,2.25,5.13,5.13,0,0,1-.78,2.52,15.43,15.43,0,0,1-2.5,2.33,13.76,13.76,0,0,1,2.83,4.4,10,10,0,0,1,.45,4.81,9.14,9.14,0,0,1-1,2.65,7.6,7.6,0,0,1-1.91,2.2,6.72,6.72,0,0,1-3,1.31A11.77,11.77,0,0,1,354.59,590.4Z"/><rect class="cls-14" x="140" y="15" width="360" height="75" rx="8"/><rect class="cls-1" x="162" y="23" width="80" height="64" rx="4"/><path class="cls-14" d="M188.13,36.83c.29,0,1.19,0,1.19,1.4s-.88,1.4-1.19,1.4h-7a14.14,14.14,0,0,0,5.29,8.6,13.36,13.36,0,0,0,2.42,1.4,1.46,1.46,0,0,1,1.07,1.51c0,.84-.49,1.82-1.28,1.82s-3-1.23-5.22-3.61a16.81,16.81,0,0,1-4-6.55c-2.26,7.28-8.49,10.13-9.16,10.13S169,52,169,51.11a1.43,1.43,0,0,1,.83-1.34c2.78-1.62,3.12-1.82,4.28-3a13.7,13.7,0,0,0,3.59-7.14h-6.93c-.29,0-1.18,0-1.18-1.4s.78-1.4,1.18-1.4H178c0-.81,0-1.2,0-1.84V30.56h-7.88c-.27,0-1.17,0-1.17-1.37s.83-1.4,1.17-1.4h18.64c.29,0,1.18,0,1.18,1.34s-.85,1.43-1.18,1.43h-8.31V35c0,.58,0,.92-.05,1.84Z"/><path class="cls-14" d="M192.63,34.59c.47,0,1.44.82,2,1.32,1,.9,1.43,1.23,1.43,1.85s-.4,1.59-1.12,1.59c-.31,0-.42-.08-1.43-1-.27-.23-1.61-1.38-1.7-1.43a1.11,1.11,0,0,1-.27-.9C191.56,35.63,191.87,34.59,192.63,34.59Zm3.72,8.82a35.83,35.83,0,0,1-1.5,5.6c-1.23,3.7-1.45,3.7-1.92,3.7a1.33,1.33,0,0,1-1.3-1.34c0-.4.06-.56.62-1.94a49.16,49.16,0,0,0,2-6.24c.13-.48.29-1,1-1A1.18,1.18,0,0,1,196.35,43.41ZM199.94,29V27.9A1,1,0,0,1,201,26.81c.65,0,1.14.22,1.14,1.12V29h4.66V27.93a1,1,0,0,1,1.1-1.12A1,1,0,0,1,209,27.93V29h2.44c.27,0,1,0,1.05,1.23s-.78,1.24-1.05,1.24l-2.44,0V34h2.26c.29,0,1,0,1,1.2s-.72,1.24-1,1.24h-5.85v2h3.81c1.55,0,2.26.67,2.26,2.82V50c0,2.86-.76,2.92-3,2.92-1.16,0-1.41,0-1.63-.17a1.56,1.56,0,0,1-.52-1.26c0-1.32.85-1.32,1.08-1.32s1.23,0,1.43,0c.52-.08.56-.67.56-1.09V41.62c0-.53-.2-.87-.69-.87H205.4v6.16h.85c.34,0,.52-.19.52-.61V42.77c0-.42,0-1,.76-1s.78.5.78,1v3.64c0,2.27-.38,2.91-2.3,2.91h-3.09c-1.91,0-2.31-.61-2.31-2.91V42.77c0-.5.07-1,.76-1s.81.42.81,1V46.3c0,.45.2.61.51.61h.87V40.75h-3.33c-.52,0-.72.34-.72.87V51.84c0,.37,0,1.32-1,1.32s-1.05-.95-1.05-1.32V41.17c0-2.15.72-2.82,2.26-2.82h3.81v-2h-5.64c-.27,0-1.06,0-1.06-1.21s.79-1.23,1.06-1.23h2.06V31.46h-2.36a.84.84,0,0,1-1-.62c-.22.73-.67,1.09-1,1.09s-.4-.14-1.5-1.06c-.27-.22-1.43-1.12-1.66-1.34a1.12,1.12,0,0,1-.31-.84c0-.73.45-1.52,1.14-1.52a6.6,6.6,0,0,1,2.15,1.38,5.19,5.19,0,0,1,1.19,1.2.86.86,0,0,1,1-.73Zm6.85,2.44h-4.66V34h4.66Z"/><path class="cls-14" d="M230.94,38.07a24.52,24.52,0,0,1,1.43,2c1.08,1.65,1.41,2.16,1.41,2.8a1.28,1.28,0,0,1-1.18,1.34c-.54,0-.83-.36-1.5-1.51-1,.11-1.62.17-4,.31v2.13h5.64c.4,0,1,0,1,1.2s-.7,1.21-1,1.21h-5.64v2.49h6.56c.31,0,1,0,1,1.2s-.74,1.21-1,1.21h-15.3c-.31,0-1,0-1-1.24s.76-1.17,1-1.17h6.41V47.59H219.4c-.45,0-1-.09-1-1.21s.64-1.2,1-1.2h5.36v-2c-.68,0-4.57.17-5,.17-.72,0-1.39,0-1.39-1.26s.52-1.21,2.22-1.26a18.51,18.51,0,0,0,1.28-2.77h-4v.44a60.17,60.17,0,0,1-1,11.09c-.56,2.86-1.05,3.19-1.61,3.19a1.42,1.42,0,0,1-1.39-1.51,2.6,2.6,0,0,1,.11-.7l.63-2.41a52.22,52.22,0,0,0,.94-9.66v-8c0-2.29.43-2.88,2.31-2.88H231.3c1.81,0,2.21.56,2.21,2.74v1.18c0,2.24-.47,2.74-2.21,2.74H217.86v1.43h15.81c.38,0,1,.09,1,1.18s-.74,1.15-1,1.15Zm-13.08-6h12.88c.27,0,.47-.12.47-.59v-.87c0-.39-.14-.62-.47-.62H218.48c-.38,0-.62.23-.62.79Zm6.54,6a21.82,21.82,0,0,1-1.21,2.74c3.16-.06,3.49-.06,6.58-.25-.11-.17-.6-.81-.69-1a2,2,0,0,1-.45-1.15.8.8,0,0,1,.07-.39Z"/><path class="cls-14" d="M183.08,78.71c0,2.82-.69,3.69-2.22,3.69h-8.13c-1.53,0-2.22-.87-2.22-3.69V61.85c0-2.74.64-3.7,2.22-3.7h8.13c1.57,0,2.22.93,2.22,3.7Zm-1.86-10V62.44c0-1-.32-1.43-.86-1.43h-7.14c-.45,0-.86.31-.86,1.43v6.24Zm-8.86,2.83v6.64c0,1,.35,1.42.86,1.42h7.14c.55,0,.86-.47.86-1.42V71.51Z"/><path class="cls-14" d="M196.39,80.3c0,2.66-.91,2.66-2.37,2.66a10.19,10.19,0,0,1-1.3-.08c-.6-.17-.67-1.15-.67-1.6,0-1,.34-1.45.84-1.45l1.16,0c.42,0,.62-.25.62-.95V68.57h-1.85c0,5.12-.43,9.21-2.62,12.49-.62.92-1.63,2-2.25,2s-.85-.92-.85-1.65a1.56,1.56,0,0,1,.67-1.37c2.3-2.07,3.29-4.87,3.29-11.51h-4.47c-.22,0-.87,0-.87-1.37s.64-1.4.87-1.4h6.07V62.55h-5.09c-.21,0-.88,0-.88-1.37s.67-1.4.88-1.4h5.09v-1.6c0-.42,0-1.45.87-1.45s1,.47,1,1.45v1.6h5.16c.22,0,.89,0,.89,1.37s-.66,1.4-.89,1.4h-5.16V65.8h6c.27,0,.93,0,.93,1.37s-.66,1.4-.89,1.4h-4.2Zm-6.89-9.15a26.1,26.1,0,0,1-1.5,5.71c-.72,1.9-1,2-1.22,2s-.91-.62-.91-1.46c0-.42,0-.45.59-1.82a25.45,25.45,0,0,0,1.41-4.73c0-.22.2-.9.67-.9A1.14,1.14,0,0,1,189.5,71.15Zm9.64-.26a43.35,43.35,0,0,0,1.6,5.94c.57,1.54.58,1.6.58,1.93a1.35,1.35,0,0,1-1,1.46c-.37,0-.59-.28-1.18-2a35.6,35.6,0,0,1-1.66-7.08c0-.7.32-1.24,1-1.24C199,69.91,199.07,70.53,199.14,70.89Z"/><path class="cls-14" d="M205,62.33c0-2.36.54-3.14,1.87-3.14h3.39V58c0-.89.29-1.2.91-1.2s.94.17.94,1.2v1.18h5.27c.22,0,.83,0,.83,1.23,0,1-.24,1.35-.83,1.35H207.27c-.44,0-.67.33-.67,1.12v6.74A36.52,36.52,0,0,1,205,81c-.67,1.82-.9,1.88-1.19,1.88-.45,0-1-.59-1-1.49a2.54,2.54,0,0,1,.26-1.06,23.74,23.74,0,0,0,1.71-7.17c-.42.42-1.4,1.4-1.77,1.4-.63,0-.73-1.31-.73-1.68,0-.81.11-.87,1.17-1.62.72-.51,1.45-1.18,1.5-1.21s0-.72,0-.89V66.5c-.15.67-.6,1-.89,1s-.5-.31-.77-1.51c-.15-.65-.32-1.26-.65-2.49a3.21,3.21,0,0,1-.16-.84c0-.7.46-1.21.86-1.21s.57.48.77,1.21c.29,1,.71,2.4.84,3.16Zm8.3,8.79A12.3,12.3,0,0,0,215,75.74c.71,1,.79,1.15.79,1.65,0,.67-.4,1.2-.8,1.2s-1.8-2.12-2.64-4.92a13.65,13.65,0,0,1-1.4,3.89c-.73,1.26-.9,1.26-1.07,1.26-.35,0-.76-.59-.82-1.26v4.11c0,1.12-.31,1.43-.88,1.43-.77,0-.77-1.06-.77-1.43v-10c0-2.13.52-2.83,1.7-2.83h2.4c.05-.87.07-2,.07-2.43h-3.85c-.56,0-.86-.34-.86-1.26,0-1.18.56-1.24.86-1.24h9.54c.47,0,.84.28.84,1.26,0,1.21-.6,1.24-.84,1.24h-4.1c0,.86-.08,2.29-.1,2.43h2.76c1.14,0,1.69.65,1.69,2.83V80c0,2.91-.5,2.91-2.5,2.91-.86,0-1.38,0-1.38-1.26,0-.78.27-1.2.66-1.2l1,0c.28,0,.57-.06.57-1V72c0-.61-.19-.89-.52-.89Zm-4.16,6.19a1.42,1.42,0,0,1,.3-.79,10.79,10.79,0,0,0,2-5.4h-1.75c-.38,0-.53.33-.53.89Z"/><path class="cls-14" d="M225.45,72.29a.68.68,0,0,1-.72-.47c0,.25.08.87.08,1.51,0,4.06-1.36,4.06-2.1,4.06-.49,0-1.14,0-1.14-1.57,0-1.26.38-1.29.86-1.31s.73-.2.73-1.82a13.57,13.57,0,0,0-.79-4.46,5.58,5.58,0,0,1-.42-1.56c0-.65,1.1-4.88,1.1-5.83,0-.56-.26-.56-.39-.56h-.81c-.32,0-.47.28-.47.79V81.76c0,1-.23,1.43-.85,1.43-.79,0-.79-1.07-.79-1.43V60.45c0-2.38.35-2.91,1.74-2.91h1.35c.94,0,1.78,0,1.78,2.13a14.72,14.72,0,0,1-.4,3.16c-.12.59-.86,3.58-.86,3.72s0,.28.29.9a14.66,14.66,0,0,1,1,3.33c.09-1.06.54-1.12.86-1.12h8.74c.21,0,.85,0,.85,1.32s-.64,1.31-.85,1.31h-2.51v7.06c0,.87.24.87.84.87.83,0,.86,0,.94-1.46.1-1.79.12-2.21.74-2.21.79,0,.79.92.79,1.37a14.6,14.6,0,0,1-.55,4.34c-.32.67-.84.67-2,.67-1.85,0-2.4,0-2.4-2.91V72.29h-1.35c-.05,3.08-.25,5.63-1.29,7.76s-2.44,3-2.88,3-.8-.84-.8-1.6a1.32,1.32,0,0,1,.65-1.23c2-1.65,2.61-3,2.71-7.93Zm1.56-5c-.2,0-.77,0-.77-1.26a2.49,2.49,0,0,1,0-.58.7.7,0,0,1-.62.42c-.79,0-.84-.9-.84-1.46V62.3c0-2.16.53-2.83,1.69-2.83h2.39V58c0-.25,0-1.23.82-1.23.61,0,.86.47.86,1.23v1.51h2.34c1.14,0,1.69.67,1.69,2.83v2.07c0,.36,0,1.43-.79,1.43a.83.83,0,0,1-.57-.2c0,.17.2,1.65-.75,1.65Zm5.5-2.52a.52.52,0,0,1,.48.17c0-.17,0-.28,0-.53V62.86c0-.51-.15-.79-.45-.79h-5.58c-.27,0-.46.23-.46.79v1.51a3.52,3.52,0,0,1-.05.7c.1-.2.19-.34.59-.34Z"/><path class="cls-1" d="M260.47,77.41c0,2-.07,4.67-.9,6.07-.61,1-1.17,1.09-3.67,1.09-1.75,0-2.6,0-2.6-3.64,0-3.27.94-3.27,1.33-3.27.17,0,2,.19,2.17.19.39,0,1,0,1-2.62V63.9h-8.93c-.36,0-1.21-.06-1.21-3.13,0-2.24.41-3.14,1.21-3.14h8.93v-9h-5.64c-.34,0-1.1-.06-1.1-3.07,0-2.82.63-3.07,1.1-3.07h14c.32,0,1.12.06,1.12,3.07s-.68,3.07-1.12,3.07h-5.69v9h9c.35,0,1.25.06,1.25,3.14,0,2.43-.56,3.13-1.25,3.13h-9Zm6.81-46.66c1.82,0,2.7,1.6,2.7,7.11v6.27c0,1.21,0,3.33-1.24,3.33s-1.34-1.54-1.34-3.33V39.07c0-1.6-.29-2.49-.95-2.49H251.81c-.66,0-.95.89-.95,2.49v5.12c0,1.41-.09,3.33-1.24,3.33s-1.34-1-1.34-3.33V37.86c0-5.51.88-7.11,2.73-7.11h6.78v-3c0-1.92.44-2.76,1.25-2.76s1.45.45,1.45,2.76v3Z"/><path class="cls-1" d="M279.59,61.28h3.5c.34,0,1.26,0,1.26,3.13,0,2.82-.82,3-1.26,3h-3.5v6.72a22.15,22.15,0,0,0,3.21-.89,2.81,2.81,0,0,1,.73-.13c.8,0,1.07,1.34,1.07,3.13,0,2.76-.64,3-2.19,3.52a82,82,0,0,1-9.1,2.18c-.68,0-1.19-.9-1.19-3.39,0-3,.8-3.07,1.58-3.2,1.26-.19,1.34-.19,3.55-.64v-7.3h-3.48c-.26,0-1.24,0-1.24-2.94,0-2.43.49-3.2,1.24-3.2h3.48V56h-1.92c-1.63,0-2.46-1.47-2.46-6.47V33.63c0-5,.83-6.4,2.46-6.4h6.23c1.63,0,2.45,1.41,2.45,6.4V49.5c0,5-.8,6.47-2.45,6.47h-2ZM275,39.14h2.29V32.93h-1.6c-.42,0-.69.51-.69,1.79Zm0,4.73v4.74c0,1.15.22,1.79.69,1.79h1.6V43.87Zm7-4.73V34.72c0-1.28-.24-1.79-.65-1.79h-1.7v6.21Zm0,4.73h-2.35V50.4h1.7c.41,0,.65-.51.65-1.79ZM289.27,48c-1-2.43-2.24-4.73-2.49-5.25-.92-1.72-1.16-2.11-1.16-3.45,0-1.67.63-3.07,1.21-3.07.22,0,.49.19.95,1,.34.57.76,1.28,1.63,3,.44-1.21,1.95-5.24,1.95-6.4,0-.83-.37-.83-.54-.83h-4.89c-.48,0-1.12-.25-1.12-2.88,0-2.81.76-2.88,1.12-2.88h6.13c1,0,2.17.32,2.17,4.35a19.31,19.31,0,0,1-1.15,6.34c-.58,1.86-1,2.94-2,5.63a6.36,6.36,0,0,1,.9,3.27,5.68,5.68,0,0,1-.13,1.21h.51c1,0,2.44,0,2.44,4.74a67.22,67.22,0,0,1-.61,7.61c-.71,5.7-.9,6.21-1.51,6.21s-1.22-.7-1.22-2.37c0-1.41,1.15-7.49,1.15-9,0-1-.44-1-.66-1H290.6v23c0,7.11-1,7.3-3.47,7.3-1.29,0-1.44,0-1.8-.32-.61-.58-.78-2-.78-3.39,0-3,.85-3.07,1.14-3.07l1.44.06c.58,0,1.07-.26,1.07-2.69V54.17h-2.83c-.43,0-1.14-.12-1.14-3.07S285,48,285.37,48Z"/><path class="cls-1" d="M298.41,66.33c0,.39-.2,7-.66,12-.12,1.47-.24,2.43-.78,2.43s-.82-.83-.82-1.73.34-3.84.41-4.48c.2-2.82.29-5,.44-8.38.07-1.6.39-1.67.8-1.67C298.41,64.54,298.41,66,298.41,66.33Zm5.52-28.92h1.87c.27,0,1.07.06,1.07,2.37,0,1.79-.48,2.36-1.07,2.36h-1.87v4.55h1.85c.24,0,1.09,0,1.09,2.49s-.85,2.5-1.09,2.5h-1.85V56.8h.92c1.32,0,2.17.58,2.17,4.8,0,.7-.1,11.33-.73,17.15-.56,5.25-1.29,5.76-3.38,5.76-.51,0-1.66,0-2-.45-.51-.58-.56-2.43-.56-2.81,0-3,.75-3,1.48-3a9.88,9.88,0,0,0,1.44,0c.7-.13,1-2,1.24-5.18.14-2.11.31-7.43.31-9.41,0-1.6-.46-1.6-.75-1.6h-4.43c-2,0-2.5-1.34-2.5-6.65v-22c0-5.31.48-6.59,2.5-6.59h6.47c.44,0,1.12.13,1.12,2.82,0,2.49-.56,2.81-1.12,2.81h-2.21Zm-3.67,28.8c.07,2,.14,6.4.14,8.89,0,1.73,0,2.82-.73,2.82s-.6-1-.6-1.54,0-3.9,0-4.61c0-.89,0-4.8,0-5.56s0-1.54.58-1.54S300.21,65.25,300.26,66.21Zm1.63-28.8V32.54H300c-.56,0-.68.9-.68,1.8v3.07Zm0,4.73h-2.53v4.55h2.53Zm0,9.54h-2.53V55c0,1,.12,1.79.68,1.79h1.85ZM302,67c.1,1.41.41,6.79.41,7.68,0,1.54-.56,1.54-.68,1.54-.51,0-.53-.77-.58-2.37-.08-2.43-.15-4.09-.22-5.95-.05-.64-.1-1.92-.1-2,0-1,.41-1.22.51-1.22C301.86,64.67,301.89,64.86,302,67Zm1.85-.12c.09,1,.51,4.8.51,5.5,0,1.15-.42,1.54-.68,1.54-.46,0-.54-.9-.59-1.8s-.51-6.14-.51-6.52c0-.58.2-1.16.61-1.16S303.64,64.86,303.86,66.85ZM318.52,47.2c0,6.85-1.41,7.17-3,7.17C316,67,317.4,72.73,317.75,74c1.55,5.7,1.55,5.7,1.55,6.85,0,2.17-.78,3.84-1.48,3.84-.44,0-.73-.2-1.73-4.16-2.07-8.19-2.7-18.5-2.92-26.11H311v3.52A147.72,147.72,0,0,1,309.45,81c-.53,3.26-.85,3.84-1.43,3.84s-1.44-1-1.44-3c0-1,0-1,.88-6.08a139.59,139.59,0,0,0,1.16-18.81v-23c0-5.51.9-7.1,2.7-7.1h4.48c1.92,0,2.72,1.79,2.72,7.1Zm-7.49.9h4.09c.7,0,1-1,1-2.56v-10c0-1.73-.32-2.5-1-2.5H312c-.63,0-1,.77-1,2.5Z"/><path class="cls-1" d="M328.13,55c0,3-.95,5.5-2.09,5.5S324,58,324,55s.94-5.51,2.09-5.51S328.13,51.94,328.13,55Z"/><path class="cls-1" d="M354.79,75c0,6.47-1,8.45-3.21,8.45H337c-2.16,0-3.21-1.86-3.21-8.45V35.81c0-6.53,1-8.45,3.21-8.45h14.6c2.21,0,3.21,2,3.21,8.45ZM352.3,36.9c0-2.18-.43-3.27-1.24-3.27H337.49c-.82,0-1.24,1.15-1.24,3.27v37c0,2,.39,3.26,1.24,3.26h13.57c.83,0,1.24-1.22,1.24-3.26Zm-7.07,14.65h4.57c.39,0,1.12.07,1.12,2.75,0,2.5-.56,2.75-1.12,2.75h-4.57V67.36h5.15c.42,0,1.2,0,1.2,2.81s-.78,2.88-1.2,2.88H338.17c-.39,0-1.19,0-1.19-2.81s.78-2.88,1.19-2.88h4.65V57.05h-4c-.32,0-1.14,0-1.14-2.55,0-2.18.36-3,1.14-3h4V43.42h-4.31c-.36,0-1.16,0-1.16-2.75,0-2.43.56-3,1.16-3h11.65c.76,0,1.17,1,1.17,2.88,0,2.76-.66,2.88-1.17,2.88h-4.93Zm3.62,9.09a18.86,18.86,0,0,1,.78,4.09c0,1.48-.75,2-1.07,2-.51,0-.61-.39-1-2.31-.34-1.6-.39-1.79-.78-3.39a5.68,5.68,0,0,1-.19-1.34c0-1.28.61-1.92,1-1.92S348.12,57.89,348.85,60.64Z"/><path class="cls-1" d="M378.86,77.28c.9,0,1.19,1.47,1.19,3,0,1.92-.34,3.32-1.26,3.32H368.21c-4.55,0-5.89-4.73-6.47-6.84a46.21,46.21,0,0,1-2.14,6.46c-.46,1.15-.78,1.21-1,1.21-.78,0-1.44-2-1.44-4,0-1.4,0-1.53,1.46-4.73.61-1.35,1.05-2.5,1.31-3.27V57.82c0-.57,0-2-.65-2h-.9c-.83,0-1.15-1.27-1.15-3.13,0-2.43.49-3.14,1.27-3.14h1.39c2,0,2.5,1.28,2.5,6.59V67.61c.29,8.52,3.77,9.67,5.57,9.67ZM361.35,30.69c.37.89,1.19,3.13,1.46,4.09a6.51,6.51,0,0,1,.24,1.73c0,2-.65,3.71-1.41,3.71-.51,0-.7-.64-1.43-2.75-.42-1.15-1.17-3.2-2.14-5.76a5.55,5.55,0,0,1-.44-2.17c0-1.22.41-3.52,1.39-3.52C359.58,26,360.67,28.9,361.35,30.69ZM375.9,41.44c1.75,0,2.45,1.73,2.45,6.46v19c0,4.74-.7,6.46-2.45,6.46h-8.71c-1.68,0-2.43-1.6-2.43-6.46v-19c0-4.86.73-6.46,2.43-6.46h2.14c.1-.64.31-2.18.48-3.78h-5.42c-.34,0-1.12-.06-1.12-2.81,0-2.56.61-2.88,1.12-2.88h2.7c-.17-.77-.46-2.11-.66-3a6.23,6.23,0,0,1-.22-1.47c0-1.28.54-2.43,1.42-2.43s.9.7,1.16,1.79c.56,2.43.85,3.9,1,5.12h3.26c.22-1.15.53-2.75.83-4.8.14-1,.31-2.24,1.24-2.24.53,0,1.38.64,1.38,2.49A23.45,23.45,0,0,1,375.8,32h3c.32,0,1.15,0,1.15,2.81s-.76,2.88-1.15,2.88h-6.39c-.1.77-.25,2-.56,3.78Zm0,9.22v-2.5c0-1.15-.22-1.79-.66-1.79H368c-.47,0-.68.64-.68,1.79v2.5Zm0,4.54h-8.56v4h8.56Zm0,8.57h-8.56v2.56c0,1.22.24,1.8.68,1.8h7.22c.41,0,.66-.52.66-1.8Z"/><path class="cls-1" d="M399.75,31.14c2.27,0,2.61,2.94,2.61,6,0,2.17-.51,16.83-4.09,28.41-3.89,12.61-10.12,16.19-11.14,16.19-1.34,0-1.39-3.71-1.39-4,0-2.31.78-2.88,1.68-3.46,6.71-4.54,9.71-15.1,10.8-22.53a102.52,102.52,0,0,0,1.1-11.58c0-1.92-.54-1.92-.9-1.92h-14c-.32,0-1.37,0-1.37-3.52,0-3.33.9-3.58,1.37-3.58Z"/><path class="cls-1" d="M424.68,72.8c.29,0,1.29,0,1.29,3.26,0,2.88-.75,3.27-1.29,3.27H409.85c-.32,0-1.32,0-1.32-3.2,0-2.63.63-3.33,1.32-3.33h6.08v-25h-5c-.29,0-1.31,0-1.31-3.2,0-3,.82-3.26,1.31-3.26h12.65c.29,0,1.31,0,1.31,3.2,0,3-.8,3.26-1.31,3.26h-5.06v25Z"/><path class="cls-1" d="M436.65,60.64c0,1.47-.12,3.52-1.41,3.52-1,0-1.46-1-1.46-3.52v-29c0-1.54.14-3.52,1.43-3.52,1,0,1.44,1,1.44,3.52Zm12.64-5c0,6.2-.19,19.13-7.24,24.76a9,9,0,0,1-5.23,2.11c-.27,0-1.56,0-1.56-3.71,0-2.94.63-3.07,2.41-3.52,4.11-1,6.1-3.32,7.42-7.74a39.2,39.2,0,0,0,1.33-11.65v-25c0-1.41.1-3.58,1.41-3.58,1.05,0,1.46,1.21,1.46,3.58Z"/><path class="cls-1" d="M456.54,58.65c-.44,0-1.53,0-1.53-3.64s1-3.71,1.53-3.71h18.68c.44,0,1.51,0,1.51,3.64s-1,3.71-1.51,3.71Z"/><g id="layer1"><g id="path2838-7-4-1-2"><path class="cls-10" d="M320,434.75a17.18,17.18,0,0,1-16.13-11.29,8.86,8.86,0,0,0,6.55,2.9c.25,0,.51,0,.76,0a12.74,12.74,0,0,0,2.61,2A12.55,12.55,0,0,0,320,430a12.42,12.42,0,0,0,6.24-1.68l.21-.12v0a2.88,2.88,0,0,0-1.64-5.24,3,3,0,0,0-1.22.27h0l-.22.11a6.92,6.92,0,0,1-3.41.9,6.7,6.7,0,0,1-3.34-.89,5.35,5.35,0,0,1-.61-.4l-.18-.13-.15.15a7.59,7.59,0,0,1-5.1,2.15h-.21a7.65,7.65,0,0,1-7.61-7.1s0-.31,0-.35v-.18a17.22,17.22,0,0,1,17.29-17.25,16.77,16.77,0,0,1,2.92.25,8.81,8.81,0,0,0-5.82,4.23c-.13.22-.24.44-.35.66a12.6,12.6,0,0,0-9.31,12.11v.25h0a2.88,2.88,0,0,0,5.73,0h0l0-.25a6.65,6.65,0,0,1,.89-3.38,6.74,6.74,0,0,1,3.13-2.79l.24-.1-.12-.24c0-.06,0-.17-.06-.28a7.65,7.65,0,0,1,.07-3.4,7.23,7.23,0,0,1,.37-1.11l.15-.34.17-.33.1-.19a7.63,7.63,0,0,1,10.42-2.79,17.28,17.28,0,0,1,4.61,26,8.84,8.84,0,0,0-.75-7.17c-.13-.22-.27-.44-.41-.64a12.47,12.47,0,0,0-5.82-14.1l-.16-.09-.17-.07-.22-.09-.16,0-.21-.05-.19,0h-.56l-.16,0-.2,0-.18.05-.16.05-.17.06-.17.08-.13.07-.17.1-.18.12-.22.2-.18.18-.11.13-.11.14-.12.2a2.91,2.91,0,0,0-.37,1.78,2.56,2.56,0,0,0,.05.27,2.68,2.68,0,0,0,.07.27l.1.25.05.13a3.3,3.3,0,0,0,.38.59l.1.1a2.13,2.13,0,0,0,.31.29,2.31,2.31,0,0,0,.36.25,6.8,6.8,0,0,1,3.33,6.58l0,.21.2.06a7.59,7.59,0,0,1,3.54,2.17l.24.27.17.22v0l.08.07c0,.07.12.17.19.27l.2.31.11.2A7.63,7.63,0,0,1,329,432.2l-.26.16-.14.08A17.47,17.47,0,0,1,320,434.75Zm0-19.69a2.44,2.44,0,1,0,2.44,2.44A2.44,2.44,0,0,0,320,415.06Z"/><path class="cls-15" d="M320.06,400.5h0a16,16,0,0,1,1.69.09,9,9,0,0,0-4.82,4c-.1.18-.21.37-.3.57a12.65,12.65,0,0,0-7.67,5.94,12.85,12.85,0,0,0-1.72,6.38v.5h0a3.12,3.12,0,0,0,6.17,0h.06v-.5a6.4,6.4,0,0,1,3.87-5.94l.38-.17-.1-.41c0-.11-.05-.22-.07-.33a7.27,7.27,0,0,1,.06-3.28,8,8,0,0,1,.36-1.08l.15-.32c.05-.11.1-.21.16-.32l0-.06.06-.12a7.38,7.38,0,0,1,10.08-2.7A17,17,0,0,1,334.73,426a15.43,15.43,0,0,1-1,1.47,9.09,9.09,0,0,0-1.06-6.19q-.16-.29-.36-.57a12.72,12.72,0,0,0-6-14.27l-.17-.09-.06,0-.12-.05,0,0h0l-.2-.07-.16-.05h-.06l-.18,0-.23,0h-.81l-.17,0-.17,0h-.05l-.13,0,0,0h0l-.17.06-.2.1-.11.06-.06,0-.11.07,0,0h0l-.17.12-.12.1,0,0h0l-.1.09,0,0h0l-.14.16-.1.12,0,0a.76.76,0,0,1-.08.11l0,0h0c0,.05-.07.1-.1.16a3.1,3.1,0,0,0-.4,1.93c0,.1,0,.2.05.29s.05.2.08.29,0,.1.05.14l.06.14.06.14a3.31,3.31,0,0,0,.41.64l.1.11c.11.11.22.22.34.32a3.51,3.51,0,0,0,.4.27,6.53,6.53,0,0,1,3.2,6.34l0,.42.41.11a7.33,7.33,0,0,1,3.42,2.1c.08.09.16.17.23.26a3,3,0,0,1,.22.28l0,0,.19.26c.07.1.13.2.19.3l0,0h0l0,0,.08.13a7.38,7.38,0,0,1-2.33,9.85l-.08.05-.3.17A17.17,17.17,0,0,1,320,434.5a16.94,16.94,0,0,1-15.46-10,9.09,9.09,0,0,0,5.88,2.15q.33,0,.66,0a13.42,13.42,0,0,0,2.59,2,12.72,12.72,0,0,0,12.76,0l.42-.26,0,0a3.12,3.12,0,0,0-2-5.55,3,3,0,0,0-1.11.21l0-.05-.43.25A6.62,6.62,0,0,1,320,424a6.5,6.5,0,0,1-3.22-.86c-.19-.11-.39-.24-.59-.38l-.34-.26-.3.3a7.35,7.35,0,0,1-4.93,2.08h-.21A7.4,7.4,0,0,1,303,418s0-.09,0-.14v-.37a17,17,0,0,1,17-17h0M320,420.19a2.69,2.69,0,1,0-2.68-2.69,2.69,2.69,0,0,0,2.68,2.69m.05-20.19a17.52,17.52,0,0,0-15.2,8.75,17.23,17.23,0,0,0-2.34,8.75h0c0,.1,0,.21,0,.31s0,.16,0,.24h0a7.88,7.88,0,0,0,7.86,7.33h.22a7.82,7.82,0,0,0,5.27-2.22,6.9,6.9,0,0,0,.63.42,7.05,7.05,0,0,0,7,0v0a2.62,2.62,0,1,1,2.62,4.54v0a12.36,12.36,0,0,1-14.91-2.06c-.28,0-.56,0-.85,0a8.58,8.58,0,0,1-7.22-3.94A17.43,17.43,0,0,0,320,435a17.71,17.71,0,0,0,8.79-2.34h0a2.26,2.26,0,0,0,.26-.16l.14-.08h0a7.88,7.88,0,0,0,2.48-10.51l-.12-.2h0l-.21-.32-.22-.3h0l-.23-.29c-.08-.09-.16-.19-.25-.28a7.88,7.88,0,0,0-3.65-2.24,7.08,7.08,0,0,0-3.45-6.83,2.46,2.46,0,0,1-.34-.22,2.37,2.37,0,0,1-.28-.27l-.09-.09a3.06,3.06,0,0,1-.34-.54.54.54,0,0,1,0-.11h0a.61.61,0,0,1-.05-.12.56.56,0,0,1,0-.12,2.17,2.17,0,0,1-.07-.24h0c0-.09,0-.17,0-.25a2.68,2.68,0,0,1,.33-1.62l.09-.14,0,0,.06-.09,0,0a.39.39,0,0,1,.08-.1v0l.11-.11,0,0,.08-.07,0,0a.39.39,0,0,1,.1-.08l0,0,.12-.09,0,0,.09-.06,0,0,.1-.06,0,0,.13-.06h0l.11,0,0,0,.11,0h0l.15,0h0l.12,0h.71l.16,0h0l.14,0h0l.13,0h0l.15.06,0,0,.11,0,.05,0,.14.08a12.21,12.21,0,0,1,5.68,13.93c.16.23.32.47.46.72a8.6,8.6,0,0,1,.18,8.27,17.36,17.36,0,0,0,2.71-3.55,17.55,17.55,0,0,0-6.4-23.92A7.87,7.87,0,0,0,318,405.22l-.11.19h0c-.06.12-.12.23-.17.34h0c-.06.12-.11.23-.16.35a7,7,0,0,0-.38,1.15,7.86,7.86,0,0,0-.07,3.51c0,.11.05.23.08.34h0A6.89,6.89,0,0,0,313,417.5h0a2.63,2.63,0,1,1-5.25,0h0A12.3,12.3,0,0,1,317,405.61a6.65,6.65,0,0,1,.39-.75,8.59,8.59,0,0,1,7.07-4.3,17.66,17.66,0,0,0-4.38-.56h0ZM320,419.69a2.19,2.19,0,1,1,2.19-2.19,2.19,2.19,0,0,1-2.19,2.19Z"/></g></g><rect class="cls-16" x="102" y="571" width="36" height="18"/><rect class="cls-16" x="502" y="571" width="36" height="18"/><path class="cls-2" d="M377.72,488.65s0,0,0,0a2.75,2.75,0,0,1-4.06-1.92c-.24-.75-.38-1.53-.57-2.32-.21.36-.43.75-.66,1.13a22.09,22.09,0,0,1-3.39,4.58,8.22,8.22,0,0,1-9.12,2,35.39,35.39,0,0,1-4.79-2.35,115.93,115.93,0,0,0-10.71-5.32,24.06,24.06,0,0,0-3.55-1,1.49,1.49,0,0,0-1.79.91,26,26,0,0,0-2.52,7.42c-.44,2.22-.86,4.44-1.35,6.65a10.15,10.15,0,0,1-.74,1.89,2.76,2.76,0,0,1-.6.76,1.65,1.65,0,0,1-2.87-.68,8.59,8.59,0,0,1-.37-4.35,49,49,0,0,1,3.12-12.12,44,44,0,0,1,3.12-6c1.83-3.05,3.8-6,5.71-9,.11-.17.21-.34.39-.64a5,5,0,0,0-.58.29,52.07,52.07,0,0,0-7,5.3,7,7,0,0,0-1.27,1.59c-.42.69-.24,1.14.48,1.53a.9.9,0,0,1,.46,1.34,4.17,4.17,0,0,1-2,1.85,7.07,7.07,0,0,1-5,.8,2.52,2.52,0,0,1-2.16-3.19,7.09,7.09,0,0,1,1.44-2.92,22.92,22.92,0,0,1,4.74-4.59,68.17,68.17,0,0,1,14-8.43,51.1,51.1,0,0,1,8.84-3.07,19.33,19.33,0,0,1,7.68-.51,13.1,13.1,0,0,1,3.23,1,6.16,6.16,0,0,1,3.35,6.43,8.08,8.08,0,0,1-1,3.16,17.42,17.42,0,0,1-7.15,6.88,47,47,0,0,1-8,3.34c-2,.62-4.05,1.23-6.09,1.81-.68.19-1.39.27-2.25.43,1.43.5,2.71,1,4,1.38,4.41,1.41,8.83,2.82,13.26,4.18a23.15,23.15,0,0,0,3.32.63,4.18,4.18,0,0,0,3.32-.93,11.07,11.07,0,0,0,3.1-3.74c.73-1.39,1.34-2.82,2-4.24,1.24-2.63,2.46-5.27,3.73-7.89a3.23,3.23,0,0,1,2.38-1.77A1.06,1.06,0,0,1,381,470a2.52,2.52,0,0,1-.29,1.12c-1.06,1.8-2.18,3.55-3.23,5.35-.68,1.17-1.29,2.37-1.88,3.58a3.9,3.9,0,0,0-.35,2.36,1.74,1.74,0,0,0,2.05,1.58,3.94,3.94,0,0,0,3.17-2.31c1.06-2.48,2.07-5,3.08-7.47.56-1.39,1.1-2.78,1.63-4.17a4.44,4.44,0,0,1,1.64-2.28,1.42,1.42,0,0,1,1.43-.2,1.16,1.16,0,0,1,.54,1.21,7.15,7.15,0,0,1-.18,1.38,17.25,17.25,0,0,1-.65,2.23c-1,2.74-2.1,5.46-3.16,8.19q-2.38,6.11-4.76,12.21a2.57,2.57,0,0,0-.21,1c0,.43.31.54.61.24a5,5,0,0,0,.92-1.18c1.76-3.36,3.48-6.74,5.25-10.09,1.07-2,2.22-4,3.31-6,1.39-2.54,2.72-5.11,4.16-7.62a10,10,0,0,1,4.7-4.58,2.35,2.35,0,0,1,2.13,0,1,1,0,0,1-.13,2,2,2,0,0,1-.79.15,2.66,2.66,0,0,0-2.17,1,10.06,10.06,0,0,0-2.44,7.53,5.13,5.13,0,0,0,1.28,3.35,2.4,2.4,0,0,0,4-.18,7,7,0,0,0,1.17-5.88c-.07-.31-.18-.48-.56-.5a1.56,1.56,0,0,1-1.5-1.25,2.78,2.78,0,0,1,2.42-3.89,8.32,8.32,0,0,0,3.81-1.75,2.08,2.08,0,0,0,.8-1.29,104.61,104.61,0,0,1,4.9-15.67,13,13,0,0,1,2.49-4.07,3.93,3.93,0,0,1,2.35-1.2,2.57,2.57,0,0,1,2.81,1.82,8.48,8.48,0,0,1,.09,4.47,14.29,14.29,0,0,1-2.93,6.35l-3.89,4.83-.43.52a13.19,13.19,0,0,0,4.06,3.34,9,9,0,0,0,1.44.58,3.08,3.08,0,0,0,3.39-.84,17.47,17.47,0,0,0,3.11-4.64,7.24,7.24,0,0,1,2.93-3.35,1.52,1.52,0,0,1,1.63,0,1.41,1.41,0,0,1,.53,1.49,4.48,4.48,0,0,1-.31,1.14,10,10,0,0,1-.73,1.32,17.08,17.08,0,0,0-2.75,7.57,5.17,5.17,0,0,0,.43,3,2.75,2.75,0,0,0,4,1.09A9.91,9.91,0,0,0,433,468c.26-.43.48-.88.74-1.32a2.72,2.72,0,0,1,.31-.38l.14.05a2.64,2.64,0,0,1,0,.49c-.78,3.65-2.79,6.26-6.42,7.42a4,4,0,0,1-4.75-2.22,8.22,8.22,0,0,1-.52-4.43c.16-1.3.45-2.58.68-3.87a2.91,2.91,0,0,0,.07-.64c-2.37,3.25-5.25,4.36-9,2.12.13.71.26,1.29.35,1.88a19.92,19.92,0,0,1-.13,7.54,9,9,0,0,1-.92,2.34,4.65,4.65,0,0,1-4.83,2.2,2.77,2.77,0,0,1-2.27-2,19.84,19.84,0,0,1-.36-10.26c0-.16.06-.32.1-.47s0,0,0-.06a4.36,4.36,0,0,0-2.32,3.57c0,1.93.13,3.88,0,5.81a7.1,7.1,0,0,1-7.06,7c-1.79.05-2.9-1.06-3.73-2.51A10.48,10.48,0,0,1,392,475.5c-.12.17-.2.26-.27.37a92,92,0,0,0-8.91,21,30.54,30.54,0,0,1-3,7.47,5.94,5.94,0,0,1-2.83,2.7,1.19,1.19,0,0,1-1.67-.6,5.64,5.64,0,0,1-.5-2.83,41.54,41.54,0,0,1,1.57-10C376.73,491.91,377.25,490.29,377.72,488.65Zm-30-10.88a28.73,28.73,0,0,0,7.83-3.62,17.18,17.18,0,0,0,5.78-5.37,8.64,8.64,0,0,0,1.43-4.67c-.05-2.06-1.07-3.1-3.1-3a15.46,15.46,0,0,0-3.95.71,44.77,44.77,0,0,0-4.77,2.09,7.25,7.25,0,0,0-3.43,3c-1.7,3-3.48,6-5.21,9.07a15.52,15.52,0,0,0-.88,1.84c-.29.68-.23.76.52.79A19.21,19.21,0,0,0,347.69,477.77Zm62.79-15.2a15.33,15.33,0,0,0-.87,1.71,16.82,16.82,0,0,0-1.05,7,8.29,8.29,0,0,0,.52,2.24,1.39,1.39,0,0,0,1.24,1,1.34,1.34,0,0,0,1.28-.83,5.59,5.59,0,0,0,.56-1.28,13.15,13.15,0,0,0-.31-8A3.21,3.21,0,0,0,410.48,462.57Zm.44-3.84.23.14c.46-.43,1-.83,1.38-1.29a20.72,20.72,0,0,0,3.75-6.18,4.7,4.7,0,0,0,.27-3,1.51,1.51,0,0,0-.56-.89c-.4-.24-.74.12-1,.43a10.5,10.5,0,0,0-1,1.4,31.86,31.86,0,0,0-3.09,8.52A3.85,3.85,0,0,0,410.92,458.73Z"/><path class="cls-2" d="M427,454.14c0-.6,0-1.21.1-1.8a.5.5,0,0,0-.42-.62c-.5-.18-1-.39-1.49-.58l0-.15,1-.3c1-.29,1-.29,1.09-1.37a3.58,3.58,0,0,1,.21-1.17c.29.46.61.9.85,1.38s.43.41.79.29a8.24,8.24,0,0,1,1.64-.38l-.78,1c-.59.76-.59.76-.09,1.58l.72,1.18-2.14-.78-1.4,1.74Z"/><g id="g8696"><g id="path8698"><polygon class="cls-10" points="514.35 508.35 514.35 497.52 526.33 497.52 526.33 499.45 516.87 499.45 516.87 502.17 525.92 502.17 525.92 504.1 516.87 504.1 516.87 508.35 514.35 508.35"/><path class="cls-15" d="M526.08,497.77v1.43h-9.46v3.22h9v1.43h-9v4.25h-2V497.77h11.48m.5-.5H514.1V508.6h3v-4.25h9v-2.43h-9V499.7h9.46v-2.43Z"/></g></g><g id="g8708"><path id="path8710" class="cls-17" d="M573.93,506a3,3,0,0,1-.88,1.68c-1,.94-2.53,1-6.27,1-4.57,0-5.78,0-6.8-1.07-.74-.76-.89-1.56-.89-4.41,0-.63,0-1.26,0-1.92,0-1.72.31-2.6,1-3.25.83-.78,2-1,6.07-1,.51,0,1.51,0,3,.05,2.13,0,2.86.16,3.68.67s1.24,1.66,1.24,4.87a22.67,22.67,0,0,1-.17,3.4m-3.3-6.12c-.4-.32-2-.35-4-.35-1.41,0-2.61,0-3.24.09a1.51,1.51,0,0,0-.83.26c-.36.28-.41.69-.41,2.81,0,.41,0,.83,0,1.24,0,1.06.08,1.47.3,1.73a1.19,1.19,0,0,0,.74.34,25.2,25.2,0,0,0,3.61.19c2.36,0,3.53,0,3.93-.45s.36-.85.36-3.1c0-.7.09-2.31-.44-2.76"/></g><g id="g8712"><path id="path8714" class="cls-17" d="M556.5,507.83c-.54.59-1.19.77-2.5.77H543.88V506H553c.54,0,.76,0,1-.14s.26-.33.26-.93,0-.63-.24-.78-.32-.18-.9-.18h-5.84c-1.54,0-2-.11-2.68-.62s-.87-1.33-.87-3.05a3.65,3.65,0,0,1,.53-2.31,1.85,1.85,0,0,1,.75-.6,4.45,4.45,0,0,1,2.22-.29h9.52v2.63h-8.5c-.9,0-1.07.14-1.07.93s.23.89,1,.89h5.61c1.72,0,2.7.46,3.14,1.49a5.06,5.06,0,0,1,.31,2.1,3.52,3.52,0,0,1-.79,2.69"/></g><g id="g8716"><path id="path8718" class="cls-17" d="M541,507.6c-.63.85-1.58,1.18-3.68,1.2l-1.91.2H533c-2.21-.19-3.17-.56-3.86-1.56a8.32,8.32,0,0,1-.57-2.71v-7.46h3v7.13c0,1.51.31,1.75,2.17,1.77h1.39l1.56,0c1.7,0,1.92-.25,1.92-2.08v-6.8h3v6.82c0,2.07-.16,2.76-.72,3.53"/></g><g id="g8720"><g id="path8722"><path class="cls-10" d="M507.88,508.75l-2-3.5h4l2.05,3.5Zm-8.95,0,2-3.5h4l-2,3.5Zm4.48-7.74,2-3.51,2,3.5-2,3.5Z"/><path class="cls-15" d="M505.43,498l1.73,3-1.73,3-1.74-3,1.74-3m4.33,7.5,1.76,3H508l-1.74-3h3.47m-5.2,0-1.73,3h-3.46l1.73-3h3.46m.87-8.5-2.31,4,2.31,4,2.3-4h0l-2.31-4Zm0,8Zm4.61,0h-4.61l2.31,4h4.65L510,505Zm-4.61,0h-4.62l-2.31,4h4.62l2.31-4Z"/></g></g></svg>