<svg id="レイヤー_1" data-name="レイヤー 1" xmlns="http://www.w3.org/2000/svg" viewBox="0 0 64 64"><defs><style>.cls-1{fill:#2e3192;}.cls-2{fill:#fff;}.cls-3{fill:#80c0a0;}.cls-4{fill:#4d4d4d;}.cls-5{fill:#0f0f0f;}.cls-6,.cls-7,.cls-8{fill:none;stroke:#000;}.cls-17,.cls-6,.cls-7,.cls-8{stroke-miterlimit:10;}.cls-6{stroke-width:0.75px;}.cls-7{stroke-width:0.5px;}.cls-8{stroke-width:0.25px;}.cls-9{fill:#006837;}.cls-10,.cls-17{fill:#ccc;}.cls-11{fill:#1e1e1e;}.cls-12{fill:#f15a24;}.cls-13{fill:#b3b3b3;}.cls-14{fill:#002080;}.cls-15{fill:#999;}.cls-16{fill:#c08000;}.cls-17{stroke:#999;stroke-width:0.05px;}</style></defs><rect class="cls-1" x="3" y="52.5" width="58" height="7.5"/><rect class="cls-2" x="3" y="51" width="58" height="1.5"/><rect class="cls-3" x="3" y="48.9" width="58" height="2.1"/><path class="cls-2" d="M61,48v.9H3V47.4H47.21A3.0443,3.0443,0,0,0,49,48H61Z"/><path class="cls-4" d="M61,47.4V48H51.33l-.4-.6Z"/><polygon class="cls-4" points="61 45.3 61 47.4 50.93 47.4 49.53 45.3 61 45.3"/><polygon class="cls-4" points="61 43.8 61 45.3 49.53 45.3 48.53 43.8 61 43.8"/><polygon class="cls-4" points="61 41.7 61 43.8 48.53 43.8 47.14 41.7 61 41.7"/><polygon class="cls-4" points="61 41 61 41.7 47.14 41.7 47.13 41.7 46.67 41 61 41"/><path class="cls-5" d="M61,38.5V41H42.67L42,40a7.8777,7.8777,0,0,0-1.64-1.5Z"/><path class="cls-4" d="M61,33v5.5H40.36A13.9013,13.9013,0,0,0,32,36V33Z"/><polygon class="cls-4" points="61 30 61 33 32 33 32 10.5 60.28 10.5 61 30"/><polygon class="cls-3" points="60 3 60.28 10.5 32 10.5 3.72 10.5 4 3 6 1 23 0 41 0 58 1 60 3"/><path d="M50.93,47.4l.4.6H49a3.0443,3.0443,0,0,1-1.79-.6Z"/><path d="M49.53,45.3l1.4,2.1H47.21A4.2988,4.2988,0,0,1,46,46l-.47-.7Z"/><polygon points="48.53 43.8 49.53 45.3 45.53 45.3 44.53 43.8 48.53 43.8"/><polygon points="47.14 41.7 48.53 43.8 44.53 43.8 43.13 41.7 47.13 41.7 47.14 41.7"/><path class="cls-3" d="M47.21,47.4H3V45.3H45.53L46,46A4.2988,4.2988,0,0,0,47.21,47.4Z"/><polygon points="46.67 41 47.13 41.7 43.13 41.7 42.67 41 46.67 41"/><polygon class="cls-2" points="44.53 43.8 45.53 45.3 3 45.3 3 43.8 44.53 43.8"/><polygon class="cls-3" points="43.13 41.7 44.53 43.8 3 43.8 3 41.7 43.13 41.7"/><path class="cls-2" d="M42.67,41l.46.7H3V36H32a13.9013,13.9013,0,0,1,8.36,2.5A7.8777,7.8777,0,0,1,42,40Z"/><rect class="cls-4" x="3" y="33" width="29" height="3"/><polygon class="cls-4" points="32 10.5 32 33 3 33 3 30 3.72 10.5 32 10.5"/><polyline class="cls-6" points="3.72 10.5 32 10.5 60.28 10.5"/><path class="cls-7" d="M3,36H32a13.9013,13.9013,0,0,1,8.36,2.5A7.8777,7.8777,0,0,1,42,40l.67,1,.46.7,1.4,2.1,1,1.5L46,46a4.2988,4.2988,0,0,0,1.21,1.4A3.0443,3.0443,0,0,0,49,48H61"/><polyline class="cls-8" points="32 10.5 32 33 32 36"/><line class="cls-8" x1="40.36" y1="38.5" x2="61" y2="38.5"/><polyline class="cls-8" points="42.67 41 46.67 41 61 41"/><polyline class="cls-8" points="46.67 41 47.13 41.7 47.14 41.7 48.53 43.8 49.53 45.3 50.93 47.4 51.33 48"/><polygon points="58 9.1 57.5 2.5 57 2 50 1 14 1 7 2 6.5 2.5 6 9.1 6.4 9.5 57.6 9.5 58 9.1"/><rect x="2" y="56" width="60" height="4"/><rect class="cls-9" x="26.875" y="54.375" width="10.25" height="5.25"/><path class="cls-10" d="M37,54.5v5H27v-5H37m.25-.25H26.75v5.5h10.5v-5.5Z"/><rect class="cls-11" x="3" y="51" width="12" height="5"/><rect x="5.5" y="51.5" width="9" height="4"/><circle class="cls-10" cx="12" cy="53.5" r="1.4"/><circle class="cls-10" cx="8" cy="53.5" r="1.4"/><rect class="cls-12" x="2.5" y="51.5" width="2.4" height="4"/><rect class="cls-13" x="3.7" y="53.7" width="1.2" height="1.8"/><rect class="cls-11" x="49" y="51" width="12" height="5" transform="translate(110 107) rotate(-180)"/><rect x="49.5" y="51.5" width="9" height="4" transform="translate(108 107) rotate(-180)"/><circle class="cls-10" cx="52" cy="53.5" r="1.4"/><circle class="cls-10" cx="56" cy="53.5" r="1.4"/><rect class="cls-12" x="59.1" y="51.5" width="2.4" height="4" transform="translate(120.6 107) rotate(-180)"/><rect class="cls-13" x="59.1" y="53.7" width="1.2" height="1.8" transform="translate(119.4 109.2) rotate(-180)"/><rect class="cls-11" x="4" y="60" width="6" height="4"/><rect class="cls-11" x="54" y="60" width="6" height="4"/><line class="cls-7" x1="31" y1="34.5" x2="31" y2="16.5"/><line class="cls-7" x1="33" y1="34.5" x2="33" y2="16.5"/><polyline class="cls-8" points="45 39.9 33 25.5 34 25.5 46 39.9"/><rect class="cls-11" x="17.5" y="39.4" width="2" height="1" rx="0.5"/><polyline class="cls-8" points="19 39.9 31 25.5 30 25.5 18 39.9"/><path class="cls-2" d="M30.9766,55.81a.1407.1407,0,0,1-.1036.1523.7294.7294,0,0,1-.0937.0235.0277.0277,0,0,1-.0322-.0186l-.0332-.082c-.0127-.0284-.0059-.044.0185-.0469l.0655-.01q.038-.0059.038-.0615v-.7178h-.1171l-.0469.1836h.1357c.0186,0,.0283.0108.0283.0322v.087c0,.0166-.01.0244-.0283.0244h-.2715v.27h.1075v-.1924a.0291.0291,0,0,1,.0332-.0332h.0791c.0185,0,.0283.0108.0283.0332v.2891c0,.0312-.0176.0478-.0518.0478h-.539c-.0284,0-.042-.0166-.042-.0478v-.2891c0-.0224.0127-.0332.0371-.0332h.0752c.0185,0,.0283.0108.0283.0332v.1924h.1035v-.27h-.2676c-.0185,0-.0283-.0078-.0283-.0244v-.087c0-.0214.01-.0322.0283-.0322h.127l-.0518-.1836H30.1v.8887c0,.0225-.0127.0342-.0371.0342h-.0684a.0308.0308,0,0,1-.0351-.0342v-.9951c0-.0254.0146-.0381.042-.0381h.9375a.0337.0337,0,0,1,.0381.0381Zm-.6192-.7608.042.1836h.127l.0468-.1836Z"/><path class="cls-2" d="M31.7207,54.8945c.0166,0,.0244.0137.0244.042V55.78h.2588c.0166,0,.0254-.0078.0254-.0235V55.124c0-.0244.01-.0371.0293-.0371h.1025c.0166,0,.0244.0127.0244.0371v.75q0,.07-.0791.07h-.872c-.0528,0-.08-.0214-.08-.0654V55.124c0-.0244.01-.0371.0293-.0371h.0977c.0195,0,.0292.0127.0292.0371v.6328c0,.0157.01.0235.0293.0235h.251v-.8438c0-.0283.0108-.042.0322-.042Z"/><path class="cls-2" d="M32.6592,54.9854l.0566-.0538a1.067,1.067,0,0,1,.1319-.0361v-.0088h.15l.1133.0274a.35.35,0,0,1,.1416.0986l.0469.0879v.09l-.1416.2139a2.5143,2.5143,0,0,0-.291.293v.0449H33.3v.1787h-.65l-.0273-.0234V55.77c.01,0,.0371-.0439.084-.1338.2509-.2246.3779-.3564.3779-.3916a.291.291,0,0,1,.0273-.0673V55.11a.1871.1871,0,0,0-.1308-.0811h-.0762l-.0938.0361h-.02l-.1123-.0439-.02-.0186Z"/><path class="cls-2" d="M33.44,54.9854l.0566-.0538a1.0645,1.0645,0,0,1,.1318-.0361v-.0088h.15l.1133.0274a.3512.3512,0,0,1,.1416.0986l.0469.0879v.09l-.1416.2139a2.5143,2.5143,0,0,0-.291.293v.0449H34.08v.1787h-.65l-.0274-.0234V55.77c.01,0,.0372-.0439.084-.1338.251-.2246.378-.3564.378-.3916a.291.291,0,0,1,.0273-.0673V55.11a.1871.1871,0,0,0-.1309-.0811h-.0761l-.0938.0361h-.02l-.1123-.0439-.02-.0186Z"/><path class="cls-2" d="M27.94,58.1328a.1037.1037,0,0,1-.0469-.0049l-.0274-.0156a.0927.0927,0,0,1-.0263-.0254.4512.4512,0,0,1-.0244-.039.1633.1633,0,0,1-.0206-.0635c.004-.0127.01-.0166.0186-.0127a.2894.2894,0,0,0,.0762.0254.08.08,0,0,0,.0332-.0078.06.06,0,0,0,.0215-.0176.35.35,0,0,0,.0234-.0371.3252.3252,0,0,0,.0312-.0694.2848.2848,0,0,0,.0176-.0713c.002-.0214.003-.04.003-.0585a.1333.1333,0,0,0-.0049-.043.0472.0472,0,0,0-.0186-.0283.04.04,0,0,0-.0342-.0078.2787.2787,0,0,0-.0439.0107l-.04.0137a.0821.0821,0,0,0-.0352.0361c-.0107.02-.0215.0391-.0293.0566a.3808.3808,0,0,0-.0215.0547c-.0068.0186-.02.0518-.0381.0987a.562.562,0,0,1-.0654.123l-.02.0176a.0442.0442,0,0,1-.0264.0078.0873.0873,0,0,1-.0283-.0039.0669.0669,0,0,1-.0205-.0088.0718.0718,0,0,1-.0156-.0234.1191.1191,0,0,1-.0088-.0342.0544.0544,0,0,1,.0049-.0313.1715.1715,0,0,1,.0263-.039.7594.7594,0,0,0,.0518-.0782,1.1739,1.1739,0,0,0,.0684-.1533.0271.0271,0,0,0,0-.0176c-.002-.0068-.0176-.0175-.0469-.0312a.1382.1382,0,0,1-.0576-.04.0628.0628,0,0,1-.0147-.0332c.002-.0147.0108-.02.0254-.0157a.6013.6013,0,0,0,.084.0078.1861.1861,0,0,0,.0283-.0048.0481.0481,0,0,0,.0264-.0235.0909.0909,0,0,0,.0176-.04l.0058-.044a.2293.2293,0,0,0,.002-.0439.1036.1036,0,0,0-.0127-.042.1589.1589,0,0,1-.0137-.0381.0324.0324,0,0,1,0-.02c.0019-.0078.0107-.0137.0283-.0176l.0274.0059a.1252.1252,0,0,1,.0224.0156l.0244.0254a.4057.4057,0,0,1,.0459.0469.0682.0682,0,0,1,.0215.0546.1014.1014,0,0,1-.0127.0372.1752.1752,0,0,0-.0136.039c-.002.0147.0136.0215.0468.02l.0127-.0039c.0127,0,.0235.001.0342.002a.1248.1248,0,0,1,.0313.0078.12.12,0,0,1,.0332.0215c.0107.0107.02.02.0263.0283s.0147.0225.0264.042a.1706.1706,0,0,1,.02.0742.4882.4882,0,0,1-.03.1729.9763.9763,0,0,1-.0527.1279.8018.8018,0,0,1-.0488.083A.0969.0969,0,0,1,27.94,58.1328Zm.4248-.5224a.1017.1017,0,0,0-.0284-.0059l-.0312-.002-.0264-.0009a.0216.0216,0,0,1-.0185-.0127c-.0049-.0069-.002-.0157.0078-.0264a.0292.0292,0,0,0,.0088-.0283.0941.0941,0,0,0-.0284-.0313c-.0156-.0127-.0312-.0254-.0468-.039a.18.18,0,0,1-.0313-.0332.0394.0394,0,0,1-.0078-.0186.0186.0186,0,0,1,.0068-.0127l.0186-.0088c.0186,0,.0352,0,.05.001a.36.36,0,0,1,.0488.01.1878.1878,0,0,1,.044.0185l.0342.0235a.24.24,0,0,1,.0283.0254.1927.1927,0,0,1,.0215.0341.3219.3219,0,0,1,.0156.0371.1861.1861,0,0,1,.0058.0352.0662.0662,0,0,1-.0029.0293c-.0029.0078-.0127.0117-.0293.0137A.1221.1221,0,0,1,28.3643,57.61Z"/><path class="cls-2" d="M29.2715,59.04a1.0045,1.0045,0,0,1-.3994-.1836.0532.0532,0,0,1-.0127-.0507l.2344-.2373a.0372.0372,0,0,1,.05,0,.4251.4251,0,0,0,.2343.1015.5426.5426,0,0,0,.2188-.0263.2975.2975,0,0,0,.2-.1592.4947.4947,0,0,0,.0576-.3047.5424.5424,0,0,0-.0811-.2266,1.1092,1.1092,0,0,0-.0918-.1162,1.4454,1.4454,0,0,0-.1943-.1308v-.4346c.0732-.0332.1426-.0694.21-.1074a.2921.2921,0,0,0,.125-.1162.329.329,0,0,0,.0215-.1416.2527.2527,0,0,0-.169-.1788.537.537,0,0,0-.292-.04.7529.7529,0,0,0-.3017.125c-.0127.0059-.0215.002-.0284-.0127l-.1836-.25a.0093.0093,0,0,1,.003-.0156,1.0648,1.0648,0,0,1,.3418-.169.8071.8071,0,0,1,.3584-.0234,1.1386,1.1386,0,0,1,.2929.0889.56.56,0,0,1,.1973.1533.6587.6587,0,0,1,.1094.1943.7015.7015,0,0,1,.0342.2246.524.524,0,0,1-.0782.252,1.5421,1.5421,0,0,1-.25.2324,1.4041,1.4041,0,0,1,.2832.44,1.0005,1.0005,0,0,1,.045.4815.8932.8932,0,0,1-.0967.2637.7383.7383,0,0,1-.1905.2207.6754.6754,0,0,1-.2968.1308A1.142,1.142,0,0,1,29.2715,59.04Z"/><path class="cls-2" d="M30.7285,59.05a.0526.0526,0,0,1-.0508-.0439v-.3467a.2289.2289,0,0,1,.02-.0684,9.3346,9.3346,0,0,1,.5-.8164q.2813-.4116.373-.5713a.4529.4529,0,0,0,.0674-.3066.2771.2771,0,0,0-.3154-.1807.5365.5365,0,0,0-.3721.2031c-.0147.0118-.0273.0118-.0381,0L30.6934,56.7a.0454.0454,0,0,1,0-.0625.86.86,0,0,1,.3427-.2363.9755.9755,0,0,1,.3838-.0733.5385.5385,0,0,1,.2881.0791,1.2239,1.2239,0,0,1,.1885.1582.7357.7357,0,0,1,.1211.2364.4955.4955,0,0,1,.0166.2265,1.0966,1.0966,0,0,1-.1094.2793c-.0605.1182-.1709.3008-.331.55s-.3125.5059-.4561.77c-.0049.0254.0039.0371.0244.0371h.8252a.078.078,0,0,1,.06.0508v.29a.0752.0752,0,0,1-.06.0439Z"/><path class="cls-2" d="M32.3779,57.8438v-.2784c0-.0254.0127-.0371.0381-.0371h.4531a.0327.0327,0,0,1,.0372.0371v.2784a.0331.0331,0,0,1-.0372.0371H32.416A.0334.0334,0,0,1,32.3779,57.8438Z"/><path class="cls-2" d="M34.0752,59.05h-.3125q-.047,0-.0469-.0439V56.3994q0-.0526.0469-.0527h.3125a.0466.0466,0,0,1,.0527.0527v2.6065C34.1279,59.0352,34.11,59.05,34.0752,59.05Z"/><path class="cls-2" d="M35.459,59.04a1.0045,1.0045,0,0,1-.3994-.1836.0532.0532,0,0,1-.0127-.0507l.2344-.2373a.0372.0372,0,0,1,.05,0,.4251.4251,0,0,0,.2343.1015.5426.5426,0,0,0,.2188-.0263.2975.2975,0,0,0,.2-.1592.4947.4947,0,0,0,.0576-.3047.5424.5424,0,0,0-.0811-.2266,1.1092,1.1092,0,0,0-.0918-.1162,1.4454,1.4454,0,0,0-.1943-.1308v-.4346c.0732-.0332.1426-.0694.21-.1074a.2921.2921,0,0,0,.125-.1162.329.329,0,0,0,.0215-.1416.2527.2527,0,0,0-.169-.1788.537.537,0,0,0-.292-.04.7529.7529,0,0,0-.3017.125c-.0127.0059-.0215.002-.0284-.0127l-.1836-.25a.0093.0093,0,0,1,.003-.0156,1.0648,1.0648,0,0,1,.3418-.169.8071.8071,0,0,1,.3584-.0234,1.1386,1.1386,0,0,1,.2929.0889.56.56,0,0,1,.1973.1533.6587.6587,0,0,1,.1094.1943.7015.7015,0,0,1,.0342.2246.524.524,0,0,1-.0782.252,1.5421,1.5421,0,0,1-.25.2324,1.4041,1.4041,0,0,1,.2832.44,1.0005,1.0005,0,0,1,.045.4815.8932.8932,0,0,1-.0967.2637.7383.7383,0,0,1-.1905.2207.6754.6754,0,0,1-.2968.1308A1.142,1.142,0,0,1,35.459,59.04Z"/><rect class="cls-14" x="14" y="1.5" width="36" height="7.5" rx="0.8"/><rect class="cls-2" x="16.2" y="2.3" width="8" height="6.4" rx="0.4"/><path class="cls-14" d="M18.8164,3.6807c.0283,0,.1182,0,.1182.14s-.0869.1406-.1182.1406h-.7021a1.4125,1.4125,0,0,0,.5293.8623,1.3162,1.3162,0,0,0,.2421.1407.1456.1456,0,0,1,.1075.1513c0,.084-.05.1827-.128.1827a1.18,1.18,0,0,1-.5224-.3624,1.6808,1.6808,0,0,1-.3975-.6572,1.5593,1.5593,0,0,1-.917,1.0166c-.0781,0-.126-.0986-.126-.1826a.1432.1432,0,0,1,.0831-.1348,1.5508,1.5508,0,0,0,.4287-.3007,1.3727,1.3727,0,0,0,.3593-.7159H17.08c-.0293,0-.1192,0-.1192-.1406,0-.1348.0782-.14.1192-.14h.7246c.0039-.0821.0039-.1211.0039-.1856V3.0518H17.02c-.0273,0-.1172,0-.1172-.1377s.0831-.1407.1172-.1407h1.8662c.0293,0,.1182,0,.1182.1348,0,.1436-.085.1436-.1182.1436h-.832v.4433c0,.0586,0,.0928-.0049.1856Z"/><path class="cls-14" d="M19.2637,3.4561c.0478,0,.1435.081.2021.1318.1055.09.1436.123.1436.1846,0,.0566-.04.16-.1123.16-.0313,0-.042-.0078-.1436-.1006-.0264-.0224-.1611-.1377-.17-.1435a.1087.1087,0,0,1-.0273-.09C19.1563,3.56,19.1875,3.4561,19.2637,3.4561Zm.373.8837a3.6067,3.6067,0,0,1-.15.5616c-.124.3711-.1465.3711-.1933.3711a.1339.1339,0,0,1-.13-.1348c0-.0391.0068-.0566.0625-.1943a5.007,5.007,0,0,0,.2-.626c.0137-.0479.0293-.0977.0986-.0977A.1183.1183,0,0,1,19.6367,4.34Zm.3584-1.4423V2.7842a.0961.0961,0,0,1,.1055-.1094c.0654,0,.1142.0225.1142.1123v.11h.4668v-.11a.1109.1109,0,1,1,.2217,0v.11h.2451c.0264,0,.1026,0,.1055.123,0,.1211-.0791.1231-.1055.1231l-.2451-.002v.25H21.13c.0293,0,.1035,0,.1035.12,0,.124-.0713.124-.1035.124h-.585V3.832h.3809c.1553,0,.2265.0674.2265.2832V5c0,.2861-.0761.292-.3.292-.1171,0-.1416-.0029-.164-.0166a.1553.1553,0,0,1-.0518-.127c0-.1318.085-.1318.1074-.1318s.1241.0029.1436,0c.0518-.0078.0566-.0674.0566-.1094V4.16c0-.0528-.02-.087-.0693-.087h-.332v.6182h.0849c.0332,0,.0518-.0205.0518-.0625V4.2754c0-.042.0039-.0986.0762-.0986s.0781.0507.0781.0986v.3652c0,.2276-.0381.292-.23.292h-.31c-.1914,0-.2314-.0615-.2314-.292V4.2754c0-.0508.0068-.0986.0762-.0986s.081.0429.081.0986v.3535c0,.0449.02.0625.0518.0625h.0869V4.0732h-.334c-.0517,0-.0723.0342-.0723.087V5.1855c0,.0362,0,.1319-.1005.1319-.1055,0-.1055-.0957-.1055-.1319v-1.07c0-.2158.0723-.2832.2266-.2832h.3818V3.6357h-.5654c-.0274,0-.1055,0-.1055-.1211,0-.123.0781-.123.1055-.123h.206v-.25H19.76a.0853.0853,0,0,1-.0967-.0625c-.0225.0732-.0674.1094-.1026.1094-.0273,0-.041-.0137-.15-.1065-.0274-.0224-.1436-.1123-.1661-.1347a.11.11,0,0,1-.0312-.084c0-.0733.0439-.1514.1142-.1514a.6565.6565,0,0,1,.2149.1377.51.51,0,0,1,.1191.12.0854.0854,0,0,1,.0987-.0722Zm.6865.2441h-.4668v.25h.4668Z"/><path class="cls-14" d="M23.0967,3.8037a2.3067,2.3067,0,0,1,.1435.2051c.1075.166.1416.2158.1416.2812a.13.13,0,0,1-.1191.1348c-.0537,0-.083-.0371-.15-.1523-.1025.0117-.1611.0175-.4014.0312v.2129h.5655c.04,0,.1006.0059.1006.1211,0,.1211-.0694.1211-.1006.1211h-.5655v.25h.6573c.0312,0,.1035,0,.1035.12s-.0742.1211-.1035.1211H21.8359c-.0312,0-.1025-.0029-.1025-.124,0-.1172.0762-.1172.1025-.1172h.6416v-.25h-.5361c-.0449,0-.1006-.0088-.1006-.1211,0-.1182.0645-.1211.1006-.1211h.5361V4.3174c-.0673.0029-.457.0176-.5.0176-.0722,0-.1386,0-.1386-.127,0-.1211.0507-.1211.2216-.126a1.8878,1.8878,0,0,0,.128-.2783h-.4014v.0449a6.059,6.059,0,0,1-.0986,1.1123c-.0567.2862-.1055.3194-.1621.3194a.1421.1421,0,0,1-.1387-.1514.3187.3187,0,0,1,.0107-.07c.0049-.0195.0547-.208.0635-.2412a5.3184,5.3184,0,0,0,.0938-.9688v-.8c0-.23.0429-.289.2314-.289h1.3457c.1817,0,.2217.0556.2217.2744v.1181c0,.2247-.0469.2754-.2217.2754H21.7871v.1436H23.37c.0381,0,.1016.0078.1016.1172,0,.1152-.0742.1152-.1016.1152ZM21.7871,3.2h1.2891c.0273,0,.0478-.0117.0478-.0586V3.0537c0-.0391-.0136-.0615-.0478-.0615H21.85c-.0381,0-.0625.0224-.0625.0791Zm.6543.6035a1.9759,1.9759,0,0,1-.1211.2754c.3164-.0059.3506-.0059.66-.0254-.0117-.0166-.0606-.081-.07-.0957a.2.2,0,0,1-.044-.1152.1025.1025,0,0,1,.0059-.0391Z"/><path class="cls-14" d="M18.3066,7.8711c0,.2832-.0683.37-.2216.37h-.8125c-.1524,0-.2207-.0869-.2207-.37v-1.69c0-.2754.0634-.3711.2207-.3711h.8125c.1562,0,.2216.0927.2216.3711ZM18.12,6.8652V6.2393c0-.1006-.0312-.1426-.0849-.1426h-.7139c-.0449,0-.085.03-.085.1426v.6259Zm-.8838.2842v.6651c0,.1044.0352.1435.085.1435h.7139c.0546,0,.0849-.0478.0849-.1435V7.1494Z"/><path class="cls-14" d="M19.6377,8.03c0,.2676-.0908.2676-.2373.2676a.87.87,0,0,1-.1289-.0088c-.0606-.0166-.0674-.1153-.0674-.16,0-.1035.0342-.1455.084-.1455.0185,0,.1.0049.1162.0049.042,0,.0615-.0244.0615-.0947V6.8545h-.1845A2.2369,2.2369,0,0,1,19.02,8.1064c-.0615.0928-.1631.2051-.2246.2051-.0537,0-.0859-.0927-.0859-.166a.1567.1567,0,0,1,.0674-.1367c.23-.208.3291-.4893.3291-1.1543h-.4463c-.0225,0-.0879,0-.0879-.1377,0-.1406.0644-.1406.0879-.1406h.6054V6.251h-.5087c-.02,0-.087,0-.087-.1377s.0674-.1406.087-.1406h.5087v-.16c0-.042.002-.1455.087-.1455.0761,0,.1.0478.1.1455v.16h.5156c.0215,0,.0889.0029.0889.1377,0,.1406-.0655.1406-.0889.1406h-.5156v.3252h.6025c.0264,0,.0918,0,.0918.1377,0,.1406-.0654.1406-.0889.1406h-.4189Zm-.6885-.918a2.6723,2.6723,0,0,1-.1494.5732c-.0723.1905-.0977.1963-.1221.1963-.039,0-.0908-.0615-.0908-.1455,0-.042,0-.0449.0586-.1826a2.5177,2.5177,0,0,0,.1406-.4746c.0049-.0225.02-.09.0674-.09A.1129.1129,0,0,1,18.9492,7.1123Zm.9639-.0254a4.4027,4.4027,0,0,0,.1592.5957c.0566.1543.0586.16.0586.1934a.1354.1354,0,0,1-.1006.1465c-.0371,0-.0586-.0284-.1172-.1993a3.5344,3.5344,0,0,1-.167-.7109c0-.07.0322-.123.1016-.123C19.8945,6.9893,19.9063,7.0508,19.9131,7.0869Z"/><path class="cls-14" d="M20.4941,6.2285c0-.2363.0547-.3144.1866-.3144H21.02V5.7959c0-.09.0293-.1211.0909-.1211.0537,0,.0947.0176.0947.1211v.1182h.5263c.0225,0,.0821,0,.0821.123,0,.0986-.0235.1348-.0821.1348H20.7266c-.044,0-.0674.0342-.0674.1123v.6767a3.6962,3.6962,0,0,1-.1592,1.14c-.0674.1826-.0908.1885-.1191.1885-.0459,0-.1016-.0586-.1016-.1485a.2612.2612,0,0,1,.0254-.1074,2.3527,2.3527,0,0,0,.1719-.7187c-.042.0419-.14.1406-.1768.1406-.0635,0-.0732-.1319-.0732-.168,0-.082.0117-.0869.1172-.1631.0722-.0508.1445-.1181.1494-.1211l.0009-.09V6.6465c-.0146.0674-.0595.0957-.0888.0957-.043,0-.05-.0313-.0772-.1514-.0146-.0644-.0312-.1269-.0654-.25a.3225.3225,0,0,1-.0147-.084c0-.07.045-.1211.086-.1211s.0566.0479.0771.1211c.0284.0948.07.2412.083.3164Zm.83.8819a1.2272,1.2272,0,0,0,.1778.4628c.07.1036.0791.1153.0791.1661,0,.0664-.0411.12-.0811.12-.0488,0-.18-.2129-.2637-.4942a1.3837,1.3837,0,0,1-.1386.3907c-.0743.1259-.0909.1259-.1075.1259-.0361,0-.0761-.0586-.083-.1259V8.168c0,.1123-.03.1435-.0869.1435-.0771,0-.0771-.1064-.0771-.1435V7.1631c0-.2129.0517-.2832.1689-.2832h.24c.0049-.0869.0069-.1992.0069-.2442h-.3838c-.0557,0-.0859-.0341-.0859-.1269,0-.1172.0556-.1231.0859-.1231h.9531c.0469,0,.084.0274.084.126,0,.1211-.0605.124-.084.124h-.41c0,.087-.0079.2295-.01.2442h.2754c.1142,0,.17.0644.17.2832v.84c0,.292-.0508.292-.251.292-.0849,0-.1367,0-.1367-.1269,0-.0782.0264-.12.0654-.12.0235,0,.0782.0029.1006.0029.0283,0,.0567-.0059.0567-.0987V7.2c0-.0625-.0186-.09-.0518-.09Zm-.417.62a.15.15,0,0,1,.03-.0791,1.0752,1.0752,0,0,0,.1982-.541h-.1748c-.038,0-.0537.0332-.0537.09Z"/><path class="cls-14" d="M22.5439,7.2275a.0684.0684,0,0,1-.0722-.0478c.001.0254.0078.0869.0078.1523,0,.4073-.1357.4073-.21.4073-.0478,0-.1132,0-.1132-.1582,0-.126.038-.129.0849-.1319.042,0,.0742-.0195.0742-.1826a1.3688,1.3688,0,0,0-.0791-.4463.5111.5111,0,0,1-.042-.1572c0-.0645.1094-.4883.1094-.584,0-.0557-.0254-.0557-.0391-.0557h-.08c-.0323,0-.0469.0284-.0469.0782V8.1768c0,.0986-.0234.1435-.0859.1435-.0791,0-.0791-.1074-.0791-.1435V6.04c0-.2382.0351-.292.1748-.292h.1338c.0947,0,.1787,0,.1787.2139a1.4322,1.4322,0,0,1-.0411.3164c-.0117.06-.0849.3594-.0849.374,0,.02.0029.0284.0283.09a1.4919,1.4919,0,0,1,.0957.334c.0088-.1065.0537-.1123.0859-.1123h.8721c.0225,0,.086,0,.086.1318s-.0635.1318-.086.1318h-.25v.708c0,.087.0235.087.084.087.082,0,.0859,0,.0938-.1465.0107-.18.0117-.2217.0742-.2217.0791,0,.0791.0928.0791.1377a1.4458,1.4458,0,0,1-.0557.4355c-.0312.0674-.084.0674-.1992.0674-.1846,0-.24,0-.24-.292V7.2275h-.1348a1.8362,1.8362,0,0,1-.1289.7784.5391.5391,0,0,1-.2871.3c-.0449,0-.08-.084-.08-.16a.13.13,0,0,1,.0654-.123c.2031-.1661.26-.3008.27-.795Zm.1553-.5048c-.02,0-.0771,0-.0771-.127a.2018.2018,0,0,1,.0058-.0586.068.068,0,0,1-.0625.042c-.0791,0-.084-.09-.084-.1455v-.208c0-.2168.0538-.2832.17-.2832H22.89V5.79c0-.0254,0-.123.0821-.123.0605,0,.0859.0478.0859.123v.1524H23.29c.1143,0,.17.0664.17.2832v.208c0,.0361,0,.1426-.0791.1426a.0771.0771,0,0,1-.0567-.02c.002.0166.02.1661-.0762.1661Zm.5488-.253c.0293,0,.0342.003.0489.0166-.001-.0166-.003-.0283-.003-.0527V6.2813c0-.05-.0156-.0782-.0459-.0782h-.5566c-.0273,0-.0459.0225-.0459.0782v.1523a.3545.3545,0,0,1-.0049.0693.0529.0529,0,0,1,.0586-.0332Z"/><path class="cls-2" d="M26.043,7.74a1.3876,1.3876,0,0,1-.09.6075c-.06.1015-.1162.1084-.3662.1084-.1748,0-.26,0-.26-.3643,0-.3262.0948-.3262.1338-.3262.0166,0,.2012.0186.2159.0186.039,0,.1025,0,.1025-.2617V6.3906h-.8906c-.0362,0-.1211-.0058-.1211-.3135,0-.2236.041-.3125.1211-.3125h.8906V4.8691h-.5635c-.0342,0-.1094-.0058-.1094-.3066,0-.2812.0635-.3066.1094-.3066h1.3955c.0313,0,.1114.0058.1114.3066,0,.2871-.0684.3066-.1114.3066H26.043v.8955h.8955c.0342,0,.124.0059.124.3125,0,.2432-.0557.3135-.124.3135H26.043Zm.68-4.6611c.1816,0,.27.16.27.71V4.415c0,.1221-.0029.333-.124.333-.1162,0-.1338-.1533-.1338-.333V3.91c0-.16-.0283-.2491-.0948-.2491H25.18c-.0654,0-.0947.0889-.0947.2491v.5117c0,.1406-.01.332-.1241.332-.1015,0-.1328-.1025-.1328-.332V3.7891c0-.55.0869-.71.2715-.71h.6768V2.7783c0-.1914.0439-.2744.124-.2744.085,0,.1455.0449.1455.2744v.3008Z"/><path class="cls-2" d="M27.9561,6.1289h.3486c.0342,0,.1269,0,.1269.3135,0,.2812-.083.3-.1269.3h-.3486v.6719a2.2376,2.2376,0,0,0,.32-.09.3335.3335,0,0,1,.0722-.0127c.08,0,.1065.1338.1065.3135,0,.2744-.0625.3-.2178.3516a8.3666,8.3666,0,0,1-.9072.2168c-.0684,0-.1192-.0889-.1192-.3389,0-.294.08-.3066.1573-.3193.1269-.02.1338-.02.3545-.0635V6.7422H27.376c-.0264,0-.124,0-.124-.294,0-.2431.0488-.3193.124-.3193h.3467V5.5977h-.1914c-.1631,0-.2452-.1465-.2452-.6456V3.3672c0-.499.0821-.64.2452-.64h.621c.1622,0,.2452.1407.2452.64V4.9521c0,.4991-.08.6456-.2452.6456h-.1962Zm-.461-2.2119h.2276v-.62h-.16c-.041,0-.0674.0508-.0674.1787Zm0,.4726v.4737c0,.1142.0215.1787.0674.1787h.16V4.39Zm.6963-.4726V3.4756c0-.1279-.0244-.1787-.0654-.1787h-.17v.62Zm0,.4726h-.2353V5.042h.17c.041,0,.0654-.0518.0654-.1787Zm.7295.4161c-.0986-.2432-.2227-.4737-.2471-.5244a.5962.5962,0,0,1-.1162-.3458c0-.166.0625-.3066.1211-.3066.0215,0,.0488.02.0947.0957.0342.0576.0752.1279.1621.3008a3.72,3.72,0,0,0,.1944-.64c0-.083-.0361-.083-.0537-.083h-.4873c-.0489,0-.1114-.0254-.1114-.2881,0-.2812.0752-.2871.1114-.2871H29.2c.0977,0,.2158.0323.2158.4346a1.9736,1.9736,0,0,1-.1133.6328c-.0586.1856-.1.294-.2021.5625a.6335.6335,0,0,1,.09.3262.6178.6178,0,0,1-.0117.1221H29.23c.1016,0,.2422,0,.2422.4726a6.6038,6.6038,0,0,1-.0606.7608c-.07.5693-.09.62-.15.62-.0459,0-.1211-.07-.1211-.2363,0-.1407.1143-.7481.1143-.9014,0-.1026-.0439-.1026-.0654-.1026h-.1338V7.7207c0,.71-.1016.7285-.3467.7285-.1289,0-.1435,0-.18-.0312a.5357.5357,0,0,1-.0781-.3389c0-.3008.085-.3076.1143-.3076.02,0,.121.0068.1435.0068.0576,0,.1065-.0254.1065-.2685V5.4189h-.2813c-.0439,0-.1143-.0126-.1143-.3066,0-.3066.08-.3066.1143-.3066Z"/><path class="cls-2" d="M29.8389,6.6338c0,.0381-.02.7031-.0655,1.2021-.0117.1465-.0244.2432-.0771.2432-.0488,0-.083-.084-.083-.1728,0-.0772.0342-.3838.041-.4473.02-.2822.0293-.499.0439-.8379.0079-.16.0391-.166.08-.166C29.8389,6.4551,29.8389,6.6016,29.8389,6.6338Zm.5507-2.89h.1866c.0273,0,.1074.0059.1074.2364,0,.1787-.0488.2363-.1074.2363H30.39v.4541h.1846c.0244,0,.1094,0,.1094.249s-.085.25-.1094.25H30.39v.5117h.0928c.1309,0,.2158.0567.2158.4795,0,.07-.01,1.1309-.0732,1.7129-.0557.5244-.1289.5752-.3369.5752-.0508,0-.1651,0-.1963-.0449a.5858.5858,0,0,1-.0566-.2813c0-.2939.0752-.2939.1484-.2939a1.01,1.01,0,0,0,.1435,0c.07-.0127.1036-.2041.1231-.5176.0146-.2109.0322-.7412.0322-.9394,0-.16-.0469-.16-.0752-.16h-.4424c-.2011,0-.249-.1348-.249-.665V3.3535c0-.53.0479-.6582.249-.6582H30.61c.0439,0,.1123.0127.1123.2813,0,.25-.0567.2812-.1123.2812H30.39Zm-.3662,2.877c.0069.2041.0147.64.0147.8887,0,.1728,0,.2812-.0733.2812-.0605,0-.0605-.0957-.0605-.1533,0-.07.0049-.3906.0049-.4609,0-.0889-.002-.4795-.002-.5557,0-.0645,0-.1533.0576-.1533C30.0117,6.4678,30.0186,6.5254,30.0234,6.6211Zm.1621-2.877V3.2578H30.002c-.0557,0-.0684.09-.0684.18v.3066Zm0,.4727h-.2519v.4541h.2519Zm0,.9531h-.2519V5.502c0,.0957.0127.18.0684.18h.1835Zm.0127,1.5274c.01.1406.0411.6777.0411.7675,0,.1534-.0557.1534-.0674.1534-.0518,0-.0537-.0762-.0586-.2364-.0069-.2431-.0147-.4091-.0215-.5947-.0049-.0635-.01-.1914-.01-.1982,0-.1026.041-.1211.0508-.1211C30.1836,6.4678,30.1855,6.4863,30.1982,6.6973Zm.1846-.0127c.01.0967.0508.48.0508.55,0,.1152-.041.1543-.0684.1543-.0459,0-.0527-.09-.0576-.18-.0078-.0957-.0508-.6133-.0508-.6524,0-.0566.0186-.1142.0606-.1142C30.3555,6.4424,30.36,6.4863,30.3828,6.6846Zm1.4629-1.9629c0,.6846-.1406.7168-.3008.7168a9.2476,9.2476,0,0,0,.2227,1.956,2.4009,2.4009,0,0,1,.1553.6846c0,.2168-.0772.3828-.1475.3828-.044,0-.0733-.0185-.1729-.415a13.075,13.075,0,0,1-.291-2.6084h-.2177V5.79A14.6789,14.6789,0,0,1,30.94,8.0977c-.0537.3261-.0849.3837-.1425.3837-.0489,0-.1436-.0957-.1436-.3007a3.5817,3.5817,0,0,1,.0869-.6075,13.7342,13.7342,0,0,0,.1172-1.8789V3.3926c0-.55.09-.71.2686-.71h.4472c.1914,0,.2715.1787.2715.71Zm-.7471.09h.4073c.07,0,.0966-.0957.0966-.2558V3.5518c0-.1719-.0312-.2491-.0966-.2491h-.3135c-.0625,0-.0938.0772-.0938.2491Z"/><path class="cls-2" d="M32.81,5.502c0,.3007-.0948.55-.209.55s-.209-.2491-.209-.55c0-.3067.0947-.55.209-.55S32.81,5.1953,32.81,5.502Z"/><path class="cls-2" d="M35.4707,7.4971c0,.6455-.0967.8437-.3193.8437H33.6953c-.2158,0-.32-.1855-.32-.8437V3.584c0-.6524.1016-.8438.32-.8438h1.4561c.2207,0,.3193.1983.3193.8438Zm-.2471-3.8047c0-.2168-.0439-.3252-.124-.3252H33.7461c-.082,0-.124.1142-.124.3252V7.3887c0,.2041.039.3252.124.3252H35.1c.083,0,.124-.1211.124-.3252Zm-.706,1.4648h.456c.0391,0,.1114.0059.1114.2744,0,.25-.0557.2754-.1114.2754h-.456V6.7363h.5146c.041,0,.1192,0,.1192.2813,0,.2871-.0782.2871-.1192.2871H33.8145c-.0391,0-.1192,0-.1192-.2813,0-.2871.0772-.2871.1192-.2871h.4628V5.707H33.88c-.0322,0-.1143,0-.1143-.2558,0-.2178.0362-.294.1143-.294h.3974V4.3447h-.43c-.0362,0-.1163,0-.1163-.2744,0-.2432.0557-.3008.1163-.3008H35.01c.0752,0,.1172.1026.1172.2881,0,.2744-.0655.2871-.1172.2871h-.4922Zm.3613.9073a1.8532,1.8532,0,0,1,.0781.4091c0,.1475-.0752.1983-.1074.1983-.0508,0-.0605-.0381-.0986-.2295-.0342-.16-.0391-.18-.0781-.3389a.543.543,0,0,1-.02-.1347c0-.128.0606-.1915.1026-.1915S34.8066,5.79,34.8789,6.0645Z"/><path class="cls-2" d="M37.8789,7.7266c.09,0,.1182.1474.1182.3007,0,.1924-.0332.3331-.126.3331H36.8154c-.4531,0-.5869-.4737-.6445-.6846a4.4793,4.4793,0,0,1-.2139.6455c-.0459.1152-.0781.1221-.0966.1221-.0782,0-.1436-.1983-.1436-.4034,0-.1406.0029-.1533.1455-.4726.0606-.1348.1045-.249.1309-.3262V5.7832c0-.0576,0-.2041-.0655-.2041h-.09c-.082,0-.1143-.1279-.1143-.3135,0-.2431.0489-.3135.127-.3135h.1377c.2012,0,.25.128.25.6583V6.7617c.0293.8506.376.9649.5556.9649ZM36.1318,3.0723c.0362.09.1192.3134.1455.4091a.6641.6641,0,0,1,.0245.1729c0,.1982-.0655.3711-.1407.3711-.0517,0-.07-.0645-.1435-.2754-.041-.1152-.1162-.3193-.2139-.5752a.5672.5672,0,0,1-.043-.2168c0-.1221.0411-.3525.1377-.3525C35.9541,2.6055,36.0635,2.8936,36.1318,3.0723ZM37.583,4.1465c.1738,0,.2441.1728.2441.6455V6.6914c0,.4727-.07.6455-.2441.6455h-.8691c-.167,0-.2422-.16-.2422-.6455V4.792c0-.4854.0722-.6455.2422-.6455h.2138c.01-.0635.0313-.2168.0479-.377h-.541c-.0332,0-.1114-.0068-.1114-.2812,0-.2559.0606-.2881.1114-.2881h.2695c-.0166-.0762-.0459-.2109-.0654-.3a.65.65,0,0,1-.0215-.1475c0-.1279.0527-.2431.1406-.2431.0752,0,.09.07.1162.18.0557.2421.085.39.1045.5107h.3252c.0215-.1152.0527-.2744.082-.48.0147-.0957.0323-.2236.1241-.2236.0537,0,.1386.0644.1386.249a2.41,2.41,0,0,1-.0752.4541h.3008c.0313,0,.1133,0,.1133.2812s-.0752.2881-.1133.2881h-.6386c-.01.0772-.0245.1983-.0557.377Zm-.0049.9209v-.249c0-.1153-.0224-.18-.0664-.18h-.72c-.0469,0-.0684.0644-.0684.18v.249Zm0,.4541h-.8545V5.918h.8545Zm0,.8564h-.8545v.2559c0,.1211.0244.1787.0684.1787h.72c.042,0,.0664-.0508.0664-.1787Z"/><path class="cls-2" d="M39.9678,3.1172c.2256,0,.26.2939.26.5947A11.7159,11.7159,0,0,1,39.82,6.5508c-.3887,1.26-1.01,1.6172-1.1113,1.6172-.1338,0-.1387-.37-.1387-.3965,0-.2295.0781-.2871.168-.3447a3.4172,3.4172,0,0,0,1.0771-2.251,10.4,10.4,0,0,0,.1094-1.1572c0-.1915-.0537-.1915-.09-.1915H38.4424c-.0322,0-.1367,0-.1367-.3515,0-.333.09-.3584.1367-.3584Z"/><path class="cls-2" d="M42.46,7.2793c.0293,0,.1289,0,.1289.3262,0,.2881-.0752.3261-.1289.3261h-1.48c-.0313,0-.1309,0-.1309-.3193,0-.2627.0625-.333.1309-.333h.6064V4.7861H41.09c-.0293,0-.1308,0-.1308-.3193,0-.3008.082-.3262.1308-.3262h1.2618c.0283,0,.1308,0,.1308.3194,0,.3007-.08.3261-.1308.3261h-.5049V7.2793Z"/><path class="cls-2" d="M43.6592,6.0645c0,.1474-.0117.3515-.1406.3515-.1,0-.1456-.1015-.1456-.3515V3.1689c0-.1543.0147-.3525.1436-.3525.0967,0,.1426.1025.1426.3525Zm1.2617-.4981c0,.62-.02,1.9111-.7227,2.4736a.8963.8963,0,0,1-.5214.211c-.0274,0-.1553,0-.1553-.37,0-.295.0625-.3077.24-.3516a.9571.9571,0,0,0,.7393-.7744,3.9089,3.9089,0,0,0,.1338-1.1631v-2.5c0-.1406.01-.3584.1406-.3584.1045,0,.1455.1221.1455.3584Z"/><path class="cls-2" d="M45.6494,5.8662c-.0439,0-.1523,0-.1523-.3642,0-.3575.0967-.3711.1523-.3711h1.8633c.0439,0,.15,0,.15.3652s-.1.37-.15.37Z"/><g id="layer1"><g id="path2838-7-4-1-2"><path class="cls-10" d="M31.9961,43.4746A1.7158,1.7158,0,0,1,30.34,42.2109a.74.74,0,0,0,.6983.4258,3.4736,3.4736,0,0,1,.3369.1963,1.2471,1.2471,0,0,0,1.252.001.2884.2884,0,0,0-.2891-.499.7.7,0,0,1-.3408.09.6661.6661,0,0,1-.334-.09l-.0176-.0137-.0762-.0244a.7577.7577,0,0,1-.5107.2148h-.002a.7681.7681,0,0,1-.7793-.709,1.7585,1.7585,0,0,1,.2286-.915,1.7349,1.7349,0,0,1,1.5-.8623,1.6787,1.6787,0,0,1,.4316.0557.5384.5384,0,0,0-.08-.0049.7532.7532,0,0,0-.6426.3965,1.58,1.58,0,0,0-.7968.6513,1.26,1.26,0,0,0-.17.626.293.293,0,0,0,.29.2881.2893.2893,0,0,0,.2881-.2881.683.683,0,0,1,.09-.3379.6693.6693,0,0,1,.3125-.2793,1.1434,1.1434,0,0,1,.0137-.4023.7628.7628,0,0,1,.7412-.5782.7646.7646,0,0,1,.38.1026,1.7309,1.7309,0,0,1,.6318,2.3584,1.7813,1.7813,0,0,1-.2676.3506.74.74,0,0,0,.0215-.8233,1.3756,1.3756,0,0,0-.623-1.4736l-.0987-.0342-.1044.002-.0977.041-.08.0771a.3049.3049,0,0,0-.0488.1973l.0664.1523a.76.76,0,0,1,.4082.7207,1.0455,1.0455,0,0,1,.3721.2432l.0683.0879a.7736.7736,0,0,1-.209,1.0664A1.7858,1.7858,0,0,1,31.9961,43.4746Zm.0049-1.9687a.2441.2441,0,1,0,.2441.2441A.245.245,0,0,0,32.001,41.5059Z"/><path class="cls-15" d="M32.006,40.05a1.6659,1.6659,0,0,1,.1687.0086.9056.9056,0,0,0-.4815.402q-.0163.0285-.03.0577a1.2663,1.2663,0,0,0-.7666.5938,1.28,1.28,0,0,0-.1724.6378l.0014.05h.004a.3126.3126,0,0,0,.6172,0h.0056l0-.05a.6414.6414,0,0,1,.3872-.5934l.0386-.0176-.01-.0411-.0074-.0323a.7366.7366,0,0,1,.0426-.436l.0148-.0327.0161-.0316.01-.0178,0,0a.7372.7372,0,0,1,1.0077-.27,1.701,1.701,0,0,1,.5267,2.4713.9066.9066,0,0,0-.1069-.62q-.0168-.029-.0353-.0563a1.2722,1.2722,0,0,0-.5971-1.427l-.023-.012-.0182-.0079-.0209-.0074-.02-.0058-.0182-.0038-.0234-.0033-.02-.0015-.0186,0-.0221.0013-.0189.0024-.0007,0-.0171.0032-.0223.0057-.0174.0056-.0175.0068-.02.0094-.0171.0095-.0149.0093-.0173.0126-.0163.0136-.0134.0128-.0143.0154-.0136.0169-.0111.0157,0,0-.01.0158a.3108.3108,0,0,0-.04.1933l.005.0293.0077.0289.005.0143.0055.0138.0063.0139a.317.317,0,0,0,.0411.0633l.01.0116a.3146.3146,0,0,0,.0342.0318.302.302,0,0,0,.0393.0268.6536.6536,0,0,1,.32.6339l-.0043.0419.0405.0114a.7369.7369,0,0,1,.3424.21l.0229.0262.0219.0276.0207.0287.0234.0363.0075.0123a.7385.7385,0,0,1-.2323.9845l-.0089.0057-.0293.0169a1.718,1.718,0,0,1-.8541.2278A1.693,1.693,0,0,1,30.45,42.4456a.9058.9058,0,0,0,.5874.2153q.0336,0,.0667-.0025a1.2743,1.2743,0,0,0,1.5346.1976l.0425-.0263-.002-.0034a.3127.3127,0,0,0-.3086-.5346l-.0026-.0044-.0432.0247a.663.663,0,0,1-.3282.0872.6437.6437,0,0,1-.3215-.086.626.626,0,0,1-.0591-.0387l-.0341-.025-.03.03a.741.741,0,0,1-.5011.2087l-.0131,0a.74.74,0,0,1-.7357-.6865l-.0009-.0159,0-.0357a1.6971,1.6971,0,0,1,1.7038-1.7h.0012m-.0055,1.9689a.2689.2689,0,1,0-.2688-.2689.2691.2691,0,0,0,.2688.2689M32.0048,40a1.7471,1.7471,0,0,0-1.7538,1.75H30.25l.0008.0309.0013.0237v0a.7877.7877,0,0,0,.7856.7333l.0224-.0006a.7844.7844,0,0,0,.5266-.2226.687.687,0,0,0,.41.1344.7127.7127,0,0,0,.353-.0938l.0007.0012a.2626.2626,0,0,1,.2626.4549l.0007.0012a1.23,1.23,0,0,1-1.4906-.2061c-.0282.0028-.0567.0043-.0856.0043a.8606.8606,0,0,1-.7222-.3936A1.7434,1.7434,0,0,0,31.9962,43.5a1.7675,1.7675,0,0,0,.879-.2345l.0005.0009.0266-.0162.0133-.0086.0007,0a.7881.7881,0,0,0,.2478-1.0511l-.0121-.02,0,0-.0207-.0319-.0221-.03v0l0,0-.0232-.0292-.0245-.028a.7866.7866,0,0,0-.3656-.2244.7052.7052,0,0,0-.345-.6824.2552.2552,0,0,1-.0332-.0226.2669.2669,0,0,1-.0285-.0266l-.0086-.01a.2669.2669,0,0,1-.0345-.0533l-.0052-.0115h0l-.0047-.0117-.0041-.012-.0065-.0243-.0042-.0249a.2608.2608,0,0,1,.0334-.1621l.0083-.0135.0031-.0044.0061-.0086.0035-.0045.0081-.01.0017-.002.01-.0111.0034-.0032.0081-.0077.0035-.003.01-.0081.002-.0016.0123-.0088.0037-.0024.0091-.0057.0046-.0026.01-.0052.0037-.0019.0134-.0062.003-.0011.0112-.0044.0042-.0014.0106-.0033.0044-.0013.0142-.0036.0019,0,.0126-.0023.0051-.0008.01-.0012.005,0,.0148-.0008.0054,0,.01,0,.0048,0,.0121.001.0037,0,.0158.0023.002,0,.0135.0029.0046.0012.0131.0037.0023.0008.015.0054.0047.002.0105.0047.005.0023.0144.0077a1.2214,1.2214,0,0,1,.5675,1.3931.8354.8354,0,0,1,.0465.072.8612.8612,0,0,1,.0176.8278,1.7507,1.7507,0,0,0-.3691-2.7478.7872.7872,0,0,0-1.076.2884l-.01.0191,0,0-.0173.0338v0l-.0157.0345a.7874.7874,0,0,0-.0456.4658l.008.0343,0,.0006a.6916.6916,0,0,0-.4172.6395H31.3a.2626.2626,0,1,1-.5252,0h-.0014a1.2328,1.2328,0,0,1,.9243-1.1893q.0172-.0381.0385-.0752a.8609.8609,0,0,1,.7075-.4292A1.7394,1.7394,0,0,0,32.006,40Zm-.0043,1.9689a.2189.2189,0,1,1,.2188-.2189.2188.2188,0,0,1-.2188.2189Z"/></g></g><rect class="cls-16" x="10.2" y="57.1" width="3.6" height="1.8"/><rect class="cls-16" x="50.2" y="57.1" width="3.6" height="1.8"/><path class="cls-1" d="M37.7718,48.8645l-.0007,0a.276.276,0,0,1-.4066-.1926c-.0234-.0749-.0373-.1528-.0562-.2321-.0213.0364-.0438.0751-.0668.1135a2.2022,2.2022,0,0,1-.3389.4581.8211.8211,0,0,1-.912.1988,3.4851,3.4851,0,0,1-.4784-.2348,11.5617,11.5617,0,0,0-1.0713-.5321,2.4248,2.4248,0,0,0-.3549-.1029.1478.1478,0,0,0-.1785.0908,2.5737,2.5737,0,0,0-.2524.7419c-.0446.2217-.0864.444-.1351.6647a.9355.9355,0,0,1-.0743.19.2571.2571,0,0,1-.06.0752.1647.1647,0,0,1-.2866-.0673.851.851,0,0,1-.0373-.4352,4.9256,4.9256,0,0,1,.312-1.2125,4.4,4.4,0,0,1,.3125-.6021c.1829-.3047.38-.6009.5711-.9008.01-.0164.02-.0333.0387-.064-.0294.0147-.0449.0207-.0585.03a5.2557,5.2557,0,0,0-.7042.53.73.73,0,0,0-.1268.1589c-.042.0694-.0234.1146.0481.1536a.09.09,0,0,1,.0458.134.4116.4116,0,0,1-.2036.1842.7025.7025,0,0,1-.4989.0806.2525.2525,0,0,1-.216-.3191.7059.7059,0,0,1,.1435-.2923,2.2983,2.2983,0,0,1,.4747-.4586,6.7786,6.7786,0,0,1,1.3959-.8427,5.0119,5.0119,0,0,1,.8838-.307,1.9163,1.9163,0,0,1,.7677-.0518,1.3384,1.3384,0,0,1,.3231.098.6168.6168,0,0,1,.3351.6434.8006.8006,0,0,1-.1013.3156,1.7343,1.7343,0,0,1-.7147.6886,4.7015,4.7015,0,0,1-.804.3335c-.2025.0623-.4054.1234-.6091.1814-.0679.0193-.139.0272-.2246.0433.1429.0494.2705.0964.4.1377.4413.1409.8826.2823,1.3256.4177a2.4635,2.4635,0,0,0,.3325.0634.4214.4214,0,0,0,.3317-.093,1.1061,1.1061,0,0,0,.31-.3745c.0723-.1382.1339-.2821.2-.4233.124-.2633.2461-.5274.3734-.7891a.323.323,0,0,1,.2378-.1769.1054.1054,0,0,1,.1388.1163.2493.2493,0,0,1-.029.1125c-.1057.18-.2181.3552-.3229.5353-.0676.1162-.1283.2368-.1881.3573a.3915.3915,0,0,0-.0345.2362.1738.1738,0,0,0,.2048.1583A.394.394,0,0,0,38.05,48.17c.106-.2478.2069-.4978.3083-.7475.0562-.1381.11-.2772.1633-.4166a.4376.4376,0,0,1,.1638-.2276.14.14,0,0,1,.1426-.02.1139.1139,0,0,1,.054.12.7.7,0,0,1-.0175.1385,1.9067,1.9067,0,0,1-.0649.2223c-.1036.2739-.21.5468-.3163.82q-.2379.61-.4762,1.2205a.2536.2536,0,0,0-.02.0982c.0016.0426.031.0543.0606.0242a.5193.5193,0,0,0,.0916-.1182c.1765-.3355.3482-.6736.5254-1.0087.1068-.2017.2217-.3991.3313-.5993.139-.2538.272-.5109.4155-.7621a.9972.9972,0,0,1,.47-.4575.2361.2361,0,0,1,.213.0015.11.11,0,0,1,.066.1034.1086.1086,0,0,1-.0792.0931.1932.1932,0,0,1-.0784.0144.2678.2678,0,0,0-.2175.0991,1.0072,1.0072,0,0,0-.2443.7531.52.52,0,0,0,.1282.3354.2408.2408,0,0,0,.4032-.0184.6969.6969,0,0,0,.1171-.5881c-.0071-.031-.0179-.0482-.0556-.05a.1569.1569,0,0,1-.1509-.1244.2785.2785,0,0,1,.2423-.3891.8407.8407,0,0,0,.3817-.175.2153.2153,0,0,0,.08-.1292,10.4134,10.4134,0,0,1,.49-1.5672,1.293,1.293,0,0,1,.2488-.4067.3888.3888,0,0,1,.2343-.12.2588.2588,0,0,1,.282.1827.8547.8547,0,0,1,.0088.4469,1.4393,1.4393,0,0,1-.2929.6349q-.194.2416-.3891.4823l-.0435.0529a1.3345,1.3345,0,0,0,.4059.3334.91.91,0,0,0,.1445.0585.309.309,0,0,0,.3391-.0845,1.7852,1.7852,0,0,0,.3109-.4635.7131.7131,0,0,1,.2925-.3349.15.15,0,0,1,.1636-.0011.1413.1413,0,0,1,.0525.1489.4491.4491,0,0,1-.0307.1137,1.0793,1.0793,0,0,1-.0727.1319,1.7179,1.7179,0,0,0-.2756.7576.5152.5152,0,0,0,.0435.2992.2743.2743,0,0,0,.3955.1094.9859.9859,0,0,0,.31-.3524c.0262-.0428.0485-.0881.0738-.1315a.3074.3074,0,0,1,.0308-.0379l.0145.0051a.2555.2555,0,0,1-.0011.0488.9179.9179,0,0,1-.6421.742.4032.4032,0,0,1-.4749-.2222.8176.8176,0,0,1-.0516-.4434c.0158-.13.0448-.258.068-.3869a.2975.2975,0,0,0,.0066-.0634.61.61,0,0,1-.9009.2114c.0133.0712.0259.1294.0347.1882a1.9839,1.9839,0,0,1-.0123.754.9214.9214,0,0,1-.0925.2342.4652.4652,0,0,1-.4833.22.2778.2778,0,0,1-.2265-.1978,1.9867,1.9867,0,0,1-.0365-1.0263l.01-.0473-.0007-.0053a.4353.4353,0,0,0-.2317.3564c.0039.1936.0131.3878.0034.5809a.7117.7117,0,0,1-.7065.7.413.413,0,0,1-.3729-.251,1.0417,1.0417,0,0,1-.1163-.4809c-.012.0165-.02.0261-.0265.0367a9.1914,9.1914,0,0,0-.8918,2.098,3.0129,3.0129,0,0,1-.3035.7468.5871.5871,0,0,1-.2832.27.118.118,0,0,1-.1665-.06.5694.5694,0,0,1-.0507-.283,4.1716,4.1716,0,0,1,.1576-1.0027C37.6729,49.191,37.7245,49.0285,37.7718,48.8645Zm-3.0031-1.0874a2.8915,2.8915,0,0,0,.7833-.3618,1.7217,1.7217,0,0,0,.5781-.537.8592.8592,0,0,0,.1424-.4673c-.0047-.2062-.1061-.31-.31-.2982a1.5252,1.5252,0,0,0-.3949.0713,4.4276,4.4276,0,0,0-.4769.2092.7235.7235,0,0,0-.3431.2977c-.17.3043-.3478.604-.5207.9065a1.7554,1.7554,0,0,0-.0883.1846c-.0289.0679-.0226.076.0521.0784A1.9,1.9,0,0,0,34.7687,47.7771Zm6.2789-1.52a1.6064,1.6064,0,0,0-.0871.17,1.7086,1.7086,0,0,0-.105.7026.86.86,0,0,0,.0523.2234.14.14,0,0,0,.1241.0986.1366.1366,0,0,0,.1286-.0833.6211.6211,0,0,0,.0559-.1277,1.323,1.323,0,0,0-.0312-.8044A.32.32,0,0,0,41.0476,46.2574Zm.0442-.3844.0234.0137c.0462-.0427.096-.0823.138-.1288a2.0723,2.0723,0,0,0,.3751-.6183.4711.4711,0,0,0,.027-.2953.1532.1532,0,0,0-.0565-.0894c-.04-.0241-.0743.0123-.0989.0431a1.0312,1.0312,0,0,0-.1.14,3.1506,3.1506,0,0,0-.3087.8524A.3633.3633,0,0,0,41.0918,45.873Z"/><path class="cls-1" d="M42.7,45.4136c.0029-.06.003-.12.01-.18a.05.05,0,0,0-.0414-.0621c-.0506-.0173-.1-.0384-.15-.0579l-.0017-.0151.1036-.03c.1018-.0292.1017-.0292.1091-.137a.3985.3985,0,0,1,.0209-.1173c.0289.0461.0609.09.0857.1386a.0545.0545,0,0,0,.0783.0292.8763.8763,0,0,1,.1646-.0385l-.078.1008c-.0593.0762-.0593.0762-.0091.1586l.072.1181-.2145-.078-.14.1734Z"/><g id="g8696"><g id="path8698"><polygon class="cls-10" points="51.41 50.834 51.436 49.727 52.657 49.752 52.632 49.97 51.712 49.944 51.687 50.192 52.617 50.218 52.592 50.435 51.712 50.409 51.688 50.834 51.41 50.834"/><path class="cls-15" d="M52.6076,49.777V49.92h-.9457v.3225h.9055v.1427h-.9055V50.81H51.46V49.777h1.1476m.05-.05H51.41V50.86h.3019v-.4247h.9055v-.2427h-.9055V49.97h.9457v-.2426Z"/></g></g><g id="g8708"><path id="path8710" class="cls-17" d="M57.3932,50.6a.301.301,0,0,1-.0884.1674c-.1.0941-.2526.0972-.6271.0972-.4569,0-.578-.0031-.68-.1073-.0738-.0758-.0887-.156-.0887-.4407,0-.0635,0-.1263.0017-.1917a.4338.4338,0,0,1,.097-.3252c.0836-.0785.2-.0992.6071-.0992.0509,0,.1512.0013.3031.0046a.6422.6422,0,0,1,.3678.0674c.0974.06.1243.1659.1243.4874a2.3278,2.3278,0,0,1-.0168.34m-.33-.6124a1.0967,1.0967,0,0,0-.4043-.0351c-.1411,0-.2605.0032-.3236.0085a.1537.1537,0,0,0-.0828.0266c-.0364.0284-.0413.069-.0413.2813,0,.0407,0,.0821.0019.1233.0014.1068.008.1474.03.1731a.1219.1219,0,0,0,.0737.0347,2.6861,2.6861,0,0,0,.3611.0183c.2368,0,.3532,0,.3936-.0448.0288-.032.036-.0851.036-.31,0-.07.0083-.2311-.0444-.2763"/></g><g id="g8712"><path id="path8714" class="cls-17" d="M55.65,50.7826c-.0546.06-.12.077-.2507.077H54.3882v-.263h.9151a.1778.1778,0,0,0,.0982-.0136c.02-.0117.0257-.0329.0257-.0929,0-.0478-.0054-.0629-.0239-.0785-.0169-.0137-.0324-.0172-.0906-.0172h-.5836c-.1537,0-.2054-.0116-.2682-.0619s-.0869-.1338-.0869-.3053a.3622.3622,0,0,1,.0531-.2309.18.18,0,0,1,.0749-.06.4446.4446,0,0,1,.2217-.0293h.9523V49.97h-.85c-.09,0-.1078.0147-.1078.0935,0,.0709.0232.0885.1042.0885h.5611c.1726,0,.27.0462.314.1489a.5062.5062,0,0,1,.0306.21.3525.3525,0,0,1-.0782.2692"/></g><g id="g8716"><path id="path8718" class="cls-17" d="M54.0979,50.76c-.0631.085-.1584.1182-.3682.12l-.1906.02h-.2366c-.2216-.0194-.3174-.0555-.3869-.1556a.8428.8428,0,0,1-.0568-.2717V49.727h.3019V50.44c0,.1517.0312.1754.2173.1773l.1394.0016.1556-.0035c.1695-.0037.192-.0254.192-.208v-.68h.3018v.6821c0,.207-.0154.2756-.0715.3532"/></g><g id="g8720"><g id="path8722"><path class="cls-10" d="M49.85,50.875l.2529-.3623.4366.0127-.2491.3623Zm.9238,0-.208-.3838.4385.0342.1934.35Zm-.249-.3877.0381.0029-.0215.0323Zm-.1914-.3994.2315-.375.1875.4-.23.3711Z"/><path class="cls-15" d="M50.5427,49.8l.1729.3-.173.3-.1732-.3.1733-.3m.4329.75.176.3h-.349l-.1733-.3h.3463m-.52,0-.173.3h-.3464l.1731-.3h.3463m.0868-.85-.2311.4006.2309.4.2306-.4,0,.0005L50.5428,49.7Zm0,.8Zm.4617,0h-.4617l.2311.4h.4652l-.2346-.4Zm-.4617,0h-.4617l-.2309.4h.4618l.2308-.4Z"/></g></g></svg>