<svg id="レイヤー_1" data-name="レイヤー 1" xmlns="http://www.w3.org/2000/svg" viewBox="0 0 2874.33 884.41"><defs><style>.cls-1{fill:#172a88;}.cls-2{fill:#fefefe;}.cls-3{fill:#7bb89b;}.cls-4{fill:#898989;}.cls-5{fill:#c9caca;}.cls-12,.cls-6{fill:#2f2725;}.cls-7{fill:#231815;}.cls-8{fill:#c3c4c4;}.cls-14,.cls-15,.cls-9{fill:#036eb8;}.cls-10{fill:#fff;}.cls-11{fill:#bdbebe;}.cls-12,.cls-13,.cls-14,.cls-15,.cls-16,.cls-18{stroke:#231815;stroke-miterlimit:10;}.cls-12,.cls-13,.cls-14{stroke-width:8px;}.cls-13,.cls-16,.cls-18{fill:none;}.cls-17{fill:#b5b5b6;}.cls-18{stroke-width:0.76px;}.cls-19{fill:#9bc7af;}</style></defs><path class="cls-1" d="M2857.32,644.88v14.17h-68v92.13L2751,758.27l-14.17,18.42L2494.49,788H2154.33V715.75a155.24,155.24,0,0,0-17-70.87Z"/><path class="cls-2" d="M2857.32,425.2V644.88h-720a155.89,155.89,0,0,0-138.9-85h-28.35a155.92,155.92,0,0,0-138.91,85H776.7a153.62,153.62,0,0,0-10.11-17h41.29l-25.2-22.67H747.74a157.83,157.83,0,0,0-20.27-17h36.31l-25.2-22.68h-59a155.76,155.76,0,0,0-41.8-5.67H609.45a155.89,155.89,0,0,0-41.81,5.67H25.09l-.85-17H719.69l-25.2-22.67H23.1L21.26,489l9.79-63.78Z"/><polygon class="cls-3" points="2857.32 361.42 2857.32 425.2 31.05 425.2 68.03 184.25 68.03 170.08 63.78 59.53 63.78 49.61 77.95 42.52 2817.64 42.52 2834.65 49.61 2834.65 134.64 2821.89 141.73 2836.06 358.58 2857.32 361.42"/><path class="cls-1" d="M776.7,644.88H1831.17a155.24,155.24,0,0,0-17,70.87v70.86H793.7V715.75A155.24,155.24,0,0,0,776.7,644.88Z"/><path class="cls-3" d="M807.88,627.87H766.59a156.85,156.85,0,0,0-18.85-22.67h34.94Z"/><path class="cls-3" d="M763.78,588.19H727.47a155.23,155.23,0,0,0-47.87-22.68h59Z"/><polygon class="cls-3" points="719.69 548.5 24.24 548.5 23.1 525.83 694.49 525.83 719.69 548.5"/><path class="cls-3" d="M25.09,565.51H567.64a155.29,155.29,0,0,0-47.86,22.68H26.22Z"/><path class="cls-2" d="M26.22,588.19H519.78a156.47,156.47,0,0,0-20.27,17H27.07Z"/><path class="cls-3" d="M499.51,605.2a156.85,156.85,0,0,0-18.85,22.67H28.21L27.07,605.2Z"/><path class="cls-2" d="M28.21,627.87H480.66a155.27,155.27,0,0,0-10.12,17H28.35V630.71Z"/><path class="cls-1" d="M28.35,644.88H470.54a155.24,155.24,0,0,0-17,70.87v56.69H106.3l-14.17-7.09V694.49H28.35Z"/><polygon class="cls-4" points="92.13 694.49 92.13 765.35 0 744.09 0 701.58 28.35 694.49 92.13 694.49"/><polygon class="cls-4" points="2857.32 659.05 2789.29 659.05 2789.29 751.18 2874.33 729.92 2874.33 666.14 2857.32 659.05"/><path class="cls-5" d="M113.39,134.65a35.44,35.44,0,0,1,35.43-35.44H2800.63V92.13H148.82a42.52,42.52,0,0,0-42.52,42.52V758.27h7.09Z"/><rect class="cls-6" x="389.76" y="99.21" width="2347.09" height="12.76"/><rect class="cls-6" x="389.76" y="395.43" width="1792.91" height="8.5"/><rect class="cls-7" x="389.76" y="111.97" width="34.02" height="283.46"/><rect class="cls-7" x="2736.85" y="99.21" width="63.78" height="304.72"/><rect class="cls-7" x="2171.34" y="111.97" width="11.34" height="283.46"/><rect class="cls-8" x="423.78" y="126.14" width="4.25" height="265.04"/><rect class="cls-6" x="2477.48" y="395.43" width="259.37" height="8.5"/><rect class="cls-9" x="2488.82" y="111.97" width="248.03" height="283.46"/><rect class="cls-7" x="2477.48" y="111.97" width="11.34" height="283.46" transform="translate(4966.3 507.4) rotate(-180)"/><rect class="cls-5" x="106.3" y="758.27" width="276.38" height="14.17"/><rect class="cls-5" x="2196.85" y="773.86" width="269.29" height="14.17"/><rect class="cls-7" x="113.39" y="167.24" width="269.29" height="591.02"/><rect class="cls-1" x="119.06" y="644.88" width="130.39" height="113.39"/><rect class="cls-10" x="119.06" y="627.87" width="130.39" height="17.01"/><rect class="cls-3" x="119.06" y="605.2" width="130.39" height="22.67"/><rect class="cls-10" x="119.06" y="588.19" width="130.39" height="17.01"/><rect class="cls-3" x="119.06" y="565.51" width="130.39" height="22.68"/><rect class="cls-10" x="119.06" y="548.5" width="130.39" height="17.01"/><rect class="cls-3" x="119.06" y="525.83" width="130.39" height="22.67"/><rect class="cls-10" x="119.06" y="425.2" width="130.39" height="100.63"/><rect class="cls-3" x="119.06" y="170.08" width="130.39" height="255.12"/><rect class="cls-9" x="131.89" y="185.75" width="104.72" height="528.5"/><path class="cls-7" d="M235.11,187.25v525.5H133.39V187.25H235.11m3-3H130.39v531.5H238.11V184.25Z"/><rect class="cls-1" x="252.29" y="644.88" width="124.72" height="113.39"/><rect class="cls-10" x="252.29" y="627.87" width="124.72" height="17.01"/><rect class="cls-3" x="252.29" y="605.2" width="124.72" height="22.67"/><rect class="cls-10" x="252.29" y="588.19" width="124.72" height="17.01"/><rect class="cls-3" x="252.29" y="565.51" width="124.72" height="22.68"/><rect class="cls-10" x="252.29" y="548.5" width="124.72" height="17.01"/><rect class="cls-3" x="252.29" y="525.83" width="124.72" height="22.67"/><rect class="cls-10" x="252.29" y="425.2" width="124.72" height="100.63"/><rect class="cls-3" x="252.29" y="170.08" width="124.72" height="255.12"/><rect class="cls-9" x="265.12" y="185.75" width="99.05" height="528.5"/><path class="cls-7" d="M362.67,187.25v525.5H266.62V187.25h96.05m3-3H263.62v531.5H365.67V184.25Z"/><rect class="cls-7" x="2196.85" y="171.5" width="269.29" height="602.36"/><rect class="cls-1" x="2202.52" y="644.88" width="124.73" height="128.98"/><rect class="cls-10" x="2202.52" y="425.2" width="124.73" height="219.68"/><rect class="cls-3" x="2202.52" y="174.33" width="124.73" height="250.87"/><rect class="cls-9" x="2215.36" y="187.17" width="99.05" height="478.89"/><path class="cls-7" d="M2312.91,188.67V664.56h-96V188.67h96m3-3h-102V667.56h102V185.67Z"/><rect class="cls-1" x="2330.08" y="644.88" width="130.39" height="128.98"/><rect class="cls-10" x="2330.08" y="425.2" width="130.39" height="219.68"/><rect class="cls-3" x="2330.08" y="174.33" width="130.39" height="250.87"/><rect class="cls-9" x="2342.92" y="187.17" width="104.72" height="478.89"/><path class="cls-7" d="M2446.13,188.67V664.56H2344.42V188.67h101.71m3-3H2341.42V667.56h107.71V185.67Z"/><rect class="cls-5" x="2488.82" y="111.97" width="248.03" height="14.17"/><rect class="cls-5" x="2488.82" y="391.18" width="248.03" height="4.25"/><rect class="cls-8" x="2488.82" y="126.14" width="4.25" height="265.04"/><rect class="cls-11" x="2493.07" y="126.14" width="239.53" height="5.67"/><rect class="cls-11" x="2493.07" y="267.87" width="239.53" height="8.5"/><rect class="cls-11" x="2493.07" y="377.01" width="239.53" height="11.34"/><rect class="cls-7" x="2493.07" y="388.35" width="239.53" height="2.83"/><rect class="cls-8" x="2732.6" y="126.14" width="4.25" height="265.04"/><rect class="cls-9" x="423.78" y="111.97" width="1747.56" height="283.46"/><rect class="cls-7" x="1911.97" y="111.97" width="11.34" height="283.46"/><rect class="cls-5" x="1923.31" y="111.97" width="248.03" height="8.5"/><rect class="cls-5" x="1923.31" y="384.09" width="248.03" height="11.34"/><rect class="cls-8" x="1923.31" y="120.47" width="4.25" height="263.62"/><rect class="cls-8" x="2167.09" y="120.47" width="4.25" height="263.62"/><rect class="cls-7" x="1927.56" y="120.47" width="239.53" height="263.62"/><rect class="cls-10" x="1955.2" y="145.98" width="184.25" height="184.25" rx="14.17"/><rect class="cls-7" x="671.81" y="111.97" width="11.34" height="283.46"/><rect class="cls-5" x="423.78" y="111.97" width="248.03" height="14.17"/><rect class="cls-5" x="423.78" y="391.18" width="248.03" height="4.25"/><rect class="cls-8" x="423.78" y="126.14" width="4.25" height="265.04"/><rect class="cls-11" x="428.03" y="126.14" width="239.53" height="5.67"/><rect class="cls-11" x="428.03" y="267.87" width="239.53" height="8.5"/><rect class="cls-11" x="428.03" y="377.01" width="239.53" height="11.34"/><rect class="cls-7" x="428.03" y="388.35" width="239.53" height="2.83"/><rect class="cls-8" x="667.56" y="126.14" width="4.25" height="265.04"/><rect class="cls-7" x="931.18" y="111.97" width="11.34" height="283.46"/><rect class="cls-5" x="683.15" y="111.97" width="248.03" height="14.17"/><rect class="cls-5" x="683.15" y="391.18" width="248.03" height="4.25"/><rect class="cls-8" x="683.15" y="126.14" width="4.25" height="265.04"/><rect class="cls-11" x="687.4" y="126.14" width="239.53" height="5.67"/><rect class="cls-11" x="687.4" y="267.87" width="239.53" height="8.5"/><rect class="cls-11" x="687.4" y="377.01" width="239.53" height="11.34"/><rect class="cls-7" x="687.4" y="388.35" width="239.53" height="2.83"/><rect class="cls-8" x="926.93" y="126.14" width="4.25" height="265.04"/><rect class="cls-5" x="942.52" y="111.97" width="233.86" height="14.17"/><rect class="cls-5" x="942.52" y="391.18" width="233.86" height="4.25"/><rect class="cls-8" x="942.52" y="126.14" width="4.25" height="265.04"/><rect class="cls-11" x="946.77" y="126.14" width="225.35" height="5.67"/><rect class="cls-11" x="946.77" y="267.87" width="225.35" height="8.5"/><rect class="cls-11" x="946.77" y="377.01" width="225.35" height="11.34"/><rect class="cls-7" x="946.77" y="388.35" width="225.35" height="2.83"/><rect class="cls-8" x="1172.13" y="126.14" width="4.25" height="265.04"/><rect class="cls-7" x="1176.38" y="111.97" width="11.34" height="283.46"/><rect class="cls-5" x="1187.72" y="111.97" width="233.86" height="14.17"/><rect class="cls-5" x="1187.72" y="391.18" width="233.86" height="4.25"/><rect class="cls-8" x="1187.72" y="126.14" width="4.25" height="265.04"/><rect class="cls-11" x="1191.97" y="126.14" width="225.35" height="5.67"/><rect class="cls-11" x="1191.97" y="267.87" width="225.35" height="8.5"/><rect class="cls-11" x="1191.97" y="377.01" width="225.35" height="11.34"/><rect class="cls-7" x="1191.97" y="388.35" width="225.35" height="2.83"/><rect class="cls-8" x="1417.32" y="126.14" width="4.25" height="265.04"/><rect class="cls-7" x="1421.57" y="111.97" width="11.34" height="283.46"/><rect class="cls-5" x="1432.91" y="111.97" width="233.86" height="14.17"/><rect class="cls-5" x="1432.91" y="391.18" width="233.86" height="4.25"/><rect class="cls-8" x="1432.91" y="126.14" width="4.25" height="265.04"/><rect class="cls-11" x="1437.17" y="126.14" width="225.35" height="5.67"/><rect class="cls-11" x="1437.17" y="267.87" width="225.35" height="8.5"/><rect class="cls-11" x="1437.17" y="377.01" width="225.35" height="11.34"/><rect class="cls-7" x="1437.17" y="388.35" width="225.35" height="2.83"/><rect class="cls-8" x="1662.52" y="126.14" width="4.25" height="265.04"/><rect class="cls-7" x="1666.77" y="111.97" width="11.34" height="283.46"/><rect class="cls-5" x="1678.11" y="111.97" width="233.86" height="14.17"/><rect class="cls-5" x="1678.11" y="391.18" width="233.86" height="4.25"/><rect class="cls-8" x="1678.11" y="126.14" width="4.25" height="265.04"/><rect class="cls-11" x="1682.36" y="126.14" width="225.35" height="5.67"/><rect class="cls-11" x="1682.36" y="267.87" width="225.35" height="8.5"/><rect class="cls-11" x="1682.36" y="377.01" width="225.35" height="11.34"/><rect class="cls-7" x="1682.36" y="388.35" width="225.35" height="2.83"/><rect class="cls-8" x="1907.72" y="126.14" width="4.25" height="265.04"/><path class="cls-12" d="M63.78,59.53s15.41-.84,16,9.6L85,167.24H67.92"/><path class="cls-9" d="M68,184.25H86.44a6.87,6.87,0,0,1,7.09,7.09V474.8c.36,13.48-6.12,17.9-17,17.9H21.45L21.26,489"/><path class="cls-13" d="M68,184.25H86.44a6.87,6.87,0,0,1,7.09,7.09V474.8c.36,13.48-6.12,17.9-17,17.9H21.45"/><path class="cls-14" d="M22.82,516.93H67c13,0,26.55,4.37,26.55,17.39v23.74c0,17.62-15.57,29.62-28.08,29.62H26.2"/><polyline class="cls-15" points="2831.81 136.22 2821.89 141.73 2836.06 358.58 2853.07 360.85"/><polyline class="cls-16" points="679.6 565.51 850.39 565.51 850.39 786.61"/><polyline class="cls-16" points="389.76 772.44 389.76 565.51 567.64 565.51"/><polyline class="cls-16" points="850.39 565.51 999.21 565.51 999.21 786.61"/><polyline class="cls-16" points="999.21 565.51 1254.33 565.51 1254.33 786.61"/><polyline class="cls-16" points="1254.33 565.51 1714.96 565.51 1714.96 786.61"/><polyline class="cls-16" points="2040.23 565.51 2175.59 565.51 2175.59 786.61"/><line class="cls-16" x1="1714.96" y1="565.51" x2="1928.28" y2="565.51"/><circle class="cls-7" cx="623.62" cy="742.68" r="141.73"/><circle class="cls-17" cx="623.62" cy="742.68" r="85.04"/><circle class="cls-5" cx="623.62" cy="742.68" r="70.87"/><circle class="cls-7" cx="1984.25" cy="742.68" r="141.73"/><circle class="cls-17" cx="1984.25" cy="742.68" r="85.04"/><circle class="cls-5" cx="1984.25" cy="742.68" r="70.87"/><polyline class="cls-18" points="2487.4 788.03 2487.4 566.93 2751.02 566.93 2751.02 758.27"/><polygon class="cls-19" points="623.62 42.52 623.62 28.35 651.97 0 1077.16 0 1105.51 28.35 1105.51 42.52 623.62 42.52"/></svg>