<svg id="レイヤー_1" data-name="レイヤー 1" xmlns="http://www.w3.org/2000/svg" viewBox="0 0 113.39 538.58"><defs><style>.cls-1{fill:#f7f7f7;}.cls-2{fill:none;stroke:#004030;stroke-miterlimit:10;stroke-width:4px;}.cls-3{fill:navy;}.cls-4{fill:#20903c;}.cls-5{fill:#fff;}.cls-6{fill:#004030;}.cls-7{fill:#c0bfbe;}</style></defs><polygon class="cls-1" points="8.5 141.73 11.34 218.27 102.05 218.27 104.88 141.73 8.5 141.73"/><line class="cls-2" x1="19.84" y1="425.2" x2="93.54" y2="425.2"/><line class="cls-2" x1="11.34" y1="218.27" x2="102.05" y2="218.27"/><line class="cls-2" x1="12.76" y1="246.61" x2="100.63" y2="246.61"/><line class="cls-2" x1="8.5" y1="141.73" x2="104.88" y2="141.73"/><line class="cls-2" x1="57.54" y1="141.73" x2="57.54" y2="124.72"/><circle class="cls-3" cx="57.54" cy="77.95" r="49.61"/><path class="cls-4" d="M97.11,90.71a2.83,2.83,0,0,1,2.64,3.87,45.37,45.37,0,0,1-84.42,0A2.85,2.85,0,0,1,18,90.7Z"/><path class="cls-4" d="M18,65.2a2.84,2.84,0,0,1-2.64-3.88,45.37,45.37,0,0,1,84.41,0,2.84,2.84,0,0,1-2.64,3.88Z"/><path class="cls-5" d="M30.08,75.39c0,.12.07.6.07.69s0,1.27,0,1.45c0,.37.09,1.91.09,2.23v2.12c0,.09,0,.6,0,.69,0,.25,0,1.33,0,1.54s-.05.71-.05.92c0,0,0,.3,0,.34a4.91,4.91,0,0,1-.5,2.37,7.08,7.08,0,0,1-.62.78c-.36,0-.9-.89-1.38-1.65a1.76,1.76,0,0,0-.63-.67c-.15-.09-.38-.18-.35-.34a5.71,5.71,0,0,0,1.63.25c.23,0,.47,0,.47-.83V83.14c0-.34.06-2.11.06-2.2,0-.26.09-1.36.09-1.57s-.05-1.17-.05-1.35c0-.35,0-1.87,0-2.19,0-.11,0-.62,0-.71l-.07-2.25,0-.92c0-.19-.06-1-.06-1.2V69.44l0,0a13.09,13.09,0,0,0-1.42-.16l-.86,0a4.86,4.86,0,0,0-1.32.11c0,.14.85.62,1,.78a1,1,0,0,1,.4,1,4.25,4.25,0,0,0-.35.41,6,6,0,0,1-.85,2.07c-.05.09-.21.6-.26.69a2.59,2.59,0,0,1-.49.51l0,0a8.55,8.55,0,0,0,1.29-.19c.09,0,.41-.2.48-.2a3.19,3.19,0,0,1,1.2.55c.14.11.27.21.27.67a.48.48,0,0,1-.41.41c-.12,0-.73-.14-.85-.14a18.26,18.26,0,0,0-1.94.14,3.47,3.47,0,0,1-1,.14.81.81,0,0,0,0,.11c0,.14.52.72.57.88s.09.73.09.8-.19.32-.17.44-.06.57-.06.67,0,.66,0,.69,0,.59,0,.69c0,.55-.12,2.13-.12,2.41v0c0,.12.1.14.21.14s.66-.09.77-.09c.59,0,.66,0,.7-.28.07-.53.23-3,.23-3.33,0-1.06-.06-1.08-.56-1.45v-.12a.49.49,0,0,1,.22-.06,4.28,4.28,0,0,1,1.17.46c.58.46.67.55.67,1.17a9.1,9.1,0,0,1-.33,1.13c0,.16-.07.8-.07.94a6.19,6.19,0,0,1-.09,1.08,6.54,6.54,0,0,0-.09.73c0,.12-.17.63-.17.72a8.64,8.64,0,0,1-.32,1.58c-.09.23-.14.26-.31.23s-.12.17-.21.17-.44-.14-.54-1.43L25,84.43a7.72,7.72,0,0,0-2.65.42,1.43,1.43,0,0,0-1,1.15c-.31.06-.35.09-.47.06s-.14-.11-.32-.25a2.53,2.53,0,0,1-.45-.64s-.05-.69-.05-.72a.71.71,0,0,1,.1-.32c0-.34,0-1.7,0-2,0,0-.11-1.15-.13-1.32-.15-.94-.17-1-.31-1.19-.42-.42-.46-.44-.44-.58a1.2,1.2,0,0,1,.54-.27,1.86,1.86,0,0,1,.69.18s.63.55.63.71,0,.33,0,.35.05.3.05.32c0,.21,0,.55,0,.71s.05,1.13.05,1.31,0,.69,0,.72,0,.62,0,.76a7.41,7.41,0,0,0,1.19-.44l.66-.16v-.12A.5.5,0,0,1,23,83c0-.37-.1-2-.1-2.34,0,0,0-.92,0-1,0-.28,0-1.48,0-1.66,0-.48,0-1.38-.42-1.38-.05,0-1.5.32-1.56.37a.61.61,0,0,1-.5.18c-.07,0-1.45-.3-1.45-.78,0-.16.49-.21.68-.23s1.13-.37,1.33-.41.82-.14,1-.19l.05,0,0-.07c-.31-.12-.49-.6-.63-1s-.17-2.19-.24-2.53a3.28,3.28,0,0,0-.79-1.61c-.09,0-1.15.43-1.36.5l-.05.12c0,.14,0,.8,0,.94s0,1.43,0,1.54.05.46.05.55c0,.42-.14,2.46-.14,2.67s0,.87,0,1l-.06,2.3c0,.07,0,.39,0,.46s0,.83,0,1-.07.83-.07,1,0,.73,0,.85v2.14c0,.09-.05.55-.05.57s.05.23.05.28a3.09,3.09,0,0,0,0,.43s-.31,1.2-.7,1.2-.59-.71-.72-1.1l-.07-.1,0,0a3.37,3.37,0,0,1,.12-1.29c.14-.46.26-2.87.33-3.22s.06-1.26.06-1.38.05-.73.05-.87,0-.92,0-1.08,0-.94,0-1.11,0-.34,0-.39c0-.36.06-2,.06-2.39s0-1.47,0-1.72-.07-1.11-.07-1.29v-.69a1.48,1.48,0,0,0-.45-.67c-.07-.07-.41-.25-.46-.32.12-.23.65-.25.68-.25s.18-.19.28-.19.49.07.58.07,2.31-.62,2.71-.71,2.43-.28,2.83-.34c.76-.12,1.82-.26,1.93-.26.38,0,2.55,0,2.69,0s.35-.21.4-.21c.25,0,1.65.6,1.8,1.68a2.92,2.92,0,0,1-.42.76c-.05.46-.08,1.08-.08,1.52,0,.13-.09.82-.09,1Zm-7.89,0a3.84,3.84,0,0,0,1.1-.28,2.82,2.82,0,0,0,.67-1l.42-1.65.09-.44c.05-.3.31-1.43.31-1.56a1.19,1.19,0,0,0-.28-.56,1.21,1.21,0,0,1-.49-.41,14,14,0,0,0-3.34.62l0,.07a5.43,5.43,0,0,0,.52.18,1.87,1.87,0,0,1,1,1.25,12.84,12.84,0,0,1,.26,1.72,1.85,1.85,0,0,0,.06.58.65.65,0,0,1,0,.2,2.11,2.11,0,0,1-.27,1.24Z"/><path class="cls-5" d="M36,80.07a.86.86,0,0,0,.41-.14s0-.32,0-.38A6.18,6.18,0,0,0,36.24,78c0-.07-.17-.49-.17-.53s.2-.18.3-.18c.3,0,1.1.73,1.1,1a4.25,4.25,0,0,1-.17.57,9.51,9.51,0,0,0,0,1l.17,0a8.53,8.53,0,0,0,.85-.1c.06,0,.29-.21.34-.21a5.13,5.13,0,0,1,.69.25.54.54,0,0,1,.19.4c0,.18-.22.3-.37.3l-.69,0h-.87l-.28,0a1.39,1.39,0,0,0-.06.45c0,.19,0,1,0,1.2,0,.39,0,.92,0,1.18l0,1.48v.54c0,.16.07.85.07,1a2.22,2.22,0,0,1-.62,1.48c-.18,0-.27-.25-.35-.48a2,2,0,0,0-.59-.67,2.82,2.82,0,0,1-.5-.65.39.39,0,0,1,0-.26c.08,0,.12,0,.54.16a3.9,3.9,0,0,0,.59.14c.18,0,.24-.46.24-1V82.83c0-.07,0-.37,0-.43a6.12,6.12,0,0,0,0-.69c-.07.05-.1.07-.21.29A17.33,17.33,0,0,1,35,84l-.66.72a7.88,7.88,0,0,1-1.07.86c-.33.13-.37.16-.44.16a.15.15,0,0,1-.13-.16c0-.13.45-.46.48-.5s.7-.76.81-.88l.24-.35s.7-1.09.83-1.31a6.27,6.27,0,0,1,.39-.68,9.35,9.35,0,0,0,.51-1.1,4.55,4.55,0,0,0-1.66.47,4.83,4.83,0,0,1-.47.28c-.29,0-1-.8-1-1s0-.06,0-.14.63.13.74.13,1.54-.27,1.66-.29Z"/><path class="cls-5" d="M46.28,82.74,46,84l-.37,1.3a12.52,12.52,0,0,1-.85,1.89s-.48.59-.81.59-.21-.07-.22-.52c0-.22,0-.28-.37-.76a2.72,2.72,0,0,1-.38-.77.09.09,0,0,1,.08-.09,3.73,3.73,0,0,1,.39.31,3.21,3.21,0,0,0,.6.34c.08,0,.33-.12.49-.52s.3-.7.4-1a12.15,12.15,0,0,0,.52-1.84c0-.11.11-.57.13-.66l.16-1c0-.1,0-.21,0-.28,0-.39-.06-.59-.37-.59a3.9,3.9,0,0,0-1.66.45,6.12,6.12,0,0,0-.22.69c-.15.38-.66,1.7-.83,2,0,.08-.31.56-.34.59l-.5.75s-.88.84-1,.94a.82.82,0,0,1-.39.14c-.06,0-.06,0-.06-.1s.41-.45.47-.53a15.41,15.41,0,0,0,2-4s0,0,0-.06a2.37,2.37,0,0,0-.84.22c-.07,0-.36.24-.42.24-.27,0-.81-.44-1-.6,0,0-.09-.06-.09-.12a.21.21,0,0,1,.07-.14.2.2,0,0,1,.13,0c.07,0,.37.07.44.07s1.07-.13,1.28-.2a2.48,2.48,0,0,0,.68-.23,8.51,8.51,0,0,0,.44-2,2.2,2.2,0,0,0-.05-.44c-.06-.15-.18-.4-.18-.44,0-.25.33-.25.36-.25s.22.08.42.37l.23.21s.22.26.25.32a.39.39,0,0,1,0,.2c0,.12,0,.15-.23.48A4.15,4.15,0,0,0,44,80.13a.08.08,0,0,0,.09.08,8.17,8.17,0,0,0,1.11-.3,1.31,1.31,0,0,1,.64-.3c.13,0,.59.51.71.63a1.29,1.29,0,0,1,.33.67c0,.08,0,.11-.17.38a3,3,0,0,0-.16.45Z"/><path class="cls-5" d="M49.65,72.47c.6,0,.72.49.84.9l.07.12a2.53,2.53,0,0,0,1-.26L53.06,73c.3-.07,1.63-.46,1.91-.51A6.56,6.56,0,0,0,56,72.27a19.28,19.28,0,0,0,2.88-3.52c-.08-.16-.1-.16-.35-.32a.73.73,0,0,1-.36-.49,2.75,2.75,0,0,0,1.17-.18,8.18,8.18,0,0,1,.84.69c.29.25.47.39.47.8s-.05.37-.56.56c-.16.07-.77.62-.91.69s-1.14.94-1.33,1.08-.44.27-.51.32a.57.57,0,0,1-.12.11l1.37,0h1.18C60,72,60.84,72,61,72a2,2,0,0,0,.33-.09l0-.19a.35.35,0,0,1,.16-.09,1.76,1.76,0,0,1,1.66.83,7.35,7.35,0,0,1,.67,1,7.32,7.32,0,0,1,.22,1.19c0,.33-.35.83-.56.83s-.73-.32-.85-.32a1.6,1.6,0,0,0-1,.6c-.15,0-.21,0-.59.18a1.75,1.75,0,0,1-.74.16V76a8.08,8.08,0,0,0,1.53-2.67c0-.34-2.61-.46-2.82-.46L57.8,73c-.09,0-.52.14-.61.14s-.72.13-.84.13a10.44,10.44,0,0,0-2.17.44c-.12,0-.75.09-.86.16l-.14.07c-.2,0-.26,0-.38.23,0,0-.3.05-.33.07s-.47.21-.51.21c-.21,0-1.21-.35-1.31-.35a3.7,3.7,0,0,0-.19,1.45s-.41,1.31-.46,1.56c-.19,1.06-.33,1.87-.84,1.87-.33,0-.49-.46-.54-.56s-.31-1.31-.31-1.38a1.85,1.85,0,0,1,.57-1.31,6.14,6.14,0,0,0,.95-2.59.59.59,0,0,0-.18-.51ZM51.37,69a2.7,2.7,0,0,1,1.5.9,8,8,0,0,1,.68,2.36.43.43,0,0,1-.44.44C52.5,72.68,52,71,52,71s-.19-.72-.25-.81-.92-.87-.92-.94,0,0,.07-.14A4.21,4.21,0,0,0,51.37,69ZM51,83l.06-.1h.63c.07,0,.31-.09.36-.09.67,0,.74,0,.86-.16a4.51,4.51,0,0,0,1.54-2.16c0-.14,0-.23-.16-.41a1.39,1.39,0,0,0-.52.23c-.48-.26-.81-.42-1-2.49a1.06,1.06,0,0,0-.51-1,3.34,3.34,0,0,1-.17-.33,1,1,0,0,1-.42-.62l.05,0a.56.56,0,0,1,.4,0,2.12,2.12,0,0,0,.51.28c.05,0,1.61-.39,1.9-.44s1.4-.3,1.65-.32a6.89,6.89,0,0,0,1.5-.28.38.38,0,0,0,.14-.18c.05,0,.16-.09.23-.16h0a5.59,5.59,0,0,1,.89.57c.85.49,1,.58,1,1.32,0,.27-.07.32-.14.36a2,2,0,0,0-.53.33l-.13.34a2.24,2.24,0,0,0-.18.48c0,.09.09.51.09.6a.87.87,0,0,1-.33.69c-.11,0-.53,0-.6,0s-.54.12-.63.12l-.14-.05c-.14,0-1.12.14-1.33.16a1.28,1.28,0,0,0-.49.21v.09a.9.9,0,0,1,.38.69c0,.12-.84.9-1,1.11a2.45,2.45,0,0,1-1,.75l0,.1c.35-.07.91-.23,1.26-.3a20.14,20.14,0,0,1,2.45-.25,1.3,1.3,0,0,0,.49-.12l.07-.21c.57.07.64.07.71.14.37.19,1.45,1.17,1.45,1.77,0,.21-.05.28-.47.76a16.05,16.05,0,0,0-.57,1.89c0,.13.13.69.13.8a.79.79,0,0,1-.87.78s-1.29-.18-1.54-.18a13.26,13.26,0,0,0-1.87.23c-.21,0-1,.14-1.08.14a.66.66,0,0,1-.34-.1c-.19.3-.22.35-.31.35-.4,0-1-.9-1-1.59,0-1.17-.28-3.12-.59-3.29a2.82,2.82,0,0,1-.34-.2,4,4,0,0,0-.54-.16l0-.12Zm3.73,3.81c.17,0,2.57-.25,3-.25a19.43,19.43,0,0,0,.56-3.2c0-.07,0-.09,0-.16a1.38,1.38,0,0,0-.51-.09,21,21,0,0,0-3.64.67,1.13,1.13,0,0,1-.63,0,.63.63,0,0,0,0,.35c.08.29.33,2.36.45,2.8C54.15,87,54.2,87,54.69,86.82Zm.51-10.25a5.42,5.42,0,0,0-.81.18,5.87,5.87,0,0,1-.77.3l0,0A4.69,4.69,0,0,1,54,78.89c.05.23.11.28.19.28s1.54-.46,1.61-.46.46-.07.54-.07a6.06,6.06,0,0,1,.76-.21c.36,0,.42,0,.45-.14a9.62,9.62,0,0,0,.37-2.11,2,2,0,0,0-.28-.1l-.37,0c-.09,0-.49.14-.58.16Zm-1.05-8.86a1.47,1.47,0,0,0,.75.14c.54,0,1,.78,1.22,1a4.71,4.71,0,0,1,.18.81c0,.07,0,.34,0,.39s0,.85,0,1a1.65,1.65,0,0,0-.05.32c0,.23,0,.25-.36.44-.41-.14-.63-.21-.9-1.8a7.05,7.05,0,0,0-.38-1.33c-.44-.55-.49-.62-.53-.9Z"/><path class="cls-5" d="M68.36,73.62c.29,0,1.59-.23,1.92-.29v0c-.44-.16-.72-1.08-.84-1.45a2.41,2.41,0,0,0-.72-.8s-.29-.4-.43-.6l0-.14a3.06,3.06,0,0,1,1.87.48A2.82,2.82,0,0,1,71,72.64a3.15,3.15,0,0,1-.07.59,6,6,0,0,0,1.23-.16,3.23,3.23,0,0,1-.25-1.19,6.83,6.83,0,0,0-.35-2.83,2.28,2.28,0,0,1-.61-.78l.1-.1.62.12c1.13.64,1.33.78,1.33,1.75,0,.25.05,1.42.05,1.65a.34.34,0,0,0,0,.14L72.85,73A1.76,1.76,0,0,0,74,72.84a5.14,5.14,0,0,0,0-.55c0-.28.05-1.1.08-1.36a13.37,13.37,0,0,0,.07-1.88.56.56,0,0,0-.28-.51,1.19,1.19,0,0,1-.55-.76l0-.09a1.69,1.69,0,0,1,.35,0,1.39,1.39,0,0,1,1.07.27c.15.12.68.48.68.85,0,.07-.09.42-.09.48a2.73,2.73,0,0,1-.1.81c0,.14-.07,1.45-.07,1.56l0,0c.42-.39,1.64-1.63,1.64-2.09,0-.14-.34-.62-.34-.74a.13.13,0,0,1,0-.11l.42,0h.49c.07,0,1.15.85,1.15,1.27s-.26.46-.51.55a5.94,5.94,0,0,1-.4.48A9.39,9.39,0,0,1,76,72l-.7,0-.17,0a2.42,2.42,0,0,0-.16.69.44.44,0,0,0,.19,0,19.06,19.06,0,0,0,3.9-.51c.2-.16.27-.2.35-.2.53,0,.67.07,1.86.87a1.19,1.19,0,0,1,.08.46s0,.39-.17.51a1.14,1.14,0,0,1-.46.18,2.71,2.71,0,0,1-1.08-.28c-.07,0-1.28-.2-1.33-.2l-1.38,0a3.54,3.54,0,0,0-1,.19,1.18,1.18,0,0,1,.11.44,1.56,1.56,0,0,1-.18.71c0,.07-.37.39-.42.48l0,.14a.33.33,0,0,0,.21.07l1.13-.16a3.28,3.28,0,0,1,.54-.3c.2,0,1.16.07,1.16.6a.94.94,0,0,1-.91.8l-.84,0a9.19,9.19,0,0,0-2.8.52,1.58,1.58,0,0,1,.47.49.72.72,0,0,0,.09.27,1.14,1.14,0,0,1,0,.37,3.21,3.21,0,0,0,.44,0,.79.79,0,0,1,.47-.07l.32,0v0c.13,0,.63-.3.74-.3a1.93,1.93,0,0,1,1.31.3,2.3,2.3,0,0,1,.07.42c0,.71-1,.82-1.14.82s-1-.09-1.19-.09-1,.14-1.17.16c-.07.6-.12,1.2-.12,1.34s0,.23.24.23.72-.07.84-.07l1.84-.05.93,0c.1,0,.61-.12.71-.12a1.83,1.83,0,0,1,1,.3c.72.32.82.53.82.9s0,.6-.24.73h-.58a9,9,0,0,0-1.36-.45c-.09,0-.68-.14-.79-.17l-1-.09-.49,0-1.47.16v0c.25.16,1.35,1.19,1.65,1.47a14.94,14.94,0,0,0,3,2.34c.14.09.7.6.84.69s.85.67,1,.76,0,.12,0,.14a5.74,5.74,0,0,1-1,.34,12.58,12.58,0,0,1-2.24-.18,5.68,5.68,0,0,1-1.73-2,5.09,5.09,0,0,1-.3-.56l-1-1.49a3.68,3.68,0,0,0-.61-.81l0,0c0,.11,0,.62,0,.74l0,1.93c0,.18,0,.92,0,1.06,0,.85,0,2.2-.47,2.2s-.4-.18-.61-1.17c0-.12-.14-.53-.16-.6a2.31,2.31,0,0,1,0-.55A6.91,6.91,0,0,1,73,85.31c0-.07.14-2.47.12-2.7-.12.21-.49.81-.54.88-.23.32-1.28,1.77-1.53,2.05a8.09,8.09,0,0,1-2.36,2c-.1,0-1.08.25-1.15.25a1.36,1.36,0,0,1-.66-.23l0-.14a5.69,5.69,0,0,0,1.75-1.13,12,12,0,0,0,1.88-1.93l1.21-1.75-.07,0a11.29,11.29,0,0,1-1.82.5,9,9,0,0,1-1.36.44,5.31,5.31,0,0,1-2-1,.31.31,0,0,1-.07-.18l0-.07a2,2,0,0,0,.46.07c.24,0,1.29-.23,1.47-.26s.84,0,1-.09a19.7,19.7,0,0,1,2.5-.53c.12,0,.71-.23.84-.25a1.36,1.36,0,0,0,.49,0,.15.15,0,0,0,0-.11c0-.19,0-.9,0-1.06s0-.25-.13-.25c-.36,0-2.15.48-2.34.48s-1.52-.67-1.47-1.08c.09,0,1.52-.07,1.68-.12.33-.09,1.89-.48,2.1-.57a.65.65,0,0,0,0-.18c0-.12-.06-.4-.06-.46a1,1,0,0,0-.15-.69,1.07,1.07,0,0,0-.34-.07,11.48,11.48,0,0,0-1.26.2c-.54.1-1.1.23-1.29.23a8.22,8.22,0,0,1-1.22-.71c-.06,0-.27-.27-.34-.34v-.16l1.16,0c.24,0,1.36-.09,1.59-.09a.33.33,0,0,0,.23-.07,3.65,3.65,0,0,1-.3-1.18c0-.09-.12-.75-.53-.66l-1.6.39a1.51,1.51,0,0,0-.35.14c-.41.07-.44.07-.58.16a3.69,3.69,0,0,0-.49.32,10.64,10.64,0,0,1-1.19-.51,5,5,0,0,1-.51-.18,1.16,1.16,0,0,1-.36-.58c0-.06,0-.11.12-.16A.54.54,0,0,0,66,74c.09,0,.44-.07.51-.07Zm4.12.49-.71.11v.07c.06.12.35.6.41.71a6.83,6.83,0,0,1,.17,1c.09,0,.25.05.39.05s.59-.14.63-.14l.69-.07a7.81,7.81,0,0,1,.46-1,2.21,2.21,0,0,0,.19-.71c0-.18-.12-.35-.26-.35a3.8,3.8,0,0,0-.51.14Z"/><path class="cls-5" d="M84.89,78.87l.16-.12,0-.25v-.62c0-2,0-2.37-.39-3.08-.1-.21-.78-.92-.85-1.13l0-.07.63-.11a1.08,1.08,0,0,1,1.15.71.67.67,0,0,0,.18.07c.35,0,3.23-.62,3.25-1s.05-.71.4-.71.53.23.76.55a5.64,5.64,0,0,1,.4.53l.09.2c0,.12-.23.58-.27.67s-.17,1.91-.24,2.25c0,.1-.14.58-.14.69s.23.51.23.6-.07.65-.25.67a2.47,2.47,0,0,0-.94.27c-.34.1-2,.44-2.84.63-.1,0-.15.27-.17.43a3,3,0,0,1-.12.74c0,.14,0,.25,0,.34s-.1.44-.1.53a28.6,28.6,0,0,1-1.1,4.83c-.46,1.13-.53,1.33-.89,1.45-.16.28-.2.28-.53.3,0,0-.24.11-.3.11a.13.13,0,0,1-.12-.13,1.27,1.27,0,0,1,.14-.42,5.56,5.56,0,0,0,.4-1A31.76,31.76,0,0,0,85,79.26c0-.09,0-.12-.1-.26Zm-.59-9a5.17,5.17,0,0,0,.91.16,7.19,7.19,0,0,0,2.31-.34,9.91,9.91,0,0,0,1-.44c.28-.21.31-.23.49-.23.35,0,.5.14,1.06.6.13.09.13.18.2.6-.6.62-3.2,1-3.36,1A2.86,2.86,0,0,1,85,70.84c-.3-.37-.65-.78-.75-.9Zm4.56,7.84a6.93,6.93,0,0,0,.42-2.23c0-.16,0-.94,0-1.08A6.9,6.9,0,0,0,88,74.8c-.27.13-1.62.46-1.87.59,0,.28.06,1.57.06,1.82s0,.46,0,.6a2,2,0,0,0,.12.67A20.24,20.24,0,0,0,88.86,77.69Zm7.28-2.92c1-.18,1.08-.2,1.13-.53a.26.26,0,0,1,.18-.09,2.61,2.61,0,0,1,1.17.28c.33.11.56.21.56.67a.75.75,0,0,1-.23.62,4.36,4.36,0,0,1-.61.32L96.87,76s-.84.13-.91.16c.05.18.09.18.16.2a3.27,3.27,0,0,1,.26,1.48c0,.06,0,.34,0,.39v2.27c0,.33,0,1.73,0,2s0,1.12,0,1.19.05.76.05.88-.12,1.26-.24,2.43c-.07.69-.19,1.84-.68,1.84a9.72,9.72,0,0,1-.44-3.47l0-1.95c0-1.82,0-2.56,0-2.81,0-.41.14-2.23.14-2.6,0-.64-.21-1.7-.56-1.7-.06,0-1.41.42-1.62.42a.49.49,0,0,1-.16,0l-.07.09c0,.28,0,.92,0,1.2s-.09.92-.09,1c0,.49-.37,3.89-.54,4.53-.11.35-.11.42-.25,1a2.5,2.5,0,0,1-.35.83s0,.11-.07.16a1.54,1.54,0,0,1-.48.94c-.08.12-.34.67-.42.74a2.07,2.07,0,0,0-.32.23c-.07,0-.38.09-.44.09a.17.17,0,0,1-.17-.16,1.33,1.33,0,0,1,.26-.53,20.19,20.19,0,0,0,1-3.2,33.56,33.56,0,0,0,.74-6.73,5.32,5.32,0,0,0-.3-2.07,3.2,3.2,0,0,1-.52-1c.08-.14.12-.14.17-.14.58,0,1.75.23,1.75,1.29a2.61,2.61,0,0,0,0,.39.8.8,0,0,0,.61-.07,6,6,0,0,1,.89-.27Zm-5.32-1.44a9.61,9.61,0,0,0,1.47-1.55,5.86,5.86,0,0,0,1.45-2.62c0-.2,0-.23-.52-.6a1,1,0,0,1-.35-.78c.1-.09.15-.11.21-.11s.57.23.68.23l.38-.05a3.2,3.2,0,0,1,1.56.81,1.19,1.19,0,0,0,.21.43,1.54,1.54,0,0,1-.35,1,8.67,8.67,0,0,0-1.73,1.86,1.29,1.29,0,0,1-.86.58s-.63.53-.75.62a.82.82,0,0,1-.54.27.8.8,0,0,1-.25.21c-.1,0-.14,0-.43-.07a.61.61,0,0,1-.18-.09Z"/><path class="cls-3" d="M32.21,50.15l3.87,4.08.69-.66-2.22-2.35a3.15,3.15,0,0,0-1-.78v-.15c1.64-1.17,1.86-1.26,2-1.09s.11.27-.13.68L36.58,51l1.87,1.85c.49.47.32.77-.35,1.4-.29.28-.38.3-.71-.05L37,53.77,34.4,56.19l.33.35c.4.43.25.84-.26,1.32-.29.28-.4.32-.72,0l-1.83-2.07L31,54.83A3.69,3.69,0,0,0,30,53.94v-.15c1.49-1,1.76-1.13,1.9-1s.11.27-.08.64L34.21,56l.68-.64L31,51.27,28.78,53.4c0,.08,0,.2-.1.4l6.13,6.47c.33.35.2.84-.4,1.41-.31.29-.41.33-.67.06l-.06-.07L29.9,57.48,27.58,55a3.18,3.18,0,0,0-1-.8v-.15a9.47,9.47,0,0,1,1.92-.82l2.31-2.18-1.73-1.82-1.67,1.59a35.71,35.71,0,0,0-2.59,2.61l-.45-.28c.69-.53,1.69-1.44,2.85-2.53l5.5-5.21c-.16-1.21-.19-1.66-.09-1.75s.29-.15,1.11-.21,1,0,1.09.09.07.18-.1.34l-4.15,3.93c.11.17.09.28-.07.54L32,50l2.44-2.31c0-1,0-1.19.09-1.28s.3-.16,1-.18,1.09,0,1.22.16.12.32-.07.77l1.83,1.94,3.25,3.27c.79.8.34,2-.47,2.72-.21.19-.3.22-.53.05a1.83,1.83,0,0,0-2,0l-.1-.1.33-.3a11,11,0,0,0,.83-.89c.31-.38.31-.56,0-.91l-5-5.25Z"/><path class="cls-3" d="M43.18,38.32c2.11,0,2.47,0,2.53.29s0,.3-.51.52a16.86,16.86,0,0,1-.52,3.29c.59,0,.79,0,.83.19s0,.27-.44.52L47,51.2c.14.58-.31.86-1.06,1-.4.1-.46.08-.57-.42l-1-4.81-.53-2.22a16.67,16.67,0,0,1-1.13,2l-.14-.08a20,20,0,0,0,.71-7.5,2.46,2.46,0,0,0-.06-.46,1.11,1.11,0,0,0-.12-.31Zm5.94.49,1.28-.31-.18-.77a2.25,2.25,0,0,0-.32-.87l.07-.11c1.72-.15,2-.1,2.06,0s0,.23-.3.41l.22.92L52.6,38c.48-1.18.58-1.34.71-1.37s.26,0,1,.38.65.39.68.5,0,.21-.25.26l-2.7.65.29,1c.15.5-.25.77-1.11,1-.31.08-.38.08-.46-.29l-.27-1.31-1.26.31.27,1c.13.5-.19.75-1,1-.31.07-.39.08-.46-.29l-.26-1.3a16.27,16.27,0,0,0-2.14.63l-.25-.47c.58-.08,1.16-.17,2.32-.43l-.19-.78a2.22,2.22,0,0,0-.31-.86l.06-.11c1.59-.13,2-.1,2,0s0,.24-.31.42Zm4.06,1.44c.57-1.29.68-1.38.81-1.41s.27,0,.79.27.78.45.83.62,0,.23-.31.29L48,41.78c0,.09-.1.17-.28.3.24,1,.31,1.36.56,2.64.65,3.44.42,5.42-1.12,7.24l-.08-.09c.6-1.82.54-3.41-.39-7.28l-.36-1.47a4.39,4.39,0,0,0-.59-1.65l.08-.11a6.46,6.46,0,0,1,2.09.16Zm-1,6.89L51,47.42l.63,2.63c.16.64-.2.9-.83,1.05-.35.08-.45,0-.54-.32l0-.09-.88-4.06-.61-2.54a3.42,3.42,0,0,0-.47-1.37l.08-.11a6.07,6.07,0,0,1,1.85.24L53.55,42c.36-.79.51-1,.6-1s.27,0,.89.33.78.49.82.65,0,.24-.37.5L56.08,45l.82,3.09a1.5,1.5,0,0,1-1.16,1.8c-.28.07-.32,0-.45-.27a1.1,1.1,0,0,0-1.12-.81l.1.37c.18.61-.29.84-1,1-.42.1-.52.09-.6-.32ZM50.38,45l1.19-.28-.44-1.83-.89.22a1,1,0,0,1-.26.26Zm1.46.81L51.63,45l-1.19.29.46,1.91,1.16-.28ZM53,44.36l1.23-.29-.44-1.82-.91.21c0,.14-.06.25-.25.36Zm1.29,0-1.23.29.2.82.29,1.09,1.2-.29Zm.52,2.17-1.2.29.49,1.84.15,0a3.13,3.13,0,0,0,.72-.27c.19-.09.24-.18.13-.63Z"/><path class="cls-3" d="M65.71,42.31a.42.42,0,0,0,0-.36,1.55,1.55,0,0,0-.26-.39c-.05,0-.08-.1-.07-.13s.07-.07.15-.09a1.69,1.69,0,0,1,.67,0,2.55,2.55,0,0,1,1,.87,1.77,1.77,0,0,1,.52,1.31.62.62,0,0,1-.45.43,2.3,2.3,0,0,0-.59.31A11.25,11.25,0,0,1,62.8,46a10.49,10.49,0,0,1-3.44.35l-.26,0c-.07,0-.1-.08-.08-.12a.14.14,0,0,1,.1-.1,15,15,0,0,0,3.3-1.21,12.83,12.83,0,0,0,2.85-2A1.54,1.54,0,0,0,65.71,42.31Zm3.59.35s.07-.08.17,0h0A5.61,5.61,0,0,1,72.22,45a3.46,3.46,0,0,1,.44,2.43c-.22.76-.7,1-1.31.86s-.85-.69-.86-2a6.19,6.19,0,0,0-.39-2.21,4.69,4.69,0,0,0-.77-1.32A.15.15,0,0,1,69.3,42.66Zm2.62-1.14a3.2,3.2,0,0,1,1.45.81,1,1,0,0,1,.32,1,.64.64,0,0,1-.75.48c-.2-.05-.35-.19-.44-.54a3.14,3.14,0,0,0-.78-1.56c-.06,0-.08-.1-.07-.14s.07-.08.17,0ZM73.79,41a3,3,0,0,1,1.16.59,1,1,0,0,1,.36,1,.58.58,0,0,1-.68.46c-.18-.06-.31-.16-.44-.56a3,3,0,0,0-.89-1.39.14.14,0,0,1-.07-.15s.06-.06.15,0Z"/><path class="cls-3" d="M78.5,54.58a10.82,10.82,0,0,1-5.12-2.1c-.07-.06-.08-.13,0-.17a.15.15,0,0,1,.16,0,14.84,14.84,0,0,0,5.09,1,13.62,13.62,0,0,0,5.37-1,4.19,4.19,0,0,0,.79-.38c.05,0,0-.11,0-.17l-.16-.11c-.44-.26-1.13-.64-1.57-.84a3.18,3.18,0,0,0-.82-.24,1,1,0,0,1-.62-.24,1.52,1.52,0,0,1-.28-1c0-.52,0-1,.24-1.25a1.15,1.15,0,0,1,.31-.24c.1-.05.16-.06.19,0a.22.22,0,0,1,.07.19,2.4,2.4,0,0,0,.12.51,1.48,1.48,0,0,0,.31.53,4.32,4.32,0,0,0,.67.51c.56.38,1.34.89,1.82,1.19.29.17.28.16.7.14a.6.6,0,0,1,.47.18,3.22,3.22,0,0,1,.5,1.25c.14.67.22,1.26-.07,1.56s-.36.13-.67,0-.45-.08-.93.07a16.78,16.78,0,0,1-2.43.58,5.77,5.77,0,0,1,1.1,2.19,2.27,2.27,0,0,1-.41,2.24,1,1,0,0,1-1.45,0c-.43-.42-.39-.8-.07-1.7a4.89,4.89,0,0,0,.38-2.69A13.31,13.31,0,0,1,78.5,54.58Z"/><path class="cls-3" d="M36.94,108.74a3.34,3.34,0,0,1-3.49.26c-1.73-1.06-1.74-3.55-.27-5.94,2.61-4.26,7.25-4.76,11-2.47,4.83,3,4.09,7.16,2.54,9.7a6.56,6.56,0,0,1-6.09,3.37,9.21,9.21,0,0,1-3.82-1,.93.93,0,0,1-.32-1.36c.39-.63.89-.43,1.52-.14,1.18.52,4.65,2,7-1.91,1.17-1.92,1.69-4.75-1.3-6.8C40.47,106.5,38,108.18,36.94,108.74ZM40,101a6,6,0,0,0-5.22,3c-1,1.55-.83,2.87-.17,3.27s1.54-.07,2.69-1a27.52,27.52,0,0,0,4.85-4.87A6.77,6.77,0,0,0,40,101Z"/><path class="cls-3" d="M59.08,103.93c4.23-.07,4.75,4.55,4.79,7.08.07,4.57-1.76,6.15-4,7a14.17,14.17,0,0,1-4.7.69c-.44,0-1.27,0-1.29-.93,0-.77.64-.9,1-.9a14.5,14.5,0,0,0,2.51-.13c3.49-.53,4.54-2.32,4.48-5.61,0-1.57-.17-5.46-2.84-5.42a4.92,4.92,0,0,0-3.67,2.38A6.93,6.93,0,0,0,54,112.29c0,.29.11,1.52.12,1.77,0,.63-.4.86-.94.87a.79.79,0,0,1-.93-.72,18.77,18.77,0,0,1-.21-2.62,42.89,42.89,0,0,1,.53-7.18.88.88,0,0,1,1-.8c.29,0,1,0,1,.73a8.16,8.16,0,0,1-.19,1.27,16.8,16.8,0,0,0-.32,2.26C54.7,106.42,56,104,59.08,103.93Z"/><path class="cls-3" d="M68.23,102.88a1.92,1.92,0,0,1,.18.31,34.89,34.89,0,0,0,3.16,6.07A31.09,31.09,0,0,0,74.39,113c.15.18.52.59.63.76A.81.81,0,0,1,74.7,115a.88.88,0,0,1-1.21-.15,35.1,35.1,0,0,1-3.55-4.71,37.56,37.56,0,0,1-3.33-6.32c-.1-.3-.29-.84.55-1.24A.72.72,0,0,1,68.23,102.88Zm5.49-3.45a1,1,0,1,1,1.6-1.06l1.14,1.74c.24-.16,1.94-1.38,2-1.39a.83.83,0,0,1,1.3.25.76.76,0,0,1-.13,1.1l-2.13,1.52L79.7,105a12.84,12.84,0,0,1,3.54.16c.67.12,1,.3,1.13.55a1,1,0,0,1-.23,1.4c-.3.19-.38.16-1.49-.11a10.14,10.14,0,0,0-1.88-.22,5.35,5.35,0,0,1,.94,2c.23,1.52-1.25,2.61-1.88,3-2.41,1.56-4.2.83-5.12-.58-1.11-1.73-.39-3.68,1.58-5a5.89,5.89,0,0,1,1.54-.73l-1.92-2.81c-1.24.86-2.58,1.77-3.87,2.6a.82.82,0,0,1-1.31-.22c-.48-.74,0-1.08.52-1.39,1.21-.81,2.6-1.73,3.66-2.47Zm1.74-2a.52.52,0,0,1-.18-.18.5.5,0,0,1,.22-.69c.27-.18.44-.07.86.21a6.84,6.84,0,0,1,1.44,1.06c.24.37-.11.67-.23.75a.48.48,0,0,1-.46,0c-.09-.05-.76-.55-.9-.64S75.55,97.48,75.46,97.39Zm1.71,10.14c-.63.4-1.87,1.47-1,2.75s2,.66,2.73.2c.38-.24,1.13-.85,1-1.62a6,6,0,0,0-1.09-2A4.15,4.15,0,0,0,77.17,107.53ZM76.9,96a.72.72,0,0,1-.18-.17.56.56,0,0,1,.22-.73c.25-.16.46-.05,1,.29a5.54,5.54,0,0,1,1.24,1c.23.34-.11.66-.24.75a.53.53,0,0,1-.47,0c-.07-.06-.68-.49-.81-.6Z"/><path class="cls-6" d="M6.35,8.58,107.2,43.88,87.55,493v11.27H25.84V493L6.35,8.58M0,0,19.84,493.23v17h73.7v-17L113.39,39.69,0,0Z"/><rect class="cls-7" x="2.83" y="493.23" width="107.72" height="45.35"/></svg>