<svg id="レイヤー_1" data-name="レイヤー 1" xmlns="http://www.w3.org/2000/svg" xmlns:xlink="http://www.w3.org/1999/xlink" viewBox="0 0 600 72"><defs><style>.cls-1{fill:none;}.cls-2{clip-path:url(#clip-path);}.cls-3{fill:#80e0a0;}.cls-4{fill:#2e3192;}</style><clipPath id="clip-path"><polygon class="cls-1" points="36 8 0 8 0 72 48 72 36 8"/></clipPath></defs><path d="M68.48,11.78h52.8v49c0,4.14-2.64,5.34-5.82,5.34H105.2l-.9-6.06h9.06c1.56,0,1.86-.84,1.86-2V17.54H74.6v48.6H68.48Zm8,15.78h8.22a51,51,0,0,0-2.52-7.8l6.06-1.2c.54,1.56,1.92,5.76,2.7,9h8.1c1.26-3.48,1.8-5,2.88-8.94l6,1.2c-1.14,3.54-1.56,4.92-2.58,7.74h7.86v5.52H97.82V51.8h6.48V36h5.94V57.32H79.64V36h5.7V51.8H92V33.08H76.52Z"/><path d="M128.76,39.48V35.21H147.4V28.65h4.48v6.56h9.39v4.27h-9.39l0,18c0,4.92-3.8,5-5.84,5-.84,0-3.44-.16-5.52-.28L140,57.76c2.28.24,4,.4,5.32.4,1.64,0,2.12-.4,2.12-1.64l0-12.44a50.17,50.17,0,0,1-17.24,15l-2.76-3.52c7.88-3.84,14.64-10.48,18.84-16Z"/><path d="M167.8,59c9.64-5.76,11.2-13.2,12.2-19.08H169.32V35.64h11.16c.2-2.56.24-4.11.24-7.11l4.68.08c-.08,2.56-.16,3.84-.4,7h14.83v6.6c0,1.12,0,12.32-1.6,16.28-1.48,3.64-5.39,3.64-7.07,3.64a29.4,29.4,0,0,1-6.12-.52l-.2-4.48a33.76,33.76,0,0,0,5.88.6c2.76,0,3.28-.92,3.68-2.36.56-2.2.91-8.52.91-12.28V39.88H184.52c-1,5.6-2.8,15.88-13.72,22.52Z"/><path d="M233,18c-.36-.66-2-3.66-3.72-6.18L235,9.2A58,58,0,0,1,239.92,18h7.26a48.07,48.07,0,0,0,4.38-8.52l6.18,2.22A41.19,41.19,0,0,1,254,18h7.74V32.3h-6V23.48H214.3V32.3h-6.18V18H216c-2-3.06-3.18-4.74-3.78-5.58l5.64-2.76A60.83,60.83,0,0,1,223.18,18Zm20.88,24.42H238.12l-1.38,4h22.08V64.88H211V46.4h19.14a15,15,0,0,0,1.5-4H216.22V27h37.62Zm-1.14,9.24H217.12v7.74H252.7Zm-4.86-19.86H222.28v5.76h25.56Z"/><path d="M319.66,65.18c-6.48-2.16-14-4.86-21.72-11.88V65.9h-6.06V53.36c-3.84,3.36-9,7.44-21.66,11.76l-3.12-5.34c12.42-3.78,17.58-7.38,20.28-9.3H267v-5h24.84V41.9H271.24V37.28h20.64v-3.6H270V28.76h12.18a28.89,28.89,0,0,0-1.62-4.68H267V18.92h9.42c-.42-.9-2.34-5-3.48-7.44l6.24-1.8a48.71,48.71,0,0,1,3.6,9.24h3.66V10.1h5.88v8.82h5.22V10.1h5.88v8.82h3.9a65.26,65.26,0,0,0,3.3-9.24l6.24,1.8a49.58,49.58,0,0,1-3.3,7.44h9.24v5.16H309.22c-.3.78-1.44,4-1.68,4.68h12.9v4.92h-22.5v3.6h21.12V41.9H297.94v3.6h24.9v5H302.5c7.08,5.28,13.26,7.44,20.64,9.24ZM301.18,28.76a24.74,24.74,0,0,0,1.44-4.68H286.9c.3.66,1.38,4,1.68,4.68Z"/><path d="M330.1,23.24h22.14V46H336.1c-.36,10.32-1.44,15.12-4.86,20L326,61.7c1.5-2.52,4.14-7,4.14-17.4Zm24.36-5.52H327.22V11.84h27.24ZM336.1,29.06V40h10.14V29.06Zm46.68-13.8c-4.44,1.86-9.78,3.36-19.92,4.32v8.64H383v6h-6.54V66.08H370.3V34.22h-7.44c.06,5.52-.06,20.76-8,31.62l-5.58-4.32c7.44-8.1,7.44-21.18,7.44-23.58V14.18a58.81,58.81,0,0,0,22.2-4.62Z"/><path d="M415.88,41.5a9.52,9.52,0,0,1,9.79,9.84,9.81,9.81,0,1,1-19.61,0A9.53,9.53,0,0,1,415.88,41.5Zm0,17.62a7.78,7.78,0,1,0-7.59-7.78A7.59,7.59,0,0,0,415.88,59.12Z"/><path d="M430.71,52.26l6-5.6h2.86l-6.46,6,7.25,8.18h-2.81l-6.86-8v8h-2.14V41h2.14Z"/><path d="M443.21,47.46a9,9,0,0,1,4.59-1.18c.62,0,3.21,0,4.75,1.77a5,5,0,0,1,1,3.61v6.48A5.47,5.47,0,0,0,454,60.8h-2.26a3.45,3.45,0,0,1-.38-1.75,6.72,6.72,0,0,1-5.07,2.13c-3.07,0-4.46-1.94-4.46-4.12,0-4.23,4.29-4.73,6.74-5,2-.24,2.71-.31,2.71-1.46,0-1.64-1.75-2.31-3.55-2.31a8.18,8.18,0,0,0-4.37,1.32Zm8.16,5.92a9.2,9.2,0,0,1-3,.58c-2.09.26-4.39.67-4.39,3a2.22,2.22,0,0,0,2.5,2.28,5.79,5.79,0,0,0,4.89-2.92Z"/><path d="M462.32,52.64v2.18h-6.27V52.64Z"/><path d="M473.86,41.5a9.52,9.52,0,0,1,9.79,9.84,9.81,9.81,0,1,1-19.61,0A9.53,9.53,0,0,1,473.86,41.5Zm0,17.62a7.78,7.78,0,1,0-7.58-7.78A7.59,7.59,0,0,0,473.86,59.12Z"/><path d="M488.69,52.26l6-5.6h2.85l-6.45,6,7.24,8.18h-2.8l-6.87-8v8h-2.14V41h2.14Z"/><path d="M501.2,47.46a8.94,8.94,0,0,1,4.58-1.18c.62,0,3.22,0,4.75,1.77a5,5,0,0,1,1,3.61v6.48A5.47,5.47,0,0,0,512,60.8h-2.26a3.56,3.56,0,0,1-.38-1.75,6.71,6.71,0,0,1-5.07,2.13c-3.07,0-4.46-1.94-4.46-4.12,0-4.23,4.3-4.73,6.75-5,2-.24,2.71-.31,2.71-1.46,0-1.64-1.75-2.31-3.55-2.31a8.12,8.12,0,0,0-4.37,1.32Zm8.16,5.92a9.27,9.27,0,0,1-3,.58c-2.09.26-4.4.67-4.4,3a2.22,2.22,0,0,0,2.5,2.28,5.81,5.81,0,0,0,4.9-2.92Z"/><path d="M523.2,41.89h6.94a12.56,12.56,0,0,1,4.87.72c4.75,1.77,5.16,7,5.16,8.73,0,2.5-.67,7-5.11,8.74a13.23,13.23,0,0,1-5.11.72H523.2Zm2.23,16.85h3.94c2.93,0,8.55,0,8.55-7.4S532.25,44,529.49,44h-4.06Z"/><path d="M544.35,54.51c.12,2.59,1.58,4.71,5.06,4.71A7.91,7.91,0,0,0,553.85,58v2.3a10.6,10.6,0,0,1-4.44.91c-5.71,0-7.18-4.27-7.18-7.36,0-4.59,2.84-7.54,6.48-7.54a5.84,5.84,0,0,1,5.6,3.82,12,12,0,0,1,.67,4.41Zm8.44-1.92c-.26-3.43-2.61-4.32-4.17-4.32a4.29,4.29,0,0,0-4.25,4.32Z"/><path d="M560,48.56a5.65,5.65,0,0,1,4.64-2.28c3.6,0,6.31,2.93,6.31,7.46s-2.71,7.44-6.31,7.44A5.63,5.63,0,0,1,560,58.9v8.29h-2.13V46.66H560Zm4.32,10.66c3.44,0,4.49-3,4.49-5.48s-1-5.47-4.49-5.47c-1.77,0-4.41,1.08-4.41,5.47S562.54,59.22,564.31,59.22Z"/><path d="M580,46.28c3.69,0,7,2.76,7,7.46s-3.29,7.44-7,7.44-7-2.76-7-7.44S576.39,46.28,580,46.28Zm0,12.94c2.06,0,4.82-1.35,4.82-5.48s-2.76-5.47-4.8-5.47-4.83,1.32-4.83,5.47S578,59.22,580,59.22Z"/><path d="M590.31,42.61h2.13v4h4.3v2h-4.3v8.06c0,1.32,0,2.5,2.19,2.5a15.44,15.44,0,0,0,1.92-.17v2a15.78,15.78,0,0,1-2.24.16c-3.91,0-4-2.35-4-4.46V48.66h-1.83v-2h1.83Z"/><g class="cls-2"><rect class="cls-3" y="8" width="48" height="10"/><rect class="cls-3" y="23" width="48" height="10"/><rect class="cls-3" y="38" width="48" height="10"/><rect class="cls-4" y="53" width="48" height="19"/></g><rect class="cls-3" width="600" height="3"/></svg>