<svg id="レイヤー_1" data-name="レイヤー 1" xmlns="http://www.w3.org/2000/svg" xmlns:xlink="http://www.w3.org/1999/xlink" viewBox="0 0 600 64"><defs><style>.cls-1{fill:none;}.cls-2{clip-path:url(#clip-path);}.cls-3{fill:#80c0a0;}.cls-4{fill:#2e3192;}</style><clipPath id="clip-path"><polygon class="cls-1" points="30 0 0 0 0 64 40 64 30 0"/></clipPath></defs><path d="M63.48,6.2822h52.7978V55.3008c0,4.14-2.64,5.34-5.82,5.34h-10.26l-.9-6.06h9.06c1.56,0,1.86-.84,1.86-1.98V12.042H69.6V60.6406H63.48ZM71.52,22.0615h8.22a51.0438,51.0438,0,0,0-2.52-7.8l6.06-1.1992c.5395,1.56,1.92,5.76,2.7,8.999h8.1c1.26-3.4795,1.8-5.039,2.88-8.9394l5.9995,1.2c-1.14,3.54-1.56,4.92-2.58,7.7392h7.86V27.582H92.8188V46.3008h6.48V30.4619h5.94V51.82H74.64V30.4619h5.7V46.3008h6.66V27.582H71.52Z"/><path d="M123.7593,33.9844V29.7051h18.6372v-6.56h4.479v6.56h9.3984v4.2793h-9.3984l.04,17.957c0,4.919-3.7993,5.0391-5.8388,5.0391-.84,0-3.4395-.16-5.5191-.28l-.56-4.44c2.28.24,3.999.4,5.3188.4,1.64,0,2.12-.4,2.12-1.64l-.04-12.4385a50.1616,50.1616,0,0,1-17.2373,14.958l-2.76-3.5195c7.8789-3.84,14.6377-10.4785,18.8369-16.0371Z"/><path d="M162.7993,53.4609c9.6387-5.7588,11.1983-13.1982,12.1983-19.0771H164.3193V30.1445h11.1582c.2-2.5595.24-4.1191.24-7.1181l4.6792.0791c-.08,2.56-.16,3.84-.4,7.039H194.834v6.5987c0,1.12,0,12.3183-1.6,16.2773-1.48,3.64-5.399,3.64-7.0786,3.64a29.45,29.45,0,0,1-6.1192-.52l-.2-4.48a33.7211,33.7211,0,0,0,5.8789.6c2.7593,0,3.2793-.92,3.6792-2.3593.56-2.1993.92-8.5186.92-12.2784V34.3838H179.5166c-.96,5.6-2.7993,15.8779-13.7178,22.5166Z"/><path d="M227.959,12.5225c-.36-.66-1.98-3.66-3.72-6.18l5.76-2.6407a58.06,58.06,0,0,1,4.9195,8.82h7.26a48.0549,48.0549,0,0,0,4.38-8.52l6.18,2.22a41.24,41.24,0,0,1-3.72,6.3h7.74V26.8018h-6V17.9824H209.3v8.8194h-6.18V12.5225H210.98c-1.98-3.0606-3.18-4.74-3.78-5.58l5.64-2.76a60.7479,60.7479,0,0,1,5.34,8.34Zm20.8789,24.4189H233.1187l-1.38,3.96h22.0791V59.38H206V40.9014h19.1392a15.0115,15.0115,0,0,0,1.5-3.96H211.22v-15.48h37.6182Zm-1.14,9.2393H212.12v7.74h35.5786Zm-4.86-19.8594H217.2793v5.76h25.5591Z"/><path d="M314.6577,59.6807c-6.4795-2.16-14.0395-4.86-21.7192-11.88V60.4h-6.06V47.86c-3.84,3.36-9,7.44-21.6592,11.76l-3.12-5.34c12.4194-3.7793,17.5791-7.38,20.2788-9.3H262.04v-4.98h24.8389v-3.6H266.24v-4.62h20.6392v-3.6H264.98v-4.92h12.1792a28.9121,28.9121,0,0,0-1.62-4.68h-13.5v-5.16H271.46c-.42-.8994-2.34-4.98-3.48-7.44l6.24-1.8a48.7119,48.7119,0,0,1,3.6,9.2393h3.66V4.6025h5.88v8.8194h5.22V4.6025h5.88v8.8194h3.9a65.3216,65.3216,0,0,0,3.3-9.2393l6.24,1.8a49.5887,49.5887,0,0,1-3.3,7.44h9.24v5.16h-13.62c-.3.78-1.44,4.02-1.68,4.68h12.8994v4.92h-22.499v3.6h21.1191v4.62H292.9385v3.6h24.8994v4.98H297.4985c7.08,5.28,13.2593,7.44,20.6392,9.24Zm-18.479-36.419a24.7579,24.7579,0,0,0,1.44-4.68h-15.72c.3.66,1.38,3.96,1.68,4.68Z"/><path d="M325.1,17.7422h22.1387V40.541H331.1C330.74,50.86,329.66,55.66,326.24,60.58l-5.28-4.38c1.5-2.52,4.14-6.959,4.14-17.3994Zm24.3594-5.52H322.22v-5.88H349.459ZM331.1,23.5615v10.92h10.14v-10.92ZM377.7773,9.7627c-4.4394,1.8594-9.7793,3.3594-19.9189,4.3193v8.64h20.1592v6h-6.5391V60.58h-6.18V28.7217h-7.44c.06,5.52-.06,20.7588-8.04,31.6181l-5.5791-4.3193c7.4394-8.1,7.4394-21.1787,7.4394-23.5791V8.6826a58.808,58.808,0,0,0,22.1992-4.62Z"/><path d="M410.877,36.0029a9.52,9.52,0,0,1,9.7929,9.8409,9.8052,9.8052,0,1,1-19.61,0A9.5254,9.5254,0,0,1,410.877,36.0029Zm0,17.6172a7.7788,7.7788,0,1,0-7.585-7.7763A7.586,7.586,0,0,0,410.877,53.62Z"/><path d="M425.708,46.7559l6.0244-5.5928h2.8565l-6.4561,5.9531,7.2481,8.1846h-2.8086l-6.8643-7.9932v7.9932h-2.1357V35.499h2.1357Z"/><path d="M438.2109,41.9551a9.085,9.085,0,0,1,4.585-1.1758c.624,0,3.2158,0,4.7529,1.7764a4.9807,4.9807,0,0,1,.959,3.6v6.4814a5.4774,5.4774,0,0,0,.5293,2.6641H446.78a3.4882,3.4882,0,0,1-.3838-1.752,6.713,6.713,0,0,1-5.0645,2.1358c-3.0722,0-4.4648-1.9444-4.4648-4.128,0-4.2246,4.2969-4.7285,6.7441-5.0166,2.0166-.24,2.7129-.3125,2.7129-1.4648,0-1.6318-1.7519-2.3037-3.5527-2.3037a8.1562,8.1562,0,0,0-4.3682,1.32Zm8.1612,5.9287a9.3533,9.3533,0,0,1-3,.5762c-2.0889.2636-4.3926.6718-4.3926,3.0244a2.2192,2.2192,0,0,0,2.4961,2.28,5.7871,5.7871,0,0,0,4.8965-2.9287Z"/><path d="M457.3164,47.14v2.1846h-6.2656V47.14Z"/><path d="M468.8594,36.0029a9.52,9.52,0,0,1,9.7929,9.8409,9.8047,9.8047,0,1,1-19.6093,0A9.5252,9.5252,0,0,1,468.8594,36.0029Zm0,17.6172a7.7788,7.7788,0,1,0-7.584-7.7763A7.5854,7.5854,0,0,0,468.8594,53.62Z"/><path d="M483.6914,46.7559l6.0244-5.5928h2.8565l-6.4571,5.9531,7.2491,8.1846h-2.8086l-6.8643-7.9932v7.9932h-2.1367V35.499h2.1367Z"/><path d="M496.1953,41.9551a9.0765,9.0765,0,0,1,4.584-1.1758c.624,0,3.2168,0,4.752,1.7764a4.9775,4.9775,0,0,1,.9609,3.6v6.4814a5.4838,5.4838,0,0,0,.5273,2.6641h-2.2558a3.5075,3.5075,0,0,1-.3848-1.752,6.7113,6.7113,0,0,1-5.0644,2.1358c-3.0723,0-4.4639-1.9444-4.4639-4.128,0-4.2246,4.2959-4.7285,6.7451-5.0166,2.0156-.24,2.7119-.3125,2.7119-1.4648,0-1.6318-1.7519-2.3037-3.5517-2.3037a8.1539,8.1539,0,0,0-4.3692,1.32Zm8.16,5.9287a9.346,9.346,0,0,1-3,.5762c-2.0879.2636-4.3926.6718-4.3926,3.0244a2.2192,2.2192,0,0,0,2.4961,2.28,5.7858,5.7858,0,0,0,4.8965-2.9287Z"/><path d="M518.2031,36.3867h6.9356a12.6388,12.6388,0,0,1,4.873.7207c4.752,1.7754,5.16,6.96,5.16,8.7364,0,2.496-.6719,7.0087-5.1123,8.7363a13.3291,13.3291,0,0,1-5.1123.7207h-6.7442Zm2.2315,16.85h3.9365c2.9277,0,8.5449,0,8.5449-7.3925s-5.664-7.3926-8.4248-7.3926h-4.0566Z"/><path d="M539.3467,49.0117c.12,2.5928,1.584,4.7051,5.0644,4.7051a7.9466,7.9466,0,0,0,4.44-1.248v2.3037a10.6227,10.6227,0,0,1-4.44.9121c-5.7119,0-7.1767-4.2725-7.1767-7.3682,0-4.585,2.832-7.5371,6.48-7.5371a5.8339,5.8339,0,0,1,5.5928,3.8164,12.1055,12.1055,0,0,1,.6719,4.416Zm8.4482-1.92c-.2636-3.4326-2.6152-4.32-4.1758-4.32a4.2851,4.2851,0,0,0-4.248,4.32Z"/><path d="M554.9941,43.06a5.6213,5.6213,0,0,1,4.6329-2.28c3.6,0,6.3125,2.9287,6.3125,7.4648,0,4.5118-2.7129,7.4405-6.3125,7.4405a5.624,5.624,0,0,1-4.6329-2.28v8.2812h-2.1357V41.1631h2.1357Zm4.32,10.6572c3.4326,0,4.4882-3.0488,4.4882-5.4727s-1.0556-5.4726-4.4882-5.4726c-1.7754,0-4.4161,1.08-4.4161,5.4726C554.8984,52.6123,557.5391,53.7168,559.3145,53.7168Z"/><path d="M575.0352,40.7793c3.6953,0,6.9843,2.76,6.9843,7.4648,0,4.6563-3.289,7.4405-6.9609,7.4405-3.6963,0-6.9844-2.76-6.9844-7.44C568.0742,43.5156,571.3867,40.7793,575.0352,40.7793Zm0,12.9375c2.0634,0,4.8242-1.3447,4.8242-5.4727s-2.7608-5.4726-4.8008-5.4726-4.8242,1.32-4.8242,5.4726C570.2344,52.3721,573.0186,53.7168,575.0352,53.7168Z"/><path d="M585.3066,37.1074h2.1358v4.0557h4.2959v1.9922h-4.2959V51.22c0,1.32,0,2.4971,2.1846,2.4971a14.5031,14.5031,0,0,0,1.92-.168v1.9678a15.08,15.08,0,0,1-2.2324.168c-3.9122,0-4.0079-2.3526-4.0079-4.4649V43.1553h-1.8242V41.1631h1.8242Z"/><g class="cls-2"><rect class="cls-3" width="40" height="13"/><rect class="cls-3" y="17" width="40" height="13"/><rect class="cls-3" y="34" width="40" height="13"/><rect class="cls-4" y="51" width="40" height="13"/></g></svg>